<?xml version='1.0' encoding='utf-8'?>
<mlt LC_NUMERIC="C" producer="main_bin" version="7.15.0" root="/home/archer/Videos">
 <profile frame_rate_num="60" sample_aspect_num="1" display_aspect_den="9" colorspace="709" progressive="1" description="HD 1080p 60 fps" display_aspect_num="16" frame_rate_den="1" width="1920" height="1080" sample_aspect_den="1"/>
 <producer id="producer1" in="00:00:00.000" out="00:02:08.000">
  <property name="length">7681</property>
  <property name="eof">pause</property>
  <property name="resource">/home/archer/.var/app/org.kde.kdenlive/cache/kdenlive/proxy/8b3702e2c5766a6afad0e7cfcb7f8de6.png</property>
  <property name="ttl">25</property>
  <property name="aspect_ratio">1</property>
  <property name="progressive">1</property>
  <property name="seekable">1</property>
  <property name="format">1</property>
  <property name="meta.media.width">800</property>
  <property name="meta.media.height">450</property>
  <property name="mlt_service">qimage</property>
  <property name="kdenlive:clipname">black.jpg</property>
  <property name="kdenlive:duration">00:00:05.000</property>
  <property name="kdenlive:folderid">3</property>
  <property name="kdenlive:clip_type">2</property>
  <property name="kdenlive:id">2</property>
  <property name="kdenlive:file_size">33317</property>
  <property name="kdenlive:file_hash">8b3702e2c5766a6afad0e7cfcb7f8de6</property>
  <property name="kdenlive:proxy">/home/archer/.var/app/org.kde.kdenlive/cache/kdenlive/proxy/8b3702e2c5766a6afad0e7cfcb7f8de6.png</property>
  <property name="kdenlive:originalurl">/home/archer/Downloads/videosource/shujav2/black.jpg</property>
  <property name="kdenlive:original.mlt_type">producer</property>
  <property name="kdenlive:original.in">0</property>
  <property name="kdenlive:original.out">299</property>
  <property name="kdenlive:original.length">00:00:05.000</property>
  <property name="kdenlive:original.eof">pause</property>
  <property name="kdenlive:original.resource">/home/archer/Downloads/videosource/shujav2/black.jpg</property>
  <property name="kdenlive:original.ttl">25</property>
  <property name="kdenlive:original.aspect_ratio">1</property>
  <property name="kdenlive:original.progressive">1</property>
  <property name="kdenlive:original.seekable">1</property>
  <property name="kdenlive:original.format">1</property>
  <property name="kdenlive:original.meta.media.width">1920</property>
  <property name="kdenlive:original.meta.media.height">1080</property>
  <property name="kdenlive:original.mlt_service">qimage</property>
  <property name="kdenlive:original.kdenlive:duration">00:00:05.000</property>
  <property name="kdenlive:original.kdenlive:folderid">3</property>
  <property name="kdenlive:original.kdenlive:clip_type">2</property>
  <property name="kdenlive:original.kdenlive:id">4</property>
  <property name="kdenlive:original.kdenlive:file_size">33317</property>
  <property name="kdenlive:original.kdenlive:file_hash">8b3702e2c5766a6afad0e7cfcb7f8de6</property>
  <property name="kdenlive:original.backup">1</property>
 </producer>
 <producer id="producer0" in="00:00:00.000" out="00:00:11.550">
  <property name="length">694</property>
  <property name="eof">pause</property>
  <property name="resource">/home/archer/.var/app/org.kde.kdenlive/cache/kdenlive/proxy/00e1364baf0bb0ebca93a118ab9e83b0.png</property>
  <property name="ttl">25</property>
  <property name="aspect_ratio">1</property>
  <property name="progressive">1</property>
  <property name="seekable">1</property>
  <property name="format">1</property>
  <property name="meta.media.width">800</property>
  <property name="meta.media.height">600</property>
  <property name="mlt_service">qimage</property>
  <property name="kdenlive:clipname">goofyahhshuja.jpg</property>
  <property name="kdenlive:duration">00:00:05.000</property>
  <property name="kdenlive:folderid">3</property>
  <property name="kdenlive:clip_type">2</property>
  <property name="kdenlive:id">4</property>
  <property name="kdenlive:file_size">126088</property>
  <property name="kdenlive:file_hash">00e1364baf0bb0ebca93a118ab9e83b0</property>
  <property name="kdenlive:proxy">/home/archer/.var/app/org.kde.kdenlive/cache/kdenlive/proxy/00e1364baf0bb0ebca93a118ab9e83b0.png</property>
  <property name="kdenlive:originalurl">/home/archer/Downloads/videosource/shujav2/goofyahhshuja.jpg</property>
  <property name="kdenlive:original.mlt_type">producer</property>
  <property name="kdenlive:original.in">0</property>
  <property name="kdenlive:original.out">299</property>
  <property name="kdenlive:original.length">00:00:05.000</property>
  <property name="kdenlive:original.eof">pause</property>
  <property name="kdenlive:original.resource">/home/archer/Downloads/videosource/shujav2/goofyahhshuja.jpg</property>
  <property name="kdenlive:original.ttl">25</property>
  <property name="kdenlive:original.aspect_ratio">1</property>
  <property name="kdenlive:original.progressive">1</property>
  <property name="kdenlive:original.seekable">1</property>
  <property name="kdenlive:original.format">1</property>
  <property name="kdenlive:original.meta.media.width">2032</property>
  <property name="kdenlive:original.meta.media.height">1524</property>
  <property name="kdenlive:original.mlt_service">qimage</property>
  <property name="kdenlive:original.kdenlive:duration">00:00:05.000</property>
  <property name="kdenlive:original.kdenlive:folderid">3</property>
  <property name="kdenlive:original.kdenlive:clip_type">2</property>
  <property name="kdenlive:original.kdenlive:id">5</property>
  <property name="kdenlive:original.kdenlive:file_size">126088</property>
  <property name="kdenlive:original.kdenlive:file_hash">00e1364baf0bb0ebca93a118ab9e83b0</property>
  <property name="kdenlive:original.backup">1</property>
 </producer>
 <producer id="producer2" in="00:00:00.000" out="00:01:51.850">
  <property name="length">6712</property>
  <property name="eof">pause</property>
  <property name="resource">0x181818ff</property>
  <property name="aspect_ratio">1</property>
  <property name="mlt_service">color</property>
  <property name="kdenlive:clipname">blakc</property>
  <property name="kdenlive:duration">00:00:05.000</property>
  <property name="kdenlive:folderid">3</property>
  <property name="kdenlive:clip_type">2</property>
  <property name="kdenlive:id">5</property>
  <property name="mlt_image_format">rgb</property>
  <property name="kdenlive:file_hash">5c2057809ec97764380d0533d545e27e</property>
 </producer>
 <producer id="producer7" in="00:00:00.000" out="00:00:04.983">
  <property name="length">300</property>
  <property name="eof">pause</property>
  <property name="resource"/>
  <property name="progressive">1</property>
  <property name="aspect_ratio">1</property>
  <property name="seekable">1</property>
  <property name="mlt_service">kdenlivetitle</property>
  <property name="kdenlive:duration">300</property>
  <property name="kdenlive:clipname">Syed Muhamma...</property>
  <property name="xmldata">&lt;kdenlivetitle duration="300" LC_NUMERIC="C" width="1920" height="1080" out="299">
 &lt;item type="QGraphicsTextItem" z-index="0">
  &lt;position x="356" y="489">
   &lt;transform>1,0,0,0,1,0,0,0,1&lt;/transform>
  &lt;/position>
  &lt;content line-spacing="0" shadow="1;#ff000000;11;3;3" font-underline="0" box-height="99" font-outline-color="0,0,0,255" font="Ubuntu Light" letter-spacing="0" font-pixel-size="86" font-italic="0" typewriter="1;1;1;0;0" alignment="1" font-weight="50" font-outline="1" box-width="1202.19" font-color="255,255,255,255">Syed Muhammad Shuja Haider&lt;/content>
 &lt;/item>
 &lt;startviewport rect="0,0,1920,1080"/>
 &lt;endviewport rect="0,0,1920,1080"/>
 &lt;background color="0,0,0,0"/>
&lt;/kdenlivetitle>
</property>
  <property name="kdenlive:folderid">15</property>
  <property name="kdenlive:clip_type">2</property>
  <property name="kdenlive:id">6</property>
  <property name="kdenlive:file_hash">2e6011e492effdb5a26ec6766d3e26a8</property>
  <property name="force_reload">0</property>
  <property name="meta.media.width">1920</property>
  <property name="meta.media.height">1080</property>
 </producer>
 <producer id="producer8" in="00:00:00.000" out="00:00:06.733">
  <property name="length">405</property>
  <property name="eof">pause</property>
  <property name="resource"/>
  <property name="progressive">1</property>
  <property name="aspect_ratio">1</property>
  <property name="seekable">1</property>
  <property name="mlt_service">kdenlivetitle</property>
  <property name="kdenlive:duration">300</property>
  <property name="kdenlive:clipname">syedfullnotype</property>
  <property name="xmldata">&lt;kdenlivetitle duration="300" LC_NUMERIC="C" width="1920" height="1080" out="299">
 &lt;item type="QGraphicsTextItem" z-index="0">
  &lt;position x="356" y="489">
   &lt;transform>1,0,0,0,1,0,0,0,1&lt;/transform>
  &lt;/position>
  &lt;content line-spacing="0" shadow="1;#ff000000;11;3;3" font-underline="0" box-height="99" font-outline-color="0,0,0,255" font="Ubuntu Light" letter-spacing="0" font-pixel-size="86" font-italic="0" typewriter="0;1;1;0;0" alignment="1" font-weight="50" font-outline="1" box-width="1202.19" font-color="255,255,255,255">Syed Muhammad Shuja Haider&lt;/content>
 &lt;/item>
 &lt;startviewport rect="0,0,1920,1080"/>
 &lt;endviewport rect="0,0,1920,1080"/>
 &lt;background color="0,0,0,0"/>
&lt;/kdenlivetitle>
</property>
  <property name="kdenlive:folderid">15</property>
  <property name="kdenlive:clip_type">2</property>
  <property name="kdenlive:id">7</property>
  <property name="kdenlive:file_hash">f513424eb8301ee1f2d217445fcfe871</property>
  <property name="force_reload">0</property>
  <property name="meta.media.width">1920</property>
  <property name="meta.media.height">1080</property>
 </producer>
 <producer id="producer10" in="00:00:00.000" out="00:00:04.983">
  <property name="length">300</property>
  <property name="eof">pause</property>
  <property name="resource"/>
  <property name="progressive">1</property>
  <property name="aspect_ratio">1</property>
  <property name="seekable">1</property>
  <property name="mlt_service">kdenlivetitle</property>
  <property name="kdenlive:duration">300</property>
  <property name="kdenlive:clipname">yourhit</property>
  <property name="xmldata">&lt;kdenlivetitle duration="300" LC_NUMERIC="C" width="1920" height="1080" out="299">
 &lt;item type="QGraphicsTextItem" z-index="0">
  &lt;position x="803" y="489">
   &lt;transform>1,0,0,0,1,0,0,0,1&lt;/transform>
  &lt;/position>
  &lt;content line-spacing="0" shadow="1;#ff000000;11;3;3" font-underline="0" box-height="99" font-outline-color="0,0,0,255" font="Ubuntu Light" letter-spacing="0" font-pixel-size="86" font-italic="0" typewriter="1;1;1;0;0" alignment="1" font-weight="50" font-outline="1" box-width="310.047" font-color="255,255,255,255">YourHit&lt;/content>
 &lt;/item>
 &lt;startviewport rect="0,0,1920,1080"/>
 &lt;endviewport rect="0,0,1920,1080"/>
 &lt;background color="0,0,0,0"/>
&lt;/kdenlivetitle>
</property>
  <property name="kdenlive:folderid">15</property>
  <property name="kdenlive:clip_type">2</property>
  <property name="kdenlive:id">9</property>
  <property name="kdenlive:file_hash">f513424eb8301ee1f2d217445fcfe871</property>
  <property name="force_reload">0</property>
  <property name="meta.media.width">1920</property>
  <property name="meta.media.height">1080</property>
 </producer>
 <producer id="producer9" in="00:00:00.000" out="00:00:08.333">
  <property name="length">501</property>
  <property name="eof">pause</property>
  <property name="resource"/>
  <property name="progressive">1</property>
  <property name="aspect_ratio">1</property>
  <property name="seekable">1</property>
  <property name="mlt_service">kdenlivetitle</property>
  <property name="kdenlive:duration">300</property>
  <property name="kdenlive:clipname">yourhinotype</property>
  <property name="xmldata">&lt;kdenlivetitle duration="300" LC_NUMERIC="C" width="1920" height="1080" out="299">
 &lt;item type="QGraphicsTextItem" z-index="0">
  &lt;position x="803" y="489">
   &lt;transform>1,0,0,0,1,0,0,0,1&lt;/transform>
  &lt;/position>
  &lt;content line-spacing="0" shadow="1;#ff000000;11;3;3" font-underline="0" box-height="99" font-outline-color="0,0,0,255" font="Ubuntu Light" letter-spacing="0" font-pixel-size="86" font-italic="0" typewriter="0;1;1;0;0" alignment="1" font-weight="50" font-outline="1" box-width="307.047" font-color="255,255,255,255">YourHit&lt;/content>
 &lt;/item>
 &lt;startviewport rect="0,0,1920,1080"/>
 &lt;endviewport rect="0,0,1920,1080"/>
 &lt;background color="0,0,0,0"/>
&lt;/kdenlivetitle>
</property>
  <property name="kdenlive:folderid">15</property>
  <property name="kdenlive:clip_type">2</property>
  <property name="kdenlive:id">10</property>
  <property name="kdenlive:file_hash">bb65ed26ecd1177ca02e0448b98b004b</property>
  <property name="force_reload">0</property>
  <property name="meta.media.width">1920</property>
  <property name="meta.media.height">1080</property>
 </producer>
 <producer id="producer3" in="00:00:00.000" out="00:00:04.983">
  <property name="length">300</property>
  <property name="eof">pause</property>
  <property name="resource"/>
  <property name="progressive">1</property>
  <property name="aspect_ratio">1</property>
  <property name="seekable">1</property>
  <property name="mlt_service">kdenlivetitle</property>
  <property name="kdenlive:duration">300</property>
  <property name="kdenlive:clipname">Shuja</property>
  <property name="xmldata">&lt;kdenlivetitle duration="300" LC_NUMERIC="C" width="1920" height="1080" out="299">
 &lt;item type="QGraphicsTextItem" z-index="0">
  &lt;position x="849" y="489">
   &lt;transform>1,0,0,0,1,0,0,0,1&lt;/transform>
  &lt;/position>
  &lt;content line-spacing="0" shadow="1;#ff000000;11;3;3" font-underline="0" box-height="99" font-outline-color="0,0,0,255" font="Ubuntu Light" letter-spacing="0" font-pixel-size="86" font-italic="0" typewriter="1;1;1;0;0" alignment="1" font-weight="50" font-outline="1" box-width="219.172" font-color="255,255,255,255">Shuja&lt;/content>
 &lt;/item>
 &lt;startviewport rect="0,0,1920,1080"/>
 &lt;endviewport rect="0,0,1920,1080"/>
 &lt;background color="0,0,0,0"/>
&lt;/kdenlivetitle>
</property>
  <property name="kdenlive:folderid">15</property>
  <property name="kdenlive:clip_type">2</property>
  <property name="kdenlive:id">11</property>
  <property name="kdenlive:file_hash">bb65ed26ecd1177ca02e0448b98b004b</property>
  <property name="force_reload">0</property>
  <property name="meta.media.width">1920</property>
  <property name="meta.media.height">1080</property>
 </producer>
 <producer id="producer6" in="00:00:00.000" out="00:00:04.983">
  <property name="length">300</property>
  <property name="eof">pause</property>
  <property name="resource"/>
  <property name="progressive">1</property>
  <property name="aspect_ratio">1</property>
  <property name="seekable">1</property>
  <property name="mlt_service">kdenlivetitle</property>
  <property name="kdenlive:duration">300</property>
  <property name="kdenlive:clipname">shujnotyp</property>
  <property name="xmldata">&lt;kdenlivetitle duration="300" LC_NUMERIC="C" width="1920" height="1080" out="299">
 &lt;item type="QGraphicsTextItem" z-index="0">
  &lt;position x="849" y="489">
   &lt;transform>1,0,0,0,1,0,0,0,1&lt;/transform>
  &lt;/position>
  &lt;content line-spacing="0" shadow="1;#ff000000;11;3;3" font-underline="0" box-height="99" font-outline-color="0,0,0,255" font="Ubuntu Light" letter-spacing="0" font-pixel-size="86" font-italic="0" typewriter="0;1;1;0;0" alignment="1" font-weight="50" font-outline="1" box-width="216.172" font-color="255,255,255,255">Shuja&lt;/content>
 &lt;/item>
 &lt;startviewport rect="0,0,1920,1080"/>
 &lt;endviewport rect="0,0,1920,1080"/>
 &lt;background color="0,0,0,0"/>
&lt;/kdenlivetitle>
</property>
  <property name="kdenlive:folderid">15</property>
  <property name="kdenlive:clip_type">2</property>
  <property name="kdenlive:id">12</property>
  <property name="kdenlive:file_hash">4816f7b5dbf9d9bb9f450886029e470a</property>
  <property name="force_reload">0</property>
  <property name="meta.media.width">1920</property>
  <property name="meta.media.height">1080</property>
 </producer>
 <producer id="producer4" in="00:00:00.000" out="00:00:04.983">
  <property name="length">300</property>
  <property name="eof">pause</property>
  <property name="resource"/>
  <property name="progressive">1</property>
  <property name="aspect_ratio">1</property>
  <property name="seekable">1</property>
  <property name="mlt_service">kdenlivetitle</property>
  <property name="kdenlive:duration">300</property>
  <property name="kdenlive:clipname">Shujahaiderd</property>
  <property name="xmldata">&lt;kdenlivetitle duration="300" LC_NUMERIC="C" width="1920" height="1080" out="299">
 &lt;item type="QGraphicsTextItem" z-index="0">
  &lt;position x="625" y="489">
   &lt;transform>1,0,0,0,1,0,0,0,1&lt;/transform>
  &lt;/position>
  &lt;content line-spacing="0" shadow="1;#ff000000;11;3;3" font-underline="0" box-height="99" font-outline-color="0,0,0,255" font="Ubuntu Light" letter-spacing="0" font-pixel-size="86" font-italic="0" typewriter="1;1;1;0;0" alignment="1" font-weight="50" font-outline="1" box-width="669.484" font-color="255,255,255,255">Shuja-HaiderDev&lt;/content>
 &lt;/item>
 &lt;startviewport rect="0,0,1920,1080"/>
 &lt;endviewport rect="0,0,1920,1080"/>
 &lt;background color="0,0,0,0"/>
&lt;/kdenlivetitle>
</property>
  <property name="kdenlive:folderid">15</property>
  <property name="kdenlive:clip_type">2</property>
  <property name="kdenlive:id">13</property>
  <property name="kdenlive:file_hash">4816f7b5dbf9d9bb9f450886029e470a</property>
  <property name="force_reload">0</property>
  <property name="meta.media.width">1920</property>
  <property name="meta.media.height">1080</property>
 </producer>
 <producer id="producer5" in="00:00:00.000" out="00:00:04.983">
  <property name="length">300</property>
  <property name="eof">pause</property>
  <property name="resource"/>
  <property name="progressive">1</property>
  <property name="aspect_ratio">1</property>
  <property name="seekable">1</property>
  <property name="mlt_service">kdenlivetitle</property>
  <property name="kdenlive:duration">300</property>
  <property name="kdenlive:clipname">Shujahaidnotyp</property>
  <property name="xmldata">&lt;kdenlivetitle duration="300" LC_NUMERIC="C" width="1920" height="1080" out="299">
 &lt;item type="QGraphicsTextItem" z-index="0">
  &lt;position x="625" y="489">
   &lt;transform>1,0,0,0,1,0,0,0,1&lt;/transform>
  &lt;/position>
  &lt;content line-spacing="0" shadow="1;#ff000000;11;3;3" font-underline="0" box-height="99" font-outline-color="0,0,0,255" font="Ubuntu Light" letter-spacing="0" font-pixel-size="86" font-italic="0" typewriter="0;1;1;0;0" alignment="1" font-weight="50" font-outline="1" box-width="669.484" font-color="255,255,255,255">Shuja-HaiderDev&lt;/content>
 &lt;/item>
 &lt;startviewport rect="0,0,1920,1080"/>
 &lt;endviewport rect="0,0,1920,1080"/>
 &lt;background color="0,0,0,0"/>
&lt;/kdenlivetitle>
</property>
  <property name="kdenlive:folderid">15</property>
  <property name="kdenlive:clip_type">2</property>
  <property name="kdenlive:id">14</property>
  <property name="kdenlive:file_hash">a00d4cf65b9367614a49e9cccbdf7387</property>
  <property name="force_reload">0</property>
  <property name="meta.media.width">1920</property>
  <property name="meta.media.height">1080</property>
 </producer>
 <producer id="producer11" in="00:00:00.000" out="00:01:57.150">
  <property name="length">7030</property>
  <property name="eof">pause</property>
  <property name="resource">/home/archer/Downloads/videosource/shujav2/shujavoicecandelasleepy.mp3</property>
  <property name="meta.media.nb_streams">1</property>
  <property name="meta.media.0.stream.type">audio</property>
  <property name="meta.media.0.codec.sample_fmt">fltp</property>
  <property name="meta.media.0.codec.sample_rate">48000</property>
  <property name="meta.media.0.codec.channels">2</property>
  <property name="meta.media.0.codec.name">mp3float</property>
  <property name="meta.media.0.codec.long_name">MP3 (MPEG audio layer 3)</property>
  <property name="meta.media.0.codec.bit_rate">320000</property>
  <property name="meta.attr.0.stream.encoder.markup">LAME3.100</property>
  <property name="seekable">1</property>
  <property name="audio_index">0</property>
  <property name="video_index">-1</property>
  <property name="mute_on_pause">1</property>
  <property name="mlt_service">avformat</property>
  <property name="kdenlive:clipname"/>
  <property name="kdenlive:clip_type">1</property>
  <property name="kdenlive:folderid">-1</property>
  <property name="kdenlive:id">16</property>
  <property name="kdenlive:file_size">4687680</property>
  <property name="kdenlive:file_hash">72945ec52bacc3a664414e0245036fd5</property>
  <property name="kdenlive:audio_max0">161</property>
 </producer>
 <producer id="producer20" in="00:00:00.000" out="00:01:22.767">
  <property name="length">4967</property>
  <property name="eof">pause</property>
  <property name="resource">/home/archer/.var/app/org.kde.kdenlive/cache/kdenlive/proxy/c08ecfa0832f7bb58e3907eef478862d.mov</property>
  <property name="audio_index">1</property>
  <property name="video_index">0</property>
  <property name="mute_on_pause">0</property>
  <property name="mlt_service">avformat-novalidate</property>
  <property name="meta.media.nb_streams">2</property>
  <property name="meta.media.0.stream.type">video</property>
  <property name="meta.media.0.stream.frame_rate">25</property>
  <property name="meta.media.0.stream.sample_aspect_ratio">1</property>
  <property name="meta.media.0.codec.width">640</property>
  <property name="meta.media.0.codec.height">640</property>
  <property name="meta.media.0.codec.rotate">0</property>
  <property name="meta.media.0.codec.pix_fmt">yuv420p</property>
  <property name="meta.media.0.codec.sample_aspect_ratio">1</property>
  <property name="meta.media.0.codec.colorspace">601</property>
  <property name="meta.media.0.codec.name">h264</property>
  <property name="meta.media.0.codec.long_name">H.264 / AVC / MPEG-4 AVC / MPEG-4 part 10</property>
  <property name="meta.media.0.codec.bit_rate">3037610</property>
  <property name="meta.attr.0.stream.handler_name.markup">ISO Media file produced by Google Inc. Created on: 03/05/2020.</property>
  <property name="meta.attr.0.stream.vendor_id.markup">FFMP</property>
  <property name="meta.attr.0.stream.encoder.markup">Lavc58.134.100 h264_vaapi</property>
  <property name="meta.media.1.stream.type">audio</property>
  <property name="meta.media.1.codec.sample_fmt">fltp</property>
  <property name="meta.media.1.codec.sample_rate">44100</property>
  <property name="meta.media.1.codec.channels">2</property>
  <property name="meta.media.1.codec.name">ac3</property>
  <property name="meta.media.1.codec.long_name">ATSC A/52A (AC-3)</property>
  <property name="meta.media.1.codec.bit_rate">128000</property>
  <property name="meta.attr.1.stream.handler_name.markup">ISO Media file produced by Google Inc. Created on: 03/05/2020.</property>
  <property name="meta.attr.1.stream.vendor_id.markup">[0][0][0][0]</property>
  <property name="meta.attr.major_brand.markup">qt  </property>
  <property name="meta.attr.minor_version.markup">512</property>
  <property name="meta.attr.compatible_brands.markup">qt  </property>
  <property name="meta.attr.encoder.markup">Lavf58.76.100</property>
  <property name="seekable">1</property>
  <property name="meta.media.sample_aspect_num">1</property>
  <property name="meta.media.sample_aspect_den">1</property>
  <property name="aspect_ratio">1</property>
  <property name="format">3</property>
  <property name="kdenlive:clipname">hazardousenv.mp4</property>
  <property name="kdenlive:clip_type">0</property>
  <property name="kdenlive:folderid">3</property>
  <property name="kdenlive:id">17</property>
  <property name="kdenlive:file_size">2113855</property>
  <property name="kdenlive:file_hash">c08ecfa0832f7bb58e3907eef478862d</property>
  <property name="kdenlive:audio_max1">231</property>
  <property name="kdenlive:proxy">/home/archer/.var/app/org.kde.kdenlive/cache/kdenlive/proxy/c08ecfa0832f7bb58e3907eef478862d.mov</property>
  <property name="kdenlive:originalurl">/home/archer/Downloads/videosource/shujav2/hazardousenv.mp4</property>
  <property name="kdenlive:original.mlt_type">mlt_producer</property>
  <property name="kdenlive:original.in">00:00:00.000</property>
  <property name="kdenlive:original.out">00:01:22.767</property>
  <property name="kdenlive:original.length">4967</property>
  <property name="kdenlive:original.eof">pause</property>
  <property name="kdenlive:original.resource">/home/archer/Downloads/videosource/shujav2/hazardousenv.mp4</property>
  <property name="kdenlive:original.meta.media.nb_streams">2</property>
  <property name="kdenlive:original.meta.media.0.stream.type">video</property>
  <property name="kdenlive:original.meta.media.0.stream.frame_rate">25</property>
  <property name="kdenlive:original.meta.media.0.stream.sample_aspect_ratio">0</property>
  <property name="kdenlive:original.meta.media.0.codec.width">720</property>
  <property name="kdenlive:original.meta.media.0.codec.height">720</property>
  <property name="kdenlive:original.meta.media.0.codec.rotate">0</property>
  <property name="kdenlive:original.meta.media.0.codec.pix_fmt">yuv420p</property>
  <property name="kdenlive:original.meta.media.0.codec.sample_aspect_ratio">1</property>
  <property name="kdenlive:original.meta.media.0.codec.colorspace">601</property>
  <property name="kdenlive:original.meta.media.0.codec.name">h264</property>
  <property name="kdenlive:original.meta.media.0.codec.long_name">H.264 / AVC / MPEG-4 AVC / MPEG-4 part 10</property>
  <property name="kdenlive:original.meta.media.0.codec.bit_rate">72958</property>
  <property name="kdenlive:original.meta.attr.0.stream.creation_time.markup">2020-03-05T16:26:10.000000Z</property>
  <property name="kdenlive:original.meta.attr.0.stream.handler_name.markup">ISO Media file produced by Google Inc. Created on: 03/05/2020.</property>
  <property name="kdenlive:original.meta.attr.0.stream.vendor_id.markup">[0][0][0][0]</property>
  <property name="kdenlive:original.meta.media.1.stream.type">audio</property>
  <property name="kdenlive:original.meta.media.1.codec.sample_fmt">fltp</property>
  <property name="kdenlive:original.meta.media.1.codec.sample_rate">44100</property>
  <property name="kdenlive:original.meta.media.1.codec.channels">2</property>
  <property name="kdenlive:original.meta.media.1.codec.name">aac</property>
  <property name="kdenlive:original.meta.media.1.codec.long_name">AAC (Advanced Audio Coding)</property>
  <property name="kdenlive:original.meta.media.1.codec.bit_rate">128032</property>
  <property name="kdenlive:original.meta.attr.1.stream.creation_time.markup">2020-03-05T16:26:10.000000Z</property>
  <property name="kdenlive:original.meta.attr.1.stream.handler_name.markup">ISO Media file produced by Google Inc. Created on: 03/05/2020.</property>
  <property name="kdenlive:original.meta.attr.1.stream.vendor_id.markup">[0][0][0][0]</property>
  <property name="kdenlive:original.meta.attr.major_brand.markup">mp42</property>
  <property name="kdenlive:original.meta.attr.minor_version.markup">0</property>
  <property name="kdenlive:original.meta.attr.compatible_brands.markup">isommp42</property>
  <property name="kdenlive:original.meta.attr.creation_time.markup">2020-03-05T16:26:10.000000Z</property>
  <property name="kdenlive:original.seekable">1</property>
  <property name="kdenlive:original.width">720</property>
  <property name="kdenlive:original.height">720</property>
  <property name="kdenlive:original.meta.media.sample_aspect_num">1</property>
  <property name="kdenlive:original.meta.media.sample_aspect_den">1</property>
  <property name="kdenlive:original.aspect_ratio">1</property>
  <property name="kdenlive:original.format">3</property>
  <property name="kdenlive:original.audio_index">1</property>
  <property name="kdenlive:original.video_index">0</property>
  <property name="kdenlive:original.mute_on_pause">0</property>
  <property name="kdenlive:original.mlt_service">avformat-novalidate</property>
  <property name="kdenlive:original.meta.media.frame_rate_num">25</property>
  <property name="kdenlive:original.meta.media.frame_rate_den">1</property>
  <property name="kdenlive:original.meta.media.colorspace">601</property>
  <property name="kdenlive:original.meta.media.color_trc">2</property>
  <property name="kdenlive:original.meta.media.has_b_frames">1</property>
  <property name="kdenlive:original.meta.media.width">720</property>
  <property name="kdenlive:original.meta.media.height">720</property>
  <property name="kdenlive:original.meta.media.color_range">mpeg</property>
  <property name="kdenlive:original.meta.media.top_field_first">0</property>
  <property name="kdenlive:original.meta.media.progressive">1</property>
  <property name="kdenlive:original.kdenlive:clip_type">0</property>
  <property name="kdenlive:original.kdenlive:folderid">3</property>
  <property name="kdenlive:original.kdenlive:id">17</property>
  <property name="kdenlive:original.kdenlive:file_size">2113855</property>
  <property name="kdenlive:original.kdenlive:file_hash">c08ecfa0832f7bb58e3907eef478862d</property>
  <property name="kdenlive:original.kdenlive:audio_max1">231</property>
  <property name="kdenlive:original.root">/</property>
  <property name="kdenlive:original.backup">1</property>
  <property name="meta.media.frame_rate_num">25</property>
  <property name="meta.media.frame_rate_den">1</property>
  <property name="meta.media.colorspace">601</property>
  <property name="meta.media.color_trc">2</property>
  <property name="meta.media.has_b_frames">0</property>
  <property name="meta.media.width">640</property>
  <property name="meta.media.height">640</property>
  <property name="meta.media.color_range">mpeg</property>
  <property name="meta.media.top_field_first">0</property>
  <property name="meta.media.progressive">1</property>
 </producer>
 <producer id="producer12" in="00:00:00.000" out="00:00:04.983">
  <property name="length">00:00:05.000</property>
  <property name="eof">pause</property>
  <property name="resource">/home/archer/.var/app/org.kde.kdenlive/cache/kdenlive/proxy/130cea0839d3ebb33b052c5dd3f9cd27.png</property>
  <property name="ttl">25</property>
  <property name="aspect_ratio">1</property>
  <property name="progressive">1</property>
  <property name="seekable">1</property>
  <property name="format">1</property>
  <property name="meta.media.width">600</property>
  <property name="meta.media.height">800</property>
  <property name="mlt_service">qimage</property>
  <property name="kdenlive:clipname">shujaprom.jpg</property>
  <property name="kdenlive:duration">00:00:05.000</property>
  <property name="kdenlive:folderid">3</property>
  <property name="kdenlive:clip_type">2</property>
  <property name="kdenlive:id">18</property>
  <property name="kdenlive:file_size">121634</property>
  <property name="kdenlive:file_hash">130cea0839d3ebb33b052c5dd3f9cd27</property>
  <property name="kdenlive:proxy">/home/archer/.var/app/org.kde.kdenlive/cache/kdenlive/proxy/130cea0839d3ebb33b052c5dd3f9cd27.png</property>
  <property name="kdenlive:originalurl">/home/archer/Downloads/videosource/shujav2/shujaprom.jpg</property>
  <property name="kdenlive:original.mlt_type">producer</property>
  <property name="kdenlive:original.in">0</property>
  <property name="kdenlive:original.out">299</property>
  <property name="kdenlive:original.length">00:00:05.000</property>
  <property name="kdenlive:original.eof">pause</property>
  <property name="kdenlive:original.resource">/home/archer/Downloads/videosource/shujav2/shujaprom.jpg</property>
  <property name="kdenlive:original.ttl">25</property>
  <property name="kdenlive:original.aspect_ratio">1</property>
  <property name="kdenlive:original.progressive">1</property>
  <property name="kdenlive:original.seekable">1</property>
  <property name="kdenlive:original.format">1</property>
  <property name="kdenlive:original.meta.media.width">1524</property>
  <property name="kdenlive:original.meta.media.height">2032</property>
  <property name="kdenlive:original.mlt_service">qimage</property>
  <property name="kdenlive:original.kdenlive:duration">00:00:05.000</property>
  <property name="kdenlive:original.kdenlive:folderid">3</property>
  <property name="kdenlive:original.kdenlive:clip_type">2</property>
  <property name="kdenlive:original.kdenlive:id">18</property>
  <property name="kdenlive:original.kdenlive:file_size">121634</property>
  <property name="kdenlive:original.kdenlive:file_hash">130cea0839d3ebb33b052c5dd3f9cd27</property>
  <property name="kdenlive:original.backup">1</property>
 </producer>
 <producer id="producer13" in="00:00:00.000" out="00:00:04.983">
  <property name="length">300</property>
  <property name="eof">pause</property>
  <property name="resource"/>
  <property name="progressive">1</property>
  <property name="aspect_ratio">1</property>
  <property name="seekable">1</property>
  <property name="mlt_service">kdenlivetitle</property>
  <property name="kdenlive:duration">300</property>
  <property name="kdenlive:clipname">lies</property>
  <property name="xmldata">&lt;kdenlivetitle duration="300" LC_NUMERIC="C" width="1920" height="1080" out="299">
 &lt;item type="QGraphicsTextItem" z-index="0">
  &lt;position x="807" y="425">
   &lt;transform>1,0,0,0,1,0,0,0,1&lt;/transform>
  &lt;/position>
  &lt;content line-spacing="0" shadow="0;#64000000;3;3;3" font-underline="0" box-height="230" font-outline-color="0,0,0,255" font="Ubuntu" letter-spacing="0" font-pixel-size="200" font-italic="0" typewriter="0;2;1;0;0" alignment="1" font-weight="50" font-outline="4" box-width="306.172" font-color="255,255,255,255">lies&lt;/content>
 &lt;/item>
 &lt;startviewport rect="0,0,1920,1080"/>
 &lt;endviewport rect="0,0,1920,1080"/>
 &lt;background color="0,0,0,0"/>
&lt;/kdenlivetitle>
</property>
  <property name="kdenlive:folderid">8</property>
  <property name="kdenlive:clip_type">2</property>
  <property name="kdenlive:id">19</property>
  <property name="kdenlive:file_hash">917983022a04166f4b78c9fef8928e19</property>
  <property name="force_reload">0</property>
  <property name="meta.media.width">1920</property>
  <property name="meta.media.height">1080</property>
 </producer>
 <producer id="producer14" in="00:00:00.000" out="00:00:04.983">
  <property name="length">300</property>
  <property name="eof">pause</property>
  <property name="resource"/>
  <property name="progressive">1</property>
  <property name="aspect_ratio">1</property>
  <property name="seekable">1</property>
  <property name="mlt_service">kdenlivetitle</property>
  <property name="kdenlive:duration">300</property>
  <property name="kdenlive:clipname">unmet promises</property>
  <property name="xmldata">&lt;kdenlivetitle duration="300" LC_NUMERIC="C" width="1920" height="1080" out="299">
 &lt;item type="QGraphicsTextItem" z-index="0">
  &lt;position x="544" y="610">
   &lt;transform>1,0,0,0,1,0,0,0,1&lt;/transform>
  &lt;/position>
  &lt;content line-spacing="0" shadow="0;#64000000;3;3;3" font-underline="0" box-height="460" font-outline-color="0,0,0,255" font="Ubuntu" letter-spacing="0" font-pixel-size="200" font-italic="0" typewriter="0;2;1;0;0" alignment="4" font-weight="50" font-outline="4" box-width="825.938" font-color="255,255,255,255">unmet
promises&lt;/content>
 &lt;/item>
 &lt;startviewport rect="0,0,1920,1080"/>
 &lt;endviewport rect="0,0,1920,1080"/>
 &lt;background color="0,0,0,0"/>
&lt;/kdenlivetitle>
</property>
  <property name="kdenlive:folderid">8</property>
  <property name="kdenlive:clip_type">2</property>
  <property name="kdenlive:id">20</property>
  <property name="kdenlive:file_hash">917983022a04166f4b78c9fef8928e19</property>
  <property name="force_reload">0</property>
  <property name="meta.media.width">1920</property>
  <property name="meta.media.height">1080</property>
 </producer>
 <producer id="producer15" in="00:00:00.000" out="00:00:04.983">
  <property name="length">300</property>
  <property name="eof">pause</property>
  <property name="resource"/>
  <property name="progressive">1</property>
  <property name="aspect_ratio">1</property>
  <property name="seekable">1</property>
  <property name="mlt_service">kdenlivetitle</property>
  <property name="kdenlive:duration">300</property>
  <property name="kdenlive:clipname">vaporware</property>
  <property name="xmldata">&lt;kdenlivetitle duration="300" LC_NUMERIC="C" width="1920" height="1080" out="299">
 &lt;item type="QGraphicsTextItem" z-index="0">
  &lt;position x="232" y="367">
   &lt;transform>1,0,0,0,1,0,0,0,1&lt;/transform>
  &lt;/position>
  &lt;content line-spacing="0" shadow="0;#64000000;3;3;3" font-underline="0" box-height="345" font-outline-color="0,0,0,255" font="Ubuntu" letter-spacing="0" font-pixel-size="300" font-italic="0" typewriter="0;2;1;0;0" alignment="1" font-weight="50" font-outline="4" box-width="1455.53" font-color="255,255,255,255">vaporware&lt;/content>
 &lt;/item>
 &lt;startviewport rect="0,0,1920,1080"/>
 &lt;endviewport rect="0,0,1920,1080"/>
 &lt;background color="0,0,0,0"/>
&lt;/kdenlivetitle>
</property>
  <property name="kdenlive:folderid">8</property>
  <property name="kdenlive:clip_type">2</property>
  <property name="kdenlive:id">21</property>
  <property name="kdenlive:file_hash">e797ff0aad893a183b8e9c4c76cfcd21</property>
  <property name="force_reload">0</property>
  <property name="meta.media.width">1920</property>
  <property name="meta.media.height">1080</property>
 </producer>
 <producer id="producer16" in="00:00:00.000" out="00:00:04.983">
  <property name="length">00:00:05.000</property>
  <property name="eof">pause</property>
  <property name="resource">/home/archer/.var/app/org.kde.kdenlive/cache/kdenlive/proxy/b968a45e36a702a117787a274ed5a9fc.png</property>
  <property name="ttl">25</property>
  <property name="aspect_ratio">1</property>
  <property name="progressive">1</property>
  <property name="seekable">1</property>
  <property name="format">2</property>
  <property name="meta.media.width">800</property>
  <property name="meta.media.height">787</property>
  <property name="mlt_service">qimage</property>
  <property name="kdenlive:clipname">babyshujasquare.png</property>
  <property name="kdenlive:duration">00:00:05.000</property>
  <property name="kdenlive:folderid">3</property>
  <property name="kdenlive:clip_type">2</property>
  <property name="kdenlive:id">22</property>
  <property name="kdenlive:file_size">1030279</property>
  <property name="kdenlive:file_hash">b968a45e36a702a117787a274ed5a9fc</property>
  <property name="kdenlive:proxy">/home/archer/.var/app/org.kde.kdenlive/cache/kdenlive/proxy/b968a45e36a702a117787a274ed5a9fc.png</property>
  <property name="kdenlive:originalurl">/home/archer/Downloads/videosource/shujav2/babyshujasquare.png</property>
  <property name="kdenlive:original.mlt_type">producer</property>
  <property name="kdenlive:original.in">0</property>
  <property name="kdenlive:original.out">299</property>
  <property name="kdenlive:original.length">00:00:05.000</property>
  <property name="kdenlive:original.eof">pause</property>
  <property name="kdenlive:original.resource">/home/archer/Downloads/videosource/shujav2/babyshujasquare.png</property>
  <property name="kdenlive:original.ttl">25</property>
  <property name="kdenlive:original.aspect_ratio">1</property>
  <property name="kdenlive:original.progressive">1</property>
  <property name="kdenlive:original.seekable">1</property>
  <property name="kdenlive:original.format">2</property>
  <property name="kdenlive:original.meta.media.width">1080</property>
  <property name="kdenlive:original.meta.media.height">1063</property>
  <property name="kdenlive:original.mlt_service">qimage</property>
  <property name="kdenlive:original.kdenlive:duration">00:00:05.000</property>
  <property name="kdenlive:original.kdenlive:folderid">3</property>
  <property name="kdenlive:original.kdenlive:clip_type">2</property>
  <property name="kdenlive:original.kdenlive:id">22</property>
  <property name="kdenlive:original.kdenlive:file_size">1030279</property>
  <property name="kdenlive:original.kdenlive:file_hash">b968a45e36a702a117787a274ed5a9fc</property>
  <property name="kdenlive:original.backup">1</property>
 </producer>
 <producer id="producer17" in="00:00:00.000" out="00:00:04.983">
  <property name="length">00:00:05.000</property>
  <property name="eof">pause</property>
  <property name="resource">/home/archer/.var/app/org.kde.kdenlive/cache/kdenlive/proxy/7a06a527bbb69a2f62be59481d5e38c3.png</property>
  <property name="ttl">25</property>
  <property name="aspect_ratio">1</property>
  <property name="progressive">1</property>
  <property name="seekable">1</property>
  <property name="format">1</property>
  <property name="meta.media.width">800</property>
  <property name="meta.media.height">231</property>
  <property name="mlt_service">qimage</property>
  <property name="kdenlive:clipname">openforehire.png</property>
  <property name="kdenlive:duration">00:00:05.000</property>
  <property name="kdenlive:folderid">3</property>
  <property name="kdenlive:clip_type">2</property>
  <property name="kdenlive:id">23</property>
  <property name="kdenlive:file_size">44882</property>
  <property name="kdenlive:file_hash">7a06a527bbb69a2f62be59481d5e38c3</property>
  <property name="kdenlive:proxy">/home/archer/.var/app/org.kde.kdenlive/cache/kdenlive/proxy/7a06a527bbb69a2f62be59481d5e38c3.png</property>
  <property name="kdenlive:originalurl">/home/archer/Downloads/videosource/shujav2/openforehire.png</property>
  <property name="kdenlive:original.mlt_type">producer</property>
  <property name="kdenlive:original.in">0</property>
  <property name="kdenlive:original.out">299</property>
  <property name="kdenlive:original.length">00:00:05.000</property>
  <property name="kdenlive:original.eof">pause</property>
  <property name="kdenlive:original.resource">/home/archer/Downloads/videosource/shujav2/openforehire.png</property>
  <property name="kdenlive:original.ttl">25</property>
  <property name="kdenlive:original.aspect_ratio">1</property>
  <property name="kdenlive:original.progressive">1</property>
  <property name="kdenlive:original.seekable">1</property>
  <property name="kdenlive:original.format">1</property>
  <property name="kdenlive:original.meta.media.width">1339</property>
  <property name="kdenlive:original.meta.media.height">387</property>
  <property name="kdenlive:original.mlt_service">qimage</property>
  <property name="kdenlive:original.kdenlive:duration">00:00:05.000</property>
  <property name="kdenlive:original.kdenlive:folderid">3</property>
  <property name="kdenlive:original.kdenlive:clip_type">2</property>
  <property name="kdenlive:original.kdenlive:id">23</property>
  <property name="kdenlive:original.kdenlive:file_size">44882</property>
  <property name="kdenlive:original.kdenlive:file_hash">7a06a527bbb69a2f62be59481d5e38c3</property>
  <property name="kdenlive:original.backup">1</property>
 </producer>
 <producer id="producer19" in="00:00:00.000" out="00:00:04.983">
  <property name="length">00:00:05.000</property>
  <property name="eof">pause</property>
  <property name="resource">/home/archer/.var/app/org.kde.kdenlive/cache/kdenlive/proxy/ca2a64d6f806993121a02c2d6a3d1992.png</property>
  <property name="ttl">25</property>
  <property name="aspect_ratio">1</property>
  <property name="progressive">1</property>
  <property name="seekable">1</property>
  <property name="format">1</property>
  <property name="meta.media.width">800</property>
  <property name="meta.media.height">372</property>
  <property name="mlt_service">qimage</property>
  <property name="kdenlive:clipname">storybig.png</property>
  <property name="kdenlive:duration">00:00:05.000</property>
  <property name="kdenlive:folderid">3</property>
  <property name="kdenlive:clip_type">2</property>
  <property name="kdenlive:id">24</property>
  <property name="kdenlive:file_size">45629</property>
  <property name="kdenlive:file_hash">ca2a64d6f806993121a02c2d6a3d1992</property>
  <property name="kdenlive:proxy">/home/archer/.var/app/org.kde.kdenlive/cache/kdenlive/proxy/ca2a64d6f806993121a02c2d6a3d1992.png</property>
  <property name="kdenlive:originalurl">/home/archer/Downloads/videosource/shujav2/storybig.png</property>
  <property name="kdenlive:original.mlt_type">producer</property>
  <property name="kdenlive:original.in">00:00:00.000</property>
  <property name="kdenlive:original.out">00:00:04.983</property>
  <property name="kdenlive:original.length">00:00:05.000</property>
  <property name="kdenlive:original.eof">pause</property>
  <property name="kdenlive:original.resource">/home/archer/Downloads/videosource/shujav2/storybig.png</property>
  <property name="kdenlive:original.ttl">25</property>
  <property name="kdenlive:original.aspect_ratio">1</property>
  <property name="kdenlive:original.progressive">1</property>
  <property name="kdenlive:original.seekable">1</property>
  <property name="kdenlive:original.format">1</property>
  <property name="kdenlive:original.meta.media.width">899</property>
  <property name="kdenlive:original.meta.media.height">418</property>
  <property name="kdenlive:original.mlt_service">qimage</property>
  <property name="kdenlive:original.kdenlive:duration">00:00:05.000</property>
  <property name="kdenlive:original.kdenlive:folderid">3</property>
  <property name="kdenlive:original.kdenlive:clip_type">2</property>
  <property name="kdenlive:original.kdenlive:id">24</property>
  <property name="kdenlive:original.kdenlive:file_size">45629</property>
  <property name="kdenlive:original.kdenlive:file_hash">ca2a64d6f806993121a02c2d6a3d1992</property>
  <property name="kdenlive:original.backup">1</property>
 </producer>
 <producer id="producer18" in="00:00:00.000" out="00:00:04.983">
  <property name="length">00:00:05.000</property>
  <property name="eof">pause</property>
  <property name="resource">/home/archer/Downloads/videosource/shujav2/emptyproject.png</property>
  <property name="ttl">25</property>
  <property name="aspect_ratio">1</property>
  <property name="progressive">1</property>
  <property name="seekable">1</property>
  <property name="format">1</property>
  <property name="meta.media.width">406</property>
  <property name="meta.media.height">172</property>
  <property name="mlt_service">qimage</property>
  <property name="kdenlive:clipname"/>
  <property name="kdenlive:duration">00:00:05.000</property>
  <property name="kdenlive:folderid">3</property>
  <property name="kdenlive:clip_type">2</property>
  <property name="kdenlive:id">25</property>
  <property name="kdenlive:file_size">12066</property>
  <property name="kdenlive:file_hash">20132bc935fd8477e909833a29bc669d</property>
  <property name="kdenlive:proxy">/home/archer/.var/app/org.kde.kdenlive/cache/kdenlive/proxy/20132bc935fd8477e909833a29bc669d.png</property>
  <property name="kdenlive:originalurl">/home/archer/Downloads/videosource/shujav2/emptyproject.png</property>
  <property name="kdenlive:original.mlt_type">producer</property>
  <property name="kdenlive:original.in">00:00:00.000</property>
  <property name="kdenlive:original.out">00:00:04.983</property>
  <property name="kdenlive:original.length">00:00:05.000</property>
  <property name="kdenlive:original.eof">pause</property>
  <property name="kdenlive:original.resource">/home/archer/Downloads/videosource/shujav2/emptyproject.png</property>
  <property name="kdenlive:original.ttl">25</property>
  <property name="kdenlive:original.aspect_ratio">1</property>
  <property name="kdenlive:original.progressive">1</property>
  <property name="kdenlive:original.seekable">1</property>
  <property name="kdenlive:original.format">1</property>
  <property name="kdenlive:original.meta.media.width">406</property>
  <property name="kdenlive:original.meta.media.height">172</property>
  <property name="kdenlive:original.mlt_service">qimage</property>
  <property name="kdenlive:original.kdenlive:duration">00:00:05.000</property>
  <property name="kdenlive:original.kdenlive:folderid">3</property>
  <property name="kdenlive:original.kdenlive:clip_type">2</property>
  <property name="kdenlive:original.kdenlive:id">25</property>
  <property name="kdenlive:original.kdenlive:file_size">12066</property>
  <property name="kdenlive:original.kdenlive:file_hash">20132bc935fd8477e909833a29bc669d</property>
  <property name="kdenlive:original.backup">1</property>
 </producer>
 <producer id="producer21" in="00:00:00.000" out="00:00:09.983">
  <property name="length">600</property>
  <property name="eof">pause</property>
  <property name="resource">/home/archer/.var/app/org.kde.kdenlive/cache/kdenlive/proxy/b1e9583acd8e1f1523add0299ae996a8.png</property>
  <property name="ttl">25</property>
  <property name="aspect_ratio">1</property>
  <property name="progressive">1</property>
  <property name="seekable">1</property>
  <property name="format">1</property>
  <property name="meta.media.width">800</property>
  <property name="meta.media.height">42</property>
  <property name="mlt_service">qimage</property>
  <property name="kdenlive:clipname">initialcommitoct.png</property>
  <property name="kdenlive:duration">00:00:05.000</property>
  <property name="kdenlive:folderid">3</property>
  <property name="kdenlive:clip_type">2</property>
  <property name="kdenlive:id">26</property>
  <property name="kdenlive:file_size">9001</property>
  <property name="kdenlive:file_hash">b1e9583acd8e1f1523add0299ae996a8</property>
  <property name="kdenlive:proxy">/home/archer/.var/app/org.kde.kdenlive/cache/kdenlive/proxy/b1e9583acd8e1f1523add0299ae996a8.png</property>
  <property name="kdenlive:originalurl">/home/archer/Downloads/videosource/shujav2/initialcommitoct.png</property>
  <property name="kdenlive:original.mlt_type">producer</property>
  <property name="kdenlive:original.in">0</property>
  <property name="kdenlive:original.out">299</property>
  <property name="kdenlive:original.length">00:00:05.000</property>
  <property name="kdenlive:original.eof">pause</property>
  <property name="kdenlive:original.resource">/home/archer/Downloads/videosource/shujav2/initialcommitoct.png</property>
  <property name="kdenlive:original.ttl">25</property>
  <property name="kdenlive:original.aspect_ratio">1</property>
  <property name="kdenlive:original.progressive">1</property>
  <property name="kdenlive:original.seekable">1</property>
  <property name="kdenlive:original.format">1</property>
  <property name="kdenlive:original.meta.media.width">1177</property>
  <property name="kdenlive:original.meta.media.height">62</property>
  <property name="kdenlive:original.mlt_service">qimage</property>
  <property name="kdenlive:original.kdenlive:duration">00:00:05.000</property>
  <property name="kdenlive:original.kdenlive:folderid">3</property>
  <property name="kdenlive:original.kdenlive:clip_type">2</property>
  <property name="kdenlive:original.kdenlive:id">26</property>
  <property name="kdenlive:original.kdenlive:file_size">9001</property>
  <property name="kdenlive:original.kdenlive:file_hash">b1e9583acd8e1f1523add0299ae996a8</property>
  <property name="kdenlive:original.backup">1</property>
 </producer>
 <producer id="producer22" in="00:00:00.000" out="00:00:09.983">
  <property name="length">600</property>
  <property name="eof">pause</property>
  <property name="resource">0xffff00ff</property>
  <property name="aspect_ratio">1</property>
  <property name="mlt_service">color</property>
  <property name="kdenlive:clipname">yellow</property>
  <property name="kdenlive:duration">00:00:05.000</property>
  <property name="kdenlive:folderid">3</property>
  <property name="kdenlive:clip_type">2</property>
  <property name="kdenlive:id">27</property>
  <property name="mlt_image_format">rgb</property>
  <property name="kdenlive:file_hash">f0675cc5e33311663006453bc1634ce1</property>
 </producer>
 <producer id="producer23" in="00:00:00.000" out="00:00:07.800">
  <property name="length">469</property>
  <property name="eof">pause</property>
  <property name="resource">/home/archer/.var/app/org.kde.kdenlive/cache/kdenlive/proxy/faf396a5c70e9f930fc56ae95d9d1513.png</property>
  <property name="ttl">25</property>
  <property name="aspect_ratio">1</property>
  <property name="progressive">1</property>
  <property name="seekable">1</property>
  <property name="format">1</property>
  <property name="meta.media.width">800</property>
  <property name="meta.media.height">600</property>
  <property name="mlt_service">qimage</property>
  <property name="kdenlive:clipname">shujamiddlefings.jpg</property>
  <property name="kdenlive:duration">00:00:05.000</property>
  <property name="kdenlive:folderid">3</property>
  <property name="kdenlive:clip_type">2</property>
  <property name="kdenlive:id">28</property>
  <property name="kdenlive:file_size">130645</property>
  <property name="kdenlive:file_hash">faf396a5c70e9f930fc56ae95d9d1513</property>
  <property name="kdenlive:proxy">/home/archer/.var/app/org.kde.kdenlive/cache/kdenlive/proxy/faf396a5c70e9f930fc56ae95d9d1513.png</property>
  <property name="kdenlive:originalurl">/home/archer/Downloads/videosource/shujav2/shujamiddlefings.jpg</property>
  <property name="kdenlive:original.mlt_type">producer</property>
  <property name="kdenlive:original.in">0</property>
  <property name="kdenlive:original.out">299</property>
  <property name="kdenlive:original.length">00:00:05.000</property>
  <property name="kdenlive:original.eof">pause</property>
  <property name="kdenlive:original.resource">/home/archer/Downloads/videosource/shujav2/shujamiddlefings.jpg</property>
  <property name="kdenlive:original.ttl">25</property>
  <property name="kdenlive:original.aspect_ratio">1</property>
  <property name="kdenlive:original.progressive">1</property>
  <property name="kdenlive:original.seekable">1</property>
  <property name="kdenlive:original.format">1</property>
  <property name="kdenlive:original.meta.media.width">2032</property>
  <property name="kdenlive:original.meta.media.height">1524</property>
  <property name="kdenlive:original.mlt_service">qimage</property>
  <property name="kdenlive:original.kdenlive:duration">00:00:05.000</property>
  <property name="kdenlive:original.kdenlive:folderid">-1</property>
  <property name="kdenlive:original.kdenlive:clip_type">2</property>
  <property name="kdenlive:original.kdenlive:id">28</property>
  <property name="kdenlive:original.kdenlive:file_size">130645</property>
  <property name="kdenlive:original.kdenlive:file_hash">faf396a5c70e9f930fc56ae95d9d1513</property>
  <property name="kdenlive:original.backup">1</property>
 </producer>
 <producer id="producer24" in="00:00:00.000" out="00:00:13.700">
  <property name="length">823</property>
  <property name="eof">pause</property>
  <property name="resource">/home/archer/.var/app/org.kde.kdenlive/cache/kdenlive/proxy/728f8c7e325f1d6a230f08325b6bb647.png</property>
  <property name="ttl">25</property>
  <property name="aspect_ratio">1</property>
  <property name="progressive">1</property>
  <property name="seekable">1</property>
  <property name="format">1</property>
  <property name="meta.media.width">800</property>
  <property name="meta.media.height">308</property>
  <property name="mlt_service">qimage</property>
  <property name="kdenlive:clipname">haxberryinitial.png</property>
  <property name="kdenlive:duration">00:00:05.000</property>
  <property name="kdenlive:folderid">3</property>
  <property name="kdenlive:clip_type">2</property>
  <property name="kdenlive:id">29</property>
  <property name="kdenlive:file_size">85570</property>
  <property name="kdenlive:file_hash">728f8c7e325f1d6a230f08325b6bb647</property>
  <property name="kdenlive:proxy">/home/archer/.var/app/org.kde.kdenlive/cache/kdenlive/proxy/728f8c7e325f1d6a230f08325b6bb647.png</property>
  <property name="kdenlive:originalurl">/home/archer/Downloads/videosource/shujav2/haxberryinitial.png</property>
  <property name="kdenlive:original.mlt_type">producer</property>
  <property name="kdenlive:original.in">0</property>
  <property name="kdenlive:original.out">299</property>
  <property name="kdenlive:original.length">00:00:05.000</property>
  <property name="kdenlive:original.eof">pause</property>
  <property name="kdenlive:original.resource">/home/archer/Downloads/videosource/shujav2/haxberryinitial.png</property>
  <property name="kdenlive:original.ttl">25</property>
  <property name="kdenlive:original.aspect_ratio">1</property>
  <property name="kdenlive:original.progressive">1</property>
  <property name="kdenlive:original.seekable">1</property>
  <property name="kdenlive:original.format">1</property>
  <property name="kdenlive:original.meta.media.width">1346</property>
  <property name="kdenlive:original.meta.media.height">518</property>
  <property name="kdenlive:original.mlt_service">qimage</property>
  <property name="kdenlive:original.kdenlive:duration">00:00:05.000</property>
  <property name="kdenlive:original.kdenlive:folderid">3</property>
  <property name="kdenlive:original.kdenlive:clip_type">2</property>
  <property name="kdenlive:original.kdenlive:id">29</property>
  <property name="kdenlive:original.kdenlive:file_size">85570</property>
  <property name="kdenlive:original.kdenlive:file_hash">728f8c7e325f1d6a230f08325b6bb647</property>
  <property name="kdenlive:original.backup">1</property>
 </producer>
 <producer id="producer25" in="00:00:00.000" out="00:00:04.983">
  <property name="length">00:00:05.000</property>
  <property name="eof">pause</property>
  <property name="resource">/home/archer/Downloads/videosource/shujav2/halalberry.png</property>
  <property name="ttl">25</property>
  <property name="aspect_ratio">1</property>
  <property name="progressive">1</property>
  <property name="seekable">1</property>
  <property name="format">2</property>
  <property name="meta.media.width">800</property>
  <property name="meta.media.height">799</property>
  <property name="mlt_service">qimage</property>
  <property name="kdenlive:clipname"/>
  <property name="kdenlive:duration">00:00:05.000</property>
  <property name="kdenlive:folderid">-1</property>
  <property name="kdenlive:clip_type">2</property>
  <property name="kdenlive:id">30</property>
  <property name="kdenlive:file_size">430754</property>
  <property name="kdenlive:file_hash">2b7f3cc9777d0ac04bc222b6dc3786d5</property>
  <property name="kdenlive:proxy">/home/archer/.var/app/org.kde.kdenlive/cache/kdenlive/proxy/2b7f3cc9777d0ac04bc222b6dc3786d5.png</property>
  <property name="kdenlive:originalurl">/home/archer/Downloads/videosource/shujav2/halalberry.png</property>
  <property name="kdenlive:original.mlt_type">producer</property>
  <property name="kdenlive:original.in">00:00:00.000</property>
  <property name="kdenlive:original.out">00:00:04.983</property>
  <property name="kdenlive:original.length">00:00:05.000</property>
  <property name="kdenlive:original.eof">pause</property>
  <property name="kdenlive:original.resource">/home/archer/Downloads/videosource/shujav2/halalberry.png</property>
  <property name="kdenlive:original.ttl">25</property>
  <property name="kdenlive:original.aspect_ratio">1</property>
  <property name="kdenlive:original.progressive">1</property>
  <property name="kdenlive:original.seekable">1</property>
  <property name="kdenlive:original.format">2</property>
  <property name="kdenlive:original.meta.media.width">800</property>
  <property name="kdenlive:original.meta.media.height">799</property>
  <property name="kdenlive:original.mlt_service">qimage</property>
  <property name="kdenlive:original.id">producer25</property>
  <property name="kdenlive:original.kdenlive:duration">00:00:05.000</property>
  <property name="kdenlive:original.kdenlive:folderid">-1</property>
  <property name="kdenlive:original.kdenlive:clip_type">2</property>
  <property name="kdenlive:original.kdenlive:id">30</property>
  <property name="kdenlive:original.kdenlive:file_size">430754</property>
  <property name="kdenlive:original.kdenlive:file_hash">2b7f3cc9777d0ac04bc222b6dc3786d5</property>
  <property name="kdenlive:original.backup">1</property>
 </producer>
 <producer id="producer26" in="00:00:00.000" out="00:00:04.983">
  <property name="length">00:00:05.000</property>
  <property name="eof">pause</property>
  <property name="resource">/home/archer/Downloads/videosource/shujav2/Blackberry-Z10.png</property>
  <property name="ttl">25</property>
  <property name="aspect_ratio">1</property>
  <property name="progressive">1</property>
  <property name="seekable">1</property>
  <property name="format">2</property>
  <property name="meta.media.width">800</property>
  <property name="meta.media.height">799</property>
  <property name="mlt_service">qimage</property>
  <property name="kdenlive:clipname"/>
  <property name="kdenlive:duration">00:00:05.000</property>
  <property name="kdenlive:folderid">3</property>
  <property name="kdenlive:clip_type">2</property>
  <property name="kdenlive:id">31</property>
  <property name="kdenlive:file_size">537290</property>
  <property name="kdenlive:file_hash">26724df2cbc8d36623e7718e3484aa31</property>
  <property name="kdenlive:proxy">/home/archer/.var/app/org.kde.kdenlive/cache/kdenlive/proxy/26724df2cbc8d36623e7718e3484aa31.png</property>
  <property name="kdenlive:originalurl">/home/archer/Downloads/videosource/shujav2/Blackberry-Z10.png</property>
  <property name="kdenlive:original.mlt_type">producer</property>
  <property name="kdenlive:original.in">00:00:00.000</property>
  <property name="kdenlive:original.out">00:00:04.983</property>
  <property name="kdenlive:original.length">00:00:05.000</property>
  <property name="kdenlive:original.eof">pause</property>
  <property name="kdenlive:original.resource">/home/archer/Downloads/videosource/shujav2/Blackberry-Z10.png</property>
  <property name="kdenlive:original.ttl">25</property>
  <property name="kdenlive:original.aspect_ratio">1</property>
  <property name="kdenlive:original.progressive">1</property>
  <property name="kdenlive:original.seekable">1</property>
  <property name="kdenlive:original.format">2</property>
  <property name="kdenlive:original.meta.media.width">800</property>
  <property name="kdenlive:original.meta.media.height">799</property>
  <property name="kdenlive:original.mlt_service">qimage</property>
  <property name="kdenlive:original.id">producer26</property>
  <property name="kdenlive:original.kdenlive:duration">00:00:05.000</property>
  <property name="kdenlive:original.kdenlive:folderid">3</property>
  <property name="kdenlive:original.kdenlive:clip_type">2</property>
  <property name="kdenlive:original.kdenlive:id">31</property>
  <property name="kdenlive:original.kdenlive:file_size">537290</property>
  <property name="kdenlive:original.kdenlive:file_hash">26724df2cbc8d36623e7718e3484aa31</property>
  <property name="kdenlive:original.backup">1</property>
 </producer>
 <producer id="producer27" in="00:00:00.000" out="00:00:06.000">
  <property name="length">361</property>
  <property name="eof">pause</property>
  <property name="resource"/>
  <property name="progressive">1</property>
  <property name="aspect_ratio">1</property>
  <property name="seekable">1</property>
  <property name="mlt_service">kdenlivetitle</property>
  <property name="kdenlive:duration">300</property>
  <property name="kdenlive:clipname">haxberry</property>
  <property name="xmldata">&lt;kdenlivetitle duration="300" LC_NUMERIC="C" width="1920" height="1080" out="299">
 &lt;item type="QGraphicsTextItem" z-index="0">
  &lt;position x="354" y="367">
   &lt;transform>1,0,0,0,1,0,0,0,1&lt;/transform>
  &lt;/position>
  &lt;content shadow="0;#64000000;3;3;3" font-underline="0" box-height="345" font-outline-color="0,0,0,255" font="Ubuntu" letter-spacing="0" font-pixel-size="300" font-italic="0" typewriter="0;2;1;0;0" alignment="1" font-weight="50" font-outline="4" box-width="1268.94" font-color="255,255,255,255">HaxBerry&lt;/content>
 &lt;/item>
 &lt;startviewport rect="0,0,1920,1080"/>
 &lt;endviewport rect="0,0,1920,1080"/>
 &lt;background color="0,0,0,0"/>
&lt;/kdenlivetitle>
</property>
  <property name="kdenlive:folderid">34</property>
  <property name="kdenlive:clip_type">2</property>
  <property name="kdenlive:id">32</property>
  <property name="kdenlive:file_hash">b7691a849595577660a6c9694d5f12d0</property>
  <property name="force_reload">0</property>
  <property name="meta.media.width">1920</property>
  <property name="meta.media.height">1080</property>
 </producer>
 <producer id="producer28" in="00:00:00.000" out="00:00:05.367">
  <property name="length">323</property>
  <property name="eof">pause</property>
  <property name="resource"/>
  <property name="progressive">1</property>
  <property name="aspect_ratio">1</property>
  <property name="seekable">1</property>
  <property name="mlt_service">kdenlivetitle</property>
  <property name="kdenlive:duration">300</property>
  <property name="kdenlive:clipname">was</property>
  <property name="xmldata">&lt;kdenlivetitle duration="300" LC_NUMERIC="C" width="1920" height="1080" out="299">
 &lt;item type="QGraphicsTextItem" z-index="0">
  &lt;position x="698" y="367">
   &lt;transform>1,0,0,0,1,0,0,0,1&lt;/transform>
  &lt;/position>
  &lt;content shadow="0;#64000000;3;3;3" font-underline="0" box-height="345" font-outline-color="0,0,0,255" font="Ubuntu" letter-spacing="0" font-pixel-size="300" font-italic="0" typewriter="0;2;1;0;0" alignment="1" font-weight="50" font-outline="4" box-width="523.484" font-color="255,255,255,255">was&lt;/content>
 &lt;/item>
 &lt;startviewport rect="0,0,1920,1080"/>
 &lt;endviewport rect="0,0,1920,1080"/>
 &lt;background color="0,0,0,0"/>
&lt;/kdenlivetitle>
</property>
  <property name="kdenlive:folderid">34</property>
  <property name="kdenlive:clip_type">2</property>
  <property name="kdenlive:id">33</property>
  <property name="kdenlive:file_hash">894b6045fa99a9ced134932de0cc1116</property>
  <property name="force_reload">0</property>
  <property name="meta.media.width">1920</property>
  <property name="meta.media.height">1080</property>
 </producer>
 <producer id="producer29" in="00:00:00.000" out="00:00:05.183">
  <property name="length">312</property>
  <property name="eof">pause</property>
  <property name="resource"/>
  <property name="progressive">1</property>
  <property name="aspect_ratio">1</property>
  <property name="seekable">1</property>
  <property name="mlt_service">kdenlivetitle</property>
  <property name="kdenlive:duration">300</property>
  <property name="kdenlive:clipname">just</property>
  <property name="xmldata">&lt;kdenlivetitle duration="300" LC_NUMERIC="C" width="1920" height="1080" out="299">
 &lt;item type="QGraphicsTextItem" z-index="0">
  &lt;position x="709" y="367">
   &lt;transform>1,0,0,0,1,0,0,0,1&lt;/transform>
  &lt;/position>
  &lt;content shadow="0;#64000000;3;3;3" font-underline="0" box-height="345" font-outline-color="0,0,0,255" font="Ubuntu" letter-spacing="0" font-pixel-size="300" font-italic="0" typewriter="0;2;1;0;0" alignment="1" font-weight="50" font-outline="4" box-width="502.469" font-color="255,255,255,255">just&lt;/content>
 &lt;/item>
 &lt;startviewport rect="0,0,1920,1080"/>
 &lt;endviewport rect="0,0,1920,1080"/>
 &lt;background color="0,0,0,0"/>
&lt;/kdenlivetitle>
</property>
  <property name="kdenlive:folderid">34</property>
  <property name="kdenlive:clip_type">2</property>
  <property name="kdenlive:id">35</property>
  <property name="kdenlive:file_hash">16250cb8074bed1d525e6fcd4455b49b</property>
  <property name="force_reload">0</property>
  <property name="meta.media.width">1920</property>
  <property name="meta.media.height">1080</property>
 </producer>
 <producer id="producer30" in="00:00:00.000" out="00:00:04.983">
  <property name="length">300</property>
  <property name="eof">pause</property>
  <property name="resource"/>
  <property name="progressive">1</property>
  <property name="aspect_ratio">1</property>
  <property name="seekable">1</property>
  <property name="mlt_service">kdenlivetitle</property>
  <property name="kdenlive:duration">300</property>
  <property name="kdenlive:clipname">like</property>
  <property name="xmldata">&lt;kdenlivetitle duration="300" LC_NUMERIC="C" width="1920" height="1080" out="299">
 &lt;item type="QGraphicsTextItem" z-index="0">
  &lt;position x="723" y="367">
   &lt;transform>1,0,0,0,1,0,0,0,1&lt;/transform>
  &lt;/position>
  &lt;content shadow="0;#64000000;3;3;3" font-underline="0" box-height="345" font-outline-color="0,0,0,255" font="Ubuntu" letter-spacing="0" font-pixel-size="300" font-italic="0" typewriter="0;2;1;0;0" alignment="1" font-weight="50" font-outline="4" box-width="474.266" font-color="255,255,255,255">like&lt;/content>
 &lt;/item>
 &lt;startviewport rect="0,0,1920,1080"/>
 &lt;endviewport rect="0,0,1920,1080"/>
 &lt;background color="0,0,0,0"/>
&lt;/kdenlivetitle>
</property>
  <property name="kdenlive:folderid">34</property>
  <property name="kdenlive:clip_type">2</property>
  <property name="kdenlive:id">36</property>
  <property name="kdenlive:file_hash">e3844922cb76623ab8c9d7c0f18f7db6</property>
  <property name="force_reload">0</property>
  <property name="meta.media.width">1920</property>
  <property name="meta.media.height">1080</property>
 </producer>
 <producer id="producer34" in="00:00:00.000" out="00:00:04.983">
  <property name="length">00:00:05.000</property>
  <property name="eof">pause</property>
  <property name="resource">/home/archer/.var/app/org.kde.kdenlive/cache/kdenlive/proxy/157014d5b5be2c958bcb6aa41ab61997.png</property>
  <property name="ttl">25</property>
  <property name="aspect_ratio">1</property>
  <property name="progressive">1</property>
  <property name="seekable">1</property>
  <property name="format">1</property>
  <property name="meta.media.width">800</property>
  <property name="meta.media.height">420</property>
  <property name="mlt_service">qimage</property>
  <property name="kdenlive:clipname">msm8916-mainline.png</property>
  <property name="kdenlive:duration">00:00:05.000</property>
  <property name="kdenlive:folderid">-1</property>
  <property name="kdenlive:clip_type">2</property>
  <property name="kdenlive:id">37</property>
  <property name="kdenlive:file_size">71822</property>
  <property name="kdenlive:file_hash">157014d5b5be2c958bcb6aa41ab61997</property>
  <property name="kdenlive:proxy">/home/archer/.var/app/org.kde.kdenlive/cache/kdenlive/proxy/157014d5b5be2c958bcb6aa41ab61997.png</property>
  <property name="kdenlive:originalurl">/home/archer/Downloads/videosource/shujav2/msm8916-mainline.png</property>
  <property name="kdenlive:original.mlt_type">producer</property>
  <property name="kdenlive:original.in">00:00:00.000</property>
  <property name="kdenlive:original.out">00:00:04.983</property>
  <property name="kdenlive:original.length">00:00:05.000</property>
  <property name="kdenlive:original.eof">pause</property>
  <property name="kdenlive:original.resource">/home/archer/Downloads/videosource/shujav2/msm8916-mainline.png</property>
  <property name="kdenlive:original.ttl">25</property>
  <property name="kdenlive:original.aspect_ratio">1</property>
  <property name="kdenlive:original.progressive">1</property>
  <property name="kdenlive:original.seekable">1</property>
  <property name="kdenlive:original.format">1</property>
  <property name="kdenlive:original.meta.media.width">984</property>
  <property name="kdenlive:original.meta.media.height">516</property>
  <property name="kdenlive:original.mlt_service">qimage</property>
  <property name="kdenlive:original.id">producer31</property>
  <property name="kdenlive:original.kdenlive:duration">00:00:05.000</property>
  <property name="kdenlive:original.kdenlive:folderid">-1</property>
  <property name="kdenlive:original.kdenlive:clip_type">2</property>
  <property name="kdenlive:original.kdenlive:id">37</property>
  <property name="kdenlive:original.kdenlive:file_size">71822</property>
  <property name="kdenlive:original.kdenlive:file_hash">157014d5b5be2c958bcb6aa41ab61997</property>
  <property name="kdenlive:original.backup">1</property>
 </producer>
 <producer id="producer32" in="00:00:00.000" out="00:00:04.983">
  <property name="length">00:00:05.000</property>
  <property name="eof">pause</property>
  <property name="resource">/home/archer/.var/app/org.kde.kdenlive/cache/kdenlive/proxy/816026443b5f6b2b8be1d411e45b0d09.png</property>
  <property name="ttl">25</property>
  <property name="aspect_ratio">1</property>
  <property name="progressive">1</property>
  <property name="seekable">1</property>
  <property name="format">1</property>
  <property name="meta.media.width">800</property>
  <property name="meta.media.height">421</property>
  <property name="mlt_service">qimage</property>
  <property name="kdenlive:clipname">lineageosgh.png</property>
  <property name="kdenlive:duration">00:00:05.000</property>
  <property name="kdenlive:folderid">-1</property>
  <property name="kdenlive:clip_type">2</property>
  <property name="kdenlive:id">38</property>
  <property name="kdenlive:file_size">69409</property>
  <property name="kdenlive:file_hash">816026443b5f6b2b8be1d411e45b0d09</property>
  <property name="kdenlive:proxy">/home/archer/.var/app/org.kde.kdenlive/cache/kdenlive/proxy/816026443b5f6b2b8be1d411e45b0d09.png</property>
  <property name="kdenlive:originalurl">/home/archer/Downloads/videosource/shujav2/lineageosgh.png</property>
  <property name="kdenlive:original.mlt_type">producer</property>
  <property name="kdenlive:original.in">00:00:00.000</property>
  <property name="kdenlive:original.out">00:00:04.983</property>
  <property name="kdenlive:original.length">00:00:05.000</property>
  <property name="kdenlive:original.eof">pause</property>
  <property name="kdenlive:original.resource">/home/archer/Downloads/videosource/shujav2/lineageosgh.png</property>
  <property name="kdenlive:original.ttl">25</property>
  <property name="kdenlive:original.aspect_ratio">1</property>
  <property name="kdenlive:original.progressive">1</property>
  <property name="kdenlive:original.seekable">1</property>
  <property name="kdenlive:original.format">1</property>
  <property name="kdenlive:original.meta.media.width">987</property>
  <property name="kdenlive:original.meta.media.height">520</property>
  <property name="kdenlive:original.mlt_service">qimage</property>
  <property name="kdenlive:original.id">producer32</property>
  <property name="kdenlive:original.kdenlive:duration">00:00:05.000</property>
  <property name="kdenlive:original.kdenlive:folderid">-1</property>
  <property name="kdenlive:original.kdenlive:clip_type">2</property>
  <property name="kdenlive:original.kdenlive:id">38</property>
  <property name="kdenlive:original.kdenlive:file_size">69409</property>
  <property name="kdenlive:original.kdenlive:file_hash">816026443b5f6b2b8be1d411e45b0d09</property>
  <property name="kdenlive:original.backup">1</property>
 </producer>
 <producer id="producer33" in="00:00:00.000" out="00:00:04.983">
  <property name="length">00:00:05.000</property>
  <property name="eof">pause</property>
  <property name="resource">/home/archer/.var/app/org.kde.kdenlive/cache/kdenlive/proxy/3eb299c6cd4d0e02a469414c0cacbc8b.png</property>
  <property name="ttl">25</property>
  <property name="aspect_ratio">1</property>
  <property name="progressive">1</property>
  <property name="seekable">1</property>
  <property name="format">1</property>
  <property name="meta.media.width">800</property>
  <property name="meta.media.height">427</property>
  <property name="mlt_service">qimage</property>
  <property name="kdenlive:clipname">lineageosULgh.png</property>
  <property name="kdenlive:duration">00:00:05.000</property>
  <property name="kdenlive:folderid">-1</property>
  <property name="kdenlive:clip_type">2</property>
  <property name="kdenlive:id">39</property>
  <property name="kdenlive:file_size">72567</property>
  <property name="kdenlive:file_hash">3eb299c6cd4d0e02a469414c0cacbc8b</property>
  <property name="kdenlive:proxy">/home/archer/.var/app/org.kde.kdenlive/cache/kdenlive/proxy/3eb299c6cd4d0e02a469414c0cacbc8b.png</property>
  <property name="kdenlive:originalurl">/home/archer/Downloads/videosource/shujav2/lineageosULgh.png</property>
  <property name="kdenlive:original.mlt_type">producer</property>
  <property name="kdenlive:original.in">00:00:00.000</property>
  <property name="kdenlive:original.out">00:00:04.983</property>
  <property name="kdenlive:original.length">00:00:05.000</property>
  <property name="kdenlive:original.eof">pause</property>
  <property name="kdenlive:original.resource">/home/archer/Downloads/videosource/shujav2/lineageosULgh.png</property>
  <property name="kdenlive:original.ttl">25</property>
  <property name="kdenlive:original.aspect_ratio">1</property>
  <property name="kdenlive:original.progressive">1</property>
  <property name="kdenlive:original.seekable">1</property>
  <property name="kdenlive:original.format">1</property>
  <property name="kdenlive:original.meta.media.width">985</property>
  <property name="kdenlive:original.meta.media.height">526</property>
  <property name="kdenlive:original.mlt_service">qimage</property>
  <property name="kdenlive:original.id">producer33</property>
  <property name="kdenlive:original.kdenlive:duration">00:00:05.000</property>
  <property name="kdenlive:original.kdenlive:folderid">-1</property>
  <property name="kdenlive:original.kdenlive:clip_type">2</property>
  <property name="kdenlive:original.kdenlive:id">39</property>
  <property name="kdenlive:original.kdenlive:file_size">72567</property>
  <property name="kdenlive:original.kdenlive:file_hash">3eb299c6cd4d0e02a469414c0cacbc8b</property>
  <property name="kdenlive:original.backup">1</property>
 </producer>
 <producer id="producer31" in="00:00:00.000" out="00:00:04.983">
  <property name="length">00:00:05.000</property>
  <property name="eof">pause</property>
  <property name="resource">/home/archer/.var/app/org.kde.kdenlive/cache/kdenlive/proxy/8837a85c7eeb94ec3c008fe86ecf45a3.png</property>
  <property name="ttl">25</property>
  <property name="aspect_ratio">1</property>
  <property name="progressive">1</property>
  <property name="seekable">1</property>
  <property name="format">1</property>
  <property name="meta.media.width">800</property>
  <property name="meta.media.height">358</property>
  <property name="mlt_service">qimage</property>
  <property name="kdenlive:clipname">freqmonitor.png</property>
  <property name="kdenlive:duration">00:00:05.000</property>
  <property name="kdenlive:folderid">-1</property>
  <property name="kdenlive:clip_type">2</property>
  <property name="kdenlive:id">40</property>
  <property name="kdenlive:file_size">103803</property>
  <property name="kdenlive:file_hash">8837a85c7eeb94ec3c008fe86ecf45a3</property>
  <property name="kdenlive:proxy">/home/archer/.var/app/org.kde.kdenlive/cache/kdenlive/proxy/8837a85c7eeb94ec3c008fe86ecf45a3.png</property>
  <property name="kdenlive:originalurl">/home/archer/Downloads/videosource/shujav2/freqmonitor.png</property>
  <property name="kdenlive:original.mlt_type">producer</property>
  <property name="kdenlive:original.in">00:00:00.000</property>
  <property name="kdenlive:original.out">00:00:04.983</property>
  <property name="kdenlive:original.length">00:00:05.000</property>
  <property name="kdenlive:original.eof">pause</property>
  <property name="kdenlive:original.resource">/home/archer/Downloads/videosource/shujav2/freqmonitor.png</property>
  <property name="kdenlive:original.ttl">25</property>
  <property name="kdenlive:original.aspect_ratio">1</property>
  <property name="kdenlive:original.progressive">1</property>
  <property name="kdenlive:original.seekable">1</property>
  <property name="kdenlive:original.format">1</property>
  <property name="kdenlive:original.meta.media.width">914</property>
  <property name="kdenlive:original.meta.media.height">409</property>
  <property name="kdenlive:original.mlt_service">qimage</property>
  <property name="kdenlive:original.id">producer34</property>
  <property name="kdenlive:original.kdenlive:duration">00:00:05.000</property>
  <property name="kdenlive:original.kdenlive:folderid">-1</property>
  <property name="kdenlive:original.kdenlive:clip_type">2</property>
  <property name="kdenlive:original.kdenlive:id">40</property>
  <property name="kdenlive:original.kdenlive:file_size">103803</property>
  <property name="kdenlive:original.kdenlive:file_hash">8837a85c7eeb94ec3c008fe86ecf45a3</property>
  <property name="kdenlive:original.backup">1</property>
 </producer>
 <producer id="producer35" in="00:00:00.000" out="00:00:10.100">
  <property name="length">607</property>
  <property name="eof">pause</property>
  <property name="resource">/home/archer/Downloads/videosource/shujav2/sendingmanyberries.png</property>
  <property name="ttl">25</property>
  <property name="aspect_ratio">1</property>
  <property name="progressive">1</property>
  <property name="seekable">1</property>
  <property name="format">2</property>
  <property name="meta.media.width">996</property>
  <property name="meta.media.height">5356</property>
  <property name="mlt_service">qimage</property>
  <property name="kdenlive:clipname">sendingmanyberries.png</property>
  <property name="kdenlive:duration">00:00:05.000</property>
  <property name="kdenlive:folderid">3</property>
  <property name="kdenlive:clip_type">2</property>
  <property name="kdenlive:id">41</property>
  <property name="kdenlive:file_size">21378478</property>
  <property name="kdenlive:proxy">-</property>
  <property name="kdenlive:originalurl">/home/archer/Downloads/videosource/shujav2/sendingmanyberries.png</property>
  <property name="kdenlive:original.mlt_type">producer</property>
  <property name="kdenlive:original.in">00:00:00.000</property>
  <property name="kdenlive:original.out">00:00:04.983</property>
  <property name="kdenlive:original.length">00:00:05.000</property>
  <property name="kdenlive:original.eof">pause</property>
  <property name="kdenlive:original.resource">/home/archer/Downloads/videosource/shujav2/sendingmanyberries.png</property>
  <property name="kdenlive:original.ttl">25</property>
  <property name="kdenlive:original.aspect_ratio">1</property>
  <property name="kdenlive:original.progressive">1</property>
  <property name="kdenlive:original.seekable">1</property>
  <property name="kdenlive:original.format">2</property>
  <property name="kdenlive:original.meta.media.width">996</property>
  <property name="kdenlive:original.meta.media.height">5356</property>
  <property name="kdenlive:original.mlt_service">qimage</property>
  <property name="kdenlive:original.kdenlive:duration">00:00:05.000</property>
  <property name="kdenlive:original.kdenlive:folderid">3</property>
  <property name="kdenlive:original.kdenlive:clip_type">2</property>
  <property name="kdenlive:original.kdenlive:id">41</property>
  <property name="kdenlive:original.kdenlive:file_size">21378478</property>
  <property name="kdenlive:original.kdenlive:file_hash">fe416474021e629974d5c71f1b9cb323</property>
  <property name="kdenlive:original.backup">1</property>
  <property name="kdenlive:file_hash">fe416474021e629974d5c71f1b9cb323</property>
 </producer>
 <producer id="producer36" in="00:00:00.000" out="00:00:04.983">
  <property name="length">00:00:05.000</property>
  <property name="eof">pause</property>
  <property name="resource">/home/archer/Downloads/videosource/shujav2/shujastartshaxberry.png</property>
  <property name="ttl">25</property>
  <property name="aspect_ratio">1</property>
  <property name="progressive">1</property>
  <property name="seekable">1</property>
  <property name="format">1</property>
  <property name="meta.media.width">456</property>
  <property name="meta.media.height">46</property>
  <property name="mlt_service">qimage</property>
  <property name="kdenlive:clipname"/>
  <property name="kdenlive:duration">00:00:05.000</property>
  <property name="kdenlive:folderid">3</property>
  <property name="kdenlive:clip_type">2</property>
  <property name="kdenlive:id">42</property>
  <property name="kdenlive:file_size">11276</property>
  <property name="kdenlive:file_hash">b69794175c34c6ba3ab6134d0f0b956d</property>
 </producer>
 <producer id="producer37" in="00:00:00.000" out="00:00:05.183">
  <property name="length">312</property>
  <property name="eof">pause</property>
  <property name="resource">0xff0000ff</property>
  <property name="aspect_ratio">1</property>
  <property name="mlt_service">color</property>
  <property name="kdenlive:clipname">red</property>
  <property name="kdenlive:duration">00:00:05.000</property>
  <property name="kdenlive:folderid">3</property>
  <property name="kdenlive:clip_type">2</property>
  <property name="kdenlive:id">43</property>
  <property name="mlt_image_format">rgb</property>
  <property name="kdenlive:file_hash">a4ff63d46e5193b5ac9b230b6a0d11a0</property>
 </producer>
 <producer id="producer38" in="00:00:00.000" out="00:00:04.983">
  <property name="length">300</property>
  <property name="eof">pause</property>
  <property name="resource"/>
  <property name="progressive">1</property>
  <property name="aspect_ratio">1</property>
  <property name="seekable">1</property>
  <property name="mlt_service">kdenlivetitle</property>
  <property name="kdenlive:duration">300</property>
  <property name="kdenlive:clipname">DESPERATE</property>
  <property name="xmldata">&lt;kdenlivetitle duration="300" LC_NUMERIC="C" width="1920" height="1080" out="299">
 &lt;item type="QGraphicsTextItem" z-index="0">
  &lt;position x="152" y="367">
   &lt;transform>1,0,0,0,1,0,0,0,1&lt;/transform>
  &lt;/position>
  &lt;content line-spacing="0" shadow="1;#64000000;10;6;6" font-underline="0" box-height="345" font-outline-color="0,0,0,255" font="Ubuntu" letter-spacing="0" font-pixel-size="300" font-italic="0" typewriter="0;2;1;0;0" alignment="1" font-weight="50" font-outline="4" box-width="1616.03" font-color="255,0,0,255">DESPERATE&lt;/content>
 &lt;/item>
 &lt;startviewport rect="0,0,1920,1080"/>
 &lt;endviewport rect="0,0,1920,1080"/>
 &lt;background color="0,0,0,0"/>
&lt;/kdenlivetitle>
</property>
  <property name="kdenlive:folderid">44</property>
  <property name="kdenlive:clip_type">2</property>
  <property name="kdenlive:id">45</property>
  <property name="kdenlive:file_hash">792215f04f30f5c95c59fd1b16ac2123</property>
  <property name="force_reload">0</property>
  <property name="meta.media.width">1920</property>
  <property name="meta.media.height">1080</property>
 </producer>
 <producer id="producer39" in="00:00:00.000" out="00:00:04.983">
  <property name="length">300</property>
  <property name="eof">pause</property>
  <property name="resource"/>
  <property name="progressive">1</property>
  <property name="aspect_ratio">1</property>
  <property name="seekable">1</property>
  <property name="mlt_service">kdenlivetitle</property>
  <property name="kdenlive:duration">300</property>
  <property name="kdenlive:clipname">for</property>
  <property name="xmldata">&lt;kdenlivetitle duration="300" LC_NUMERIC="C" width="1920" height="1080" out="299">
 &lt;item type="QGraphicsTextItem" z-index="0">
  &lt;position x="756" y="367">
   &lt;transform>1,0,0,0,1,0,0,0,1&lt;/transform>
  &lt;/position>
  &lt;content line-spacing="0" shadow="0;#64000000;3;3;3" font-underline="0" box-height="345" font-outline-color="0,0,0,255" font="Ubuntu" letter-spacing="0" font-pixel-size="300" font-italic="0" typewriter="0;2;1;0;0" alignment="1" font-weight="50" font-outline="4" box-width="408.578" font-color="255,255,255,255">for&lt;/content>
 &lt;/item>
 &lt;startviewport rect="0,0,1920,1080"/>
 &lt;endviewport rect="0,0,1920,1080"/>
 &lt;background color="0,0,0,0"/>
&lt;/kdenlivetitle>
</property>
  <property name="kdenlive:folderid">44</property>
  <property name="kdenlive:clip_type">2</property>
  <property name="kdenlive:id">46</property>
  <property name="kdenlive:file_hash">dd0bec0e67652f0e04a14be0607cd22c</property>
  <property name="force_reload">0</property>
  <property name="meta.media.width">1920</property>
  <property name="meta.media.height">1080</property>
 </producer>
 <producer id="producer40" in="00:00:00.000" out="00:00:04.983">
  <property name="length">300</property>
  <property name="eof">pause</property>
  <property name="resource"/>
  <property name="progressive">1</property>
  <property name="aspect_ratio">1</property>
  <property name="seekable">1</property>
  <property name="mlt_service">kdenlivetitle</property>
  <property name="kdenlive:duration">300</property>
  <property name="kdenlive:clipname">another</property>
  <property name="xmldata">&lt;kdenlivetitle duration="300" LC_NUMERIC="C" width="1920" height="1080" out="299">
 &lt;item type="QGraphicsTextItem" z-index="0">
  &lt;position x="419" y="367">
   &lt;transform>1,0,0,0,1,0,0,0,1&lt;/transform>
  &lt;/position>
  &lt;content shadow="0;#64000000;3;3;3" font-underline="0" box-height="345" font-outline-color="0,0,0,255" font="Ubuntu" letter-spacing="0" font-pixel-size="300" font-italic="0" typewriter="0;2;1;0;0" alignment="1" font-weight="50" font-outline="4" box-width="1081.14" font-color="255,255,255,255">another&lt;/content>
 &lt;/item>
 &lt;startviewport rect="0,0,1920,1080"/>
 &lt;endviewport rect="0,0,1920,1080"/>
 &lt;background color="0,0,0,0"/>
&lt;/kdenlivetitle>
</property>
  <property name="kdenlive:folderid">44</property>
  <property name="kdenlive:clip_type">2</property>
  <property name="kdenlive:id">47</property>
  <property name="kdenlive:file_hash">ac06f7b2e13cb66b1f0ae9882cccdcfb</property>
  <property name="force_reload">0</property>
  <property name="meta.media.width">1920</property>
  <property name="meta.media.height">1080</property>
 </producer>
 <producer id="producer41" in="00:00:00.000" out="00:00:04.983">
  <property name="length">300</property>
  <property name="eof">pause</property>
  <property name="resource"/>
  <property name="progressive">1</property>
  <property name="aspect_ratio">1</property>
  <property name="seekable">1</property>
  <property name="mlt_service">kdenlivetitle</property>
  <property name="kdenlive:duration">300</property>
  <property name="kdenlive:clipname">way</property>
  <property name="xmldata">&lt;kdenlivetitle duration="300" LC_NUMERIC="C" width="1920" height="1080" out="299">
 &lt;item type="QGraphicsTextItem" z-index="0">
  &lt;position x="693" y="367">
   &lt;transform>1,0,0,0,1,0,0,0,1&lt;/transform>
  &lt;/position>
  &lt;content shadow="0;#64000000;3;3;3" font-underline="0" box-height="345" font-outline-color="0,0,0,255" font="Ubuntu" letter-spacing="0" font-pixel-size="300" font-italic="0" typewriter="0;2;1;0;0" alignment="1" font-weight="50" font-outline="4" box-width="534.281" font-color="255,255,255,255">way&lt;/content>
 &lt;/item>
 &lt;startviewport rect="0,0,1920,1080"/>
 &lt;endviewport rect="0,0,1920,1080"/>
 &lt;background color="0,0,0,0"/>
&lt;/kdenlivetitle>
</property>
  <property name="kdenlive:folderid">44</property>
  <property name="kdenlive:clip_type">2</property>
  <property name="kdenlive:id">48</property>
  <property name="kdenlive:file_hash">e5183d660770bb82bc992ae133faa4cd</property>
  <property name="force_reload">0</property>
  <property name="meta.media.width">1920</property>
  <property name="meta.media.height">1080</property>
 </producer>
 <producer id="producer42" in="00:00:00.000" out="00:00:04.983">
  <property name="length">300</property>
  <property name="eof">pause</property>
  <property name="resource"/>
  <property name="progressive">1</property>
  <property name="aspect_ratio">1</property>
  <property name="seekable">1</property>
  <property name="mlt_service">kdenlivetitle</property>
  <property name="kdenlive:duration">300</property>
  <property name="kdenlive:clipname">of</property>
  <property name="xmldata">&lt;kdenlivetitle duration="300" LC_NUMERIC="C" width="1920" height="1080" out="299">
 &lt;item type="QGraphicsTextItem" z-index="0">
  &lt;position x="812" y="367">
   &lt;transform>1,0,0,0,1,0,0,0,1&lt;/transform>
  &lt;/position>
  &lt;content shadow="0;#64000000;3;3;3" font-underline="0" box-height="345" font-outline-color="0,0,0,255" font="Ubuntu" letter-spacing="0" font-pixel-size="300" font-italic="0" typewriter="0;2;1;0;0" alignment="1" font-weight="50" font-outline="4" box-width="295.781" font-color="255,255,255,255">of&lt;/content>
 &lt;/item>
 &lt;startviewport rect="0,0,1920,1080"/>
 &lt;endviewport rect="0,0,1920,1080"/>
 &lt;background color="0,0,0,0"/>
&lt;/kdenlivetitle>
</property>
  <property name="kdenlive:folderid">44</property>
  <property name="kdenlive:clip_type">2</property>
  <property name="kdenlive:id">49</property>
  <property name="kdenlive:file_hash">9780c837bd8b35b37ded14fe11b89aed</property>
  <property name="force_reload">0</property>
  <property name="meta.media.width">1920</property>
  <property name="meta.media.height">1080</property>
 </producer>
 <producer id="producer43" in="00:00:00.000" out="00:00:04.983">
  <property name="length">300</property>
  <property name="eof">pause</property>
  <property name="resource"/>
  <property name="progressive">1</property>
  <property name="aspect_ratio">1</property>
  <property name="seekable">1</property>
  <property name="mlt_service">kdenlivetitle</property>
  <property name="kdenlive:duration">300</property>
  <property name="kdenlive:clipname">hacking</property>
  <property name="xmldata">&lt;kdenlivetitle duration="300" LC_NUMERIC="C" width="1920" height="1080" out="299">
 &lt;item type="QGraphicsTextItem" z-index="0">
  &lt;position x="437" y="367">
   &lt;transform>1,0,0,0,1,0,0,0,1&lt;/transform>
  &lt;/position>
  &lt;content shadow="0;#64000000;3;3;3" font-underline="0" box-height="345" font-outline-color="0,0,0,255" font="Ubuntu" letter-spacing="0" font-pixel-size="300" font-italic="0" typewriter="0;2;1;0;0" alignment="1" font-weight="50" font-outline="4" box-width="1045.44" font-color="255,255,255,255">hacking&lt;/content>
 &lt;/item>
 &lt;startviewport rect="0,0,1920,1080"/>
 &lt;endviewport rect="0,0,1920,1080"/>
 &lt;background color="0,0,0,0"/>
&lt;/kdenlivetitle>
</property>
  <property name="kdenlive:folderid">44</property>
  <property name="kdenlive:clip_type">2</property>
  <property name="kdenlive:id">50</property>
  <property name="kdenlive:file_hash">d4a5a3267f6f0089802c8d64a170fac8</property>
 </producer>
 <producer id="producer44" in="00:00:00.000" out="00:00:04.983">
  <property name="length">300</property>
  <property name="eof">pause</property>
  <property name="resource"/>
  <property name="progressive">1</property>
  <property name="aspect_ratio">1</property>
  <property name="seekable">1</property>
  <property name="mlt_service">kdenlivetitle</property>
  <property name="kdenlive:duration">300</property>
  <property name="kdenlive:clipname">their</property>
  <property name="xmldata">&lt;kdenlivetitle duration="300" LC_NUMERIC="C" width="1920" height="1080" out="299">
 &lt;item type="QGraphicsTextItem" z-index="0">
  &lt;position x="634" y="367">
   &lt;transform>1,0,0,0,1,0,0,0,1&lt;/transform>
  &lt;/position>
  &lt;content shadow="0;#64000000;3;3;3" font-underline="0" box-height="345" font-outline-color="0,0,0,255" font="Ubuntu" letter-spacing="0" font-pixel-size="300" font-italic="0" typewriter="0;2;1;0;0" alignment="1" font-weight="50" font-outline="4" box-width="651.266" font-color="255,255,255,255">their&lt;/content>
 &lt;/item>
 &lt;startviewport rect="0,0,1920,1080"/>
 &lt;endviewport rect="0,0,1920,1080"/>
 &lt;background color="0,0,0,0"/>
&lt;/kdenlivetitle>
</property>
  <property name="kdenlive:folderid">44</property>
  <property name="kdenlive:clip_type">2</property>
  <property name="kdenlive:id">51</property>
  <property name="kdenlive:file_hash">14c445d6ddb1fb0758fb9d33ecf1cabe</property>
 </producer>
 <producer id="producer45" in="00:00:00.000" out="00:00:04.983">
  <property name="length">300</property>
  <property name="eof">pause</property>
  <property name="resource"/>
  <property name="progressive">1</property>
  <property name="aspect_ratio">1</property>
  <property name="seekable">1</property>
  <property name="mlt_service">kdenlivetitle</property>
  <property name="kdenlive:duration">300</property>
  <property name="kdenlive:clipname">blackberries</property>
  <property name="xmldata">&lt;kdenlivetitle duration="300" LC_NUMERIC="C" width="1920" height="1080" out="299">
 &lt;item type="QGraphicsTextItem" z-index="0">
  &lt;position x="128" y="367">
   &lt;transform>1,0,0,0,1,0,0,0,1&lt;/transform>
  &lt;/position>
  &lt;content shadow="0;#64000000;3;3;3" font-underline="0" box-height="345" font-outline-color="0,0,0,255" font="Ubuntu" letter-spacing="0" font-pixel-size="300" font-italic="0" typewriter="0;2;1;0;0" alignment="1" font-weight="50" font-outline="4" box-width="1664.59" font-color="255,255,255,255">blackberries&lt;/content>
 &lt;/item>
 &lt;startviewport rect="0,0,1920,1080"/>
 &lt;endviewport rect="0,0,1920,1080"/>
 &lt;background color="0,0,0,0"/>
&lt;/kdenlivetitle>
</property>
  <property name="kdenlive:folderid">44</property>
  <property name="kdenlive:clip_type">2</property>
  <property name="kdenlive:id">52</property>
  <property name="kdenlive:file_hash">470863dcad1736fde7d744e1c69f35c0</property>
 </producer>
 <producer id="producer46" in="00:00:00.000" out="00:00:04.983">
  <property name="length">00:00:05.000</property>
  <property name="eof">pause</property>
  <property name="resource">/home/archer/Downloads/videosource/shujav2/thehomebrewchannel.png</property>
  <property name="ttl">25</property>
  <property name="aspect_ratio">1</property>
  <property name="progressive">1</property>
  <property name="seekable">1</property>
  <property name="format">1</property>
  <property name="meta.media.width">325</property>
  <property name="meta.media.height">260</property>
  <property name="mlt_service">qimage</property>
  <property name="kdenlive:clipname"/>
  <property name="kdenlive:duration">00:00:05.000</property>
  <property name="kdenlive:folderid">-1</property>
  <property name="kdenlive:clip_type">2</property>
  <property name="kdenlive:id">53</property>
  <property name="kdenlive:file_size">20775</property>
  <property name="kdenlive:file_hash">5041db6e9a8988d3b25b0adf939cfefb</property>
 </producer>
 <producer id="producer47" in="00:00:00.000" out="00:02:35.700">
  <property name="length">9343</property>
  <property name="eof">pause</property>
  <property name="resource">/home/archer/.var/app/org.kde.kdenlive/cache/kdenlive/proxy/91b5159f1606b53816dd21b8d689d140.mov</property>
  <property name="meta.media.nb_streams">2</property>
  <property name="meta.media.0.stream.type">video</property>
  <property name="meta.media.0.stream.frame_rate">30</property>
  <property name="meta.media.0.stream.sample_aspect_ratio">1</property>
  <property name="meta.media.0.codec.width">640</property>
  <property name="meta.media.0.codec.height">360</property>
  <property name="meta.media.0.codec.rotate">0</property>
  <property name="meta.media.0.codec.pix_fmt">yuv420p</property>
  <property name="meta.media.0.codec.sample_aspect_ratio">1</property>
  <property name="meta.media.0.codec.colorspace">601</property>
  <property name="meta.media.0.codec.color_trc">1</property>
  <property name="meta.media.0.codec.name">h264</property>
  <property name="meta.media.0.codec.long_name">H.264 / AVC / MPEG-4 AVC / MPEG-4 part 10</property>
  <property name="meta.media.0.codec.bit_rate">1554691</property>
  <property name="meta.attr.0.stream.handler_name.markup">ISO Media file produced by Google Inc.</property>
  <property name="meta.attr.0.stream.vendor_id.markup">FFMP</property>
  <property name="meta.attr.0.stream.encoder.markup">Lavc58.134.100 h264_vaapi</property>
  <property name="meta.media.1.stream.type">audio</property>
  <property name="meta.media.1.codec.sample_fmt">fltp</property>
  <property name="meta.media.1.codec.sample_rate">44100</property>
  <property name="meta.media.1.codec.channels">2</property>
  <property name="meta.media.1.codec.name">ac3</property>
  <property name="meta.media.1.codec.long_name">ATSC A/52A (AC-3)</property>
  <property name="meta.media.1.codec.bit_rate">128000</property>
  <property name="meta.attr.1.stream.language.markup">eng</property>
  <property name="meta.attr.1.stream.handler_name.markup">ISO Media file produced by Google Inc.</property>
  <property name="meta.attr.1.stream.vendor_id.markup">[0][0][0][0]</property>
  <property name="meta.attr.major_brand.markup">qt  </property>
  <property name="meta.attr.minor_version.markup">512</property>
  <property name="meta.attr.compatible_brands.markup">qt  </property>
  <property name="meta.attr.artist.markup">funnybone</property>
  <property name="meta.attr.title.markup">The Homebrew Channel - Full Theme</property>
  <property name="meta.attr.date.markup">20180707</property>
  <property name="meta.attr.encoder.markup">Lavf58.76.100</property>
  <property name="meta.attr.comment.markup">https://www.youtube.com/watch?v=zLDlWNDmR8k</property>
  <property name="seekable">1</property>
  <property name="meta.media.sample_aspect_num">1</property>
  <property name="meta.media.sample_aspect_den">1</property>
  <property name="aspect_ratio">1</property>
  <property name="format">3</property>
  <property name="audio_index">1</property>
  <property name="video_index">0</property>
  <property name="mute_on_pause">0</property>
  <property name="mlt_service">avformat-novalidate</property>
  <property name="kdenlive:clipname">The Homebrew Channel - Full Theme.mp4</property>
  <property name="kdenlive:clip_type">0</property>
  <property name="kdenlive:folderid">-1</property>
  <property name="kdenlive:id">54</property>
  <property name="kdenlive:file_size">29294667</property>
  <property name="kdenlive:file_hash">91b5159f1606b53816dd21b8d689d140</property>
  <property name="kdenlive:proxy">/home/archer/.var/app/org.kde.kdenlive/cache/kdenlive/proxy/91b5159f1606b53816dd21b8d689d140.mov</property>
  <property name="kdenlive:originalurl">/home/archer/Downloads/VideoDownloader/The Homebrew Channel - Full Theme.mp4</property>
  <property name="kdenlive:original.mlt_type">producer</property>
  <property name="kdenlive:original.in">0</property>
  <property name="kdenlive:original.out">9342</property>
  <property name="kdenlive:original.length">9343</property>
  <property name="kdenlive:original.eof">pause</property>
  <property name="kdenlive:original.resource">/home/archer/Downloads/VideoDownloader/The Homebrew Channel - Full Theme.mp4</property>
  <property name="kdenlive:original.meta.media.nb_streams">2</property>
  <property name="kdenlive:original.meta.media.0.stream.type">video</property>
  <property name="kdenlive:original.meta.media.0.stream.frame_rate">30</property>
  <property name="kdenlive:original.meta.media.0.stream.sample_aspect_ratio">1</property>
  <property name="kdenlive:original.meta.media.0.codec.width">1920</property>
  <property name="kdenlive:original.meta.media.0.codec.height">1080</property>
  <property name="kdenlive:original.meta.media.0.codec.rotate">0</property>
  <property name="kdenlive:original.meta.media.0.codec.pix_fmt">yuv420p</property>
  <property name="kdenlive:original.meta.media.0.codec.sample_aspect_ratio">1</property>
  <property name="kdenlive:original.meta.media.0.codec.colorspace">601</property>
  <property name="kdenlive:original.meta.media.0.codec.color_trc">1</property>
  <property name="kdenlive:original.meta.media.0.codec.name">h264</property>
  <property name="kdenlive:original.meta.media.0.codec.long_name">H.264 / AVC / MPEG-4 AVC / MPEG-4 part 10</property>
  <property name="kdenlive:original.meta.media.0.codec.bit_rate">1370503</property>
  <property name="kdenlive:original.meta.attr.0.stream.handler_name.markup">ISO Media file produced by Google Inc.</property>
  <property name="kdenlive:original.meta.attr.0.stream.vendor_id.markup">[0][0][0][0]</property>
  <property name="kdenlive:original.meta.media.1.stream.type">audio</property>
  <property name="kdenlive:original.meta.media.1.codec.sample_fmt">fltp</property>
  <property name="kdenlive:original.meta.media.1.codec.sample_rate">44100</property>
  <property name="kdenlive:original.meta.media.1.codec.channels">2</property>
  <property name="kdenlive:original.meta.media.1.codec.name">aac</property>
  <property name="kdenlive:original.meta.media.1.codec.long_name">AAC (Advanced Audio Coding)</property>
  <property name="kdenlive:original.meta.media.1.codec.bit_rate">127999</property>
  <property name="kdenlive:original.meta.attr.1.stream.language.markup">eng</property>
  <property name="kdenlive:original.meta.attr.1.stream.handler_name.markup">ISO Media file produced by Google Inc.</property>
  <property name="kdenlive:original.meta.attr.1.stream.vendor_id.markup">[0][0][0][0]</property>
  <property name="kdenlive:original.meta.attr.major_brand.markup">isom</property>
  <property name="kdenlive:original.meta.attr.minor_version.markup">512</property>
  <property name="kdenlive:original.meta.attr.compatible_brands.markup">isomiso2avc1mp41</property>
  <property name="kdenlive:original.meta.attr.title.markup">The Homebrew Channel - Full Theme</property>
  <property name="kdenlive:original.meta.attr.artist.markup">funnybone</property>
  <property name="kdenlive:original.meta.attr.date.markup">20180707</property>
  <property name="kdenlive:original.meta.attr.encoder.markup">Lavf60.3.100</property>
  <property name="kdenlive:original.meta.attr.comment.markup">https://www.youtube.com/watch?v=zLDlWNDmR8k</property>
  <property name="kdenlive:original.meta.attr.description.markup">The Homebrew Channel - Full Theme</property>
  <property name="kdenlive:original.meta.attr.synopsis.markup">The Homebrew Channel - Full Theme</property>
  <property name="kdenlive:original.seekable">1</property>
  <property name="kdenlive:original.width">1920</property>
  <property name="kdenlive:original.height">1080</property>
  <property name="kdenlive:original.meta.media.sample_aspect_num">1</property>
  <property name="kdenlive:original.meta.media.sample_aspect_den">1</property>
  <property name="kdenlive:original.aspect_ratio">1</property>
  <property name="kdenlive:original.format">3</property>
  <property name="kdenlive:original.audio_index">1</property>
  <property name="kdenlive:original.video_index">0</property>
  <property name="kdenlive:original.mute_on_pause">0</property>
  <property name="kdenlive:original.mlt_service">avformat-novalidate</property>
  <property name="kdenlive:original.meta.media.frame_rate_num">30</property>
  <property name="kdenlive:original.meta.media.frame_rate_den">1</property>
  <property name="kdenlive:original.meta.media.colorspace">601</property>
  <property name="kdenlive:original.meta.media.color_trc">1</property>
  <property name="kdenlive:original.meta.media.has_b_frames">1</property>
  <property name="kdenlive:original.meta.media.width">1920</property>
  <property name="kdenlive:original.meta.media.height">1080</property>
  <property name="kdenlive:original.meta.media.color_range">mpeg</property>
  <property name="kdenlive:original.meta.media.top_field_first">0</property>
  <property name="kdenlive:original.meta.media.progressive">1</property>
  <property name="kdenlive:original.kdenlive:clip_type">0</property>
  <property name="kdenlive:original.kdenlive:folderid">-1</property>
  <property name="kdenlive:original.kdenlive:id">54</property>
  <property name="kdenlive:original.kdenlive:file_size">29294667</property>
  <property name="kdenlive:original.kdenlive:file_hash">91b5159f1606b53816dd21b8d689d140</property>
  <property name="kdenlive:original.backup">1</property>
  <property name="kdenlive:audio_max1">217</property>
  <property name="meta.media.frame_rate_num">30</property>
  <property name="meta.media.frame_rate_den">1</property>
  <property name="meta.media.colorspace">601</property>
  <property name="meta.media.color_trc">1</property>
  <property name="meta.media.has_b_frames">0</property>
  <property name="meta.media.width">640</property>
  <property name="meta.media.height">360</property>
  <property name="meta.media.color_range">mpeg</property>
  <property name="meta.media.top_field_first">0</property>
  <property name="meta.media.progressive">1</property>
 </producer>
 <producer id="producer48" in="00:00:00.000" out="00:10:15.217">
  <property name="length">2147483647</property>
  <property name="eof">continue</property>
  <property name="resource">black</property>
  <property name="aspect_ratio">1</property>
  <property name="mlt_service">color</property>
  <property name="kdenlive:playlistid">black_track</property>
  <property name="mlt_image_format">rgba</property>
  <property name="set.test_audio">0</property>
 </producer>
 <chain id="chain0" out="00:02:50.833">
  <property name="length">10251</property>
  <property name="eof">pause</property>
  <property name="resource">/home/archer/Downloads/VideoDownloader/A Sardine Grows from the Soil [Intrumental_o]- Koronba.mp3</property>
  <property name="mlt_service">avformat-novalidate</property>
  <property name="seekable">1</property>
  <property name="audio_index">0</property>
  <property name="video_index">1</property>
  <property name="kdenlive:clipname"/>
  <property name="kdenlive:clip_type">0</property>
  <property name="kdenlive:folderid">-1</property>
  <property name="kdenlive:id">65</property>
  <property name="mute_on_pause">0</property>
  <property name="kdenlive:file_size">4145720</property>
  <property name="kdenlive:file_hash">120eb88de7491bb75955961c4a59a7ca</property>
  <property name="kdenlive:audio_max0">216</property>
  <property name="meta.media.nb_streams">2</property>
  <property name="meta.media.0.stream.type">audio</property>
  <property name="meta.media.0.codec.sample_fmt">fltp</property>
  <property name="meta.media.0.codec.sample_rate">48000</property>
  <property name="meta.media.0.codec.channels">2</property>
  <property name="meta.media.0.codec.name">mp3float</property>
  <property name="meta.media.0.codec.long_name">MP3 (MPEG audio layer 3)</property>
  <property name="meta.media.0.codec.bit_rate">192000</property>
  <property name="meta.attr.0.stream.encoder.markup">Lavc60.3.</property>
  <property name="meta.media.1.stream.type">video</property>
  <property name="meta.media.1.stream.frame_rate">90000</property>
  <property name="meta.media.1.stream.sample_aspect_ratio">0</property>
  <property name="meta.media.1.codec.width">1024</property>
  <property name="meta.media.1.codec.height">576</property>
  <property name="meta.media.1.codec.rotate">0</property>
  <property name="meta.media.1.codec.pix_fmt">yuvj420p</property>
  <property name="meta.media.1.codec.sample_aspect_ratio">0</property>
  <property name="meta.media.1.codec.colorspace">601</property>
  <property name="meta.media.1.codec.name">mjpeg</property>
  <property name="meta.media.1.codec.long_name">MJPEG (Motion JPEG)</property>
  <property name="meta.media.1.codec.bit_rate">0</property>
  <property name="meta.attr.1.stream.title.markup">"Album cover"</property>
  <property name="meta.attr.1.stream.comment.markup">Cover (front)</property>
  <property name="meta.attr.artist.markup">ＮＥＫＯ ＤＥＡＭＳ</property>
  <property name="meta.attr.title.markup">A Sardine Grows from the Soil [Intrumental_o]- Koronba</property>
  <property name="meta.attr.date.markup">20181103</property>
  <property name="meta.attr.description.markup">idk donde saque esto pero there u go
i hope u enjoy</property>
  <property name="meta.attr.synopsis.markup">idk donde saque esto pero there u go
i hope u enjoy</property>
  <property name="meta.attr.purl.markup">https://www.youtube.com/watch?v=HuKu92_dnNM</property>
  <property name="meta.attr.comment.markup">https://www.youtube.com/watch?v=HuKu92_dnNM</property>
  <property name="meta.attr.encoder.markup">Lavf60.3.100</property>
  <property name="meta.media.sample_aspect_num">1</property>
  <property name="meta.media.sample_aspect_den">1</property>
  <property name="meta.media.frame_rate_num">90000</property>
  <property name="meta.media.frame_rate_den">1</property>
  <property name="meta.media.colorspace">601</property>
  <property name="meta.media.color_trc">2</property>
  <property name="meta.media.has_b_frames">0</property>
  <property name="meta.media.width">1024</property>
  <property name="meta.media.height">576</property>
  <property name="meta.media.color_range">full</property>
  <property name="xml">was here</property>
  <property name="meta.media.top_field_first">0</property>
  <property name="meta.media.progressive">1</property>
  <property name="set.test_audio">0</property>
  <property name="set.test_image">1</property>
 </chain>
 <chain id="chain1" out="00:01:25.033">
  <property name="length">5103</property>
  <property name="eof">pause</property>
  <property name="resource">/home/archer/Downloads/VideoDownloader/@lilthroatx - Dick In My Mouth (Instrumental Remake).mp3</property>
  <property name="mlt_service">avformat-novalidate</property>
  <property name="seekable">1</property>
  <property name="audio_index">0</property>
  <property name="video_index">1</property>
  <property name="kdenlive:clipname"/>
  <property name="kdenlive:clip_type">0</property>
  <property name="kdenlive:folderid">-1</property>
  <property name="kdenlive:id">100</property>
  <property name="mute_on_pause">0</property>
  <property name="kdenlive:file_size">2061139</property>
  <property name="kdenlive:file_hash">b6484faf26e3b1f4e54a5038192bc787</property>
  <property name="kdenlive:audio_max0">256</property>
  <property name="meta.media.nb_streams">2</property>
  <property name="meta.media.0.stream.type">audio</property>
  <property name="meta.media.0.codec.sample_fmt">fltp</property>
  <property name="meta.media.0.codec.sample_rate">48000</property>
  <property name="meta.media.0.codec.channels">2</property>
  <property name="meta.media.0.codec.name">mp3float</property>
  <property name="meta.media.0.codec.long_name">MP3 (MPEG audio layer 3)</property>
  <property name="meta.media.0.codec.bit_rate">192000</property>
  <property name="meta.attr.0.stream.encoder.markup">Lavc60.3.</property>
  <property name="meta.media.1.stream.type">video</property>
  <property name="meta.media.1.stream.frame_rate">90000</property>
  <property name="meta.media.1.stream.sample_aspect_ratio">0</property>
  <property name="meta.media.1.codec.width">1024</property>
  <property name="meta.media.1.codec.height">576</property>
  <property name="meta.media.1.codec.rotate">0</property>
  <property name="meta.media.1.codec.pix_fmt">yuvj420p</property>
  <property name="meta.media.1.codec.sample_aspect_ratio">0</property>
  <property name="meta.media.1.codec.colorspace">601</property>
  <property name="meta.media.1.codec.name">mjpeg</property>
  <property name="meta.media.1.codec.long_name">MJPEG (Motion JPEG)</property>
  <property name="meta.media.1.codec.bit_rate">0</property>
  <property name="meta.attr.1.stream.title.markup">"Album cover"</property>
  <property name="meta.attr.1.stream.comment.markup">Cover (front)</property>
  <property name="meta.attr.artist.markup">dn</property>
  <property name="meta.attr.title.markup">@lilthroatx - Dick In My Mouth (Instrumental Remake)</property>
  <property name="meta.attr.date.markup">20220131</property>
  <property name="meta.attr.description.markup">I really wasted my time on remaking this. &#xd;
beat goes hard though pause</property>
  <property name="meta.attr.synopsis.markup">I really wasted my time on remaking this. &#xd;
beat goes hard though pause</property>
  <property name="meta.attr.purl.markup">https://www.youtube.com/watch?v=TROHR-5qhyA</property>
  <property name="meta.attr.comment.markup">https://www.youtube.com/watch?v=TROHR-5qhyA</property>
  <property name="meta.attr.encoder.markup">Lavf60.3.100</property>
  <property name="meta.media.sample_aspect_num">1</property>
  <property name="meta.media.sample_aspect_den">1</property>
  <property name="meta.media.frame_rate_num">90000</property>
  <property name="meta.media.frame_rate_den">1</property>
  <property name="meta.media.colorspace">601</property>
  <property name="meta.media.color_trc">2</property>
  <property name="meta.media.has_b_frames">0</property>
  <property name="meta.media.width">1024</property>
  <property name="meta.media.height">576</property>
  <property name="meta.media.color_range">full</property>
  <property name="xml">was here</property>
  <property name="meta.media.top_field_first">0</property>
  <property name="meta.media.progressive">1</property>
  <property name="set.test_audio">0</property>
  <property name="set.test_image">1</property>
 </chain>
 <playlist id="playlist0">
  <blank length="00:00:45.383"/>
  <entry producer="chain0" in="00:00:07.267" out="00:00:42.067">
   <property name="kdenlive:id">65</property>
   <filter id="filter0" in="00:00:40.367" out="00:00:42.067">
    <property name="window">75</property>
    <property name="max_gain">20dB</property>
    <property name="mlt_service">volume</property>
    <property name="kdenlive_id">fadeout</property>
    <property name="gain">1</property>
    <property name="end">0</property>
    <property name="kdenlive:collapsed">0</property>
   </filter>
  </entry>
  <blank length="00:00:02.150"/>
  <entry producer="chain1" in="00:00:00.000" out="00:00:03.450">
   <property name="kdenlive:id">100</property>
   <property name="kdenlive:activeeffect">1</property>
   <filter id="filter1" out="00:00:00.583">
    <property name="window">75</property>
    <property name="max_gain">20dB</property>
    <property name="mlt_service">volume</property>
    <property name="kdenlive_id">fadein</property>
    <property name="gain">0</property>
    <property name="end">1</property>
    <property name="kdenlive:collapsed">0</property>
   </filter>
   <filter id="filter2">
    <property name="window">75</property>
    <property name="max_gain">20dB</property>
    <property name="level">00:00:00.000=-11</property>
    <property name="mlt_service">volume</property>
    <property name="kdenlive_id">volume</property>
    <property name="kdenlive:collapsed">0</property>
   </filter>
  </entry>
  <blank length="00:00:01.567"/>
  <entry producer="chain1" in="00:00:27.833" out="00:00:38.317">
   <property name="kdenlive:id">100</property>
   <filter id="filter3">
    <property name="window">75</property>
    <property name="max_gain">20dB</property>
    <property name="level">00:00:27.833=-11</property>
    <property name="mlt_service">volume</property>
    <property name="kdenlive_id">volume</property>
    <property name="kdenlive:collapsed">0</property>
   </filter>
  </entry>
  <blank length="00:00:03.083"/>
  <entry producer="chain1" in="00:00:40.283" out="00:00:52.450">
   <property name="kdenlive:id">100</property>
   <filter id="filter4">
    <property name="window">75</property>
    <property name="max_gain">20dB</property>
    <property name="level">00:00:40.283=-11</property>
    <property name="mlt_service">volume</property>
    <property name="kdenlive_id">volume</property>
    <property name="kdenlive:collapsed">0</property>
   </filter>
   <filter id="filter5" in="00:00:51.233" out="00:00:52.467">
    <property name="window">75</property>
    <property name="max_gain">20dB</property>
    <property name="mlt_service">volume</property>
    <property name="kdenlive_id">fadeout</property>
    <property name="gain">1</property>
    <property name="end">0</property>
    <property name="kdenlive:collapsed">0</property>
   </filter>
  </entry>
 </playlist>
 <playlist id="playlist1"/>
 <tractor id="tractor0" in="00:00:00.000" out="00:01:53.133">
  <property name="kdenlive:track_name">bgm2</property>
  <property name="kdenlive:audio_track">1</property>
  <property name="kdenlive:trackheight">67</property>
  <property name="kdenlive:timeline_active">1</property>
  <track hide="video" producer="playlist0"/>
  <track hide="video" producer="playlist1"/>
  <filter id="filter6">
   <property name="window">75</property>
   <property name="max_gain">20dB</property>
   <property name="level">-14.141</property>
   <property name="mlt_service">volume</property>
   <property name="internal_added">237</property>
   <property name="disable">0</property>
  </filter>
  <filter id="filter7">
   <property name="channel">-1</property>
   <property name="mlt_service">panner</property>
   <property name="internal_added">237</property>
   <property name="start">0.5</property>
   <property name="disable">1</property>
  </filter>
  <filter id="filter8">
   <property name="iec_scale">0</property>
   <property name="mlt_service">audiolevel</property>
   <property name="dbpeak">1</property>
   <property name="disable">1</property>
  </filter>
 </tractor>
 <producer id="producer49" in="00:00:00.000" out="00:02:35.700">
  <property name="length">9343</property>
  <property name="eof">pause</property>
  <property name="resource">/home/archer/.var/app/org.kde.kdenlive/cache/kdenlive/proxy/91b5159f1606b53816dd21b8d689d140.mov</property>
  <property name="audio_index">1</property>
  <property name="video_index">0</property>
  <property name="mute_on_pause">0</property>
  <property name="mlt_service">avformat-novalidate</property>
  <property name="meta.media.nb_streams">2</property>
  <property name="meta.media.0.stream.type">video</property>
  <property name="meta.media.0.stream.frame_rate">30</property>
  <property name="meta.media.0.stream.sample_aspect_ratio">1</property>
  <property name="meta.media.0.codec.width">640</property>
  <property name="meta.media.0.codec.height">360</property>
  <property name="meta.media.0.codec.rotate">0</property>
  <property name="meta.media.0.codec.pix_fmt">yuv420p</property>
  <property name="meta.media.0.codec.sample_aspect_ratio">1</property>
  <property name="meta.media.0.codec.colorspace">601</property>
  <property name="meta.media.0.codec.color_trc">1</property>
  <property name="meta.media.0.codec.name">h264</property>
  <property name="meta.media.0.codec.long_name">H.264 / AVC / MPEG-4 AVC / MPEG-4 part 10</property>
  <property name="meta.media.0.codec.bit_rate">1554691</property>
  <property name="meta.attr.0.stream.handler_name.markup">ISO Media file produced by Google Inc.</property>
  <property name="meta.attr.0.stream.vendor_id.markup">FFMP</property>
  <property name="meta.attr.0.stream.encoder.markup">Lavc58.134.100 h264_vaapi</property>
  <property name="meta.media.1.stream.type">audio</property>
  <property name="meta.media.1.codec.sample_fmt">fltp</property>
  <property name="meta.media.1.codec.sample_rate">44100</property>
  <property name="meta.media.1.codec.channels">2</property>
  <property name="meta.media.1.codec.name">ac3</property>
  <property name="meta.media.1.codec.long_name">ATSC A/52A (AC-3)</property>
  <property name="meta.media.1.codec.bit_rate">128000</property>
  <property name="meta.attr.1.stream.language.markup">eng</property>
  <property name="meta.attr.1.stream.handler_name.markup">ISO Media file produced by Google Inc.</property>
  <property name="meta.attr.1.stream.vendor_id.markup">[0][0][0][0]</property>
  <property name="meta.attr.major_brand.markup">qt  </property>
  <property name="meta.attr.minor_version.markup">512</property>
  <property name="meta.attr.compatible_brands.markup">qt  </property>
  <property name="meta.attr.artist.markup">funnybone</property>
  <property name="meta.attr.title.markup">The Homebrew Channel - Full Theme</property>
  <property name="meta.attr.date.markup">20180707</property>
  <property name="meta.attr.encoder.markup">Lavf58.76.100</property>
  <property name="meta.attr.comment.markup">https://www.youtube.com/watch?v=zLDlWNDmR8k</property>
  <property name="seekable">1</property>
  <property name="meta.media.sample_aspect_num">1</property>
  <property name="meta.media.sample_aspect_den">1</property>
  <property name="aspect_ratio">1</property>
  <property name="format">3</property>
  <property name="kdenlive:clipname">The Homebrew Channel - Full Theme.mp4</property>
  <property name="kdenlive:clip_type">0</property>
  <property name="kdenlive:folderid">-1</property>
  <property name="kdenlive:id">54</property>
  <property name="kdenlive:file_size">29294667</property>
  <property name="kdenlive:file_hash">91b5159f1606b53816dd21b8d689d140</property>
  <property name="kdenlive:proxy">/home/archer/.var/app/org.kde.kdenlive/cache/kdenlive/proxy/91b5159f1606b53816dd21b8d689d140.mov</property>
  <property name="kdenlive:originalurl">/home/archer/Downloads/VideoDownloader/The Homebrew Channel - Full Theme.mp4</property>
  <property name="kdenlive:original.mlt_type">producer</property>
  <property name="kdenlive:original.in">0</property>
  <property name="kdenlive:original.out">9342</property>
  <property name="kdenlive:original.length">9343</property>
  <property name="kdenlive:original.eof">pause</property>
  <property name="kdenlive:original.resource">/home/archer/Downloads/VideoDownloader/The Homebrew Channel - Full Theme.mp4</property>
  <property name="kdenlive:original.meta.media.nb_streams">2</property>
  <property name="kdenlive:original.meta.media.0.stream.type">video</property>
  <property name="kdenlive:original.meta.media.0.stream.frame_rate">30</property>
  <property name="kdenlive:original.meta.media.0.stream.sample_aspect_ratio">1</property>
  <property name="kdenlive:original.meta.media.0.codec.width">1920</property>
  <property name="kdenlive:original.meta.media.0.codec.height">1080</property>
  <property name="kdenlive:original.meta.media.0.codec.rotate">0</property>
  <property name="kdenlive:original.meta.media.0.codec.pix_fmt">yuv420p</property>
  <property name="kdenlive:original.meta.media.0.codec.sample_aspect_ratio">1</property>
  <property name="kdenlive:original.meta.media.0.codec.colorspace">601</property>
  <property name="kdenlive:original.meta.media.0.codec.color_trc">1</property>
  <property name="kdenlive:original.meta.media.0.codec.name">h264</property>
  <property name="kdenlive:original.meta.media.0.codec.long_name">H.264 / AVC / MPEG-4 AVC / MPEG-4 part 10</property>
  <property name="kdenlive:original.meta.media.0.codec.bit_rate">1370503</property>
  <property name="kdenlive:original.meta.attr.0.stream.handler_name.markup">ISO Media file produced by Google Inc.</property>
  <property name="kdenlive:original.meta.attr.0.stream.vendor_id.markup">[0][0][0][0]</property>
  <property name="kdenlive:original.meta.media.1.stream.type">audio</property>
  <property name="kdenlive:original.meta.media.1.codec.sample_fmt">fltp</property>
  <property name="kdenlive:original.meta.media.1.codec.sample_rate">44100</property>
  <property name="kdenlive:original.meta.media.1.codec.channels">2</property>
  <property name="kdenlive:original.meta.media.1.codec.name">aac</property>
  <property name="kdenlive:original.meta.media.1.codec.long_name">AAC (Advanced Audio Coding)</property>
  <property name="kdenlive:original.meta.media.1.codec.bit_rate">127999</property>
  <property name="kdenlive:original.meta.attr.1.stream.language.markup">eng</property>
  <property name="kdenlive:original.meta.attr.1.stream.handler_name.markup">ISO Media file produced by Google Inc.</property>
  <property name="kdenlive:original.meta.attr.1.stream.vendor_id.markup">[0][0][0][0]</property>
  <property name="kdenlive:original.meta.attr.major_brand.markup">isom</property>
  <property name="kdenlive:original.meta.attr.minor_version.markup">512</property>
  <property name="kdenlive:original.meta.attr.compatible_brands.markup">isomiso2avc1mp41</property>
  <property name="kdenlive:original.meta.attr.title.markup">The Homebrew Channel - Full Theme</property>
  <property name="kdenlive:original.meta.attr.artist.markup">funnybone</property>
  <property name="kdenlive:original.meta.attr.date.markup">20180707</property>
  <property name="kdenlive:original.meta.attr.encoder.markup">Lavf60.3.100</property>
  <property name="kdenlive:original.meta.attr.comment.markup">https://www.youtube.com/watch?v=zLDlWNDmR8k</property>
  <property name="kdenlive:original.meta.attr.description.markup">The Homebrew Channel - Full Theme</property>
  <property name="kdenlive:original.meta.attr.synopsis.markup">The Homebrew Channel - Full Theme</property>
  <property name="kdenlive:original.seekable">1</property>
  <property name="kdenlive:original.width">1920</property>
  <property name="kdenlive:original.height">1080</property>
  <property name="kdenlive:original.meta.media.sample_aspect_num">1</property>
  <property name="kdenlive:original.meta.media.sample_aspect_den">1</property>
  <property name="kdenlive:original.aspect_ratio">1</property>
  <property name="kdenlive:original.format">3</property>
  <property name="kdenlive:original.audio_index">1</property>
  <property name="kdenlive:original.video_index">0</property>
  <property name="kdenlive:original.mute_on_pause">0</property>
  <property name="kdenlive:original.mlt_service">avformat-novalidate</property>
  <property name="kdenlive:original.meta.media.frame_rate_num">30</property>
  <property name="kdenlive:original.meta.media.frame_rate_den">1</property>
  <property name="kdenlive:original.meta.media.colorspace">601</property>
  <property name="kdenlive:original.meta.media.color_trc">1</property>
  <property name="kdenlive:original.meta.media.has_b_frames">1</property>
  <property name="kdenlive:original.meta.media.width">1920</property>
  <property name="kdenlive:original.meta.media.height">1080</property>
  <property name="kdenlive:original.meta.media.color_range">mpeg</property>
  <property name="kdenlive:original.meta.media.top_field_first">0</property>
  <property name="kdenlive:original.meta.media.progressive">1</property>
  <property name="kdenlive:original.kdenlive:clip_type">0</property>
  <property name="kdenlive:original.kdenlive:folderid">-1</property>
  <property name="kdenlive:original.kdenlive:id">54</property>
  <property name="kdenlive:original.kdenlive:file_size">29294667</property>
  <property name="kdenlive:original.kdenlive:file_hash">91b5159f1606b53816dd21b8d689d140</property>
  <property name="kdenlive:original.backup">1</property>
  <property name="kdenlive:audio_max1">217</property>
  <property name="xml">was here</property>
  <property name="meta.media.frame_rate_num">30</property>
  <property name="meta.media.frame_rate_den">1</property>
  <property name="meta.media.colorspace">601</property>
  <property name="meta.media.color_trc">1</property>
  <property name="meta.media.has_b_frames">0</property>
  <property name="meta.media.width">640</property>
  <property name="meta.media.height">360</property>
  <property name="meta.media.color_range">mpeg</property>
  <property name="meta.media.top_field_first">0</property>
  <property name="meta.media.progressive">1</property>
  <property name="set.test_audio">0</property>
  <property name="set.test_image">1</property>
 </producer>
 <playlist id="playlist2">
  <property name="kdenlive:audio_track">1</property>
  <blank length="00:00:35.933"/>
  <entry producer="producer49" in="00:00:21.233" out="00:00:22.200">
   <property name="kdenlive:id">54</property>
   <filter id="filter9" in="00:00:21.233" out="00:00:21.367">
    <property name="window">75</property>
    <property name="max_gain">20dB</property>
    <property name="mlt_service">volume</property>
    <property name="kdenlive_id">fadein</property>
    <property name="gain">0</property>
    <property name="end">1</property>
    <property name="kdenlive:collapsed">0</property>
   </filter>
  </entry>
  <blank length="00:00:06.333"/>
  <entry producer="producer49" in="00:00:25.233" out="00:00:26.200">
   <property name="kdenlive:id">54</property>
  </entry>
 </playlist>
 <playlist id="playlist3">
  <property name="kdenlive:audio_track">1</property>
 </playlist>
 <tractor id="tractor1" in="00:00:00.000" out="00:00:44.217">
  <property name="kdenlive:audio_track">1</property>
  <property name="kdenlive:trackheight">67</property>
  <property name="kdenlive:timeline_active">1</property>
  <property name="kdenlive:collapsed">0</property>
  <property name="kdenlive:thumbs_format"/>
  <property name="kdenlive:audio_rec"/>
  <track hide="video" producer="playlist2"/>
  <track hide="video" producer="playlist3"/>
  <filter id="filter10">
   <property name="window">75</property>
   <property name="max_gain">20dB</property>
   <property name="level">-18.8968</property>
   <property name="mlt_service">volume</property>
   <property name="internal_added">237</property>
   <property name="disable">0</property>
  </filter>
  <filter id="filter11">
   <property name="channel">-1</property>
   <property name="mlt_service">panner</property>
   <property name="internal_added">237</property>
   <property name="start">0.5</property>
   <property name="disable">1</property>
  </filter>
  <filter id="filter12">
   <property name="iec_scale">0</property>
   <property name="mlt_service">audiolevel</property>
   <property name="dbpeak">1</property>
   <property name="disable">1</property>
  </filter>
 </tractor>
 <producer id="producer50" in="00:00:00.000" out="00:01:22.767">
  <property name="length">4967</property>
  <property name="eof">pause</property>
  <property name="resource">/home/archer/.var/app/org.kde.kdenlive/cache/kdenlive/proxy/c08ecfa0832f7bb58e3907eef478862d.mov</property>
  <property name="audio_index">1</property>
  <property name="video_index">0</property>
  <property name="mute_on_pause">0</property>
  <property name="mlt_service">avformat-novalidate</property>
  <property name="meta.media.nb_streams">2</property>
  <property name="meta.media.0.stream.type">video</property>
  <property name="meta.media.0.stream.frame_rate">25</property>
  <property name="meta.media.0.stream.sample_aspect_ratio">1</property>
  <property name="meta.media.0.codec.width">640</property>
  <property name="meta.media.0.codec.height">640</property>
  <property name="meta.media.0.codec.rotate">0</property>
  <property name="meta.media.0.codec.pix_fmt">yuv420p</property>
  <property name="meta.media.0.codec.sample_aspect_ratio">1</property>
  <property name="meta.media.0.codec.colorspace">601</property>
  <property name="meta.media.0.codec.name">h264</property>
  <property name="meta.media.0.codec.long_name">H.264 / AVC / MPEG-4 AVC / MPEG-4 part 10</property>
  <property name="meta.media.0.codec.bit_rate">3037610</property>
  <property name="meta.attr.0.stream.handler_name.markup">ISO Media file produced by Google Inc. Created on: 03/05/2020.</property>
  <property name="meta.attr.0.stream.vendor_id.markup">FFMP</property>
  <property name="meta.attr.0.stream.encoder.markup">Lavc58.134.100 h264_vaapi</property>
  <property name="meta.media.1.stream.type">audio</property>
  <property name="meta.media.1.codec.sample_fmt">fltp</property>
  <property name="meta.media.1.codec.sample_rate">44100</property>
  <property name="meta.media.1.codec.channels">2</property>
  <property name="meta.media.1.codec.name">ac3</property>
  <property name="meta.media.1.codec.long_name">ATSC A/52A (AC-3)</property>
  <property name="meta.media.1.codec.bit_rate">128000</property>
  <property name="meta.attr.1.stream.handler_name.markup">ISO Media file produced by Google Inc. Created on: 03/05/2020.</property>
  <property name="meta.attr.1.stream.vendor_id.markup">[0][0][0][0]</property>
  <property name="meta.attr.major_brand.markup">qt  </property>
  <property name="meta.attr.minor_version.markup">512</property>
  <property name="meta.attr.compatible_brands.markup">qt  </property>
  <property name="meta.attr.encoder.markup">Lavf58.76.100</property>
  <property name="seekable">1</property>
  <property name="meta.media.sample_aspect_num">1</property>
  <property name="meta.media.sample_aspect_den">1</property>
  <property name="aspect_ratio">1</property>
  <property name="format">3</property>
  <property name="kdenlive:clipname">hazardousenv.mp4</property>
  <property name="kdenlive:clip_type">0</property>
  <property name="kdenlive:folderid">3</property>
  <property name="kdenlive:id">17</property>
  <property name="kdenlive:file_size">2113855</property>
  <property name="kdenlive:file_hash">c08ecfa0832f7bb58e3907eef478862d</property>
  <property name="kdenlive:audio_max1">231</property>
  <property name="kdenlive:proxy">/home/archer/.var/app/org.kde.kdenlive/cache/kdenlive/proxy/c08ecfa0832f7bb58e3907eef478862d.mov</property>
  <property name="kdenlive:originalurl">/home/archer/Downloads/videosource/shujav2/hazardousenv.mp4</property>
  <property name="kdenlive:original.mlt_type">mlt_producer</property>
  <property name="kdenlive:original.in">00:00:00.000</property>
  <property name="kdenlive:original.out">00:01:22.767</property>
  <property name="kdenlive:original.length">4967</property>
  <property name="kdenlive:original.eof">pause</property>
  <property name="kdenlive:original.resource">/home/archer/Downloads/videosource/shujav2/hazardousenv.mp4</property>
  <property name="kdenlive:original.meta.media.nb_streams">2</property>
  <property name="kdenlive:original.meta.media.0.stream.type">video</property>
  <property name="kdenlive:original.meta.media.0.stream.frame_rate">25</property>
  <property name="kdenlive:original.meta.media.0.stream.sample_aspect_ratio">0</property>
  <property name="kdenlive:original.meta.media.0.codec.width">720</property>
  <property name="kdenlive:original.meta.media.0.codec.height">720</property>
  <property name="kdenlive:original.meta.media.0.codec.rotate">0</property>
  <property name="kdenlive:original.meta.media.0.codec.pix_fmt">yuv420p</property>
  <property name="kdenlive:original.meta.media.0.codec.sample_aspect_ratio">1</property>
  <property name="kdenlive:original.meta.media.0.codec.colorspace">601</property>
  <property name="kdenlive:original.meta.media.0.codec.name">h264</property>
  <property name="kdenlive:original.meta.media.0.codec.long_name">H.264 / AVC / MPEG-4 AVC / MPEG-4 part 10</property>
  <property name="kdenlive:original.meta.media.0.codec.bit_rate">72958</property>
  <property name="kdenlive:original.meta.attr.0.stream.creation_time.markup">2020-03-05T16:26:10.000000Z</property>
  <property name="kdenlive:original.meta.attr.0.stream.handler_name.markup">ISO Media file produced by Google Inc. Created on: 03/05/2020.</property>
  <property name="kdenlive:original.meta.attr.0.stream.vendor_id.markup">[0][0][0][0]</property>
  <property name="kdenlive:original.meta.media.1.stream.type">audio</property>
  <property name="kdenlive:original.meta.media.1.codec.sample_fmt">fltp</property>
  <property name="kdenlive:original.meta.media.1.codec.sample_rate">44100</property>
  <property name="kdenlive:original.meta.media.1.codec.channels">2</property>
  <property name="kdenlive:original.meta.media.1.codec.name">aac</property>
  <property name="kdenlive:original.meta.media.1.codec.long_name">AAC (Advanced Audio Coding)</property>
  <property name="kdenlive:original.meta.media.1.codec.bit_rate">128032</property>
  <property name="kdenlive:original.meta.attr.1.stream.creation_time.markup">2020-03-05T16:26:10.000000Z</property>
  <property name="kdenlive:original.meta.attr.1.stream.handler_name.markup">ISO Media file produced by Google Inc. Created on: 03/05/2020.</property>
  <property name="kdenlive:original.meta.attr.1.stream.vendor_id.markup">[0][0][0][0]</property>
  <property name="kdenlive:original.meta.attr.major_brand.markup">mp42</property>
  <property name="kdenlive:original.meta.attr.minor_version.markup">0</property>
  <property name="kdenlive:original.meta.attr.compatible_brands.markup">isommp42</property>
  <property name="kdenlive:original.meta.attr.creation_time.markup">2020-03-05T16:26:10.000000Z</property>
  <property name="kdenlive:original.seekable">1</property>
  <property name="kdenlive:original.width">720</property>
  <property name="kdenlive:original.height">720</property>
  <property name="kdenlive:original.meta.media.sample_aspect_num">1</property>
  <property name="kdenlive:original.meta.media.sample_aspect_den">1</property>
  <property name="kdenlive:original.aspect_ratio">1</property>
  <property name="kdenlive:original.format">3</property>
  <property name="kdenlive:original.audio_index">1</property>
  <property name="kdenlive:original.video_index">0</property>
  <property name="kdenlive:original.mute_on_pause">0</property>
  <property name="kdenlive:original.mlt_service">avformat-novalidate</property>
  <property name="kdenlive:original.meta.media.frame_rate_num">25</property>
  <property name="kdenlive:original.meta.media.frame_rate_den">1</property>
  <property name="kdenlive:original.meta.media.colorspace">601</property>
  <property name="kdenlive:original.meta.media.color_trc">2</property>
  <property name="kdenlive:original.meta.media.has_b_frames">1</property>
  <property name="kdenlive:original.meta.media.width">720</property>
  <property name="kdenlive:original.meta.media.height">720</property>
  <property name="kdenlive:original.meta.media.color_range">mpeg</property>
  <property name="kdenlive:original.meta.media.top_field_first">0</property>
  <property name="kdenlive:original.meta.media.progressive">1</property>
  <property name="kdenlive:original.kdenlive:clip_type">0</property>
  <property name="kdenlive:original.kdenlive:folderid">3</property>
  <property name="kdenlive:original.kdenlive:id">17</property>
  <property name="kdenlive:original.kdenlive:file_size">2113855</property>
  <property name="kdenlive:original.kdenlive:file_hash">c08ecfa0832f7bb58e3907eef478862d</property>
  <property name="kdenlive:original.kdenlive:audio_max1">231</property>
  <property name="kdenlive:original.root">/</property>
  <property name="kdenlive:original.backup">1</property>
  <property name="xml">was here</property>
  <property name="meta.media.frame_rate_num">25</property>
  <property name="meta.media.frame_rate_den">1</property>
  <property name="meta.media.colorspace">601</property>
  <property name="meta.media.color_trc">2</property>
  <property name="meta.media.has_b_frames">0</property>
  <property name="meta.media.width">640</property>
  <property name="meta.media.height">640</property>
  <property name="meta.media.color_range">mpeg</property>
  <property name="meta.media.top_field_first">0</property>
  <property name="meta.media.progressive">1</property>
  <property name="set.test_audio">0</property>
  <property name="set.test_image">1</property>
 </producer>
 <chain id="chain2" out="00:00:28.750">
  <property name="length">1726</property>
  <property name="eof">pause</property>
  <property name="resource">/home/archer/.var/app/org.kde.kdenlive/cache/kdenlive/proxy/ccb7b5b43303722d791b609c6e3095cb.mov</property>
  <property name="mlt_service">avformat-novalidate</property>
  <property name="seekable">1</property>
  <property name="audio_index">1</property>
  <property name="video_index">0</property>
  <property name="kdenlive:clipname">RUDE delivery man throws package.mp4</property>
  <property name="kdenlive:clip_type">0</property>
  <property name="kdenlive:folderid">-1</property>
  <property name="kdenlive:id">82</property>
  <property name="mute_on_pause">0</property>
  <property name="kdenlive:file_size">3868988</property>
  <property name="kdenlive:file_hash">ccb7b5b43303722d791b609c6e3095cb</property>
  <property name="kdenlive:proxy">/home/archer/.var/app/org.kde.kdenlive/cache/kdenlive/proxy/ccb7b5b43303722d791b609c6e3095cb.mov</property>
  <property name="kdenlive:originalurl">/home/archer/Downloads/VideoDownloader/RUDE delivery man throws package.mp4</property>
  <property name="kdenlive:original.mlt_type">chain</property>
  <property name="kdenlive:original.in">0</property>
  <property name="kdenlive:original.out">1725</property>
  <property name="kdenlive:original.length">1726</property>
  <property name="kdenlive:original.eof">pause</property>
  <property name="kdenlive:original.resource">/home/archer/Downloads/VideoDownloader/RUDE delivery man throws package.mp4</property>
  <property name="kdenlive:original.mlt_service">avformat-novalidate</property>
  <property name="kdenlive:original.meta.media.nb_streams">2</property>
  <property name="kdenlive:original.meta.media.0.stream.type">video</property>
  <property name="kdenlive:original.meta.media.0.stream.frame_rate">20</property>
  <property name="kdenlive:original.meta.media.0.stream.sample_aspect_ratio">1</property>
  <property name="kdenlive:original.meta.media.0.codec.width">1920</property>
  <property name="kdenlive:original.meta.media.0.codec.height">1080</property>
  <property name="kdenlive:original.meta.media.0.codec.rotate">0</property>
  <property name="kdenlive:original.meta.media.0.codec.pix_fmt">yuv420p</property>
  <property name="kdenlive:original.meta.media.0.codec.sample_aspect_ratio">1</property>
  <property name="kdenlive:original.meta.media.0.codec.colorspace">709</property>
  <property name="kdenlive:original.meta.media.0.codec.color_trc">1</property>
  <property name="kdenlive:original.meta.media.0.codec.name">h264</property>
  <property name="kdenlive:original.meta.media.0.codec.long_name">H.264 / AVC / MPEG-4 AVC / MPEG-4 part 10</property>
  <property name="kdenlive:original.meta.media.0.codec.bit_rate">945129</property>
  <property name="kdenlive:original.meta.attr.0.stream.handler_name.markup">ISO Media file produced by Google Inc.</property>
  <property name="kdenlive:original.meta.attr.0.stream.vendor_id.markup">[0][0][0][0]</property>
  <property name="kdenlive:original.meta.media.1.stream.type">audio</property>
  <property name="kdenlive:original.meta.media.1.codec.sample_fmt">fltp</property>
  <property name="kdenlive:original.meta.media.1.codec.sample_rate">44100</property>
  <property name="kdenlive:original.meta.media.1.codec.channels">2</property>
  <property name="kdenlive:original.meta.media.1.codec.name">aac</property>
  <property name="kdenlive:original.meta.media.1.codec.long_name">AAC (Advanced Audio Coding)</property>
  <property name="kdenlive:original.meta.media.1.codec.bit_rate">127999</property>
  <property name="kdenlive:original.meta.attr.1.stream.handler_name.markup">ISO Media file produced by Google Inc.</property>
  <property name="kdenlive:original.meta.attr.1.stream.vendor_id.markup">[0][0][0][0]</property>
  <property name="kdenlive:original.meta.attr.major_brand.markup">isom</property>
  <property name="kdenlive:original.meta.attr.minor_version.markup">512</property>
  <property name="kdenlive:original.meta.attr.compatible_brands.markup">isomiso2avc1mp41</property>
  <property name="kdenlive:original.meta.attr.title.markup">RUDE delivery man throws package</property>
  <property name="kdenlive:original.meta.attr.artist.markup">K Tsui and Cinnamon❤️</property>
  <property name="kdenlive:original.meta.attr.date.markup">20210107</property>
  <property name="kdenlive:original.meta.attr.encoder.markup">Lavf60.3.100</property>
  <property name="kdenlive:original.meta.attr.comment.markup">https://www.youtube.com/watch?v=B_vtKyshZMk</property>
  <property name="kdenlive:original.seekable">1</property>
  <property name="kdenlive:original.width">1920</property>
  <property name="kdenlive:original.height">1080</property>
  <property name="kdenlive:original.meta.media.sample_aspect_num">1</property>
  <property name="kdenlive:original.meta.media.sample_aspect_den">1</property>
  <property name="kdenlive:original.audio_index">1</property>
  <property name="kdenlive:original.video_index">0</property>
  <property name="kdenlive:original.meta.media.frame_rate_num">20</property>
  <property name="kdenlive:original.meta.media.frame_rate_den">1</property>
  <property name="kdenlive:original.meta.media.colorspace">709</property>
  <property name="kdenlive:original.meta.media.color_trc">1</property>
  <property name="kdenlive:original.meta.media.has_b_frames">1</property>
  <property name="kdenlive:original.meta.media.width">1920</property>
  <property name="kdenlive:original.meta.media.height">1080</property>
  <property name="kdenlive:original.meta.media.color_range">mpeg</property>
  <property name="kdenlive:original.meta.media.top_field_first">0</property>
  <property name="kdenlive:original.meta.media.progressive">1</property>
  <property name="kdenlive:original.kdenlive:clip_type">0</property>
  <property name="kdenlive:original.kdenlive:folderid">-1</property>
  <property name="kdenlive:original.kdenlive:id">82</property>
  <property name="kdenlive:original.mute_on_pause">0</property>
  <property name="kdenlive:original.kdenlive:file_size">3868988</property>
  <property name="kdenlive:original.kdenlive:file_hash">ccb7b5b43303722d791b609c6e3095cb</property>
  <property name="kdenlive:original.backup">1</property>
  <property name="kdenlive:audio_max1">245</property>
  <property name="meta.media.nb_streams">2</property>
  <property name="meta.media.0.stream.type">video</property>
  <property name="meta.media.0.stream.frame_rate">20</property>
  <property name="meta.media.0.stream.sample_aspect_ratio">1</property>
  <property name="meta.media.0.codec.width">640</property>
  <property name="meta.media.0.codec.height">360</property>
  <property name="meta.media.0.codec.rotate">0</property>
  <property name="meta.media.0.codec.pix_fmt">yuv420p</property>
  <property name="meta.media.0.codec.sample_aspect_ratio">1</property>
  <property name="meta.media.0.codec.colorspace">709</property>
  <property name="meta.media.0.codec.color_trc">1</property>
  <property name="meta.media.0.codec.name">h264</property>
  <property name="meta.media.0.codec.long_name">H.264 / AVC / MPEG-4 AVC / MPEG-4 part 10</property>
  <property name="meta.media.0.codec.bit_rate">3553103</property>
  <property name="meta.attr.0.stream.handler_name.markup">ISO Media file produced by Google Inc.</property>
  <property name="meta.attr.0.stream.vendor_id.markup">FFMP</property>
  <property name="meta.attr.0.stream.encoder.markup">Lavc60.3.100 h264_vaapi</property>
  <property name="meta.media.1.stream.type">audio</property>
  <property name="meta.media.1.codec.sample_fmt">fltp</property>
  <property name="meta.media.1.codec.sample_rate">44100</property>
  <property name="meta.media.1.codec.channels">2</property>
  <property name="meta.media.1.codec.name">ac3</property>
  <property name="meta.media.1.codec.long_name">ATSC A/52A (AC-3)</property>
  <property name="meta.media.1.codec.bit_rate">128000</property>
  <property name="meta.attr.1.stream.handler_name.markup">ISO Media file produced by Google Inc.</property>
  <property name="meta.attr.1.stream.vendor_id.markup">[0][0][0][0]</property>
  <property name="meta.attr.major_brand.markup">qt  </property>
  <property name="meta.attr.minor_version.markup">512</property>
  <property name="meta.attr.compatible_brands.markup">qt  </property>
  <property name="meta.attr.artist.markup">K Tsui and Cinnamon❤️</property>
  <property name="meta.attr.title.markup">RUDE delivery man throws package</property>
  <property name="meta.attr.date.markup">20210107</property>
  <property name="meta.attr.encoder.markup">Lavf60.3.100</property>
  <property name="meta.attr.comment.markup">https://www.youtube.com/watch?v=B_vtKyshZMk</property>
  <property name="meta.media.sample_aspect_num">1</property>
  <property name="meta.media.sample_aspect_den">1</property>
  <property name="meta.media.frame_rate_num">20</property>
  <property name="meta.media.frame_rate_den">1</property>
  <property name="meta.media.colorspace">709</property>
  <property name="meta.media.color_trc">1</property>
  <property name="meta.media.has_b_frames">0</property>
  <property name="meta.media.width">640</property>
  <property name="meta.media.height">360</property>
  <property name="meta.media.color_range">mpeg</property>
  <property name="xml">was here</property>
  <property name="meta.media.top_field_first">0</property>
  <property name="meta.media.progressive">1</property>
  <property name="set.test_audio">0</property>
  <property name="set.test_image">1</property>
 </chain>
 <playlist id="playlist4">
  <property name="kdenlive:audio_track">1</property>
  <blank length="00:00:07.983"/>
  <entry producer="producer50" in="00:00:00.000" out="00:00:36.233">
   <property name="kdenlive:id">17</property>
   <filter id="filter13" out="00:00:02.383">
    <property name="window">75</property>
    <property name="max_gain">20dB</property>
    <property name="mlt_service">volume</property>
    <property name="kdenlive_id">fadein</property>
    <property name="gain">0</property>
    <property name="end">1</property>
    <property name="kdenlive:collapsed">0</property>
   </filter>
  </entry>
  <blank length="00:00:14.367"/>
  <entry producer="chain2" in="00:00:07.483" out="00:00:10.183">
   <property name="kdenlive:id">82</property>
  </entry>
 </playlist>
 <playlist id="playlist5">
  <property name="kdenlive:audio_track">1</property>
 </playlist>
 <tractor id="tractor2" in="00:00:00.000" out="00:01:01.300">
  <property name="kdenlive:audio_track">1</property>
  <property name="kdenlive:trackheight">67</property>
  <property name="kdenlive:timeline_active">1</property>
  <property name="kdenlive:collapsed">0</property>
  <property name="kdenlive:thumbs_format"/>
  <property name="kdenlive:audio_rec"/>
  <property name="kdenlive:track_name">bgm1</property>
  <track hide="video" producer="playlist4"/>
  <track hide="video" producer="playlist5"/>
  <filter id="filter14">
   <property name="window">75</property>
   <property name="max_gain">20dB</property>
   <property name="level">-24.2265</property>
   <property name="mlt_service">volume</property>
   <property name="internal_added">237</property>
   <property name="disable">0</property>
  </filter>
  <filter id="filter15">
   <property name="channel">-1</property>
   <property name="mlt_service">panner</property>
   <property name="internal_added">237</property>
   <property name="start">0.5</property>
   <property name="disable">1</property>
  </filter>
  <filter id="filter16">
   <property name="iec_scale">0</property>
   <property name="mlt_service">audiolevel</property>
   <property name="dbpeak">1</property>
   <property name="disable">1</property>
  </filter>
 </tractor>
 <producer id="producer51" in="00:00:00.000" out="00:01:57.150">
  <property name="length">7030</property>
  <property name="eof">pause</property>
  <property name="resource">/home/archer/Downloads/videosource/shujav2/shujavoicecandelasleepy.mp3</property>
  <property name="audio_index">0</property>
  <property name="video_index">-1</property>
  <property name="mute_on_pause">0</property>
  <property name="mlt_service">avformat-novalidate</property>
  <property name="meta.media.nb_streams">1</property>
  <property name="meta.media.0.stream.type">audio</property>
  <property name="meta.media.0.codec.sample_fmt">fltp</property>
  <property name="meta.media.0.codec.sample_rate">48000</property>
  <property name="meta.media.0.codec.channels">2</property>
  <property name="meta.media.0.codec.name">mp3float</property>
  <property name="meta.media.0.codec.long_name">MP3 (MPEG audio layer 3)</property>
  <property name="meta.media.0.codec.bit_rate">320000</property>
  <property name="meta.attr.0.stream.encoder.markup">LAME3.100</property>
  <property name="seekable">1</property>
  <property name="kdenlive:clipname"/>
  <property name="kdenlive:clip_type">1</property>
  <property name="kdenlive:folderid">-1</property>
  <property name="kdenlive:id">16</property>
  <property name="kdenlive:file_size">4687680</property>
  <property name="kdenlive:file_hash">72945ec52bacc3a664414e0245036fd5</property>
  <property name="kdenlive:audio_max0">161</property>
  <property name="xml">was here</property>
  <property name="set.test_audio">0</property>
  <property name="set.test_image">1</property>
 </producer>
 <chain id="chain3" out="00:01:00.117">
  <property name="length">3608</property>
  <property name="eof">pause</property>
  <property name="resource">/home/archer/Downloads/videosource/shujav2/shujavoicept2.m4a</property>
  <property name="mlt_service">avformat-novalidate</property>
  <property name="seekable">1</property>
  <property name="audio_index">0</property>
  <property name="video_index">-1</property>
  <property name="kdenlive:clipname"/>
  <property name="kdenlive:clip_type">1</property>
  <property name="kdenlive:folderid">-1</property>
  <property name="kdenlive:id">66</property>
  <property name="kdenlive:file_size">1974490</property>
  <property name="kdenlive:file_hash">b1cd9ca5e69a4889622752743ea00528</property>
  <property name="kdenlive:audio_max0">180</property>
  <property name="meta.media.nb_streams">1</property>
  <property name="meta.media.0.stream.type">audio</property>
  <property name="meta.media.0.codec.sample_fmt">fltp</property>
  <property name="meta.media.0.codec.sample_rate">48000</property>
  <property name="meta.media.0.codec.channels">2</property>
  <property name="meta.media.0.codec.name">aac</property>
  <property name="meta.media.0.codec.long_name">AAC (Advanced Audio Coding)</property>
  <property name="meta.media.0.codec.bit_rate">256040</property>
  <property name="meta.attr.0.stream.creation_time.markup">2023-05-13T16:18:35.000000Z</property>
  <property name="meta.attr.0.stream.language.markup">eng</property>
  <property name="meta.attr.0.stream.handler_name.markup">SoundHandle</property>
  <property name="meta.attr.0.stream.vendor_id.markup">[0][0][0][0]</property>
  <property name="meta.attr.major_brand.markup">3gp4</property>
  <property name="meta.attr.minor_version.markup">0</property>
  <property name="meta.attr.compatible_brands.markup">isom3gp4</property>
  <property name="meta.attr.creation_time.markup">2023-05-13T16:18:35.000000Z</property>
  <property name="meta.attr.com.android.version.markup">10</property>
  <property name="xml">was here</property>
  <property name="mute_on_pause">0</property>
  <property name="set.test_audio">0</property>
  <property name="set.test_image">1</property>
 </chain>
 <playlist id="playlist6">
  <property name="kdenlive:audio_track">1</property>
  <entry producer="producer51" in="00:00:00.800" out="00:00:09.733">
   <property name="kdenlive:id">16</property>
  </entry>
  <blank length="00:00:01.767"/>
  <entry producer="producer51" in="00:00:11.517" out="00:00:22.400">
   <property name="kdenlive:id">16</property>
  </entry>
  <entry producer="producer51" in="00:00:23.667" out="00:00:31.250">
   <property name="kdenlive:id">16</property>
  </entry>
  <entry producer="producer51" in="00:00:34.517" out="00:00:45.583">
   <property name="kdenlive:id">16</property>
  </entry>
  <entry producer="producer51" in="00:00:45.917" out="00:00:49.833">
   <property name="kdenlive:id">16</property>
  </entry>
  <blank length="00:00:00.867"/>
  <entry producer="chain3" in="00:00:00.117" out="00:00:00.983">
   <property name="kdenlive:id">66</property>
  </entry>
  <entry producer="chain3" in="00:00:01.000" out="00:00:01.450">
   <property name="kdenlive:id">66</property>
   <property name="kdenlive:activeeffect">0</property>
   <filter id="filter17">
    <property name="window">75</property>
    <property name="max_gain">20dB</property>
    <property name="level">00:00:01.000=-3</property>
    <property name="mlt_service">volume</property>
    <property name="kdenlive_id">volume</property>
    <property name="kdenlive:collapsed">0</property>
   </filter>
  </entry>
  <entry producer="chain3" in="00:00:01.467" out="00:00:33.200">
   <property name="kdenlive:id">66</property>
  </entry>
  <blank length="00:00:04.150"/>
  <entry producer="chain3" in="00:00:33.217" out="00:00:43.000">
   <property name="kdenlive:id">66</property>
  </entry>
  <entry producer="chain3" in="00:00:51.317" out="00:00:58.900">
   <property name="kdenlive:id">66</property>
  </entry>
  <blank length="00:00:14.250"/>
  <entry producer="chain3" in="00:00:58.917" out="00:01:00.117">
   <property name="kdenlive:id">66</property>
  </entry>
 </playlist>
 <playlist id="playlist7">
  <property name="kdenlive:audio_track">1</property>
 </playlist>
 <tractor id="tractor3" in="00:00:00.000" out="00:01:55.200">
  <property name="kdenlive:audio_track">1</property>
  <property name="kdenlive:trackheight">67</property>
  <property name="kdenlive:timeline_active">1</property>
  <property name="kdenlive:collapsed">0</property>
  <property name="kdenlive:thumbs_format"/>
  <property name="kdenlive:audio_rec"/>
  <property name="kdenlive:track_name">voic</property>
  <track hide="video" producer="playlist6"/>
  <track hide="video" producer="playlist7"/>
  <filter id="filter18">
   <property name="window">75</property>
   <property name="max_gain">20dB</property>
   <property name="level">7.59606</property>
   <property name="mlt_service">volume</property>
   <property name="internal_added">237</property>
   <property name="disable">0</property>
  </filter>
  <filter id="filter19">
   <property name="channel">-1</property>
   <property name="mlt_service">panner</property>
   <property name="internal_added">237</property>
   <property name="start">0.5</property>
   <property name="disable">1</property>
  </filter>
  <filter id="filter20">
   <property name="iec_scale">0</property>
   <property name="mlt_service">audiolevel</property>
   <property name="dbpeak">1</property>
   <property name="disable">1</property>
  </filter>
 </tractor>
 <playlist id="playlist8">
  <entry producer="producer2" in="00:00:00.000" out="00:00:44.217">
   <property name="kdenlive:id">5</property>
  </entry>
  <blank length="00:00:00.867"/>
  <entry producer="producer2" in="00:00:00.000" out="00:01:08.883">
   <property name="kdenlive:id">5</property>
   <filter id="filter21" out="00:00:00.483">
    <property name="start">1</property>
    <property name="level">1</property>
    <property name="mlt_service">brightness</property>
    <property name="kdenlive_id">fade_from_black</property>
    <property name="alpha">00:00:00.000=0;00:00:00.483=1</property>
    <property name="kdenlive:collapsed">0</property>
   </filter>
  </entry>
 </playlist>
 <playlist id="playlist9"/>
 <tractor id="tractor4" in="00:00:00.000" out="00:01:53.983">
  <property name="kdenlive:trackheight">67</property>
  <property name="kdenlive:timeline_active">1</property>
  <property name="kdenlive:collapsed">0</property>
  <property name="kdenlive:track_name">background</property>
  <property name="kdenlive:thumbs_format"/>
  <property name="kdenlive:audio_rec"/>
  <track hide="audio" producer="playlist8"/>
  <track hide="audio" producer="playlist9"/>
 </tractor>
 <producer id="producer52" in="00:00:00.000" out="00:00:04.983">
  <property name="length">300</property>
  <property name="eof">pause</property>
  <property name="resource"/>
  <property name="progressive">1</property>
  <property name="aspect_ratio">1</property>
  <property name="seekable">1</property>
  <property name="mlt_service">kdenlivetitle</property>
  <property name="kdenlive:duration">00:00:05:00</property>
  <property name="kdenlive:clipname">Trusting</property>
  <property name="xmldata">&lt;kdenlivetitle duration="300" LC_NUMERIC="C" width="1920" height="1080" out="299">
 &lt;item type="QGraphicsTextItem" z-index="0">
  &lt;position x="399" y="367">
   &lt;transform>1,0,0,0,1,0,0,0,1&lt;/transform>
  &lt;/position>
  &lt;content shadow="0;#64000000;3;3;3" font-underline="0" box-height="345" font-outline-color="0,0,0,255" font="Ubuntu" letter-spacing="0" font-pixel-size="300" font-italic="0" typewriter="0;2;1;0;0" alignment="1" font-weight="50" font-outline="4" box-width="1121.33" font-color="255,255,255,255">Trusting&lt;/content>
 &lt;/item>
 &lt;startviewport rect="0,0,1920,1080"/>
 &lt;endviewport rect="0,0,1920,1080"/>
 &lt;background color="0,0,0,0"/>
&lt;/kdenlivetitle>
</property>
  <property name="kdenlive:folderid">68</property>
  <property name="kdenlive:id">67</property>
  <property name="kdenlive:clip_type">2</property>
  <property name="kdenlive:file_hash">94678eeab714c3b1a4511bce32820c95</property>
  <property name="force_reload">0</property>
  <property name="meta.media.width">1920</property>
  <property name="meta.media.height">1080</property>
 </producer>
 <chain id="chain4" out="00:00:28.750">
  <property name="length">1726</property>
  <property name="eof">pause</property>
  <property name="resource">/home/archer/.var/app/org.kde.kdenlive/cache/kdenlive/proxy/ccb7b5b43303722d791b609c6e3095cb.mov</property>
  <property name="mlt_service">avformat-novalidate</property>
  <property name="seekable">1</property>
  <property name="audio_index">1</property>
  <property name="video_index">0</property>
  <property name="kdenlive:clipname">RUDE delivery man throws package.mp4</property>
  <property name="kdenlive:clip_type">0</property>
  <property name="kdenlive:folderid">-1</property>
  <property name="kdenlive:id">82</property>
  <property name="mute_on_pause">0</property>
  <property name="kdenlive:file_size">3868988</property>
  <property name="kdenlive:file_hash">ccb7b5b43303722d791b609c6e3095cb</property>
  <property name="kdenlive:proxy">/home/archer/.var/app/org.kde.kdenlive/cache/kdenlive/proxy/ccb7b5b43303722d791b609c6e3095cb.mov</property>
  <property name="kdenlive:originalurl">/home/archer/Downloads/VideoDownloader/RUDE delivery man throws package.mp4</property>
  <property name="kdenlive:original.mlt_type">chain</property>
  <property name="kdenlive:original.in">0</property>
  <property name="kdenlive:original.out">1725</property>
  <property name="kdenlive:original.length">1726</property>
  <property name="kdenlive:original.eof">pause</property>
  <property name="kdenlive:original.resource">/home/archer/Downloads/VideoDownloader/RUDE delivery man throws package.mp4</property>
  <property name="kdenlive:original.mlt_service">avformat-novalidate</property>
  <property name="kdenlive:original.meta.media.nb_streams">2</property>
  <property name="kdenlive:original.meta.media.0.stream.type">video</property>
  <property name="kdenlive:original.meta.media.0.stream.frame_rate">20</property>
  <property name="kdenlive:original.meta.media.0.stream.sample_aspect_ratio">1</property>
  <property name="kdenlive:original.meta.media.0.codec.width">1920</property>
  <property name="kdenlive:original.meta.media.0.codec.height">1080</property>
  <property name="kdenlive:original.meta.media.0.codec.rotate">0</property>
  <property name="kdenlive:original.meta.media.0.codec.pix_fmt">yuv420p</property>
  <property name="kdenlive:original.meta.media.0.codec.sample_aspect_ratio">1</property>
  <property name="kdenlive:original.meta.media.0.codec.colorspace">709</property>
  <property name="kdenlive:original.meta.media.0.codec.color_trc">1</property>
  <property name="kdenlive:original.meta.media.0.codec.name">h264</property>
  <property name="kdenlive:original.meta.media.0.codec.long_name">H.264 / AVC / MPEG-4 AVC / MPEG-4 part 10</property>
  <property name="kdenlive:original.meta.media.0.codec.bit_rate">945129</property>
  <property name="kdenlive:original.meta.attr.0.stream.handler_name.markup">ISO Media file produced by Google Inc.</property>
  <property name="kdenlive:original.meta.attr.0.stream.vendor_id.markup">[0][0][0][0]</property>
  <property name="kdenlive:original.meta.media.1.stream.type">audio</property>
  <property name="kdenlive:original.meta.media.1.codec.sample_fmt">fltp</property>
  <property name="kdenlive:original.meta.media.1.codec.sample_rate">44100</property>
  <property name="kdenlive:original.meta.media.1.codec.channels">2</property>
  <property name="kdenlive:original.meta.media.1.codec.name">aac</property>
  <property name="kdenlive:original.meta.media.1.codec.long_name">AAC (Advanced Audio Coding)</property>
  <property name="kdenlive:original.meta.media.1.codec.bit_rate">127999</property>
  <property name="kdenlive:original.meta.attr.1.stream.handler_name.markup">ISO Media file produced by Google Inc.</property>
  <property name="kdenlive:original.meta.attr.1.stream.vendor_id.markup">[0][0][0][0]</property>
  <property name="kdenlive:original.meta.attr.major_brand.markup">isom</property>
  <property name="kdenlive:original.meta.attr.minor_version.markup">512</property>
  <property name="kdenlive:original.meta.attr.compatible_brands.markup">isomiso2avc1mp41</property>
  <property name="kdenlive:original.meta.attr.title.markup">RUDE delivery man throws package</property>
  <property name="kdenlive:original.meta.attr.artist.markup">K Tsui and Cinnamon❤️</property>
  <property name="kdenlive:original.meta.attr.date.markup">20210107</property>
  <property name="kdenlive:original.meta.attr.encoder.markup">Lavf60.3.100</property>
  <property name="kdenlive:original.meta.attr.comment.markup">https://www.youtube.com/watch?v=B_vtKyshZMk</property>
  <property name="kdenlive:original.seekable">1</property>
  <property name="kdenlive:original.width">1920</property>
  <property name="kdenlive:original.height">1080</property>
  <property name="kdenlive:original.meta.media.sample_aspect_num">1</property>
  <property name="kdenlive:original.meta.media.sample_aspect_den">1</property>
  <property name="kdenlive:original.audio_index">1</property>
  <property name="kdenlive:original.video_index">0</property>
  <property name="kdenlive:original.meta.media.frame_rate_num">20</property>
  <property name="kdenlive:original.meta.media.frame_rate_den">1</property>
  <property name="kdenlive:original.meta.media.colorspace">709</property>
  <property name="kdenlive:original.meta.media.color_trc">1</property>
  <property name="kdenlive:original.meta.media.has_b_frames">1</property>
  <property name="kdenlive:original.meta.media.width">1920</property>
  <property name="kdenlive:original.meta.media.height">1080</property>
  <property name="kdenlive:original.meta.media.color_range">mpeg</property>
  <property name="kdenlive:original.meta.media.top_field_first">0</property>
  <property name="kdenlive:original.meta.media.progressive">1</property>
  <property name="kdenlive:original.kdenlive:clip_type">0</property>
  <property name="kdenlive:original.kdenlive:folderid">-1</property>
  <property name="kdenlive:original.kdenlive:id">82</property>
  <property name="kdenlive:original.mute_on_pause">0</property>
  <property name="kdenlive:original.kdenlive:file_size">3868988</property>
  <property name="kdenlive:original.kdenlive:file_hash">ccb7b5b43303722d791b609c6e3095cb</property>
  <property name="kdenlive:original.backup">1</property>
  <property name="kdenlive:audio_max1">245</property>
  <property name="meta.media.nb_streams">2</property>
  <property name="meta.media.0.stream.type">video</property>
  <property name="meta.media.0.stream.frame_rate">20</property>
  <property name="meta.media.0.stream.sample_aspect_ratio">1</property>
  <property name="meta.media.0.codec.width">640</property>
  <property name="meta.media.0.codec.height">360</property>
  <property name="meta.media.0.codec.rotate">0</property>
  <property name="meta.media.0.codec.pix_fmt">yuv420p</property>
  <property name="meta.media.0.codec.sample_aspect_ratio">1</property>
  <property name="meta.media.0.codec.colorspace">709</property>
  <property name="meta.media.0.codec.color_trc">1</property>
  <property name="meta.media.0.codec.name">h264</property>
  <property name="meta.media.0.codec.long_name">H.264 / AVC / MPEG-4 AVC / MPEG-4 part 10</property>
  <property name="meta.media.0.codec.bit_rate">3553103</property>
  <property name="meta.attr.0.stream.handler_name.markup">ISO Media file produced by Google Inc.</property>
  <property name="meta.attr.0.stream.vendor_id.markup">FFMP</property>
  <property name="meta.attr.0.stream.encoder.markup">Lavc60.3.100 h264_vaapi</property>
  <property name="meta.media.1.stream.type">audio</property>
  <property name="meta.media.1.codec.sample_fmt">fltp</property>
  <property name="meta.media.1.codec.sample_rate">44100</property>
  <property name="meta.media.1.codec.channels">2</property>
  <property name="meta.media.1.codec.name">ac3</property>
  <property name="meta.media.1.codec.long_name">ATSC A/52A (AC-3)</property>
  <property name="meta.media.1.codec.bit_rate">128000</property>
  <property name="meta.attr.1.stream.handler_name.markup">ISO Media file produced by Google Inc.</property>
  <property name="meta.attr.1.stream.vendor_id.markup">[0][0][0][0]</property>
  <property name="meta.attr.major_brand.markup">qt  </property>
  <property name="meta.attr.minor_version.markup">512</property>
  <property name="meta.attr.compatible_brands.markup">qt  </property>
  <property name="meta.attr.artist.markup">K Tsui and Cinnamon❤️</property>
  <property name="meta.attr.title.markup">RUDE delivery man throws package</property>
  <property name="meta.attr.date.markup">20210107</property>
  <property name="meta.attr.encoder.markup">Lavf60.3.100</property>
  <property name="meta.attr.comment.markup">https://www.youtube.com/watch?v=B_vtKyshZMk</property>
  <property name="meta.media.sample_aspect_num">1</property>
  <property name="meta.media.sample_aspect_den">1</property>
  <property name="meta.media.frame_rate_num">20</property>
  <property name="meta.media.frame_rate_den">1</property>
  <property name="meta.media.colorspace">709</property>
  <property name="meta.media.color_trc">1</property>
  <property name="meta.media.has_b_frames">0</property>
  <property name="meta.media.width">640</property>
  <property name="meta.media.height">360</property>
  <property name="meta.media.color_range">mpeg</property>
  <property name="xml">was here</property>
  <property name="meta.media.top_field_first">0</property>
  <property name="meta.media.progressive">1</property>
  <property name="set.test_audio">1</property>
  <property name="set.test_image">0</property>
 </chain>
 <producer id="producer53" in="00:00:00.000" out="00:00:10.550">
  <property name="length">634</property>
  <property name="eof">pause</property>
  <property name="resource">/home/archer/Downloads/videosource/shujav2/haxberryoclock.png</property>
  <property name="ttl">25</property>
  <property name="aspect_ratio">1</property>
  <property name="progressive">1</property>
  <property name="seekable">1</property>
  <property name="format">2</property>
  <property name="meta.media.width">576</property>
  <property name="meta.media.height">281</property>
  <property name="mlt_service">qimage</property>
  <property name="kdenlive:clipname"/>
  <property name="kdenlive:duration">00:00:05:00</property>
  <property name="kdenlive:folderid">3</property>
  <property name="kdenlive:id">90</property>
  <property name="kdenlive:clip_type">2</property>
  <property name="kdenlive:file_size">54473</property>
  <property name="kdenlive:file_hash">5ff6b3cc2176ba7feb7876b095e37f2c</property>
 </producer>
 <producer id="producer54" in="00:00:00.000" out="00:00:12.583">
  <property name="length">756</property>
  <property name="eof">pause</property>
  <property name="resource"/>
  <property name="progressive">1</property>
  <property name="aspect_ratio">1</property>
  <property name="seekable">1</property>
  <property name="mlt_service">kdenlivetitle</property>
  <property name="kdenlive:duration">00:00:05:00</property>
  <property name="kdenlive:clipname">Credits: RDS...</property>
  <property name="xmldata">&lt;kdenlivetitle duration="300" LC_NUMERIC="C" width="1920" height="1080" out="299">
 &lt;item type="QGraphicsTextItem" z-index="0">
  &lt;position x="94" y="54">
   &lt;transform>1,0,0,0,1,0,0,0,1&lt;/transform>
  &lt;/position>
  &lt;content line-spacing="0" shadow="0;#64000000;3;3;3" font-underline="0" box-height="927" font-outline-color="0,0,0,255" font="Ubuntu" letter-spacing="0" font-pixel-size="90" font-italic="0" typewriter="0;2;1;0;0" alignment="4" font-weight="50" font-outline="4" box-width="1739.64" font-color="255,255,255,255">Credits:

RDS5 - Editing and script writing

halalbeef - Script writing

PEPSIMANTR/Candela - Hot turkish voice

McDuck69420 - Emotional support femboy&lt;/content>
 &lt;/item>
 &lt;startviewport rect="0,0,1920,1080"/>
 &lt;endviewport rect="0,0,1920,1080"/>
 &lt;background color="0,0,0,0"/>
&lt;/kdenlivetitle>
</property>
  <property name="kdenlive:folderid">110</property>
  <property name="kdenlive:id">111</property>
  <property name="kdenlive:clip_type">2</property>
  <property name="kdenlive:file_hash">5ed9f03450125809a4b6ed15a583886b</property>
  <property name="force_reload">0</property>
  <property name="meta.media.width">1920</property>
  <property name="meta.media.height">1080</property>
 </producer>
 <playlist id="playlist10">
  <blank length="00:00:13.933"/>
  <entry producer="producer16" in="00:00:00.000" out="00:00:03.250">
   <property name="kdenlive:id">22</property>
   <property name="kdenlive:activeeffect">1</property>
   <filter id="filter22" out="00:00:00.283">
    <property name="start">1</property>
    <property name="level">1</property>
    <property name="mlt_service">brightness</property>
    <property name="kdenlive_id">fade_from_black</property>
    <property name="alpha">00:00:00.000=0;00:00:00.283=1</property>
    <property name="kdenlive:collapsed">0</property>
   </filter>
   <filter id="filter23">
    <property name="rotate_center">1</property>
    <property name="mlt_service">qtblend</property>
    <property name="kdenlive_id">qtblend</property>
    <property name="rect">00:00:00.000=0 0 1920 1080 1</property>
    <property name="rotation">00:00:00.000=0</property>
    <property name="compositing">0</property>
    <property name="distort">0</property>
    <property name="kdenlive:collapsed">0</property>
   </filter>
  </entry>
  <blank length="00:00:00.733"/>
  <entry producer="producer21" in="00:00:00.000" out="00:00:02.767">
   <property name="kdenlive:id">26</property>
   <filter id="filter24">
    <property name="rotate_center">1</property>
    <property name="mlt_service">qtblend</property>
    <property name="kdenlive_id">qtblend</property>
    <property name="rect">00:00:00.000~=432 243 1054 592 0.000000;00:00:00.267~=116 -629 4173 2346 0.657791;00:00:00.717=-48 -1083 5797 3260 1.000000</property>
    <property name="rotation">00:00:00.000~=-87;00:00:00.267~=-29.7722;00:00:00.717=0</property>
    <property name="compositing">0</property>
    <property name="distort">0</property>
    <property name="kdenlive:collapsed">0</property>
   </filter>
  </entry>
  <blank length="00:00:25.267"/>
  <entry producer="producer52" in="00:00:00.000" out="00:00:02.983">
   <property name="kdenlive:id">67</property>
   <property name="kdenlive:activeeffect">1</property>
   <filter id="filter25">
    <property name="rotate_center">1</property>
    <property name="mlt_service">qtblend</property>
    <property name="kdenlive_id">qtblend</property>
    <property name="rect">00:00:00.000~=-1372 -298 1424 801 1.000000;00:00:00.083~=-529 -270 1424 801 1.000000;00:00:00.283=-247 -261 1424 801 1.000000</property>
    <property name="rotation">00:00:00.000~=0;00:00:00.083~=0;00:00:00.283=0</property>
    <property name="compositing">0</property>
    <property name="distort">0</property>
    <property name="kdenlive:collapsed">0</property>
   </filter>
   <filter id="filter26">
    <property name="hradius">00:00:00.000~=38;00:00:00.283=0</property>
    <property name="vradius">00:00:00.000~=0;00:00:00.283=0</property>
    <property name="mlt_service">box_blur</property>
    <property name="kdenlive_id">box_blur</property>
    <property name="kdenlive:collapsed">0</property>
   </filter>
  </entry>
  <entry producer="producer0" in="00:00:00.000" out="00:00:06.450">
   <property name="kdenlive:id">4</property>
   <filter id="filter27">
    <property name="rotate_center">1</property>
    <property name="mlt_service">qtblend</property>
    <property name="kdenlive_id">qtblend</property>
    <property name="rect">00:00:00.000=-330 -185 2581 1452 1.000000;00:00:06.183~=-330 -185 2581 1452 1.000000;00:00:06.450=-2394 -185 2581 1452 1.000000</property>
    <property name="rotation">00:00:00.000=0;00:00:06.183~=0;00:00:06.450=0</property>
    <property name="compositing">0</property>
    <property name="distort">0</property>
    <property name="kdenlive:collapsed">0</property>
   </filter>
  </entry>
  <blank length="00:00:03.150"/>
  <entry producer="chain4" in="00:00:07.483" out="00:00:10.183">
   <property name="kdenlive:id">82</property>
   <property name="kdenlive:activeeffect">1</property>
   <filter id="filter28">
    <property name="rotate_center">1</property>
    <property name="mlt_service">qtblend</property>
    <property name="kdenlive_id">qtblend</property>
    <property name="rect">00:00:07.483~=-330 1083 2581 1452 1.000000;00:00:07.583~=-330 133 2581 1452 1.000000;00:00:07.767=-330 -185 2581 1452 1.000000</property>
    <property name="rotation">00:00:07.483~=0;00:00:07.583~=0;00:00:07.767=0</property>
    <property name="compositing">0</property>
    <property name="distort">0</property>
    <property name="kdenlive:collapsed">0</property>
   </filter>
   <filter id="filter29">
    <property name="hradius">00:00:07.483~=0;00:00:07.767=0</property>
    <property name="vradius">00:00:07.483~=86;00:00:07.767=0</property>
    <property name="mlt_service">box_blur</property>
    <property name="kdenlive_id">box_blur</property>
    <property name="kdenlive:collapsed">0</property>
   </filter>
  </entry>
  <blank length="00:00:03.383"/>
  <entry producer="producer53" in="00:00:00.000" out="00:00:06.050">
   <property name="kdenlive:id">90</property>
   <filter id="filter30">
    <property name="rotate_center">1</property>
    <property name="mlt_service">qtblend</property>
    <property name="kdenlive_id">qtblend</property>
    <property name="rect">00:00:00.000~=-143 -326 2682 1508 1.000000</property>
    <property name="rotation">00:00:00.000~=0</property>
    <property name="compositing">0</property>
    <property name="distort">0</property>
    <property name="kdenlive:collapsed">0</property>
   </filter>
  </entry>
  <blank length="00:00:30.200"/>
  <entry producer="producer54" in="00:00:00.000" out="00:00:12.167">
   <property name="kdenlive:id">111</property>
   <property name="kdenlive:activeeffect">0</property>
   <filter id="filter31">
    <property name="rotate_center">1</property>
    <property name="mlt_service">qtblend</property>
    <property name="kdenlive_id">qtblend</property>
    <property name="rect">00:00:00.000~=0 1066 1920 1080 1.000000;00:00:12.167=0 -1033 1920 1080 1.000000</property>
    <property name="rotation">00:00:00.000~=0;00:00:12.167=0</property>
    <property name="compositing">0</property>
    <property name="distort">0</property>
    <property name="kdenlive:collapsed">0</property>
   </filter>
  </entry>
 </playlist>
 <playlist id="playlist11"/>
 <tractor id="tractor5" in="00:00:00.000" out="00:01:53.133">
  <property name="kdenlive:trackheight">67</property>
  <property name="kdenlive:timeline_active">1</property>
  <property name="kdenlive:collapsed">0</property>
  <property name="kdenlive:thumbs_format"/>
  <property name="kdenlive:audio_rec"/>
  <track hide="audio" producer="playlist10"/>
  <track hide="audio" producer="playlist11"/>
 </tractor>
 <producer id="producer55" in="00:00:00.000" out="00:00:04.983">
  <property name="length">300</property>
  <property name="eof">pause</property>
  <property name="resource"/>
  <property name="progressive">1</property>
  <property name="aspect_ratio">1</property>
  <property name="seekable">1</property>
  <property name="mlt_service">kdenlivetitle</property>
  <property name="kdenlive:duration">00:00:05:00</property>
  <property name="kdenlive:clipname">him</property>
  <property name="xmldata">&lt;kdenlivetitle duration="300" LC_NUMERIC="C" width="1920" height="1080" out="299">
 &lt;item type="QGraphicsTextItem" z-index="0">
  &lt;position x="707" y="367">
   &lt;transform>1,0,0,0,1,0,0,0,1&lt;/transform>
  &lt;/position>
  &lt;content shadow="0;#64000000;3;3;3" font-underline="0" box-height="345" font-outline-color="0,0,0,255" font="Ubuntu" letter-spacing="0" font-pixel-size="300" font-italic="0" typewriter="0;2;1;0;0" alignment="1" font-weight="50" font-outline="4" box-width="505.484" font-color="255,255,255,255">him&lt;/content>
 &lt;/item>
 &lt;startviewport rect="0,0,1920,1080"/>
 &lt;endviewport rect="0,0,1920,1080"/>
 &lt;background color="0,0,0,0"/>
&lt;/kdenlivetitle>
</property>
  <property name="kdenlive:folderid">68</property>
  <property name="kdenlive:id">69</property>
  <property name="kdenlive:clip_type">2</property>
  <property name="kdenlive:file_hash">f4a59acc56e0e93f728b5fc204bc812f</property>
  <property name="force_reload">0</property>
  <property name="meta.media.width">1920</property>
  <property name="meta.media.height">1080</property>
 </producer>
 <producer id="producer56" in="00:00:00.000" out="00:00:04.983">
  <property name="length">00:00:05.000</property>
  <property name="eof">pause</property>
  <property name="resource">/home/archer/Downloads/videosource/shujav2/jan5promise.png</property>
  <property name="ttl">25</property>
  <property name="aspect_ratio">1</property>
  <property name="progressive">1</property>
  <property name="seekable">1</property>
  <property name="format">2</property>
  <property name="meta.media.width">765</property>
  <property name="meta.media.height">130</property>
  <property name="mlt_service">qimage</property>
  <property name="kdenlive:clipname"/>
  <property name="kdenlive:duration">00:00:05:00</property>
  <property name="kdenlive:folderid">3</property>
  <property name="kdenlive:id">76</property>
  <property name="kdenlive:clip_type">2</property>
  <property name="kdenlive:file_size">21676</property>
  <property name="kdenlive:file_hash">f3b66a97547aa6c9939213750db6ad1c</property>
 </producer>
 <producer id="producer57" in="00:00:00.000" out="00:00:04.983">
  <property name="length">00:00:05.000</property>
  <property name="eof">pause</property>
  <property name="resource">/home/archer/Downloads/videosource/shujav2/candela.png</property>
  <property name="ttl">25</property>
  <property name="aspect_ratio">1</property>
  <property name="progressive">1</property>
  <property name="seekable">1</property>
  <property name="format">2</property>
  <property name="meta.media.width">126</property>
  <property name="meta.media.height">46</property>
  <property name="mlt_service">qimage</property>
  <property name="kdenlive:clipname"/>
  <property name="kdenlive:duration">00:00:05:00</property>
  <property name="kdenlive:folderid">-1</property>
  <property name="kdenlive:id">83</property>
  <property name="kdenlive:clip_type">2</property>
  <property name="kdenlive:file_size">4090</property>
  <property name="kdenlive:file_hash">6e89571c8d550e308fa7a87fc9100466</property>
 </producer>
 <producer id="producer58" in="00:00:00.000" out="00:00:09.800">
  <property name="length">589</property>
  <property name="eof">pause</property>
  <property name="resource">/home/archer/Downloads/videosource/shujav2/uwillyuwilly.png</property>
  <property name="ttl">25</property>
  <property name="aspect_ratio">1</property>
  <property name="progressive">1</property>
  <property name="seekable">1</property>
  <property name="format">2</property>
  <property name="meta.media.width">446</property>
  <property name="meta.media.height">87</property>
  <property name="mlt_service">qimage</property>
  <property name="kdenlive:clipname"/>
  <property name="kdenlive:duration">00:00:05:00</property>
  <property name="kdenlive:folderid">3</property>
  <property name="kdenlive:id">91</property>
  <property name="kdenlive:clip_type">2</property>
  <property name="kdenlive:file_size">17345</property>
  <property name="kdenlive:file_hash">9fb967d426515166fd9927028d9cbb34</property>
 </producer>
 <producer id="producer59" in="00:00:00.000" out="00:00:04.983">
  <property name="length">00:00:05.000</property>
  <property name="eof">pause</property>
  <property name="resource">/home/archer/Downloads/videosource/shujav2/thatdateistoday.png</property>
  <property name="ttl">25</property>
  <property name="aspect_ratio">1</property>
  <property name="progressive">1</property>
  <property name="seekable">1</property>
  <property name="format">2</property>
  <property name="meta.media.width">65</property>
  <property name="meta.media.height">34</property>
  <property name="mlt_service">qimage</property>
  <property name="kdenlive:clipname"/>
  <property name="kdenlive:duration">00:00:05:00</property>
  <property name="kdenlive:folderid">-1</property>
  <property name="kdenlive:id">101</property>
  <property name="kdenlive:clip_type">2</property>
  <property name="kdenlive:file_size">2976</property>
  <property name="kdenlive:file_hash">7a33dbfe88439810e8011e79910507ab</property>
 </producer>
 <playlist id="playlist12">
  <blank length="00:00:00.533"/>
  <entry producer="producer0" in="00:00:00.000" out="00:00:07.883">
   <property name="kdenlive:id">4</property>
   <property name="kdenlive:activeeffect">2</property>
   <filter id="filter32">
    <property name="rotate_center">1</property>
    <property name="mlt_service">qtblend</property>
    <property name="kdenlive_id">qtblend</property>
    <property name="rect">00:00:00.000~=289 1101 1340 753 1.000000;00:00:00.133~=289 440 1340 753 1.000000;00:00:00.267=290 163 1340 753 1.000000</property>
    <property name="rotation">00:00:00.000~=0;00:00:00.133~=0;00:00:00.267=0</property>
    <property name="compositing">0</property>
    <property name="distort">0</property>
    <property name="kdenlive:collapsed">0</property>
   </filter>
   <filter id="filter33" out="00:00:00.100">
    <property name="start">1</property>
    <property name="level">1</property>
    <property name="mlt_service">brightness</property>
    <property name="kdenlive_id">fade_from_black</property>
    <property name="alpha">00:00:00.000=0;00:00:00.100=1</property>
    <property name="kdenlive:collapsed">0</property>
   </filter>
   <filter id="filter34">
    <property name="hradius">00:00:00.000~=0;00:00:00.133~=0;00:00:00.267=0</property>
    <property name="vradius">00:00:00.000~=56;00:00:00.133~=15.2441;00:00:00.267=0</property>
    <property name="mlt_service">box_blur</property>
    <property name="kdenlive_id">box_blur</property>
    <property name="kdenlive:collapsed">0</property>
   </filter>
  </entry>
  <entry producer="producer0" in="00:00:00.000" out="00:00:00.617">
   <property name="kdenlive:id">4</property>
   <filter id="filter35">
    <property name="rotate_center">1</property>
    <property name="mlt_service">qtblend</property>
    <property name="kdenlive_id">qtblend</property>
    <property name="rect">00:00:00.000~=290 163 1340 753 1.000000;00:00:00.117~=290 -585 1340 753 1.000000;00:00:00.250=290 -798 1340 753 1.000000</property>
    <property name="rotation">00:00:00.000~=0;00:00:00.117~=0;00:00:00.250=0</property>
    <property name="compositing">0</property>
    <property name="distort">0</property>
    <property name="kdenlive:collapsed">0</property>
   </filter>
   <filter id="filter36">
    <property name="hradius">00:00:00.000~=0;00:00:00.250=0</property>
    <property name="vradius">00:00:00.000~=0;00:00:00.250=75</property>
    <property name="mlt_service">box_blur</property>
    <property name="kdenlive_id">box_blur</property>
   </filter>
  </entry>
  <blank length="00:00:01.683"/>
  <entry producer="producer12" in="00:00:00.000" out="00:00:02.317">
   <property name="kdenlive:id">18</property>
   <property name="kdenlive:activeeffect">1</property>
   <filter id="filter37">
    <property name="rotate_center">1</property>
    <property name="mlt_service">qtblend</property>
    <property name="kdenlive_id">qtblend</property>
    <property name="rect">00:00:00.000~=1514 -128 2378 1338 1.000000;00:00:00.133~=-404 -128 2378 1338 1.000000;00:00:00.400=-893 -128 2378 1338 1.000000</property>
    <property name="rotation">00:00:00.000~=0;00:00:00.133~=0;00:00:00.400=0</property>
    <property name="compositing">0</property>
    <property name="distort">0</property>
    <property name="kdenlive:collapsed">0</property>
   </filter>
   <filter id="filter38">
    <property name="hradius">00:00:00.000~=71;00:00:00.150~=21.037;00:00:00.400=0</property>
    <property name="vradius">00:00:00.000~=0;00:00:00.150~=0;00:00:00.400=0</property>
    <property name="mlt_service">box_blur</property>
    <property name="kdenlive_id">box_blur</property>
    <property name="kdenlive:collapsed">0</property>
   </filter>
  </entry>
  <entry producer="producer12" in="00:00:00.000" out="00:00:00.833">
   <property name="kdenlive:id">18</property>
   <filter id="filter39">
    <property name="rotate_center">1</property>
    <property name="mlt_service">qtblend</property>
    <property name="kdenlive_id">qtblend</property>
    <property name="rect">00:00:00.000~=-893 -128 2378 1338 1.000000</property>
    <property name="rotation">00:00:00.000~=0</property>
    <property name="compositing">0</property>
    <property name="distort">0</property>
    <property name="kdenlive:collapsed">0</property>
   </filter>
   <filter id="filter40">
    <property name="version">0.9</property>
    <property name="mlt_service">frei0r.transparency</property>
    <property name="kdenlive_id">frei0r.transparency</property>
    <property name="0">00:00:00.000~=1;00:00:00.117~=0.56828;00:00:00.383=0.480287</property>
    <property name="kdenlive:collapsed">0</property>
   </filter>
   <filter id="filter41">
    <property name="hradius">00:00:00.000~=0;00:00:00.183=30</property>
    <property name="vradius">00:00:00.000~=0;00:00:00.183=30</property>
    <property name="mlt_service">box_blur</property>
    <property name="kdenlive_id">box_blur</property>
   </filter>
   <filter id="filter42">
    <property name="hradius">00:00:00.000~=0;00:00:00.183=30;00:00:00.750~=30;00:00:00.833=0</property>
    <property name="vradius">00:00:00.000~=0;00:00:00.183=30;00:00:00.750~=30;00:00:00.833=0</property>
    <property name="mlt_service">box_blur</property>
    <property name="kdenlive_id">box_blur</property>
   </filter>
  </entry>
  <entry producer="producer12" in="00:00:00.000" out="00:00:00.417">
   <property name="kdenlive:id">18</property>
   <filter id="filter43">
    <property name="rotate_center">1</property>
    <property name="mlt_service">qtblend</property>
    <property name="kdenlive_id">qtblend</property>
    <property name="rect">00:00:00.000~=-893 -128 2378 1338 1.000000;00:00:00.083~=-1481 -128 2378 1338 1.000000;00:00:00.267=-1912 -128 2378 1338 1.000000</property>
    <property name="rotation">00:00:00.000~=0;00:00:00.083~=0;00:00:00.267=0</property>
    <property name="compositing">0</property>
    <property name="distort">0</property>
    <property name="kdenlive:collapsed">0</property>
   </filter>
   <filter id="filter44">
    <property name="version">0.9</property>
    <property name="mlt_service">frei0r.transparency</property>
    <property name="kdenlive_id">frei0r.transparency</property>
    <property name="0">00:00:00.000~=0.480287</property>
    <property name="kdenlive:collapsed">0</property>
   </filter>
  </entry>
  <blank length="00:00:01.333"/>
  <entry producer="producer17" in="00:00:00.000" out="00:00:01.667">
   <property name="kdenlive:id">23</property>
   <property name="kdenlive:activeeffect">1</property>
   <filter id="filter45">
    <property name="rotate_center">1</property>
    <property name="mlt_service">qtblend</property>
    <property name="kdenlive_id">qtblend</property>
    <property name="rect">00:00:00.000~=1 -1926 4108 2311 1.000000;00:00:00.150~=1 -981 4108 2311 1.000000;00:00:00.433=1 -638 4108 2311 1.000000</property>
    <property name="rotation">00:00:00.000~=0;00:00:00.150~=0;00:00:00.433=0</property>
    <property name="compositing">0</property>
    <property name="distort">0</property>
    <property name="kdenlive:collapsed">0</property>
   </filter>
   <filter id="filter46">
    <property name="hradius">00:00:00.000~=0;00:00:00.150~=0;00:00:00.433=0</property>
    <property name="vradius">00:00:00.000~=49;00:00:00.150~=15.2553;00:00:00.433=0</property>
    <property name="mlt_service">box_blur</property>
    <property name="kdenlive_id">box_blur</property>
    <property name="kdenlive:collapsed">0</property>
   </filter>
  </entry>
  <blank length="00:00:00.550"/>
  <entry producer="producer22" in="00:00:00.000" out="00:00:02.767">
   <property name="kdenlive:id">27</property>
   <filter id="filter47">
    <property name="rotate_center">1</property>
    <property name="mlt_service">qtblend</property>
    <property name="kdenlive_id">qtblend</property>
    <property name="rect">00:00:00.000=1491 558 392 102 0.000000;00:00:00.533=1482 558 15 102 0.000000;00:00:00.917=1484 555 390 105 0.300000</property>
    <property name="rotation">00:00:00.000=0;00:00:00.533=0;00:00:00.917=0</property>
    <property name="compositing">0</property>
    <property name="distort">1</property>
    <property name="kdenlive:collapsed">0</property>
   </filter>
  </entry>
  <blank length="00:00:07.017"/>
  <entry producer="producer30" in="00:00:00.000" out="00:00:00.683">
   <property name="kdenlive:id">36</property>
   <filter id="filter48">
    <property name="rotate_center">1</property>
    <property name="mlt_service">qtblend</property>
    <property name="kdenlive_id">qtblend</property>
    <property name="rect">00:00:00.000~=-1225 324 1920 1080 1.000000;00:00:00.067~=17 324 1920 1080 1.000000;00:00:00.200=541 324 1920 1080 1.000000</property>
    <property name="rotation">00:00:00.000~=0;00:00:00.067~=0;00:00:00.200=0</property>
    <property name="compositing">0</property>
    <property name="distort">0</property>
    <property name="kdenlive:collapsed">0</property>
   </filter>
   <filter id="filter49">
    <property name="hradius">00:00:00.000~=34;00:00:00.200=0</property>
    <property name="vradius">00:00:00.000~=0;00:00:00.200=0</property>
    <property name="mlt_service">box_blur</property>
    <property name="kdenlive_id">box_blur</property>
   </filter>
  </entry>
  <blank length="00:00:01.833"/>
  <entry producer="producer31" in="00:00:00.000" out="00:00:03.583">
   <property name="kdenlive:id">40</property>
   <filter id="filter50">
    <property name="rotate_center">1</property>
    <property name="mlt_service">qtblend</property>
    <property name="kdenlive_id">qtblend</property>
    <property name="rect">00:00:00.000=0 0 1920 1080 1.000000;00:00:00.217~=0 0 1920 1080 1.000000;00:00:00.367~=-235 -218 4103 2308 1.000000;00:00:00.633=-351 -325 5168 2907 1.000000;00:00:01.933~=-351 -325 5168 2907 1.000000;00:00:02.033~=-351 -1970 5168 2907 1.000000;00:00:02.167=-351 -2760 5168 2907 1.000000</property>
    <property name="rotation">00:00:00.000=0;00:00:00.217~=0;00:00:00.367~=0;00:00:00.633=0;00:00:01.933~=0;00:00:02.033~=0;00:00:02.167=0</property>
    <property name="compositing">0</property>
    <property name="distort">0</property>
    <property name="kdenlive:collapsed">0</property>
   </filter>
  </entry>
  <blank length="00:00:00.400"/>
  <entry producer="producer35" in="00:00:00.000" out="00:00:09.883">
   <property name="kdenlive:id">41</property>
   <property name="kdenlive:activeeffect">1</property>
   <filter id="filter51">
    <property name="rotate_center">1</property>
    <property name="mlt_service">qtblend</property>
    <property name="kdenlive_id">qtblend</property>
    <property name="rect">00:00:00.000~=-8427 -4486 18784 10566 1.000000;00:00:00.083=-8427 -4556 18784 10566 1.000000;00:00:02.417~=-8427 -4556 18784 10566 1.000000;00:00:02.683~=-8427 -6096 18784 10566 1.000000;00:00:03.000=-8427 -6508 18784 10566 1.000000</property>
    <property name="rotation">00:00:00.000~=0;00:00:00.083=0;00:00:02.417~=0;00:00:02.683~=0;00:00:03.000=0</property>
    <property name="compositing">0</property>
    <property name="distort">0</property>
    <property name="kdenlive:collapsed">0</property>
   </filter>
   <filter id="filter52">
    <property name="hradius">00:00:00.000~=0;00:00:00.083=0;00:00:02.417~=0;00:00:02.683~=0;00:00:03.000=0</property>
    <property name="vradius">00:00:00.000~=5.36886;00:00:00.083=0;00:00:02.417~=0;00:00:02.683~=22;00:00:03.000=0</property>
    <property name="mlt_service">box_blur</property>
    <property name="kdenlive_id">box_blur</property>
    <property name="kdenlive:collapsed">0</property>
   </filter>
  </entry>
  <blank length="00:00:02.067"/>
  <entry producer="producer55" in="00:00:00.000" out="00:00:02.733">
   <property name="kdenlive:id">69</property>
   <property name="kdenlive:activeeffect">1</property>
   <filter id="filter53">
    <property name="rotate_center">1</property>
    <property name="mlt_service">qtblend</property>
    <property name="kdenlive_id">qtblend</property>
    <property name="rect">00:00:00.000~=374 -801 1424 801 1.000000;00:00:00.100~=374 -385 1424 801 1.000000;00:00:00.300=374 -259 1424 801 1.000000</property>
    <property name="rotation">00:00:00.000~=0;00:00:00.100~=0;00:00:00.300=0</property>
    <property name="compositing">0</property>
    <property name="distort">0</property>
    <property name="kdenlive:collapsed">0</property>
   </filter>
   <filter id="filter54">
    <property name="hradius">00:00:00.000~=0;00:00:00.100=0;00:00:00.283=0</property>
    <property name="vradius">00:00:00.000~=94;00:00:00.100=17.6405;00:00:00.283=0</property>
    <property name="mlt_service">box_blur</property>
    <property name="kdenlive_id">box_blur</property>
    <property name="kdenlive:collapsed">0</property>
   </filter>
  </entry>
  <blank length="00:00:00.217"/>
  <entry producer="producer56" in="00:00:00.000" out="00:00:04.417">
   <property name="kdenlive:id">76</property>
   <filter id="filter55">
    <property name="rotate_center">1</property>
    <property name="mlt_service">qtblend</property>
    <property name="kdenlive_id">qtblend</property>
    <property name="rect">00:00:00.000~=1920 -632 4183 2353 1.000000;00:00:00.433~=-501 -632 4183 2353 1.000000;00:00:04.300~=-1822 -632 4183 2353 1.000000</property>
    <property name="rotation">00:00:00.000~=0;00:00:00.433~=0;00:00:04.300~=0</property>
    <property name="compositing">0</property>
    <property name="distort">0</property>
    <property name="kdenlive:collapsed">0</property>
   </filter>
   <filter id="filter56">
    <property name="hradius">00:00:00.000~=52;00:00:00.550=0</property>
    <property name="vradius">00:00:00.000~=0;00:00:00.550=0</property>
    <property name="mlt_service">box_blur</property>
    <property name="kdenlive_id">box_blur</property>
    <property name="kdenlive:collapsed">0</property>
   </filter>
  </entry>
  <blank length="00:00:06.583"/>
  <entry producer="producer57" in="00:00:00.000" out="00:00:04.467">
   <property name="kdenlive:id">83</property>
   <property name="kdenlive:activeeffect">1</property>
   <filter id="filter57">
    <property name="rotate_center">1</property>
    <property name="mlt_service">qtblend</property>
    <property name="kdenlive_id">qtblend</property>
    <property name="rect">00:00:00.000~=0 939 1920 1080 1.000000;00:00:00.100~=0 498 1920 1080 1.000000;00:00:00.283=0 292 1920 1080 1.000000</property>
    <property name="rotation">00:00:00.000~=0;00:00:00.100~=0;00:00:00.283=0</property>
    <property name="compositing">0</property>
    <property name="distort">0</property>
    <property name="kdenlive:collapsed">0</property>
   </filter>
   <filter id="filter58">
    <property name="hradius">00:00:00.000~=0;00:00:00.100~=0;00:00:00.283=0</property>
    <property name="vradius">00:00:00.000~=83;00:00:00.100~=20.864;00:00:00.283=0</property>
    <property name="mlt_service">box_blur</property>
    <property name="kdenlive_id">box_blur</property>
    <property name="kdenlive:collapsed">0</property>
   </filter>
  </entry>
  <blank length="00:00:00.883"/>
  <entry producer="producer58" in="00:00:00.000" out="00:00:05.317">
   <property name="kdenlive:id">91</property>
   <property name="kdenlive:activeeffect">1</property>
   <filter id="filter59">
    <property name="rotate_center">1</property>
    <property name="mlt_service">qtblend</property>
    <property name="kdenlive_id">qtblend</property>
    <property name="rect">00:00:00.000~=1917 -427 3440 1935 1.000000;00:00:00.083~=360 -427 3440 1935 1.000000;00:00:00.283=1 -427 3440 1935 1.000000</property>
    <property name="rotation">00:00:00.000~=0;00:00:00.083~=0;00:00:00.283=0</property>
    <property name="compositing">0</property>
    <property name="distort">0</property>
    <property name="kdenlive:collapsed">0</property>
   </filter>
   <filter id="filter60">
    <property name="hradius">00:00:00.000~=105;00:00:00.083~=19.7049;00:00:00.283=0</property>
    <property name="vradius">00:00:00.000~=0;00:00:00.083~=0;00:00:00.283=0</property>
    <property name="mlt_service">box_blur</property>
    <property name="kdenlive_id">box_blur</property>
    <property name="kdenlive:collapsed">0</property>
   </filter>
  </entry>
  <blank length="00:00:12.267"/>
  <entry producer="producer59" in="00:00:00.000" out="00:00:03.983">
   <property name="kdenlive:id">101</property>
   <property name="kdenlive:activeeffect">1</property>
   <filter id="filter61">
    <property name="rotate_center">1</property>
    <property name="mlt_service">qtblend</property>
    <property name="kdenlive_id">qtblend</property>
    <property name="rect">00:00:00.000~=-1914 0 1920 1080 1.000000;00:00:00.133~=-290 0 1920 1080 1.000000;00:00:00.500=0 0 1920 1080 1.000000</property>
    <property name="rotation">00:00:00.000~=0;00:00:00.133~=0;00:00:00.500=0</property>
    <property name="compositing">0</property>
    <property name="distort">0</property>
    <property name="kdenlive:collapsed">0</property>
   </filter>
   <filter id="filter62">
    <property name="hradius">00:00:00.000~=113;00:00:00.133~=29.154;00:00:00.500=0</property>
    <property name="vradius">00:00:00.000~=0;00:00:00.133~=0;00:00:00.500=0</property>
    <property name="mlt_service">box_blur</property>
    <property name="kdenlive_id">box_blur</property>
    <property name="kdenlive:collapsed">0</property>
   </filter>
  </entry>
 </playlist>
 <playlist id="playlist13"/>
 <tractor id="tractor6" in="00:00:00.000" out="00:01:27.167">
  <property name="kdenlive:trackheight">67</property>
  <property name="kdenlive:timeline_active">1</property>
  <property name="kdenlive:collapsed">0</property>
  <property name="kdenlive:thumbs_format"/>
  <property name="kdenlive:audio_rec"/>
  <track hide="audio" producer="playlist12"/>
  <track hide="audio" producer="playlist13"/>
 </tractor>
 <producer id="producer60" in="00:00:00.000" out="00:00:04.983">
  <property name="length">300</property>
  <property name="eof">pause</property>
  <property name="resource"/>
  <property name="progressive">1</property>
  <property name="aspect_ratio">1</property>
  <property name="seekable">1</property>
  <property name="mlt_service">kdenlivetitle</property>
  <property name="kdenlive:duration">00:00:05:00</property>
  <property name="kdenlive:clipname">was</property>
  <property name="xmldata">&lt;kdenlivetitle duration="300" LC_NUMERIC="C" width="1920" height="1080" out="299">
 &lt;item type="QGraphicsTextItem" z-index="0">
  &lt;position x="698" y="367">
   &lt;transform>1,0,0,0,1,0,0,0,1&lt;/transform>
  &lt;/position>
  &lt;content shadow="0;#64000000;3;3;3" font-underline="0" box-height="345" font-outline-color="0,0,0,255" font="Ubuntu" letter-spacing="0" font-pixel-size="300" font-italic="0" typewriter="0;2;1;0;0" alignment="1" font-weight="50" font-outline="4" box-width="523.484" font-color="255,255,255,255">was&lt;/content>
 &lt;/item>
 &lt;startviewport rect="0,0,1920,1080"/>
 &lt;endviewport rect="0,0,1920,1080"/>
 &lt;background color="0,0,0,0"/>
&lt;/kdenlivetitle>
</property>
  <property name="kdenlive:folderid">68</property>
  <property name="kdenlive:id">70</property>
  <property name="kdenlive:clip_type">2</property>
  <property name="kdenlive:file_hash">894b6045fa99a9ced134932de0cc1116</property>
  <property name="force_reload">0</property>
  <property name="meta.media.width">1920</property>
  <property name="meta.media.height">1080</property>
 </producer>
 <producer id="producer61" in="00:00:00.000" out="00:00:05.650">
  <property name="length">340</property>
  <property name="eof">pause</property>
  <property name="resource">/home/archer/Downloads/videosource/shujav2/mar15shuja.png</property>
  <property name="ttl">25</property>
  <property name="aspect_ratio">1</property>
  <property name="progressive">1</property>
  <property name="seekable">1</property>
  <property name="format">2</property>
  <property name="meta.media.width">371</property>
  <property name="meta.media.height">57</property>
  <property name="mlt_service">qimage</property>
  <property name="kdenlive:clipname"/>
  <property name="kdenlive:duration">00:00:05:00</property>
  <property name="kdenlive:folderid">3</property>
  <property name="kdenlive:id">77</property>
  <property name="kdenlive:clip_type">2</property>
  <property name="kdenlive:file_size">11279</property>
  <property name="kdenlive:file_hash">06b93d57fffed4ec89aff9bdf50e65fa</property>
 </producer>
 <producer id="producer62" in="00:00:00.000" out="00:00:04.983">
  <property name="length">00:00:05.000</property>
  <property name="eof">pause</property>
  <property name="resource">/home/archer/Downloads/videosource/shujav2/soundcloudrapper.png</property>
  <property name="ttl">25</property>
  <property name="aspect_ratio">1</property>
  <property name="progressive">1</property>
  <property name="seekable">1</property>
  <property name="format">2</property>
  <property name="meta.media.width">186</property>
  <property name="meta.media.height">46</property>
  <property name="mlt_service">qimage</property>
  <property name="kdenlive:clipname"/>
  <property name="kdenlive:duration">00:00:05:00</property>
  <property name="kdenlive:folderid">-1</property>
  <property name="kdenlive:id">85</property>
  <property name="kdenlive:clip_type">2</property>
  <property name="kdenlive:file_size">5092</property>
  <property name="kdenlive:file_hash">f4b643415a82a5461916a993231a9aa6</property>
 </producer>
 <producer id="producer63" in="00:00:00.000" out="00:00:07.600">
  <property name="length">457</property>
  <property name="eof">pause</property>
  <property name="resource">/home/archer/Downloads/videosource/shujav2/flippergoflipyourself.png</property>
  <property name="ttl">25</property>
  <property name="aspect_ratio">1</property>
  <property name="progressive">1</property>
  <property name="seekable">1</property>
  <property name="format">2</property>
  <property name="meta.media.width">302</property>
  <property name="meta.media.height">41</property>
  <property name="mlt_service">qimage</property>
  <property name="kdenlive:clipname"/>
  <property name="kdenlive:duration">00:00:05:00</property>
  <property name="kdenlive:folderid">3</property>
  <property name="kdenlive:id">93</property>
  <property name="kdenlive:clip_type">2</property>
  <property name="kdenlive:file_size">9385</property>
  <property name="kdenlive:file_hash">6719a10857accd59299afb1f2e6732e1</property>
 </producer>
 <chain id="chain5" out="00:00:10.533">
  <property name="length">633</property>
  <property name="eof">pause</property>
  <property name="resource">/home/archer/.var/app/org.kde.kdenlive/cache/kdenlive/proxy/c5a6aad68f5a2782fd120a23bf187230.mov</property>
  <property name="mlt_service">avformat-novalidate</property>
  <property name="seekable">1</property>
  <property name="audio_index">1</property>
  <property name="video_index">0</property>
  <property name="kdenlive:clipname">2023-05-13 19-41-55.mp4</property>
  <property name="kdenlive:clip_type">0</property>
  <property name="kdenlive:folderid">-1</property>
  <property name="kdenlive:id">102</property>
  <property name="mute_on_pause">0</property>
  <property name="kdenlive:file_size">2587361</property>
  <property name="kdenlive:file_hash">c5a6aad68f5a2782fd120a23bf187230</property>
  <property name="kdenlive:proxy">/home/archer/.var/app/org.kde.kdenlive/cache/kdenlive/proxy/c5a6aad68f5a2782fd120a23bf187230.mov</property>
  <property name="kdenlive:originalurl">/home/archer/2023-05-13 19-41-55.mp4</property>
  <property name="kdenlive:original.mlt_type">chain</property>
  <property name="kdenlive:original.in">0</property>
  <property name="kdenlive:original.out">632</property>
  <property name="kdenlive:original.length">633</property>
  <property name="kdenlive:original.eof">pause</property>
  <property name="kdenlive:original.resource">/home/archer/2023-05-13 19-41-55.mp4</property>
  <property name="kdenlive:original.mlt_service">avformat-novalidate</property>
  <property name="kdenlive:original.meta.media.nb_streams">2</property>
  <property name="kdenlive:original.meta.media.0.stream.type">video</property>
  <property name="kdenlive:original.meta.media.0.stream.frame_rate">60</property>
  <property name="kdenlive:original.meta.media.0.stream.sample_aspect_ratio">0</property>
  <property name="kdenlive:original.meta.media.0.codec.width">1364</property>
  <property name="kdenlive:original.meta.media.0.codec.height">768</property>
  <property name="kdenlive:original.meta.media.0.codec.rotate">0</property>
  <property name="kdenlive:original.meta.media.0.codec.pix_fmt">yuv420p</property>
  <property name="kdenlive:original.meta.media.0.codec.sample_aspect_ratio">1</property>
  <property name="kdenlive:original.meta.media.0.codec.colorspace">709</property>
  <property name="kdenlive:original.meta.media.0.codec.color_trc">1</property>
  <property name="kdenlive:original.meta.media.0.codec.name">h264</property>
  <property name="kdenlive:original.meta.media.0.codec.long_name">H.264 / AVC / MPEG-4 AVC / MPEG-4 part 10</property>
  <property name="kdenlive:original.meta.media.0.codec.bit_rate">1761652</property>
  <property name="kdenlive:original.meta.attr.0.stream.handler_name.markup">VideoHandler</property>
  <property name="kdenlive:original.meta.attr.0.stream.vendor_id.markup">[0][0][0][0]</property>
  <property name="kdenlive:original.meta.media.1.stream.type">audio</property>
  <property name="kdenlive:original.meta.media.1.codec.sample_fmt">fltp</property>
  <property name="kdenlive:original.meta.media.1.codec.sample_rate">48000</property>
  <property name="kdenlive:original.meta.media.1.codec.channels">2</property>
  <property name="kdenlive:original.meta.media.1.codec.name">aac</property>
  <property name="kdenlive:original.meta.media.1.codec.long_name">AAC (Advanced Audio Coding)</property>
  <property name="kdenlive:original.meta.media.1.codec.bit_rate">192000</property>
  <property name="kdenlive:original.meta.attr.1.stream.handler_name.markup">SoundHandler</property>
  <property name="kdenlive:original.meta.attr.1.stream.vendor_id.markup">[0][0][0][0]</property>
  <property name="kdenlive:original.meta.attr.major_brand.markup">isom</property>
  <property name="kdenlive:original.meta.attr.minor_version.markup">512</property>
  <property name="kdenlive:original.meta.attr.compatible_brands.markup">isomiso2avc1mp41</property>
  <property name="kdenlive:original.meta.attr.encoder.markup">Lavf60.3.100</property>
  <property name="kdenlive:original.seekable">1</property>
  <property name="kdenlive:original.width">1364</property>
  <property name="kdenlive:original.height">768</property>
  <property name="kdenlive:original.meta.media.sample_aspect_num">1</property>
  <property name="kdenlive:original.meta.media.sample_aspect_den">1</property>
  <property name="kdenlive:original.audio_index">1</property>
  <property name="kdenlive:original.video_index">0</property>
  <property name="kdenlive:original.meta.media.frame_rate_num">60</property>
  <property name="kdenlive:original.meta.media.frame_rate_den">1</property>
  <property name="kdenlive:original.meta.media.colorspace">709</property>
  <property name="kdenlive:original.meta.media.color_trc">1</property>
  <property name="kdenlive:original.meta.media.has_b_frames">0</property>
  <property name="kdenlive:original.meta.media.width">1364</property>
  <property name="kdenlive:original.meta.media.height">768</property>
  <property name="kdenlive:original.meta.media.color_range">mpeg</property>
  <property name="kdenlive:original.meta.media.top_field_first">0</property>
  <property name="kdenlive:original.meta.media.progressive">1</property>
  <property name="kdenlive:original.kdenlive:clip_type">0</property>
  <property name="kdenlive:original.kdenlive:folderid">-1</property>
  <property name="kdenlive:original.kdenlive:id">102</property>
  <property name="kdenlive:original.mute_on_pause">0</property>
  <property name="kdenlive:original.kdenlive:file_size">2587361</property>
  <property name="kdenlive:original.kdenlive:file_hash">c5a6aad68f5a2782fd120a23bf187230</property>
  <property name="kdenlive:original.backup">1</property>
  <property name="kdenlive:audio_max1">1</property>
  <property name="meta.media.nb_streams">2</property>
  <property name="meta.media.0.stream.type">video</property>
  <property name="meta.media.0.stream.frame_rate">60</property>
  <property name="meta.media.0.stream.sample_aspect_ratio">0.999023</property>
  <property name="meta.media.0.codec.width">640</property>
  <property name="meta.media.0.codec.height">360</property>
  <property name="meta.media.0.codec.rotate">0</property>
  <property name="meta.media.0.codec.pix_fmt">yuv420p</property>
  <property name="meta.media.0.codec.sample_aspect_ratio">0.999023</property>
  <property name="meta.media.0.codec.colorspace">709</property>
  <property name="meta.media.0.codec.color_trc">1</property>
  <property name="meta.media.0.codec.name">h264</property>
  <property name="meta.media.0.codec.long_name">H.264 / AVC / MPEG-4 AVC / MPEG-4 part 10</property>
  <property name="meta.media.0.codec.bit_rate">9064357</property>
  <property name="meta.attr.0.stream.handler_name.markup">VideoHandler</property>
  <property name="meta.attr.0.stream.vendor_id.markup">FFMP</property>
  <property name="meta.attr.0.stream.encoder.markup">Lavc60.3.100 h264_vaapi</property>
  <property name="meta.media.1.stream.type">audio</property>
  <property name="meta.media.1.codec.sample_fmt">fltp</property>
  <property name="meta.media.1.codec.sample_rate">48000</property>
  <property name="meta.media.1.codec.channels">2</property>
  <property name="meta.media.1.codec.name">ac3</property>
  <property name="meta.media.1.codec.long_name">ATSC A/52A (AC-3)</property>
  <property name="meta.media.1.codec.bit_rate">128000</property>
  <property name="meta.attr.1.stream.handler_name.markup">SoundHandler</property>
  <property name="meta.attr.1.stream.vendor_id.markup">[0][0][0][0]</property>
  <property name="meta.attr.major_brand.markup">qt  </property>
  <property name="meta.attr.minor_version.markup">512</property>
  <property name="meta.attr.compatible_brands.markup">qt  </property>
  <property name="meta.attr.encoder.markup">Lavf60.3.100</property>
  <property name="meta.media.sample_aspect_num">1023</property>
  <property name="meta.media.sample_aspect_den">1024</property>
  <property name="meta.media.frame_rate_num">60</property>
  <property name="meta.media.frame_rate_den">1</property>
  <property name="meta.media.colorspace">709</property>
  <property name="meta.media.color_trc">1</property>
  <property name="meta.media.has_b_frames">0</property>
  <property name="meta.media.width">640</property>
  <property name="meta.media.height">360</property>
  <property name="meta.media.color_range">mpeg</property>
  <property name="xml">was here</property>
  <property name="meta.media.top_field_first">0</property>
  <property name="meta.media.progressive">1</property>
  <property name="set.test_audio">1</property>
  <property name="set.test_image">0</property>
 </chain>
 <playlist id="playlist14">
  <blank length="00:00:07.467"/>
  <entry producer="producer4" in="00:00:00.000" out="00:00:00.950">
   <property name="kdenlive:id">13</property>
  </entry>
  <entry producer="producer5" in="00:00:00.000" out="00:00:00.617">
   <property name="kdenlive:id">14</property>
   <filter id="filter63">
    <property name="rotate_center">1</property>
    <property name="mlt_service">qtblend</property>
    <property name="kdenlive_id">qtblend</property>
    <property name="rect">00:00:00.000~=0 0 1920 1080 1.000000;00:00:00.100~=0 -593 1920 1080 1.000000;00:00:00.250=0 -844 1920 1080 1.000000</property>
    <property name="rotation">00:00:00.000~=0;00:00:00.100~=0;00:00:00.250=0</property>
    <property name="compositing">0</property>
    <property name="distort">0</property>
    <property name="kdenlive:collapsed">0</property>
   </filter>
   <filter id="filter64">
    <property name="hradius">00:00:00.000~=0;00:00:00.250=0</property>
    <property name="vradius">00:00:00.000~=0;00:00:00.250=75</property>
    <property name="mlt_service">box_blur</property>
    <property name="kdenlive_id">box_blur</property>
   </filter>
  </entry>
  <blank length="00:00:02.433"/>
  <entry producer="producer13" in="00:00:00.000" out="00:00:01.567">
   <property name="kdenlive:id">19</property>
   <property name="kdenlive:activeeffect">1</property>
   <filter id="filter65">
    <property name="rotate_center">1</property>
    <property name="mlt_service">qtblend</property>
    <property name="kdenlive_id">qtblend</property>
    <property name="rect">00:00:00.000~=327 819 1920 1080 1.000000;00:00:00.167~=327 -64 1920 1080 1.000000;00:00:00.417=327 -347 1920 1080 1.000000</property>
    <property name="rotation">00:00:00.000~=0;00:00:00.167~=0;00:00:00.417=0</property>
    <property name="compositing">0</property>
    <property name="distort">0</property>
    <property name="kdenlive:collapsed">0</property>
   </filter>
   <filter id="filter66">
    <property name="hradius">00:00:00.000~=0;00:00:00.167~=0;00:00:00.417=0</property>
    <property name="vradius">00:00:00.000~=30;00:00:00.167~=8.42496;00:00:00.417=0</property>
    <property name="mlt_service">box_blur</property>
    <property name="kdenlive_id">box_blur</property>
    <property name="kdenlive:collapsed">0</property>
   </filter>
  </entry>
  <entry producer="producer13" in="00:00:00.000" out="00:00:00.833">
   <property name="kdenlive:id">19</property>
   <filter id="filter67">
    <property name="rotate_center">1</property>
    <property name="mlt_service">qtblend</property>
    <property name="kdenlive_id">qtblend</property>
    <property name="rect">00:00:00.000~=327 -347 1920 1080 1.000000</property>
    <property name="rotation">00:00:00.000~=0</property>
    <property name="compositing">0</property>
    <property name="distort">0</property>
    <property name="kdenlive:collapsed">0</property>
   </filter>
   <filter id="filter68">
    <property name="version">0.9</property>
    <property name="mlt_service">frei0r.transparency</property>
    <property name="kdenlive_id">frei0r.transparency</property>
    <property name="0">00:00:00.000~=1;00:00:00.117~=0.56828;00:00:00.383=0.480287</property>
    <property name="kdenlive:collapsed">0</property>
   </filter>
   <filter id="filter69">
    <property name="hradius">00:00:00.000~=0;00:00:00.183=30</property>
    <property name="vradius">00:00:00.000~=0;00:00:00.183=30</property>
    <property name="mlt_service">box_blur</property>
    <property name="kdenlive_id">box_blur</property>
   </filter>
   <filter id="filter70">
    <property name="hradius">00:00:00.000~=0;00:00:00.183=30;00:00:00.750~=30;00:00:00.833=0</property>
    <property name="vradius">00:00:00.000~=0;00:00:00.183=30;00:00:00.750~=30;00:00:00.833=0</property>
    <property name="mlt_service">box_blur</property>
    <property name="kdenlive_id">box_blur</property>
   </filter>
  </entry>
  <entry producer="producer13" in="00:00:00.000" out="00:00:00.417">
   <property name="kdenlive:id">19</property>
   <filter id="filter71">
    <property name="rotate_center">1</property>
    <property name="mlt_service">qtblend</property>
    <property name="kdenlive_id">qtblend</property>
    <property name="rect">00:00:00.000~=327 -347 1920 1080 1.000000;00:00:00.083~=327 -678 1920 1080 1.000000;00:00:00.200=327 -897 1920 1080 1.000000</property>
    <property name="rotation">00:00:00.000~=0;00:00:00.083~=0;00:00:00.200=0</property>
    <property name="compositing">0</property>
    <property name="distort">0</property>
    <property name="kdenlive:collapsed">0</property>
   </filter>
   <filter id="filter72">
    <property name="version">0.9</property>
    <property name="mlt_service">frei0r.transparency</property>
    <property name="kdenlive_id">frei0r.transparency</property>
    <property name="0">00:00:00.000~=0.480287</property>
    <property name="kdenlive:collapsed">0</property>
   </filter>
  </entry>
  <blank length="00:00:01.717"/>
  <entry producer="producer18" in="00:00:00.000" out="00:00:01.383">
   <property name="kdenlive:id">25</property>
   <property name="kdenlive:activeeffect">1</property>
   <filter id="filter73">
    <property name="rotate_center">1</property>
    <property name="mlt_service">qtblend</property>
    <property name="kdenlive_id">qtblend</property>
    <property name="rect">00:00:00.000~=0 -1084 1920 1080 1.000000;00:00:00.100~=0 -342 1920 1080 1.000000;00:00:00.333=0 0 1920 1080 1.000000</property>
    <property name="rotation">00:00:00.000~=0;00:00:00.100~=0;00:00:00.333=0</property>
    <property name="compositing">0</property>
    <property name="distort">0</property>
    <property name="kdenlive:collapsed">0</property>
   </filter>
   <filter id="filter74">
    <property name="hradius">00:00:00.000~=0;00:00:00.100~=0;00:00:00.333=0</property>
    <property name="vradius">00:00:00.000~=41;00:00:00.100~=12.9509;00:00:00.333=0</property>
    <property name="mlt_service">box_blur</property>
    <property name="kdenlive_id">box_blur</property>
    <property name="kdenlive:collapsed">0</property>
   </filter>
  </entry>
  <blank length="00:00:02.633"/>
  <entry producer="producer23" in="00:00:00.000" out="00:00:01.767">
   <property name="kdenlive:id">28</property>
   <property name="kdenlive:activeeffect">1</property>
   <filter id="filter75">
    <property name="rotate_center">1</property>
    <property name="mlt_service">qtblend</property>
    <property name="kdenlive_id">qtblend</property>
    <property name="rect">00:00:00.000~=-331 1133 2583 1453 1.000000;00:00:00.117~=-331 4 2583 1453 1.000000;00:00:00.283=-331 -374 2583 1453 1.000000</property>
    <property name="rotation">00:00:00.000~=0;00:00:00.117~=0;00:00:00.283=0</property>
    <property name="compositing">0</property>
    <property name="distort">0</property>
    <property name="kdenlive:collapsed">0</property>
   </filter>
   <filter id="filter76">
    <property name="hradius">00:00:00.000~=0;00:00:00.117~=0;00:00:00.283=0</property>
    <property name="vradius">00:00:00.000~=45;00:00:00.117~=14.3711;00:00:00.283=0</property>
    <property name="mlt_service">box_blur</property>
    <property name="kdenlive_id">box_blur</property>
    <property name="kdenlive:collapsed">0</property>
   </filter>
  </entry>
  <blank length="00:00:05.633"/>
  <entry producer="producer29" in="00:00:00.000" out="00:00:00.883">
   <property name="kdenlive:id">35</property>
   <filter id="filter77">
    <property name="rotate_center">1</property>
    <property name="mlt_service">qtblend</property>
    <property name="kdenlive_id">qtblend</property>
    <property name="rect">00:00:00.000~=-1312 21 1920 1080 1.000000;00:00:00.067~=-350 21 1920 1080 1.000000;00:00:00.200=54 21 1920 1080 1.000000</property>
    <property name="rotation">00:00:00.000~=0;00:00:00.067~=0;00:00:00.200=0</property>
    <property name="compositing">0</property>
    <property name="distort">0</property>
    <property name="kdenlive:collapsed">0</property>
   </filter>
   <filter id="filter78">
    <property name="hradius">00:00:00.000~=34;00:00:00.200=0</property>
    <property name="vradius">00:00:00.000~=0;00:00:00.200=0</property>
    <property name="mlt_service">box_blur</property>
    <property name="kdenlive_id">box_blur</property>
   </filter>
  </entry>
  <blank length="00:00:02.417"/>
  <entry producer="producer22" in="00:00:00.000" out="00:00:01.350">
   <property name="kdenlive:id">27</property>
   <filter id="filter79">
    <property name="rotate_center">1</property>
    <property name="mlt_service">qtblend</property>
    <property name="kdenlive_id">qtblend</property>
    <property name="rect">00:00:00.000~=61 349 52 138 0.000000;00:00:00.500=61 349 1595 125 0.380000</property>
    <property name="rotation">00:00:00.000~=0;00:00:00.500=0</property>
    <property name="compositing">0</property>
    <property name="distort">1</property>
    <property name="kdenlive:collapsed">0</property>
   </filter>
   <filter id="filter80" in="00:00:01.167" out="00:00:01.350">
    <property name="start">1</property>
    <property name="level">1</property>
    <property name="mlt_service">brightness</property>
    <property name="kdenlive_id">fade_to_black</property>
    <property name="alpha">00:00:00.000=1;00:00:00.183=0</property>
   </filter>
  </entry>
  <entry producer="producer36" in="00:00:00.000" out="00:00:02.033">
   <property name="kdenlive:id">42</property>
   <property name="kdenlive:activeeffect">1</property>
   <filter id="filter81">
    <property name="rotate_center">1</property>
    <property name="mlt_service">qtblend</property>
    <property name="kdenlive_id">qtblend</property>
    <property name="rect">00:00:00.000~=-4480 -665 4302 2419 1.000000;00:00:00.133~=-1428 -665 4302 2419 1.000000;00:00:00.650~=-454 -665 4302 2419 1.000000</property>
    <property name="rotation">00:00:00.000~=0;00:00:00.133~=0;00:00:00.650~=0</property>
    <property name="compositing">0</property>
    <property name="distort">0</property>
    <property name="kdenlive:collapsed">0</property>
   </filter>
   <filter id="filter82">
    <property name="hradius">00:00:00.000~=60;00:00:00.133~=19;00:00:00.650=0</property>
    <property name="vradius">00:00:00.000~=0;00:00:00.133~=0;00:00:00.650=0</property>
    <property name="mlt_service">box_blur</property>
    <property name="kdenlive_id">box_blur</property>
    <property name="kdenlive:collapsed">0</property>
   </filter>
  </entry>
  <entry producer="producer22" in="00:00:00.000" out="00:00:02.350">
   <property name="kdenlive:id">27</property>
   <filter id="filter83">
    <property name="rotate_center">1</property>
    <property name="mlt_service">qtblend</property>
    <property name="kdenlive_id">qtblend</property>
    <property name="rect">00:00:00.000~=60 525 52 138 0.000000;00:00:00.283=1151 524 655 145 0.380000</property>
    <property name="rotation">00:00:00.000~=0;00:00:00.283=0</property>
    <property name="compositing">0</property>
    <property name="distort">1</property>
    <property name="kdenlive:collapsed">0</property>
   </filter>
   <filter id="filter84" in="00:00:02.183" out="00:00:02.350">
    <property name="start">1</property>
    <property name="level">1</property>
    <property name="mlt_service">brightness</property>
    <property name="kdenlive_id">fade_to_black</property>
    <property name="alpha">00:00:00.000=1;00:00:00.167=0</property>
    <property name="kdenlive:collapsed">0</property>
   </filter>
  </entry>
  <blank length="00:00:00.283"/>
  <entry producer="producer22" in="00:00:00.000" out="00:00:05.183">
   <property name="kdenlive:id">27</property>
   <filter id="filter85">
    <property name="rotate_center">1</property>
    <property name="mlt_service">qtblend</property>
    <property name="kdenlive_id">qtblend</property>
    <property name="rect">00:00:00.000~=305 176 52 138 0.000000;00:00:00.283=637 177 1128 147 0.380000</property>
    <property name="rotation">00:00:00.000~=0;00:00:00.283=0</property>
    <property name="compositing">0</property>
    <property name="distort">1</property>
    <property name="kdenlive:collapsed">0</property>
   </filter>
   <filter id="filter86" in="00:00:05.033" out="00:00:05.200">
    <property name="start">1</property>
    <property name="level">1</property>
    <property name="mlt_service">brightness</property>
    <property name="kdenlive_id">fade_to_black</property>
    <property name="alpha">00:00:00.000=1;00:00:00.167=0</property>
    <property name="kdenlive:collapsed">0</property>
   </filter>
  </entry>
  <blank length="00:00:04.383"/>
  <entry producer="producer60" in="00:00:00.000" out="00:00:02.467">
   <property name="kdenlive:id">70</property>
   <property name="kdenlive:activeeffect">1</property>
   <filter id="filter87">
    <property name="rotate_center">1</property>
    <property name="mlt_service">qtblend</property>
    <property name="kdenlive_id">qtblend</property>
    <property name="rect">00:00:00.000~=1414 -258 1424 801 1.000000;00:00:00.083~=956 -258 1424 801 1.000000;00:00:00.267=786 -258 1424 801 1.000000</property>
    <property name="rotation">00:00:00.000~=0;00:00:00.083~=0;00:00:00.267=0</property>
    <property name="compositing">0</property>
    <property name="distort">0</property>
    <property name="kdenlive:collapsed">0</property>
   </filter>
   <filter id="filter88">
    <property name="hradius">00:00:00.000~=38;00:00:00.283=0</property>
    <property name="vradius">00:00:00.000~=0;00:00:00.283=0</property>
    <property name="mlt_service">box_blur</property>
    <property name="kdenlive_id">box_blur</property>
    <property name="kdenlive:collapsed">0</property>
   </filter>
  </entry>
  <blank length="00:00:01.233"/>
  <entry producer="producer61" in="00:00:00.000" out="00:00:05.217">
   <property name="kdenlive:id">77</property>
   <filter id="filter89">
    <property name="rotate_center">1</property>
    <property name="mlt_service">qtblend</property>
    <property name="kdenlive_id">qtblend</property>
    <property name="rect">00:00:00.000~=-4684 -777 4693 2639 1.000000;00:00:00.267~=-1818 -777 4693 2639 1.000000;00:00:00.933=-572 -777 4693 2639 1.000000;00:00:04.950~=-572 -777 4693 2639 1.000000;00:00:05.217=1914 -777 4693 2639 1.000000</property>
    <property name="rotation">00:00:00.000~=0;00:00:00.267~=0;00:00:00.933=0;00:00:04.950~=0;00:00:05.217=0</property>
    <property name="compositing">0</property>
    <property name="distort">0</property>
    <property name="kdenlive:collapsed">0</property>
   </filter>
   <filter id="filter90">
    <property name="hradius">00:00:00.000~=52;00:00:00.300~=6.834;00:00:00.933=0</property>
    <property name="vradius">00:00:00.000~=0;00:00:00.300~=0;00:00:00.933=0</property>
    <property name="mlt_service">box_blur</property>
    <property name="kdenlive_id">box_blur</property>
    <property name="kdenlive:collapsed">0</property>
   </filter>
  </entry>
  <blank length="00:00:05.000"/>
  <entry producer="producer62" in="00:00:00.000" out="00:00:04.233">
   <property name="kdenlive:id">85</property>
   <property name="kdenlive:activeeffect">1</property>
   <filter id="filter91">
    <property name="rotate_center">1</property>
    <property name="mlt_service">qtblend</property>
    <property name="kdenlive_id">qtblend</property>
    <property name="rect">00:00:00.000~=0 -788 1920 1080 1.000000;00:00:00.100~=0 -479 1920 1080 1.000000;00:00:00.267=0 -364 1920 1080 1.000000</property>
    <property name="rotation">00:00:00.000~=0;00:00:00.100~=0;00:00:00.267=0</property>
    <property name="compositing">0</property>
    <property name="distort">0</property>
    <property name="kdenlive:collapsed">0</property>
   </filter>
   <filter id="filter92">
    <property name="hradius">00:00:00.000~=0;00:00:00.100~=0;00:00:00.283=0</property>
    <property name="vradius">00:00:00.000~=83;00:00:00.100~=15.5762;00:00:00.283=0</property>
    <property name="mlt_service">box_blur</property>
    <property name="kdenlive_id">box_blur</property>
    <property name="kdenlive:collapsed">0</property>
   </filter>
  </entry>
  <blank length="00:00:02.950"/>
  <entry producer="producer63" in="00:00:00.000" out="00:00:04.717">
   <property name="kdenlive:id">93</property>
   <property name="kdenlive:activeeffect">1</property>
   <filter id="filter93">
    <property name="rotate_center">1</property>
    <property name="mlt_service">qtblend</property>
    <property name="kdenlive_id">qtblend</property>
    <property name="rect">00:00:00.000~=-372 -825 2288 1287 1.000000;00:00:00.133~=-372 -535 2288 1287 1.000000;00:00:00.367=-372 -490 2288 1287 1.000000</property>
    <property name="rotation">00:00:00.000~=0;00:00:00.133~=0;00:00:00.367=0</property>
    <property name="compositing">0</property>
    <property name="distort">0</property>
    <property name="kdenlive:collapsed">0</property>
   </filter>
   <filter id="filter94">
    <property name="hradius">00:00:00.000~=0;00:00:00.133~=0;00:00:00.367=0</property>
    <property name="vradius">00:00:00.000~=71;00:00:00.133~=12.7357;00:00:00.367=0</property>
    <property name="mlt_service">box_blur</property>
    <property name="kdenlive_id">box_blur</property>
    <property name="kdenlive:collapsed">0</property>
   </filter>
  </entry>
  <blank length="00:00:12.817"/>
  <entry producer="chain5" in="00:00:04.250" out="00:00:08.000">
   <property name="kdenlive:id">102</property>
   <property name="kdenlive:activeeffect">3</property>
   <filter id="filter95">
    <property name="version">0.1</property>
    <property name="mlt_service">frei0r.scale0tilt</property>
    <property name="kdenlive_id">frei0r.scale0tilt</property>
    <property name="Clip left">00:00:04.250=0</property>
    <property name="Clip right">00:00:04.250=0</property>
    <property name="Clip top">00:00:04.250=0.162037</property>
    <property name="Clip bottom">00:00:04.250=0.0601852</property>
    <property name="Scale X">00:00:04.250=0.5</property>
    <property name="Scale Y">00:00:04.250=0.5</property>
    <property name="Tilt X">00:00:04.250=0.5</property>
    <property name="Tilt Y">00:00:04.250=0.5</property>
    <property name="kdenlive:collapsed">0</property>
   </filter>
   <filter id="filter96">
    <property name="rotate_center">1</property>
    <property name="mlt_service">qtblend</property>
    <property name="kdenlive_id">qtblend</property>
    <property name="rect">00:00:04.250~=-109 837 2483 1397 1.000000;00:00:04.367~=-109 2 2483 1397 1.000000;00:00:04.717=-109 -264 2483 1397 1.000000</property>
    <property name="rotation">00:00:04.250~=0;00:00:04.367~=0;00:00:04.717=0</property>
    <property name="compositing">0</property>
    <property name="distort">0</property>
    <property name="kdenlive:collapsed">0</property>
   </filter>
   <filter id="filter97" in="00:00:07.417" out="00:00:08.000">
    <property name="start">1</property>
    <property name="level">1</property>
    <property name="mlt_service">brightness</property>
    <property name="kdenlive_id">fade_to_black</property>
    <property name="alpha">00:00:00.000=1;00:00:00.583=0</property>
    <property name="kdenlive:collapsed">0</property>
   </filter>
   <filter id="filter98">
    <property name="hradius">00:00:04.250~=0;00:00:04.367~=0;00:00:04.717=0</property>
    <property name="vradius">00:00:04.250~=135;00:00:04.367~=17.7421;00:00:04.717=0</property>
    <property name="mlt_service">box_blur</property>
    <property name="kdenlive_id">box_blur</property>
    <property name="kdenlive:collapsed">0</property>
   </filter>
  </entry>
 </playlist>
 <playlist id="playlist15"/>
 <tractor id="tractor7" in="00:00:00.000" out="00:01:28.950">
  <property name="kdenlive:trackheight">67</property>
  <property name="kdenlive:timeline_active">1</property>
  <property name="kdenlive:collapsed">0</property>
  <property name="kdenlive:thumbs_format"/>
  <property name="kdenlive:audio_rec"/>
  <track hide="audio" producer="playlist14"/>
  <track hide="audio" producer="playlist15"/>
 </tractor>
 <producer id="producer64" in="00:00:00.000" out="00:00:04.983">
  <property name="length">300</property>
  <property name="eof">pause</property>
  <property name="resource"/>
  <property name="progressive">1</property>
  <property name="aspect_ratio">1</property>
  <property name="seekable">1</property>
  <property name="mlt_service">kdenlivetitle</property>
  <property name="kdenlive:duration">00:00:05:00</property>
  <property name="kdenlive:clipname">one</property>
  <property name="xmldata">&lt;kdenlivetitle duration="300" LC_NUMERIC="C" width="1920" height="1080" out="299">
 &lt;item type="QGraphicsTextItem" z-index="0">
  &lt;position x="702" y="367">
   &lt;transform>1,0,0,0,1,0,0,0,1&lt;/transform>
  &lt;/position>
  &lt;content shadow="0;#64000000;3;3;3" font-underline="0" box-height="345" font-outline-color="0,0,0,255" font="Ubuntu" letter-spacing="0" font-pixel-size="300" font-italic="0" typewriter="0;2;1;0;0" alignment="1" font-weight="50" font-outline="4" box-width="516.859" font-color="255,255,255,255">one&lt;/content>
 &lt;/item>
 &lt;startviewport rect="0,0,1920,1080"/>
 &lt;endviewport rect="0,0,1920,1080"/>
 &lt;background color="0,0,0,0"/>
&lt;/kdenlivetitle>
</property>
  <property name="kdenlive:folderid">68</property>
  <property name="kdenlive:id">71</property>
  <property name="kdenlive:clip_type">2</property>
  <property name="kdenlive:file_hash">3d725e91b6aa90e174746f176936848b</property>
  <property name="force_reload">0</property>
  <property name="meta.media.width">1920</property>
  <property name="meta.media.height">1080</property>
 </producer>
 <producer id="producer65" in="00:00:00.000" out="00:00:04.983">
  <property name="length">00:00:05.000</property>
  <property name="eof">pause</property>
  <property name="resource">/home/archer/Downloads/videosource/shujav2/wasntitsupposedtobe.png</property>
  <property name="ttl">25</property>
  <property name="aspect_ratio">1</property>
  <property name="progressive">1</property>
  <property name="seekable">1</property>
  <property name="format">2</property>
  <property name="meta.media.width">410</property>
  <property name="meta.media.height">105</property>
  <property name="mlt_service">qimage</property>
  <property name="kdenlive:clipname"/>
  <property name="kdenlive:duration">00:00:05:00</property>
  <property name="kdenlive:folderid">3</property>
  <property name="kdenlive:id">78</property>
  <property name="kdenlive:clip_type">2</property>
  <property name="kdenlive:file_size">17011</property>
  <property name="kdenlive:file_hash">be3a2af702cf9a954fd944fc6ebf5208</property>
 </producer>
 <producer id="producer66" in="00:00:00.000" out="00:00:04.983">
  <property name="length">00:00:05.000</property>
  <property name="eof">pause</property>
  <property name="resource">/home/archer/Downloads/videosource/shujav2/snappedall.png</property>
  <property name="ttl">25</property>
  <property name="aspect_ratio">1</property>
  <property name="progressive">1</property>
  <property name="seekable">1</property>
  <property name="format">2</property>
  <property name="meta.media.width">145</property>
  <property name="meta.media.height">51</property>
  <property name="mlt_service">qimage</property>
  <property name="kdenlive:clipname"/>
  <property name="kdenlive:duration">00:00:05:00</property>
  <property name="kdenlive:folderid">-1</property>
  <property name="kdenlive:id">84</property>
  <property name="kdenlive:clip_type">2</property>
  <property name="kdenlive:file_size">4285</property>
  <property name="kdenlive:file_hash">073a4c0e291305ab1f1cc6d8f76488e3</property>
 </producer>
 <producer id="producer67" in="00:00:00.000" out="00:00:11.183">
  <property name="length">672</property>
  <property name="eof">pause</property>
  <property name="resource">/home/archer/Downloads/videosource/shujav2/thingisproprietary.png</property>
  <property name="ttl">25</property>
  <property name="aspect_ratio">1</property>
  <property name="progressive">1</property>
  <property name="seekable">1</property>
  <property name="format">2</property>
  <property name="meta.media.width">443</property>
  <property name="meta.media.height">94</property>
  <property name="mlt_service">qimage</property>
  <property name="kdenlive:clipname"/>
  <property name="kdenlive:duration">00:00:05:00</property>
  <property name="kdenlive:folderid">3</property>
  <property name="kdenlive:id">94</property>
  <property name="kdenlive:clip_type">2</property>
  <property name="kdenlive:file_size">17686</property>
  <property name="kdenlive:file_hash">d39a8968cb0f4506be0ce6eac18fa652</property>
 </producer>
 <producer id="producer68" in="00:00:00.000" out="00:00:04.983">
  <property name="length">300</property>
  <property name="eof">pause</property>
  <property name="resource"/>
  <property name="progressive">1</property>
  <property name="aspect_ratio">1</property>
  <property name="seekable">1</property>
  <property name="mlt_service">kdenlivetitle</property>
  <property name="kdenlive:duration">00:00:05:00</property>
  <property name="kdenlive:clipname">he deleted i...</property>
  <property name="xmldata">&lt;kdenlivetitle duration="300" LC_NUMERIC="C" width="1920" height="1080" out="299">
 &lt;item type="QGraphicsTextItem" z-index="0">
  &lt;position x="95" y="367">
   &lt;transform>1,0,0,0,1,0,0,0,1&lt;/transform>
  &lt;/position>
  &lt;content line-spacing="0" shadow="0;#64000000;3;3;3" font-underline="0" box-height="345" font-outline-color="0,0,0,255" font="Ubuntu" letter-spacing="0" font-pixel-size="300" font-italic="0" typewriter="0;2;1;0;0" alignment="1" font-weight="50" font-outline="4" box-width="1729.98" font-color="255,255,255,255">he deleted it&lt;/content>
 &lt;/item>
 &lt;startviewport rect="0,0,1920,1080"/>
 &lt;endviewport rect="0,0,1920,1080"/>
 &lt;background color="0,0,0,0"/>
&lt;/kdenlivetitle>
</property>
  <property name="kdenlive:folderid">3</property>
  <property name="kdenlive:id">103</property>
  <property name="kdenlive:clip_type">2</property>
  <property name="kdenlive:file_hash">a86fc343e584eabb0c759ca5fdb48e81</property>
  <property name="force_reload">0</property>
  <property name="meta.media.width">1920</property>
  <property name="meta.media.height">1080</property>
 </producer>
 <playlist id="playlist16">
  <blank length="00:00:06.267"/>
  <entry producer="producer3" in="00:00:00.000" out="00:00:00.467">
   <property name="kdenlive:id">11</property>
  </entry>
  <entry producer="producer6" in="00:00:00.000" out="00:00:01.667">
   <property name="kdenlive:id">12</property>
   <filter id="filter99">
    <property name="version">0.2</property>
    <property name="mlt_service">frei0r.lenscorrection</property>
    <property name="kdenlive_id">frei0r.lenscorrection</property>
    <property name="xcenter">00:00:00.000=0.5;00:00:00.067~=0.5;00:00:00.450=0.838</property>
    <property name="ycenter">00:00:00.000=0.5;00:00:00.067~=0.5;00:00:00.450=0.5</property>
    <property name="correctionnearcenter">00:00:00.000=0.5;00:00:00.067~=0.5;00:00:00.450=0.5</property>
    <property name="correctionnearedges">00:00:00.000=0.5;00:00:00.067~=0.5;00:00:00.450=0.731</property>
    <property name="brightness">00:00:00.000=0;00:00:00.067~=0;00:00:00.450=0</property>
    <property name="kdenlive:collapsed">0</property>
   </filter>
   <filter id="filter100">
    <property name="rotate_center">1</property>
    <property name="mlt_service">qtblend</property>
    <property name="kdenlive_id">qtblend</property>
    <property name="rect">00:00:00.000=0 0 1920 1080 1.000000;00:00:00.067~=0 0 1920 1080 1.000000;00:00:00.233~=-533 -153 1920 1080 1.000000;00:00:00.450|=-777 -223 1920 1080 1.000000</property>
    <property name="rotation">00:00:00.000=0;00:00:00.067~=0;00:00:00.233~=0;00:00:00.450=0</property>
    <property name="compositing">0</property>
    <property name="distort">0</property>
    <property name="kdenlive:collapsed">0</property>
   </filter>
  </entry>
  <entry producer="producer6" in="00:00:00.000" out="00:00:00.617">
   <property name="kdenlive:id">12</property>
   <filter id="filter101">
    <property name="version">0.2</property>
    <property name="mlt_service">frei0r.lenscorrection</property>
    <property name="kdenlive_id">frei0r.lenscorrection</property>
    <property name="xcenter">00:00:00.000=0.838</property>
    <property name="ycenter">00:00:00.000=0.5</property>
    <property name="correctionnearcenter">00:00:00.000=0.5</property>
    <property name="correctionnearedges">00:00:00.000=0.731</property>
    <property name="brightness">00:00:00.000=0</property>
    <property name="kdenlive:collapsed">0</property>
   </filter>
   <filter id="filter102">
    <property name="rotate_center">1</property>
    <property name="mlt_service">qtblend</property>
    <property name="kdenlive_id">qtblend</property>
    <property name="rect">00:00:00.000~=-777 -223 1920 1080 1.000000;00:00:00.117~=-777 -552 1920 1080 1.000000;00:00:00.250=-777 -691 1920 1080 1.000000</property>
    <property name="rotation">00:00:00.000~=0;00:00:00.117~=0;00:00:00.250=0</property>
    <property name="compositing">0</property>
    <property name="distort">0</property>
    <property name="kdenlive:collapsed">0</property>
   </filter>
   <filter id="filter103">
    <property name="hradius">00:00:00.000~=0;00:00:00.250=0</property>
    <property name="vradius">00:00:00.000~=0;00:00:00.250=75</property>
    <property name="mlt_service">box_blur</property>
    <property name="kdenlive_id">box_blur</property>
   </filter>
  </entry>
  <blank length="00:00:03.050"/>
  <entry producer="producer14" in="00:00:00.000" out="00:00:00.950">
   <property name="kdenlive:id">20</property>
   <property name="kdenlive:activeeffect">1</property>
   <filter id="filter104">
    <property name="rotate_center">1</property>
    <property name="mlt_service">qtblend</property>
    <property name="kdenlive_id">qtblend</property>
    <property name="rect">00:00:00.000~=327 819 1920 1080 1.000000;00:00:00.167~=336 -70 1920 1080 1.000000;00:00:00.433=339 -345 1920 1080 1.000000</property>
    <property name="rotation">00:00:00.000~=0;00:00:00.167~=0;00:00:00.433=0</property>
    <property name="compositing">0</property>
    <property name="distort">0</property>
    <property name="kdenlive:collapsed">0</property>
   </filter>
   <filter id="filter105">
    <property name="hradius">00:00:00.000~=0;00:00:00.167~=0;00:00:00.433=0</property>
    <property name="vradius">00:00:00.000~=30;00:00:00.167~=10.7192;00:00:00.433=0</property>
    <property name="mlt_service">box_blur</property>
    <property name="kdenlive_id">box_blur</property>
    <property name="kdenlive:collapsed">0</property>
   </filter>
  </entry>
  <entry producer="producer14" in="00:00:00.000" out="00:00:00.833">
   <property name="kdenlive:id">20</property>
   <filter id="filter106">
    <property name="rotate_center">1</property>
    <property name="mlt_service">qtblend</property>
    <property name="kdenlive_id">qtblend</property>
    <property name="rect">00:00:00.000~=339 -345 1920 1080 1.000000</property>
    <property name="rotation">00:00:00.000~=0</property>
    <property name="compositing">0</property>
    <property name="distort">0</property>
    <property name="kdenlive:collapsed">0</property>
   </filter>
   <filter id="filter107">
    <property name="version">0.9</property>
    <property name="mlt_service">frei0r.transparency</property>
    <property name="kdenlive_id">frei0r.transparency</property>
    <property name="0">00:00:00.000~=1;00:00:00.117~=0.56828;00:00:00.383=0.480287</property>
    <property name="kdenlive:collapsed">0</property>
   </filter>
   <filter id="filter108">
    <property name="hradius">00:00:00.000~=0;00:00:00.183=30;00:00:00.750~=30;00:00:00.833=0</property>
    <property name="vradius">00:00:00.000~=0;00:00:00.183=30;00:00:00.750~=30;00:00:00.833=0</property>
    <property name="mlt_service">box_blur</property>
    <property name="kdenlive_id">box_blur</property>
    <property name="kdenlive:collapsed">0</property>
   </filter>
  </entry>
  <entry producer="producer14" in="00:00:00.000" out="00:00:00.417">
   <property name="kdenlive:id">20</property>
   <filter id="filter109">
    <property name="rotate_center">1</property>
    <property name="mlt_service">qtblend</property>
    <property name="kdenlive_id">qtblend</property>
    <property name="rect">00:00:00.000~=339 -345 1920 1080 1.000000;00:00:00.067~=1040 -345 1920 1080 1.000000;00:00:00.200=1501 -345 1920 1080 1.000000</property>
    <property name="rotation">00:00:00.000~=0;00:00:00.067~=0;00:00:00.200=0</property>
    <property name="compositing">0</property>
    <property name="distort">0</property>
    <property name="kdenlive:collapsed">0</property>
   </filter>
   <filter id="filter110">
    <property name="version">0.9</property>
    <property name="mlt_service">frei0r.transparency</property>
    <property name="kdenlive_id">frei0r.transparency</property>
    <property name="0">00:00:00.000~=0.480287</property>
    <property name="kdenlive:collapsed">0</property>
   </filter>
  </entry>
  <blank length="00:00:01.950"/>
  <entry producer="producer19" in="00:00:00.000" out="00:00:01.117">
   <property name="kdenlive:id">24</property>
   <property name="kdenlive:activeeffect">1</property>
   <filter id="filter111">
    <property name="rotate_center">1</property>
    <property name="mlt_service">qtblend</property>
    <property name="kdenlive_id">qtblend</property>
    <property name="rect">00:00:00.000~=1992 -187 2584 1453 1.000000;00:00:00.150~=497 -187 2584 1453 1.000000;00:00:00.400=3 -187 2584 1453 1.000000</property>
    <property name="rotation">00:00:00.000~=0;00:00:00.150~=0;00:00:00.400=0</property>
    <property name="compositing">0</property>
    <property name="distort">0</property>
    <property name="kdenlive:collapsed">0</property>
   </filter>
   <filter id="filter112">
    <property name="hradius">00:00:00.000~=53;00:00:00.400=0</property>
    <property name="vradius">00:00:00.000~=0;00:00:00.400=0</property>
    <property name="mlt_service">box_blur</property>
    <property name="kdenlive_id">box_blur</property>
    <property name="kdenlive:collapsed">0</property>
   </filter>
  </entry>
  <entry producer="producer19" in="00:00:00.000" out="00:00:00.367">
   <property name="kdenlive:id">24</property>
   <filter id="filter113">
    <property name="rotate_center">1</property>
    <property name="mlt_service">qtblend</property>
    <property name="kdenlive_id">qtblend</property>
    <property name="rect">00:00:00.000~=3 -187 2584 1453 1.000000;00:00:00.100~=-1801 -187 2584 1453 1.000000;00:00:00.283=-2648 -187 2584 1453 1.000000</property>
    <property name="rotation">00:00:00.000~=0;00:00:00.100~=0;00:00:00.283=0</property>
    <property name="compositing">0</property>
    <property name="distort">0</property>
    <property name="kdenlive:collapsed">0</property>
   </filter>
   <filter id="filter114">
    <property name="hradius">00:00:00.000~=0;00:00:00.283=109</property>
    <property name="vradius">00:00:00.000~=1;00:00:00.283=1</property>
    <property name="mlt_service">box_blur</property>
    <property name="kdenlive_id">box_blur</property>
    <property name="kdenlive:collapsed">0</property>
   </filter>
  </entry>
  <blank length="00:00:03.033"/>
  <entry producer="producer24" in="00:00:00.000" out="00:00:06.283">
   <property name="kdenlive:id">29</property>
   <property name="kdenlive:activeeffect">1</property>
   <filter id="filter115">
    <property name="rotate_center">1</property>
    <property name="mlt_service">qtblend</property>
    <property name="kdenlive_id">qtblend</property>
    <property name="rect">00:00:00.000~=1953 -293 2968 1670 1.000000;00:00:00.133~=540 -293 2968 1670 1.000000;00:00:00.367=-5 -293 2968 1670 1.000000;00:00:05.717~=-5 -293 2968 1670 1.000000;00:00:05.917~=-5 -549 2968 1670 1.000000;00:00:06.083=-5 -1420 2968 1670 1.000000</property>
    <property name="rotation">00:00:00.000~=0;00:00:00.133~=0;00:00:00.367=0;00:00:05.717~=0;00:00:05.917~=0;00:00:06.083=0</property>
    <property name="compositing">0</property>
    <property name="distort">0</property>
    <property name="kdenlive:collapsed">0</property>
   </filter>
   <filter id="filter116">
    <property name="hradius">00:00:00.000~=71;00:00:00.367=0;00:00:05.717=0;00:00:06.083=0</property>
    <property name="vradius">00:00:00.000~=0;00:00:00.367=0;00:00:05.717=0;00:00:06.083=60</property>
    <property name="mlt_service">box_blur</property>
    <property name="kdenlive_id">box_blur</property>
    <property name="kdenlive:collapsed">0</property>
   </filter>
  </entry>
  <blank length="00:00:00.183"/>
  <entry producer="producer28" in="00:00:00.000" out="00:00:01.067">
   <property name="kdenlive:id">33</property>
   <property name="kdenlive:activeeffect">1</property>
   <filter id="filter117">
    <property name="rotate_center">1</property>
    <property name="mlt_service">qtblend</property>
    <property name="kdenlive_id">qtblend</property>
    <property name="rect">00:00:00.000~=-1340 -112 1920 1080 1.000000;00:00:00.083~=-620 -112 1920 1080 1.000000;00:00:00.200=-522 -112 1920 1080 1.000000</property>
    <property name="rotation">00:00:00.000~=0;00:00:00.083~=0;00:00:00.200=0</property>
    <property name="compositing">0</property>
    <property name="distort">0</property>
    <property name="kdenlive:collapsed">0</property>
   </filter>
   <filter id="filter118">
    <property name="hradius">00:00:00.000~=34;00:00:00.200=0</property>
    <property name="vradius">00:00:00.000~=0;00:00:00.200=0</property>
    <property name="mlt_service">box_blur</property>
    <property name="kdenlive_id">box_blur</property>
    <property name="kdenlive:collapsed">0</property>
   </filter>
  </entry>
  <blank length="00:00:02.417"/>
  <entry producer="producer22" in="00:00:00.000" out="00:00:01.350">
   <property name="kdenlive:id">27</property>
   <filter id="filter119">
    <property name="rotate_center">1</property>
    <property name="mlt_service">qtblend</property>
    <property name="kdenlive_id">qtblend</property>
    <property name="rect">00:00:00.000~=1119 85 52 138 0.000000;00:00:00.500=1083 85 500 130 0.380000</property>
    <property name="rotation">00:00:00.000~=0;00:00:00.500=0</property>
    <property name="compositing">0</property>
    <property name="distort">1</property>
    <property name="kdenlive:collapsed">0</property>
   </filter>
   <filter id="filter120" in="00:00:01.183" out="00:00:01.350">
    <property name="start">1</property>
    <property name="level">1</property>
    <property name="mlt_service">brightness</property>
    <property name="kdenlive_id">fade_to_black</property>
    <property name="alpha">00:00:00.000=1;00:00:00.167=0</property>
    <property name="kdenlive:collapsed">0</property>
   </filter>
  </entry>
  <blank length="00:00:00.683"/>
  <entry producer="producer22" in="00:00:00.000" out="00:00:01.350">
   <property name="kdenlive:id">27</property>
   <filter id="filter121">
    <property name="rotate_center">1</property>
    <property name="mlt_service">qtblend</property>
    <property name="kdenlive_id">qtblend</property>
    <property name="rect">00:00:00.000~=600 389 52 138 0.000000;00:00:00.283=592 384 570 140 0.380000</property>
    <property name="rotation">00:00:00.000~=0;00:00:00.283=0</property>
    <property name="compositing">0</property>
    <property name="distort">1</property>
    <property name="kdenlive:collapsed">0</property>
   </filter>
   <filter id="filter122" in="00:00:01.183" out="00:00:01.350">
    <property name="start">1</property>
    <property name="level">1</property>
    <property name="mlt_service">brightness</property>
    <property name="kdenlive_id">fade_to_black</property>
    <property name="alpha">00:00:00.000=1;00:00:00.167=0</property>
    <property name="kdenlive:collapsed">0</property>
   </filter>
  </entry>
  <entry producer="producer22" in="00:00:00.000" out="00:00:02.350">
   <property name="kdenlive:id">27</property>
   <filter id="filter123">
    <property name="rotate_center">1</property>
    <property name="mlt_service">qtblend</property>
    <property name="kdenlive_id">qtblend</property>
    <property name="rect">00:00:00.000~=56 648 52 138 0.000000;00:00:00.283=32 672 1665 133 0.380000</property>
    <property name="rotation">00:00:00.000~=0;00:00:00.283=0</property>
    <property name="compositing">0</property>
    <property name="distort">1</property>
    <property name="kdenlive:collapsed">0</property>
   </filter>
   <filter id="filter124" in="00:00:02.183" out="00:00:02.350">
    <property name="start">1</property>
    <property name="level">1</property>
    <property name="mlt_service">brightness</property>
    <property name="kdenlive_id">fade_to_black</property>
    <property name="alpha">00:00:00.000=1;00:00:00.167=0</property>
    <property name="kdenlive:collapsed">0</property>
   </filter>
  </entry>
  <blank length="00:00:00.283"/>
  <entry producer="producer22" in="00:00:00.000" out="00:00:05.183">
   <property name="kdenlive:id">27</property>
   <filter id="filter125">
    <property name="rotate_center">1</property>
    <property name="mlt_service">qtblend</property>
    <property name="kdenlive_id">qtblend</property>
    <property name="rect">00:00:00.000~=56 648 52 138 0.000000;00:00:00.283=50 298 1570 134 0.380000</property>
    <property name="rotation">00:00:00.000~=0;00:00:00.283=0</property>
    <property name="compositing">0</property>
    <property name="distort">1</property>
    <property name="kdenlive:collapsed">0</property>
   </filter>
   <filter id="filter126" in="00:00:05.033" out="00:00:05.200">
    <property name="start">1</property>
    <property name="level">1</property>
    <property name="mlt_service">brightness</property>
    <property name="kdenlive_id">fade_to_black</property>
    <property name="alpha">00:00:00.000=1;00:00:00.167=0</property>
    <property name="kdenlive:collapsed">0</property>
   </filter>
  </entry>
  <blank length="00:00:04.683"/>
  <entry producer="producer64" in="00:00:00.000" out="00:00:02.167">
   <property name="kdenlive:id">71</property>
   <property name="kdenlive:activeeffect">1</property>
   <filter id="filter127">
    <property name="rotate_center">1</property>
    <property name="mlt_service">qtblend</property>
    <property name="kdenlive_id">qtblend</property>
    <property name="rect">00:00:00.000~=1378 -131 1424 801 1.000000;00:00:00.083~=1177 -131 1424 801 1.000000;00:00:00.250=1093 -131 1424 801 1.000000</property>
    <property name="rotation">00:00:00.000~=90;00:00:00.083~=90;00:00:00.250=90</property>
    <property name="compositing">0</property>
    <property name="distort">0</property>
    <property name="kdenlive:collapsed">0</property>
   </filter>
   <filter id="filter128">
    <property name="hradius">00:00:00.000~=38;00:00:00.083~=9.55221;00:00:00.283=0</property>
    <property name="vradius">00:00:00.000~=0;00:00:00.083~=0;00:00:00.283=0</property>
    <property name="mlt_service">box_blur</property>
    <property name="kdenlive_id">box_blur</property>
    <property name="kdenlive:collapsed">0</property>
   </filter>
  </entry>
  <blank length="00:00:01.900"/>
  <entry producer="producer65" in="00:00:00.000" out="00:00:02.367">
   <property name="kdenlive:id">78</property>
   <property name="kdenlive:activeeffect">1</property>
   <filter id="filter129">
    <property name="rotate_center">1</property>
    <property name="mlt_service">qtblend</property>
    <property name="kdenlive_id">qtblend</property>
    <property name="rect">00:00:00.000~=-368 -1058 2575 1449 1.000000;00:00:00.083~=-368 -377 2575 1449 1.000000;00:00:00.250=-368 -185 2575 1449 1.000000</property>
    <property name="rotation">00:00:00.000~=0;00:00:00.083~=0;00:00:00.250=0</property>
    <property name="compositing">0</property>
    <property name="distort">0</property>
    <property name="kdenlive:collapsed">0</property>
   </filter>
   <filter id="filter130">
    <property name="hradius">00:00:00.000~=0;00:00:00.083~=0;00:00:00.250=0</property>
    <property name="vradius">00:00:00.000~=56;00:00:00.083~=16.5926;00:00:00.250=0</property>
    <property name="mlt_service">box_blur</property>
    <property name="kdenlive_id">box_blur</property>
    <property name="kdenlive:collapsed">0</property>
   </filter>
  </entry>
  <blank length="00:00:07.550"/>
  <entry producer="producer66" in="00:00:00.000" out="00:00:03.867">
   <property name="kdenlive:id">84</property>
   <property name="kdenlive:activeeffect">1</property>
   <filter id="filter131">
    <property name="rotate_center">1</property>
    <property name="mlt_service">qtblend</property>
    <property name="kdenlive_id">qtblend</property>
    <property name="rect">00:00:00.000~=-1897 0 1920 1080 1.000000;00:00:00.083~=-505 0 1920 1080 1.000000;00:00:00.217=0 0 1920 1080 1.000000</property>
    <property name="rotation">00:00:00.000~=0;00:00:00.083~=0;00:00:00.217=0</property>
    <property name="compositing">0</property>
    <property name="distort">0</property>
    <property name="kdenlive:collapsed">0</property>
   </filter>
   <filter id="filter132">
    <property name="hradius">00:00:00.000~=83;00:00:00.217=0</property>
    <property name="vradius">00:00:00.000~=0;00:00:00.217=0</property>
    <property name="mlt_service">box_blur</property>
    <property name="kdenlive_id">box_blur</property>
    <property name="kdenlive:collapsed">0</property>
   </filter>
  </entry>
  <blank length="00:00:03.300"/>
  <entry producer="producer67" in="00:00:00.000" out="00:00:06.967">
   <property name="kdenlive:id">94</property>
   <property name="kdenlive:activeeffect">2</property>
   <filter id="filter133">
    <property name="rotate_center">1</property>
    <property name="mlt_service">qtblend</property>
    <property name="kdenlive_id">qtblend</property>
    <property name="rect">00:00:00.000~=-265 -904 2288 1287 1.000000;00:00:00.117~=-265 -240 2288 1287 1.000000;00:00:00.367=-265 -96 2288 1287 1.000000</property>
    <property name="rotation">00:00:00.000~=0;00:00:00.117~=0;00:00:00.367=0</property>
    <property name="compositing">0</property>
    <property name="distort">0</property>
    <property name="kdenlive:collapsed">0</property>
   </filter>
   <filter id="filter134" in="00:00:06.900" out="00:00:06.967">
    <property name="start">1</property>
    <property name="level">1</property>
    <property name="mlt_service">brightness</property>
    <property name="kdenlive_id">fade_to_black</property>
    <property name="alpha">00:00:00.000=1;00:00:00.067=0</property>
    <property name="kdenlive:collapsed">0</property>
   </filter>
   <filter id="filter135">
    <property name="hradius">00:00:00.000~=0;00:00:00.133~=0;00:00:00.367=0</property>
    <property name="vradius">00:00:00.000~=71;00:00:00.133~=12.7357;00:00:00.367=0</property>
    <property name="mlt_service">box_blur</property>
    <property name="kdenlive_id">box_blur</property>
    <property name="kdenlive:collapsed">0</property>
   </filter>
  </entry>
  <blank length="00:00:11.633"/>
  <entry producer="producer68" in="00:00:00.000" out="00:00:02.333">
   <property name="kdenlive:id">103</property>
   <property name="kdenlive:activeeffect">1</property>
   <filter id="filter136" out="00:00:00.167">
    <property name="start">1</property>
    <property name="level">1</property>
    <property name="mlt_service">brightness</property>
    <property name="kdenlive_id">fade_from_black</property>
    <property name="alpha">00:00:00.000=0;00:00:00.167=1</property>
    <property name="kdenlive:collapsed">0</property>
   </filter>
   <filter id="filter137" in="00:00:01.750" out="00:00:02.333">
    <property name="start">1</property>
    <property name="level">1</property>
    <property name="mlt_service">brightness</property>
    <property name="kdenlive_id">fade_to_black</property>
    <property name="alpha">00:00:00.000=1;00:00:00.583=0</property>
    <property name="kdenlive:collapsed">0</property>
   </filter>
  </entry>
 </playlist>
 <playlist id="playlist17"/>
 <tractor id="tractor8" in="00:00:00.000" out="00:01:28.950">
  <property name="kdenlive:trackheight">67</property>
  <property name="kdenlive:timeline_active">1</property>
  <property name="kdenlive:collapsed">0</property>
  <property name="kdenlive:thumbs_format"/>
  <property name="kdenlive:audio_rec"/>
  <track hide="audio" producer="playlist16"/>
  <track hide="audio" producer="playlist17"/>
 </tractor>
 <producer id="producer69" in="00:00:00.000" out="00:00:04.983">
  <property name="length">300</property>
  <property name="eof">pause</property>
  <property name="resource"/>
  <property name="progressive">1</property>
  <property name="aspect_ratio">1</property>
  <property name="seekable">1</property>
  <property name="mlt_service">kdenlivetitle</property>
  <property name="kdenlive:duration">00:00:05:00</property>
  <property name="kdenlive:clipname">of</property>
  <property name="xmldata">&lt;kdenlivetitle duration="300" LC_NUMERIC="C" width="1920" height="1080" out="299">
 &lt;item type="QGraphicsTextItem" z-index="0">
  &lt;position x="812" y="367">
   &lt;transform>1,0,0,0,1,0,0,0,1&lt;/transform>
  &lt;/position>
  &lt;content shadow="0;#64000000;3;3;3" font-underline="0" box-height="345" font-outline-color="0,0,0,255" font="Ubuntu" letter-spacing="0" font-pixel-size="300" font-italic="0" typewriter="0;2;1;0;0" alignment="1" font-weight="50" font-outline="4" box-width="295.781" font-color="255,255,255,255">of&lt;/content>
 &lt;/item>
 &lt;startviewport rect="0,0,1920,1080"/>
 &lt;endviewport rect="0,0,1920,1080"/>
 &lt;background color="0,0,0,0"/>
&lt;/kdenlivetitle>
</property>
  <property name="kdenlive:folderid">68</property>
  <property name="kdenlive:id">72</property>
  <property name="kdenlive:clip_type">2</property>
  <property name="kdenlive:file_hash">9780c837bd8b35b37ded14fe11b89aed</property>
  <property name="force_reload">0</property>
  <property name="meta.media.width">1920</property>
  <property name="meta.media.height">1080</property>
 </producer>
 <producer id="producer70" in="00:00:00.000" out="00:00:04.983">
  <property name="length">00:00:05.000</property>
  <property name="eof">pause</property>
  <property name="resource">/home/archer/Downloads/videosource/shujav2/howboutgivedate.png</property>
  <property name="ttl">25</property>
  <property name="aspect_ratio">1</property>
  <property name="progressive">1</property>
  <property name="seekable">1</property>
  <property name="format">2</property>
  <property name="meta.media.width">736</property>
  <property name="meta.media.height">65</property>
  <property name="mlt_service">qimage</property>
  <property name="kdenlive:clipname"/>
  <property name="kdenlive:duration">00:00:05:00</property>
  <property name="kdenlive:folderid">3</property>
  <property name="kdenlive:id">81</property>
  <property name="kdenlive:clip_type">2</property>
  <property name="kdenlive:file_size">19348</property>
  <property name="kdenlive:file_hash">548df6c019f9763122bad37acc4e889b</property>
 </producer>
 <producer id="producer71" in="00:00:00.000" out="00:00:04.983">
  <property name="length">00:00:05.000</property>
  <property name="eof">pause</property>
  <property name="resource">/home/archer/Downloads/videosource/shujav2/pepsimantr.png</property>
  <property name="ttl">25</property>
  <property name="aspect_ratio">1</property>
  <property name="progressive">1</property>
  <property name="seekable">1</property>
  <property name="format">2</property>
  <property name="meta.media.width">326</property>
  <property name="meta.media.height">347</property>
  <property name="mlt_service">qimage</property>
  <property name="kdenlive:clipname"/>
  <property name="kdenlive:duration">00:00:05:00</property>
  <property name="kdenlive:folderid">-1</property>
  <property name="kdenlive:id">86</property>
  <property name="kdenlive:clip_type">2</property>
  <property name="kdenlive:file_size">32265</property>
  <property name="kdenlive:file_hash">74854bd0db08b39635e8359a4afee201</property>
 </producer>
 <producer id="producer72" in="00:00:00.000" out="00:00:08.917">
  <property name="length">536</property>
  <property name="eof">pause</property>
  <property name="resource">/home/archer/Downloads/videosource/shujav2/itaintdodging.png</property>
  <property name="ttl">25</property>
  <property name="aspect_ratio">1</property>
  <property name="progressive">1</property>
  <property name="seekable">1</property>
  <property name="format">2</property>
  <property name="meta.media.width">758</property>
  <property name="meta.media.height">65</property>
  <property name="mlt_service">qimage</property>
  <property name="kdenlive:clipname"/>
  <property name="kdenlive:duration">00:00:05:00</property>
  <property name="kdenlive:folderid">3</property>
  <property name="kdenlive:id">95</property>
  <property name="kdenlive:clip_type">2</property>
  <property name="kdenlive:file_size">17162</property>
  <property name="kdenlive:file_hash">3c76b42811ec02e299164f8484b6c501</property>
 </producer>
 <producer id="producer73" in="00:00:00.000" out="00:00:07.350">
  <property name="length">442</property>
  <property name="eof">pause</property>
  <property name="resource">/home/archer/Downloads/videosource/shujav2/wakeupdeleted.png</property>
  <property name="ttl">25</property>
  <property name="aspect_ratio">1</property>
  <property name="progressive">1</property>
  <property name="seekable">1</property>
  <property name="format">2</property>
  <property name="meta.media.width">402</property>
  <property name="meta.media.height">175</property>
  <property name="mlt_service">qimage</property>
  <property name="kdenlive:clipname"/>
  <property name="kdenlive:duration">00:00:05:00</property>
  <property name="kdenlive:folderid">3</property>
  <property name="kdenlive:id">104</property>
  <property name="kdenlive:clip_type">2</property>
  <property name="kdenlive:file_size">22074</property>
  <property name="kdenlive:file_hash">005cdf671f3b83c5fc76125a065b0f26</property>
 </producer>
 <playlist id="playlist18">
  <blank length="00:00:05.383"/>
  <entry producer="producer10" in="00:00:00.000" out="00:00:00.750">
   <property name="kdenlive:id">9</property>
  </entry>
  <entry producer="producer9" in="00:00:00.000" out="00:00:02.267">
   <property name="kdenlive:id">10</property>
   <filter id="filter138">
    <property name="version">0.2</property>
    <property name="mlt_service">frei0r.lenscorrection</property>
    <property name="kdenlive_id">frei0r.lenscorrection</property>
    <property name="xcenter">00:00:00.000=0.5;00:00:00.067~=0.5;00:00:00.450=0.806</property>
    <property name="ycenter">00:00:00.000=0.5;00:00:00.067~=0.5;00:00:00.450=0.5</property>
    <property name="correctionnearcenter">00:00:00.000=0.5;00:00:00.067~=0.5;00:00:00.450=0.5</property>
    <property name="correctionnearedges">00:00:00.000=0.5;00:00:00.067~=0.5;00:00:00.450=0.731</property>
    <property name="brightness">00:00:00.000=0;00:00:00.067~=0;00:00:00.450=0</property>
    <property name="kdenlive:collapsed">0</property>
   </filter>
   <filter id="filter139">
    <property name="rotate_center">1</property>
    <property name="mlt_service">qtblend</property>
    <property name="kdenlive_id">qtblend</property>
    <property name="rect">00:00:00.000=0 0 1920 1080 1.000000;00:00:00.067~=0 0 1920 1080 1.000000;00:00:00.250~=-519 -234 1920 1080 1.000000;00:00:00.450|=-734 -318 1920 1080 1.000000</property>
    <property name="rotation">00:00:00.000=0;00:00:00.067~=0;00:00:00.250~=0;00:00:00.450=0</property>
    <property name="compositing">0</property>
    <property name="distort">0</property>
    <property name="kdenlive:collapsed">0</property>
   </filter>
  </entry>
  <entry producer="producer9" in="00:00:00.000" out="00:00:00.617">
   <property name="kdenlive:id">10</property>
   <filter id="filter140">
    <property name="version">0.2</property>
    <property name="mlt_service">frei0r.lenscorrection</property>
    <property name="kdenlive_id">frei0r.lenscorrection</property>
    <property name="xcenter">00:00:00.000=0.806</property>
    <property name="ycenter">00:00:00.000=0.5</property>
    <property name="correctionnearcenter">00:00:00.000=0.5</property>
    <property name="correctionnearedges">00:00:00.000=0.731</property>
    <property name="brightness">00:00:00.000=0</property>
    <property name="kdenlive:collapsed">0</property>
   </filter>
   <filter id="filter141">
    <property name="rotate_center">1</property>
    <property name="mlt_service">qtblend</property>
    <property name="kdenlive_id">qtblend</property>
    <property name="rect">00:00:00.000~=-734 -318 1920 1080 1.000000;00:00:00.100~=-734 -555 1920 1080 1.000000;00:00:00.250=-734 -698 1920 1080 1.000000</property>
    <property name="rotation">00:00:00.000~=0;00:00:00.100~=0;00:00:00.250=0</property>
    <property name="compositing">0</property>
    <property name="distort">0</property>
    <property name="kdenlive:collapsed">0</property>
   </filter>
   <filter id="filter142">
    <property name="hradius">00:00:00.000~=0;00:00:00.250=0</property>
    <property name="vradius">00:00:00.000~=0;00:00:00.250=75</property>
    <property name="mlt_service">box_blur</property>
    <property name="kdenlive_id">box_blur</property>
   </filter>
  </entry>
  <blank length="00:00:04.017"/>
  <entry producer="producer15" in="00:00:00.000" out="00:00:00.833">
   <property name="kdenlive:id">21</property>
   <property name="kdenlive:activeeffect">1</property>
   <filter id="filter143">
    <property name="rotate_center">1</property>
    <property name="mlt_service">qtblend</property>
    <property name="kdenlive_id">qtblend</property>
    <property name="rect">00:00:00.000~=0 -868 1920 1080 1.000000;00:00:00.100~=0 -188 1920 1080 1.000000;00:00:00.317=0 0 1920 1080 1.000000</property>
    <property name="rotation">00:00:00.000~=0;00:00:00.100~=0;00:00:00.317=0</property>
    <property name="compositing">0</property>
    <property name="distort">0</property>
    <property name="kdenlive:collapsed">0</property>
   </filter>
   <filter id="filter144">
    <property name="hradius">00:00:00.000~=0;00:00:00.317=0</property>
    <property name="vradius">00:00:00.000~=30;00:00:00.317=0</property>
    <property name="mlt_service">box_blur</property>
    <property name="kdenlive_id">box_blur</property>
    <property name="kdenlive:collapsed">0</property>
   </filter>
  </entry>
  <entry producer="producer15" in="00:00:00.000" out="00:00:00.417">
   <property name="kdenlive:id">21</property>
   <filter id="filter145">
    <property name="rotate_center">1</property>
    <property name="mlt_service">qtblend</property>
    <property name="kdenlive_id">qtblend</property>
    <property name="rect">00:00:00.000~=0 0 1920 1080 1.000000;00:00:00.067~=-15701 -8599 32505 18284 1.000000;00:00:00.200=-26013 -14247 52592 29583 1.000000</property>
    <property name="rotation">00:00:00.000~=0;00:00:00.067~=0;00:00:00.200=0</property>
    <property name="compositing">0</property>
    <property name="distort">0</property>
    <property name="kdenlive:collapsed">0</property>
   </filter>
  </entry>
  <blank length="00:00:06.500"/>
  <entry producer="producer24" in="00:00:00.000" out="00:00:04.667">
   <property name="kdenlive:id">29</property>
   <filter id="filter146">
    <property name="version">0.1</property>
    <property name="mlt_service">frei0r.scale0tilt</property>
    <property name="kdenlive_id">frei0r.scale0tilt</property>
    <property name="Clip left">00:00:00.000=0.0578125</property>
    <property name="Clip right">00:00:00.000=0.714583</property>
    <property name="Clip top">00:00:00.000=0.884259</property>
    <property name="Clip bottom">00:00:00.000=0</property>
    <property name="Scale X">00:00:00.000=0.5</property>
    <property name="Scale Y">00:00:00.000=0.5</property>
    <property name="Tilt X">00:00:00.000=0.5</property>
    <property name="Tilt Y">00:00:00.000=0.5</property>
    <property name="kdenlive:collapsed">0</property>
   </filter>
   <filter id="filter147">
    <property name="rotate_center">1</property>
    <property name="mlt_service">qtblend</property>
    <property name="kdenlive_id">qtblend</property>
    <property name="rect">00:00:00.000~=1953 -293 2968 1670 1.000000;00:00:00.133~=540 -293 2968 1670 1.000000;00:00:00.367=-5 -293 2968 1670 1.000000</property>
    <property name="rotation">00:00:00.000~=0;00:00:00.133~=0;00:00:00.367=0</property>
    <property name="compositing">0</property>
    <property name="distort">0</property>
    <property name="kdenlive:collapsed">0</property>
   </filter>
   <filter id="filter148">
    <property name="mlt_service">avfilter.gblur</property>
    <property name="kdenlive_id">avfilter.gblur</property>
    <property name="av.sigma">41</property>
    <property name="av.steps">1</property>
    <property name="av.planes">7</property>
    <property name="av.sigmaV">-1</property>
    <property name="kdenlive:collapsed">0</property>
   </filter>
   <filter id="filter149" in="00:00:04.317" out="00:00:04.667">
    <property name="start">1</property>
    <property name="level">1</property>
    <property name="mlt_service">brightness</property>
    <property name="kdenlive_id">fade_to_black</property>
    <property name="alpha">00:00:00.000=1;00:00:00.350=0</property>
    <property name="kdenlive:collapsed">0</property>
   </filter>
  </entry>
  <blank length="00:00:01.167"/>
  <entry producer="producer27" in="00:00:00.000" out="00:00:01.700">
   <property name="kdenlive:id">32</property>
   <property name="kdenlive:activeeffect">1</property>
   <filter id="filter150">
    <property name="rotate_center">1</property>
    <property name="mlt_service">qtblend</property>
    <property name="kdenlive_id">qtblend</property>
    <property name="rect">00:00:00.000~=0 801 1920 1080 1.000000;00:00:00.200~=0 -162 1920 1080 1.000000;00:00:00.467=0 -354 1920 1080 1.000000</property>
    <property name="rotation">00:00:00.000~=0;00:00:00.200~=0;00:00:00.467=0</property>
    <property name="compositing">0</property>
    <property name="distort">0</property>
    <property name="kdenlive:collapsed">0</property>
   </filter>
   <filter id="filter151">
    <property name="hradius">00:00:00.000~=0;00:00:00.200~=0;00:00:00.467=0</property>
    <property name="vradius">00:00:00.000~=45;00:00:00.200~=9.14062;00:00:00.467=0</property>
    <property name="mlt_service">box_blur</property>
    <property name="kdenlive_id">box_blur</property>
    <property name="kdenlive:collapsed">0</property>
   </filter>
  </entry>
  <blank length="00:00:05.267"/>
  <entry producer="producer35" in="00:00:00.000" out="00:00:00.550">
   <property name="kdenlive:id">41</property>
   <filter id="filter152">
    <property name="rotate_center">1</property>
    <property name="mlt_service">qtblend</property>
    <property name="kdenlive_id">qtblend</property>
    <property name="rect">00:00:00.000~=-8427 1192 18784 10566 1.000000;00:00:00.250~=-8427 -3622 18784 10566 1.000000;00:00:00.533=-8427 -4476 18784 10566 1.000000</property>
    <property name="rotation">00:00:00.000~=0;00:00:00.250~=0;00:00:00.533=0</property>
    <property name="compositing">0</property>
    <property name="distort">0</property>
    <property name="kdenlive:collapsed">0</property>
   </filter>
   <filter id="filter153">
    <property name="hradius">00:00:00.000~=0;00:00:00.550=0</property>
    <property name="vradius">00:00:00.000~=60;00:00:00.550=6.74442</property>
    <property name="mlt_service">box_blur</property>
    <property name="kdenlive_id">box_blur</property>
    <property name="kdenlive:collapsed">0</property>
   </filter>
  </entry>
  <entry producer="producer22" in="00:00:00.000" out="00:00:02.350">
   <property name="kdenlive:id">27</property>
   <filter id="filter154">
    <property name="rotate_center">1</property>
    <property name="mlt_service">qtblend</property>
    <property name="kdenlive_id">qtblend</property>
    <property name="rect">00:00:00.000~=38 793 52 138 0.000000;00:00:00.283=39 803 682 138 0.380000</property>
    <property name="rotation">00:00:00.000~=0;00:00:00.283=0</property>
    <property name="compositing">0</property>
    <property name="distort">1</property>
    <property name="kdenlive:collapsed">0</property>
   </filter>
   <filter id="filter155" in="00:00:02.183" out="00:00:02.350">
    <property name="start">1</property>
    <property name="level">1</property>
    <property name="mlt_service">brightness</property>
    <property name="kdenlive_id">fade_to_black</property>
    <property name="alpha">00:00:00.000=1;00:00:00.167=0</property>
    <property name="kdenlive:collapsed">0</property>
   </filter>
  </entry>
  <blank length="00:00:00.283"/>
  <entry producer="producer37" in="00:00:00.000" out="00:00:05.183">
   <property name="kdenlive:id">43</property>
   <filter id="filter156">
    <property name="rotate_center">1</property>
    <property name="mlt_service">qtblend</property>
    <property name="kdenlive_id">qtblend</property>
    <property name="rect">00:00:00.000~=60 525 52 138 0.000000;00:00:00.283=46 411 1015 140 0.380000</property>
    <property name="rotation">00:00:00.000~=0;00:00:00.283=0</property>
    <property name="compositing">0</property>
    <property name="distort">1</property>
    <property name="kdenlive:collapsed">0</property>
   </filter>
   <filter id="filter157" in="00:00:05.033" out="00:00:05.200">
    <property name="start">1</property>
    <property name="level">1</property>
    <property name="mlt_service">brightness</property>
    <property name="kdenlive_id">fade_to_black</property>
    <property name="alpha">00:00:00.000=1;00:00:00.167=0</property>
    <property name="kdenlive:collapsed">0</property>
   </filter>
  </entry>
  <blank length="00:00:04.817"/>
  <entry producer="producer69" in="00:00:00.000" out="00:00:02.033">
   <property name="kdenlive:id">72</property>
   <filter id="filter158">
    <property name="rotate_center">1</property>
    <property name="mlt_service">qtblend</property>
    <property name="kdenlive_id">qtblend</property>
    <property name="rect">00:00:00.000~=-929 -53 1424 801 1.000000;00:00:00.067~=-635 -53 1424 801 1.000000;00:00:00.183=-549 -53 1424 801 1.000000</property>
    <property name="rotation">00:00:00.000~=0;00:00:00.067~=0;00:00:00.183=0</property>
    <property name="compositing">0</property>
    <property name="distort">0</property>
    <property name="kdenlive:collapsed">0</property>
   </filter>
   <filter id="filter159">
    <property name="hradius">00:00:00.000~=38;00:00:00.083~=9.55221;00:00:00.283=0</property>
    <property name="vradius">00:00:00.000~=0;00:00:00.083~=0;00:00:00.283=0</property>
    <property name="mlt_service">box_blur</property>
    <property name="kdenlive_id">box_blur</property>
    <property name="kdenlive:collapsed">0</property>
   </filter>
  </entry>
  <blank length="00:00:03.233"/>
  <entry producer="producer70" in="00:00:00.000" out="00:00:01.117">
   <property name="kdenlive:id">81</property>
   <filter id="filter160">
    <property name="rotate_center">1</property>
    <property name="mlt_service">qtblend</property>
    <property name="kdenlive_id">qtblend</property>
    <property name="rect">00:00:00.000~=-450 -1928 5904 3321 1.000000;00:00:00.083~=-450 -1418 5904 3321 1.000000;00:00:00.250=-450 -1112 5904 3321 1.000000</property>
    <property name="rotation">00:00:00.000~=0;00:00:00.083~=0;00:00:00.250=0</property>
    <property name="compositing">0</property>
    <property name="distort">0</property>
    <property name="kdenlive:collapsed">0</property>
   </filter>
   <filter id="filter161">
    <property name="hradius">00:00:00.000~=0;00:00:00.083~=0;00:00:00.250=0</property>
    <property name="vradius">00:00:00.000~=56;00:00:00.083~=16.5926;00:00:00.250=0</property>
    <property name="mlt_service">box_blur</property>
    <property name="kdenlive_id">box_blur</property>
    <property name="kdenlive:collapsed">0</property>
   </filter>
  </entry>
  <blank length="00:00:08.050"/>
  <entry producer="producer71" in="00:00:00.000" out="00:00:03.283">
   <property name="kdenlive:id">86</property>
   <property name="kdenlive:activeeffect">1</property>
   <filter id="filter162">
    <property name="rotate_center">1</property>
    <property name="mlt_service">qtblend</property>
    <property name="kdenlive_id">qtblend</property>
    <property name="rect">00:00:00.000~=-1487 0 1920 1080 1.000000;00:00:00.100~=-709 0 1920 1080 1.000000;00:00:00.283=-448 0 1920 1080 1.000000</property>
    <property name="rotation">00:00:00.000~=0;00:00:00.100~=0;00:00:00.283=0</property>
    <property name="compositing">0</property>
    <property name="distort">0</property>
    <property name="kdenlive:collapsed">0</property>
   </filter>
   <filter id="filter163">
    <property name="hradius">00:00:00.000~=94;00:00:00.100~=17.6405;00:00:00.283=0</property>
    <property name="vradius">00:00:00.000~=0;00:00:00.100~=0;00:00:00.283=0</property>
    <property name="mlt_service">box_blur</property>
    <property name="kdenlive_id">box_blur</property>
    <property name="kdenlive:collapsed">0</property>
   </filter>
  </entry>
  <blank length="00:00:05.567"/>
  <entry producer="producer72" in="00:00:00.000" out="00:00:04.700">
   <property name="kdenlive:id">95</property>
   <filter id="filter164">
    <property name="rotate_center">1</property>
    <property name="mlt_service">qtblend</property>
    <property name="kdenlive_id">qtblend</property>
    <property name="rect">00:00:00.000~=-365 -1625 4869 2739 1.000000;00:00:00.117~=-365 -793 4869 2739 1.000000;00:00:00.450=-365 -505 4869 2739 1.000000</property>
    <property name="rotation">00:00:00.000~=0;00:00:00.117~=0;00:00:00.450=0</property>
    <property name="compositing">0</property>
    <property name="distort">0</property>
    <property name="kdenlive:collapsed">0</property>
   </filter>
   <filter id="filter165" in="00:00:04.617" out="00:00:04.700">
    <property name="start">1</property>
    <property name="level">1</property>
    <property name="mlt_service">brightness</property>
    <property name="kdenlive_id">fade_to_black</property>
    <property name="alpha">00:00:00.000=1;00:00:00.083=0</property>
   </filter>
   <filter id="filter166">
    <property name="hradius">00:00:00.000~=0;00:00:00.133~=0;00:00:00.367=0</property>
    <property name="vradius">00:00:00.000~=71;00:00:00.133~=12.7357;00:00:00.367=0</property>
    <property name="mlt_service">box_blur</property>
    <property name="kdenlive_id">box_blur</property>
   </filter>
  </entry>
  <blank length="00:00:13.417"/>
  <entry producer="producer73" in="00:00:00.000" out="00:00:04.933">
   <property name="kdenlive:id">104</property>
   <property name="kdenlive:activeeffect">1</property>
   <filter id="filter167">
    <property name="rotate_center">1</property>
    <property name="mlt_service">qtblend</property>
    <property name="kdenlive_id">qtblend</property>
    <property name="rect">00:00:00.000~=-345 -1261 2488 1400 1.000000;00:00:00.133~=-345 -384 2488 1400 1.000000;00:00:00.467=-345 -161 2488 1400 1.000000</property>
    <property name="rotation">00:00:00.000~=0;00:00:00.133~=0;00:00:00.467=0</property>
    <property name="compositing">0</property>
    <property name="distort">0</property>
    <property name="kdenlive:collapsed">0</property>
   </filter>
   <filter id="filter168">
    <property name="hradius">00:00:00.000~=0;00:00:00.133~=0;00:00:00.467=0</property>
    <property name="vradius">00:00:00.000~=105;00:00:00.133~=13.7994;00:00:00.467=0</property>
    <property name="mlt_service">box_blur</property>
    <property name="kdenlive_id">box_blur</property>
    <property name="kdenlive:collapsed">0</property>
   </filter>
  </entry>
 </playlist>
 <playlist id="playlist19"/>
 <tractor id="tractor9" in="00:00:00.000" out="00:01:33.333">
  <property name="kdenlive:trackheight">67</property>
  <property name="kdenlive:timeline_active">1</property>
  <property name="kdenlive:collapsed">0</property>
  <property name="kdenlive:thumbs_format"/>
  <property name="kdenlive:audio_rec"/>
  <track hide="audio" producer="playlist18"/>
  <track hide="audio" producer="playlist19"/>
 </tractor>
 <producer id="producer74" in="00:00:00.000" out="00:00:04.983">
  <property name="length">00:00:05.000</property>
  <property name="eof">pause</property>
  <property name="resource">/home/archer/.var/app/org.kde.kdenlive/cache/kdenlive/proxy/12bd79eae4a6bbe8dbeef76018c8880f.png</property>
  <property name="ttl">25</property>
  <property name="aspect_ratio">1</property>
  <property name="progressive">1</property>
  <property name="seekable">1</property>
  <property name="format">1</property>
  <property name="meta.media.width">800</property>
  <property name="meta.media.height">450</property>
  <property name="mlt_service">qimage</property>
  <property name="kdenlive:clipname">shujapackage1redacted.jpg</property>
  <property name="kdenlive:duration">00:00:05.000</property>
  <property name="kdenlive:folderid">3</property>
  <property name="kdenlive:id">57</property>
  <property name="kdenlive:clip_type">2</property>
  <property name="kdenlive:file_size">982725</property>
  <property name="kdenlive:file_hash">12bd79eae4a6bbe8dbeef76018c8880f</property>
  <property name="kdenlive:proxy">/home/archer/.var/app/org.kde.kdenlive/cache/kdenlive/proxy/12bd79eae4a6bbe8dbeef76018c8880f.png</property>
  <property name="kdenlive:originalurl">/home/archer/Downloads/videosource/shujav2/shujapackage1redacted.jpg</property>
  <property name="kdenlive:original.mlt_type">producer</property>
  <property name="kdenlive:original.in">0</property>
  <property name="kdenlive:original.out">299</property>
  <property name="kdenlive:original.length">00:00:05.000</property>
  <property name="kdenlive:original.eof">pause</property>
  <property name="kdenlive:original.resource">/home/archer/Downloads/videosource/shujav2/shujapackage1redacted.jpg</property>
  <property name="kdenlive:original.ttl">25</property>
  <property name="kdenlive:original.aspect_ratio">1</property>
  <property name="kdenlive:original.progressive">1</property>
  <property name="kdenlive:original.seekable">1</property>
  <property name="kdenlive:original.format">1</property>
  <property name="kdenlive:original.meta.media.width">4128</property>
  <property name="kdenlive:original.meta.media.height">2322</property>
  <property name="kdenlive:original.mlt_service">qimage</property>
  <property name="kdenlive:original.kdenlive:duration">00:00:05:00</property>
  <property name="kdenlive:original.kdenlive:folderid">-1</property>
  <property name="kdenlive:original.kdenlive:id">57</property>
  <property name="kdenlive:original.kdenlive:clip_type">2</property>
  <property name="kdenlive:original.kdenlive:file_size">982725</property>
  <property name="kdenlive:original.kdenlive:file_hash">12bd79eae4a6bbe8dbeef76018c8880f</property>
  <property name="kdenlive:original.backup">1</property>
 </producer>
 <producer id="producer75" in="00:00:00.000" out="00:00:04.983">
  <property name="length">300</property>
  <property name="eof">pause</property>
  <property name="resource"/>
  <property name="progressive">1</property>
  <property name="aspect_ratio">1</property>
  <property name="seekable">1</property>
  <property name="mlt_service">kdenlivetitle</property>
  <property name="kdenlive:duration">00:00:05:00</property>
  <property name="kdenlive:clipname">their</property>
  <property name="xmldata">&lt;kdenlivetitle duration="300" LC_NUMERIC="C" width="1920" height="1080" out="299">
 &lt;item type="QGraphicsTextItem" z-index="0">
  &lt;position x="634" y="367">
   &lt;transform>1,0,0,0,1,0,0,0,1&lt;/transform>
  &lt;/position>
  &lt;content shadow="0;#64000000;3;3;3" font-underline="0" box-height="345" font-outline-color="0,0,0,255" font="Ubuntu" letter-spacing="0" font-pixel-size="300" font-italic="0" typewriter="0;2;1;0;0" alignment="1" font-weight="50" font-outline="4" box-width="651.266" font-color="255,255,255,255">their&lt;/content>
 &lt;/item>
 &lt;startviewport rect="0,0,1920,1080"/>
 &lt;endviewport rect="0,0,1920,1080"/>
 &lt;background color="0,0,0,0"/>
&lt;/kdenlivetitle>
</property>
  <property name="kdenlive:folderid">68</property>
  <property name="kdenlive:id">73</property>
  <property name="kdenlive:clip_type">2</property>
  <property name="kdenlive:file_hash">14c445d6ddb1fb0758fb9d33ecf1cabe</property>
  <property name="force_reload">0</property>
  <property name="meta.media.width">1920</property>
  <property name="meta.media.height">1080</property>
 </producer>
 <producer id="producer76" in="00:00:00.000" out="00:00:04.983">
  <property name="length">00:00:05.000</property>
  <property name="eof">pause</property>
  <property name="resource">/home/archer/Downloads/videosource/shujav2/youfraudjan5.png</property>
  <property name="ttl">25</property>
  <property name="aspect_ratio">1</property>
  <property name="progressive">1</property>
  <property name="seekable">1</property>
  <property name="format">2</property>
  <property name="meta.media.width">681</property>
  <property name="meta.media.height">165</property>
  <property name="mlt_service">qimage</property>
  <property name="kdenlive:clipname"/>
  <property name="kdenlive:duration">00:00:05:00</property>
  <property name="kdenlive:folderid">3</property>
  <property name="kdenlive:id">80</property>
  <property name="kdenlive:clip_type">2</property>
  <property name="kdenlive:file_size">38322</property>
  <property name="kdenlive:file_hash">6aa2d5212f1abc29d01fc0f5b82dae09</property>
 </producer>
 <producer id="producer77" in="00:00:00.000" out="00:00:04.983">
  <property name="length">00:00:05.000</property>
  <property name="eof">pause</property>
  <property name="resource">/home/archer/Downloads/videosource/shujav2/halalbeef.png</property>
  <property name="ttl">25</property>
  <property name="aspect_ratio">1</property>
  <property name="progressive">1</property>
  <property name="seekable">1</property>
  <property name="format">2</property>
  <property name="meta.media.width">319</property>
  <property name="meta.media.height">344</property>
  <property name="mlt_service">qimage</property>
  <property name="kdenlive:clipname"/>
  <property name="kdenlive:duration">00:00:05:00</property>
  <property name="kdenlive:folderid">-1</property>
  <property name="kdenlive:id">87</property>
  <property name="kdenlive:clip_type">2</property>
  <property name="kdenlive:file_size">142189</property>
  <property name="kdenlive:file_hash">2a86b8df53748f4b004ec346714e07ea</property>
 </producer>
 <producer id="producer78" in="00:00:00.000" out="00:00:07.900">
  <property name="length">475</property>
  <property name="eof">pause</property>
  <property name="resource">/home/archer/Downloads/videosource/shujav2/shujadodgeaaliyah1.png</property>
  <property name="ttl">25</property>
  <property name="aspect_ratio">1</property>
  <property name="progressive">1</property>
  <property name="seekable">1</property>
  <property name="format">2</property>
  <property name="meta.media.width">559</property>
  <property name="meta.media.height">69</property>
  <property name="mlt_service">qimage</property>
  <property name="kdenlive:clipname"/>
  <property name="kdenlive:duration">00:00:05:00</property>
  <property name="kdenlive:folderid">3</property>
  <property name="kdenlive:id">92</property>
  <property name="kdenlive:clip_type">2</property>
  <property name="kdenlive:file_size">19245</property>
  <property name="kdenlive:file_hash">9581503354cdf493691c37ff56f61f35</property>
 </producer>
 <producer id="producer79" in="00:00:00.000" out="00:00:04.983">
  <property name="length">00:00:05.000</property>
  <property name="eof">pause</property>
  <property name="resource">/home/archer/Downloads/videosource/shujav2/thisisoobae.png</property>
  <property name="ttl">25</property>
  <property name="aspect_ratio">1</property>
  <property name="progressive">1</property>
  <property name="seekable">1</property>
  <property name="format">2</property>
  <property name="meta.media.width">864</property>
  <property name="meta.media.height">908</property>
  <property name="mlt_service">qimage</property>
  <property name="kdenlive:clipname"/>
  <property name="kdenlive:duration">00:00:05:00</property>
  <property name="kdenlive:folderid">-1</property>
  <property name="kdenlive:id">107</property>
  <property name="kdenlive:clip_type">2</property>
  <property name="kdenlive:file_size">115885</property>
  <property name="kdenlive:file_hash">c5a90bc74eb3e7ceb2e2065ea534b31e</property>
 </producer>
 <playlist id="playlist20">
  <blank length="00:00:00.650"/>
  <entry producer="producer7" in="00:00:00.000" out="00:00:02.300">
   <property name="kdenlive:id">6</property>
   <property name="kdenlive:activeeffect">1</property>
   <filter id="filter169">
    <property name="version">0.2</property>
    <property name="mlt_service">frei0r.lenscorrection</property>
    <property name="kdenlive_id">frei0r.lenscorrection</property>
    <property name="xcenter">00:00:00.000=0.5;00:00:02.300=0.5</property>
    <property name="ycenter">00:00:00.000=0.5;00:00:02.300=0.5</property>
    <property name="correctionnearcenter">00:00:00.000=0.5;00:00:02.300=0.5</property>
    <property name="correctionnearedges">00:00:00.000=0.5;00:00:02.300=0.5</property>
    <property name="brightness">00:00:00.000=0;00:00:02.300=0</property>
    <property name="kdenlive:collapsed">0</property>
    <property name="disable">0</property>
   </filter>
   <filter id="filter170">
    <property name="rotate_center">1</property>
    <property name="mlt_service">qtblend</property>
    <property name="kdenlive_id">qtblend</property>
    <property name="rect">00:00:00.000=0 0 1920 1080 1.000000;00:00:02.300=0 0 1920 1080 1.000000</property>
    <property name="rotation">00:00:00.000=0;00:00:02.300=0</property>
    <property name="compositing">0</property>
    <property name="distort">0</property>
    <property name="kdenlive:collapsed">0</property>
   </filter>
  </entry>
  <entry producer="producer8" in="00:00:00.000" out="00:00:05.450">
   <property name="kdenlive:id">7</property>
   <property name="kdenlive:activeeffect">1</property>
   <filter id="filter171">
    <property name="version">0.2</property>
    <property name="mlt_service">frei0r.lenscorrection</property>
    <property name="kdenlive_id">frei0r.lenscorrection</property>
    <property name="xcenter">00:00:00.000=0.5;00:00:00.067~=0.5;00:00:00.267~=0.555281;00:00:00.450=0.575</property>
    <property name="ycenter">00:00:00.000=0.5;00:00:00.067~=0.5;00:00:00.267~=0.5;00:00:00.450=0.5</property>
    <property name="correctionnearcenter">00:00:00.000=0.5;00:00:00.067~=0.5;00:00:00.267~=0.5;00:00:00.450=0.5</property>
    <property name="correctionnearedges">00:00:00.000=0.5;00:00:00.067~=0.5;00:00:00.267~=0.670264;00:00:00.450=0.731</property>
    <property name="brightness">00:00:00.000=0;00:00:00.067~=0;00:00:00.267~=0;00:00:00.450=0</property>
    <property name="kdenlive:collapsed">0</property>
   </filter>
   <filter id="filter172">
    <property name="rotate_center">1</property>
    <property name="mlt_service">qtblend</property>
    <property name="kdenlive_id">qtblend</property>
    <property name="rect">00:00:00.000=0 0 1920 1080 1.000000;00:00:00.067~=0 0 1920 1080 1.000000;00:00:00.233~=-207 -311 1920 1080 1.000000;00:00:00.450|=-281 -423 1920 1080 1.000000</property>
    <property name="rotation">00:00:00.000=0;00:00:00.067~=0;00:00:00.233~=0;00:00:00.450=0</property>
    <property name="compositing">0</property>
    <property name="distort">0</property>
    <property name="kdenlive:collapsed">0</property>
   </filter>
  </entry>
  <entry producer="producer8" in="00:00:00.000" out="00:00:00.617">
   <property name="kdenlive:id">7</property>
   <filter id="filter173">
    <property name="version">0.2</property>
    <property name="mlt_service">frei0r.lenscorrection</property>
    <property name="kdenlive_id">frei0r.lenscorrection</property>
    <property name="xcenter">00:00:00.000=0.575</property>
    <property name="ycenter">00:00:00.000=0.5</property>
    <property name="correctionnearcenter">00:00:00.000=0.5</property>
    <property name="correctionnearedges">00:00:00.000=0.731</property>
    <property name="brightness">00:00:00.000=0</property>
    <property name="kdenlive:collapsed">0</property>
   </filter>
   <filter id="filter174">
    <property name="rotate_center">1</property>
    <property name="mlt_service">qtblend</property>
    <property name="kdenlive_id">qtblend</property>
    <property name="rect">00:00:00.000~=-281 -423 1920 1080 1.000000;00:00:00.083~=-281 -744 1920 1080 1.000000;00:00:00.250=-281 -880 1920 1080 1.000000</property>
    <property name="rotation">00:00:00.000~=0;00:00:00.083~=0;00:00:00.250=0</property>
    <property name="compositing">0</property>
    <property name="distort">0</property>
    <property name="kdenlive:collapsed">0</property>
   </filter>
   <filter id="filter175">
    <property name="hradius">00:00:00.000~=0;00:00:00.250=0</property>
    <property name="vradius">00:00:00.000~=0;00:00:00.250=75</property>
    <property name="mlt_service">box_blur</property>
    <property name="kdenlive_id">box_blur</property>
    <property name="kdenlive:collapsed">0</property>
   </filter>
  </entry>
  <blank length="00:00:11.800"/>
  <entry producer="producer24" in="00:00:00.000" out="00:00:04.667">
   <property name="kdenlive:id">29</property>
   <filter id="filter176">
    <property name="version">0.1</property>
    <property name="mlt_service">frei0r.scale0tilt</property>
    <property name="kdenlive_id">frei0r.scale0tilt</property>
    <property name="Clip left">00:00:00.000=0.111979</property>
    <property name="Clip right">00:00:00.000=0.808854</property>
    <property name="Clip top">00:00:00.000=0</property>
    <property name="Clip bottom">00:00:00.000=0.906481</property>
    <property name="Scale X">00:00:00.000=0.5</property>
    <property name="Scale Y">00:00:00.000=0.5</property>
    <property name="Tilt X">00:00:00.000=0.5</property>
    <property name="Tilt Y">00:00:00.000=0.5</property>
    <property name="kdenlive:collapsed">0</property>
   </filter>
   <filter id="filter177">
    <property name="rotate_center">1</property>
    <property name="mlt_service">qtblend</property>
    <property name="kdenlive_id">qtblend</property>
    <property name="rect">00:00:00.000~=1953 -293 2968 1670 1.000000;00:00:00.133~=540 -293 2968 1670 1.000000;00:00:00.367=-5 -293 2968 1670 1.000000</property>
    <property name="rotation">00:00:00.000~=0;00:00:00.133~=0;00:00:00.367=0</property>
    <property name="compositing">0</property>
    <property name="distort">0</property>
    <property name="kdenlive:collapsed">0</property>
   </filter>
   <filter id="filter178">
    <property name="mlt_service">avfilter.gblur</property>
    <property name="kdenlive_id">avfilter.gblur</property>
    <property name="av.sigma">41</property>
    <property name="av.steps">1</property>
    <property name="av.planes">7</property>
    <property name="av.sigmaV">-1</property>
    <property name="kdenlive:collapsed">0</property>
   </filter>
   <filter id="filter179" in="00:00:04.317" out="00:00:04.667">
    <property name="start">1</property>
    <property name="level">1</property>
    <property name="mlt_service">brightness</property>
    <property name="kdenlive_id">fade_to_black</property>
    <property name="alpha">00:00:00.000=1;00:00:00.350=0</property>
    <property name="kdenlive:collapsed">0</property>
   </filter>
  </entry>
  <blank length="00:00:02.400"/>
  <entry producer="producer34" in="00:00:00.000" out="00:00:00.667">
   <property name="kdenlive:id">37</property>
   <property name="kdenlive:activeeffect">1</property>
   <filter id="filter180">
    <property name="rotate_center">1</property>
    <property name="mlt_service">qtblend</property>
    <property name="kdenlive_id">qtblend</property>
    <property name="rect">00:00:00.000~=0 1134 1920 1080 1.000000;00:00:00.083~=0 336 1920 1080 1.000000;00:00:00.250=0 0 1920 1080 1.000000</property>
    <property name="rotation">00:00:00.000~=0;00:00:00.083~=0;00:00:00.250=0</property>
    <property name="compositing">0</property>
    <property name="distort">0</property>
    <property name="kdenlive:collapsed">0</property>
   </filter>
   <filter id="filter181">
    <property name="hradius">00:00:00.000~=0;00:00:00.083~=0;00:00:00.250=0</property>
    <property name="vradius">00:00:00.000~=49;00:00:00.083~=18.424;00:00:00.250=0</property>
    <property name="mlt_service">box_blur</property>
    <property name="kdenlive_id">box_blur</property>
    <property name="kdenlive:collapsed">0</property>
   </filter>
  </entry>
  <blank length="00:00:05.633"/>
  <entry producer="producer37" in="00:00:00.000" out="00:00:02.350">
   <property name="kdenlive:id">43</property>
   <filter id="filter182">
    <property name="rotate_center">1</property>
    <property name="mlt_service">qtblend</property>
    <property name="kdenlive_id">qtblend</property>
    <property name="rect">00:00:00.000~=60 525 52 138 0.000000;00:00:00.283=51 524 1106 154 0.380000</property>
    <property name="rotation">00:00:00.000~=0;00:00:00.283=0</property>
    <property name="compositing">0</property>
    <property name="distort">1</property>
    <property name="kdenlive:collapsed">0</property>
   </filter>
   <filter id="filter183" in="00:00:02.183" out="00:00:02.350">
    <property name="start">1</property>
    <property name="level">1</property>
    <property name="mlt_service">brightness</property>
    <property name="kdenlive_id">fade_to_black</property>
    <property name="alpha">00:00:00.000=1;00:00:00.167=0</property>
    <property name="kdenlive:collapsed">0</property>
   </filter>
  </entry>
  <blank length="00:00:04.367"/>
  <entry producer="producer74" in="00:00:00.000" out="00:00:01.717">
   <property name="kdenlive:id">57</property>
   <property name="kdenlive:activeeffect">1</property>
   <filter id="filter184">
    <property name="rotate_center">1</property>
    <property name="mlt_service">qtblend</property>
    <property name="kdenlive_id">qtblend</property>
    <property name="rect">00:00:00.000~=1918 0 1920 1080 1.000000;00:00:00.150~=389 0 1920 1080 1.000000;00:00:00.400=0 0 1920 1080 1.000000</property>
    <property name="rotation">00:00:00.000~=0;00:00:00.150~=0;00:00:00.400=0</property>
    <property name="compositing">0</property>
    <property name="distort">0</property>
    <property name="kdenlive:collapsed">0</property>
   </filter>
   <filter id="filter185">
    <property name="hradius">00:00:00.000~=135;00:00:00.150~=21.6309;00:00:00.400=0</property>
    <property name="vradius">00:00:00.000~=0;00:00:00.150~=0;00:00:00.400=0</property>
    <property name="mlt_service">box_blur</property>
    <property name="kdenlive_id">box_blur</property>
    <property name="kdenlive:collapsed">0</property>
   </filter>
  </entry>
  <blank length="00:00:04.367"/>
  <entry producer="producer75" in="00:00:00.000" out="00:00:01.867">
   <property name="kdenlive:id">73</property>
   <property name="kdenlive:activeeffect">1</property>
   <filter id="filter186">
    <property name="rotate_center">1</property>
    <property name="mlt_service">qtblend</property>
    <property name="kdenlive_id">qtblend</property>
    <property name="rect">00:00:00.000~=-155 -799 1424 801 1.000000;00:00:00.083~=-155 -310 1424 801 1.000000;00:00:00.317=-155 -61 1424 801 1.000000</property>
    <property name="rotation">00:00:00.000~=0;00:00:00.083~=0;00:00:00.317=0</property>
    <property name="compositing">0</property>
    <property name="distort">0</property>
    <property name="kdenlive:collapsed">0</property>
   </filter>
   <filter id="filter187">
    <property name="hradius">00:00:00.000~=0;00:00:00.100=0;00:00:00.283=0</property>
    <property name="vradius">00:00:00.000~=94;00:00:00.100=17.6405;00:00:00.283=0</property>
    <property name="mlt_service">box_blur</property>
    <property name="kdenlive_id">box_blur</property>
    <property name="kdenlive:collapsed">0</property>
   </filter>
  </entry>
  <blank length="00:00:03.867"/>
  <entry producer="producer76" in="00:00:00.000" out="00:00:02.583">
   <property name="kdenlive:id">80</property>
   <property name="kdenlive:activeeffect">0</property>
   <filter id="filter188">
    <property name="rotate_center">1</property>
    <property name="mlt_service">qtblend</property>
    <property name="kdenlive_id">qtblend</property>
    <property name="rect">00:00:00.000~=-368 -1058 2575 1449 1.000000;00:00:00.083~=-368 -377 2575 1449 1.000000;00:00:00.250=-368 -185 2575 1449 1.000000;00:00:02.317~=-368 -185 2575 1449 1.000000;00:00:02.583=-368 802 2575 1449 1.000000</property>
    <property name="rotation">00:00:00.000~=0;00:00:00.083~=0;00:00:00.250=0;00:00:02.317~=0;00:00:02.583=0</property>
    <property name="compositing">0</property>
    <property name="distort">0</property>
    <property name="kdenlive:collapsed">0</property>
   </filter>
   <filter id="filter189">
    <property name="hradius">00:00:00.000~=0;00:00:00.083~=0;00:00:00.250=0</property>
    <property name="vradius">00:00:00.000~=56;00:00:00.083~=16.5926;00:00:00.250=0</property>
    <property name="mlt_service">box_blur</property>
    <property name="kdenlive_id">box_blur</property>
    <property name="kdenlive:collapsed">0</property>
   </filter>
  </entry>
  <blank length="00:00:06.233"/>
  <entry producer="producer77" in="00:00:00.000" out="00:00:03.000">
   <property name="kdenlive:id">87</property>
   <filter id="filter190">
    <property name="rotate_center">1</property>
    <property name="mlt_service">qtblend</property>
    <property name="kdenlive_id">qtblend</property>
    <property name="rect">00:00:00.000~=1453 0 1920 1080 1.000000;00:00:00.100~=831 0 1920 1080 1.000000;00:00:00.317=515 0 1920 1080 1.000000</property>
    <property name="rotation">00:00:00.000~=0;00:00:00.100~=0;00:00:00.317=0</property>
    <property name="compositing">0</property>
    <property name="distort">0</property>
    <property name="kdenlive:collapsed">0</property>
   </filter>
   <filter id="filter191">
    <property name="hradius">00:00:00.000~=94;00:00:00.100~=17.6405;00:00:00.283=0</property>
    <property name="vradius">00:00:00.000~=0;00:00:00.100~=0;00:00:00.283=0</property>
    <property name="mlt_service">box_blur</property>
    <property name="kdenlive_id">box_blur</property>
   </filter>
  </entry>
  <blank length="00:00:06.583"/>
  <entry producer="producer78" in="00:00:00.000" out="00:00:03.683">
   <property name="kdenlive:id">92</property>
   <property name="kdenlive:activeeffect">2</property>
   <filter id="filter192">
    <property name="rotate_center">1</property>
    <property name="mlt_service">qtblend</property>
    <property name="kdenlive_id">qtblend</property>
    <property name="rect">00:00:00.000~=-307 -1198 3360 1890 1.000000;00:00:00.133~=-307 -558 3360 1890 1.000000;00:00:00.483=-307 -405 3360 1890 1.000000</property>
    <property name="rotation">00:00:00.000~=0;00:00:00.133~=0;00:00:00.483=0</property>
    <property name="compositing">0</property>
    <property name="distort">0</property>
    <property name="kdenlive:collapsed">0</property>
   </filter>
   <filter id="filter193" in="00:00:03.617" out="00:00:03.683">
    <property name="start">1</property>
    <property name="level">1</property>
    <property name="mlt_service">brightness</property>
    <property name="kdenlive_id">fade_to_black</property>
    <property name="alpha">00:00:00.000=1;00:00:00.067=0</property>
    <property name="kdenlive:collapsed">0</property>
   </filter>
   <filter id="filter194">
    <property name="hradius">00:00:00.000~=0;00:00:00.133~=0;00:00:00.483=0</property>
    <property name="vradius">00:00:00.000~=83;00:00:00.133~=13.1805;00:00:00.483=0</property>
    <property name="mlt_service">box_blur</property>
    <property name="kdenlive_id">box_blur</property>
    <property name="kdenlive:collapsed">0</property>
   </filter>
  </entry>
  <blank length="00:00:15.783"/>
  <entry producer="producer79" in="00:00:00.000" out="00:00:02.567">
   <property name="kdenlive:id">107</property>
   <property name="kdenlive:activeeffect">0</property>
   <filter id="filter195">
    <property name="rotate_center">1</property>
    <property name="mlt_service">qtblend</property>
    <property name="kdenlive_id">qtblend</property>
    <property name="rect">00:00:00.000~=-6340 -133 8016 4509 1.000000;00:00:00.167~=-2720 -133 8016 4509 1.000000;00:00:00.550=-2402 -133 8016 4509 1.000000</property>
    <property name="rotation">00:00:00.000~=0;00:00:00.167~=0;00:00:00.550=0</property>
    <property name="compositing">0</property>
    <property name="distort">0</property>
    <property name="kdenlive:collapsed">0</property>
   </filter>
   <filter id="filter196">
    <property name="hradius">00:00:00.000~=113;00:00:00.167~=12.0587;00:00:00.550=0</property>
    <property name="vradius">00:00:00.000~=0;00:00:00.167~=0;00:00:00.550=0</property>
    <property name="mlt_service">box_blur</property>
    <property name="kdenlive_id">box_blur</property>
    <property name="kdenlive:collapsed">0</property>
    <property name="disable">0</property>
   </filter>
  </entry>
 </playlist>
 <playlist id="playlist21"/>
 <tractor id="tractor10" in="00:00:00.000" out="00:01:33.333">
  <property name="kdenlive:trackheight">67</property>
  <property name="kdenlive:timeline_active">1</property>
  <property name="kdenlive:collapsed">0</property>
  <property name="kdenlive:thumbs_format"/>
  <property name="kdenlive:audio_rec"/>
  <track hide="audio" producer="playlist20"/>
  <track hide="audio" producer="playlist21"/>
 </tractor>
 <producer id="producer80" in="00:00:00.000" out="00:00:04.983">
  <property name="length">00:00:05.000</property>
  <property name="eof">pause</property>
  <property name="resource">/home/archer/.var/app/org.kde.kdenlive/cache/kdenlive/proxy/c21227f0bc5caa16c832ded8d6b3acb7.png</property>
  <property name="ttl">25</property>
  <property name="aspect_ratio">1</property>
  <property name="progressive">1</property>
  <property name="seekable">1</property>
  <property name="format">1</property>
  <property name="meta.media.width">800</property>
  <property name="meta.media.height">450</property>
  <property name="mlt_service">qimage</property>
  <property name="kdenlive:clipname">shujapackage2redacted.jpg</property>
  <property name="kdenlive:duration">00:00:05.000</property>
  <property name="kdenlive:folderid">3</property>
  <property name="kdenlive:id">58</property>
  <property name="kdenlive:clip_type">2</property>
  <property name="kdenlive:file_size">1115024</property>
  <property name="kdenlive:file_hash">c21227f0bc5caa16c832ded8d6b3acb7</property>
  <property name="kdenlive:proxy">/home/archer/.var/app/org.kde.kdenlive/cache/kdenlive/proxy/c21227f0bc5caa16c832ded8d6b3acb7.png</property>
  <property name="kdenlive:originalurl">/home/archer/Downloads/videosource/shujav2/shujapackage2redacted.jpg</property>
  <property name="kdenlive:original.mlt_type">producer</property>
  <property name="kdenlive:original.in">0</property>
  <property name="kdenlive:original.out">299</property>
  <property name="kdenlive:original.length">00:00:05.000</property>
  <property name="kdenlive:original.eof">pause</property>
  <property name="kdenlive:original.resource">/home/archer/Downloads/videosource/shujav2/shujapackage2redacted.jpg</property>
  <property name="kdenlive:original.ttl">25</property>
  <property name="kdenlive:original.aspect_ratio">1</property>
  <property name="kdenlive:original.progressive">1</property>
  <property name="kdenlive:original.seekable">1</property>
  <property name="kdenlive:original.format">1</property>
  <property name="kdenlive:original.meta.media.width">4128</property>
  <property name="kdenlive:original.meta.media.height">2322</property>
  <property name="kdenlive:original.mlt_service">qimage</property>
  <property name="kdenlive:original.kdenlive:duration">00:00:05:00</property>
  <property name="kdenlive:original.kdenlive:folderid">3</property>
  <property name="kdenlive:original.kdenlive:id">58</property>
  <property name="kdenlive:original.kdenlive:clip_type">2</property>
  <property name="kdenlive:original.kdenlive:file_size">1115024</property>
  <property name="kdenlive:original.kdenlive:file_hash">c21227f0bc5caa16c832ded8d6b3acb7</property>
  <property name="kdenlive:original.backup">1</property>
 </producer>
 <producer id="producer81" in="00:00:00.000" out="00:00:04.983">
  <property name="length">00:00:05.000</property>
  <property name="eof">pause</property>
  <property name="resource">/home/archer/.var/app/org.kde.kdenlive/cache/kdenlive/proxy/8443772f528eb7374132c258fe41b29c.png</property>
  <property name="ttl">25</property>
  <property name="aspect_ratio">1</property>
  <property name="progressive">1</property>
  <property name="seekable">1</property>
  <property name="format">1</property>
  <property name="meta.media.width">450</property>
  <property name="meta.media.height">800</property>
  <property name="mlt_service">qimage</property>
  <property name="kdenlive:clipname">phonesunderbedshuja.png</property>
  <property name="kdenlive:duration">00:00:05.000</property>
  <property name="kdenlive:folderid">3</property>
  <property name="kdenlive:id">60</property>
  <property name="kdenlive:clip_type">2</property>
  <property name="kdenlive:file_size">3185145</property>
  <property name="kdenlive:file_hash">8443772f528eb7374132c258fe41b29c</property>
  <property name="kdenlive:proxy">/home/archer/.var/app/org.kde.kdenlive/cache/kdenlive/proxy/8443772f528eb7374132c258fe41b29c.png</property>
  <property name="kdenlive:originalurl">/home/archer/Downloads/videosource/shujav2/phonesunderbedshuja.png</property>
  <property name="kdenlive:original.mlt_type">producer</property>
  <property name="kdenlive:original.in">0</property>
  <property name="kdenlive:original.out">299</property>
  <property name="kdenlive:original.length">00:00:05.000</property>
  <property name="kdenlive:original.eof">pause</property>
  <property name="kdenlive:original.resource">/home/archer/Downloads/videosource/shujav2/phonesunderbedshuja.png</property>
  <property name="kdenlive:original.ttl">25</property>
  <property name="kdenlive:original.aspect_ratio">1</property>
  <property name="kdenlive:original.progressive">1</property>
  <property name="kdenlive:original.seekable">1</property>
  <property name="kdenlive:original.format">1</property>
  <property name="kdenlive:original.meta.media.width">1440</property>
  <property name="kdenlive:original.meta.media.height">2560</property>
  <property name="kdenlive:original.mlt_service">qimage</property>
  <property name="kdenlive:original.kdenlive:duration">00:00:05:00</property>
  <property name="kdenlive:original.kdenlive:folderid">3</property>
  <property name="kdenlive:original.kdenlive:id">60</property>
  <property name="kdenlive:original.kdenlive:clip_type">2</property>
  <property name="kdenlive:original.kdenlive:file_size">3185145</property>
  <property name="kdenlive:original.kdenlive:file_hash">8443772f528eb7374132c258fe41b29c</property>
  <property name="kdenlive:original.backup">1</property>
 </producer>
 <producer id="producer82" in="00:00:00.000" out="00:00:04.983">
  <property name="length">300</property>
  <property name="eof">pause</property>
  <property name="resource"/>
  <property name="progressive">1</property>
  <property name="aspect_ratio">1</property>
  <property name="seekable">1</property>
  <property name="mlt_service">kdenlivetitle</property>
  <property name="kdenlive:duration">00:00:05:00</property>
  <property name="kdenlive:clipname">BIGGEST</property>
  <property name="xmldata">&lt;kdenlivetitle duration="300" LC_NUMERIC="C" width="1920" height="1080" out="299">
 &lt;item type="QGraphicsTextItem" z-index="0">
  &lt;position x="371" y="367">
   &lt;transform>1,0,0,0,1,0,0,0,1&lt;/transform>
  &lt;/position>
  &lt;content line-spacing="0" shadow="0;#64000000;3;3;3" font-underline="0" box-height="345" font-outline-color="0,0,0,255" font="Ubuntu" letter-spacing="0" font-pixel-size="300" font-italic="0" typewriter="0;2;1;0;0" alignment="1" font-weight="50" font-outline="4" box-width="1177.14" font-color="255,58,58,255">BIGGEST&lt;/content>
 &lt;/item>
 &lt;startviewport rect="0,0,1920,1080"/>
 &lt;endviewport rect="0,0,1920,1080"/>
 &lt;background color="0,0,0,0"/>
&lt;/kdenlivetitle>
</property>
  <property name="kdenlive:folderid">68</property>
  <property name="kdenlive:id">74</property>
  <property name="kdenlive:clip_type">2</property>
  <property name="kdenlive:file_hash">361e0cd7a72de8391671d3ae4f2f1085</property>
  <property name="force_reload">0</property>
  <property name="meta.media.width">1920</property>
  <property name="meta.media.height">1080</property>
 </producer>
 <producer id="producer83" in="00:00:00.000" out="00:00:04.983">
  <property name="length">00:00:05.000</property>
  <property name="eof">pause</property>
  <property name="resource">/home/archer/Downloads/videosource/shujav2/wetriedtojan5.png</property>
  <property name="ttl">25</property>
  <property name="aspect_ratio">1</property>
  <property name="progressive">1</property>
  <property name="seekable">1</property>
  <property name="format">2</property>
  <property name="meta.media.width">478</property>
  <property name="meta.media.height">112</property>
  <property name="mlt_service">qimage</property>
  <property name="kdenlive:clipname"/>
  <property name="kdenlive:duration">00:00:05:00</property>
  <property name="kdenlive:folderid">3</property>
  <property name="kdenlive:id">79</property>
  <property name="kdenlive:clip_type">2</property>
  <property name="kdenlive:file_size">23559</property>
  <property name="kdenlive:file_hash">30c79a9a26947029d42855fcd02cf5c9</property>
 </producer>
 <producer id="producer84" in="00:00:00.000" out="00:00:04.983">
  <property name="length">00:00:05.000</property>
  <property name="eof">pause</property>
  <property name="resource">/home/archer/Downloads/videosource/shujav2/rds5.png</property>
  <property name="ttl">25</property>
  <property name="aspect_ratio">1</property>
  <property name="progressive">1</property>
  <property name="seekable">1</property>
  <property name="format">2</property>
  <property name="meta.media.width">318</property>
  <property name="meta.media.height">351</property>
  <property name="mlt_service">qimage</property>
  <property name="kdenlive:clipname"/>
  <property name="kdenlive:duration">00:00:05:00</property>
  <property name="kdenlive:folderid">-1</property>
  <property name="kdenlive:id">88</property>
  <property name="kdenlive:clip_type">2</property>
  <property name="kdenlive:file_size">141628</property>
  <property name="kdenlive:file_hash">bee42c1051452483670a3aca684132e5</property>
 </producer>
 <producer id="producer85" in="00:00:00.000" out="00:00:07.183">
  <property name="length">432</property>
  <property name="eof">pause</property>
  <property name="resource">/home/archer/Downloads/videosource/shujav2/fickyourselfbb10.png</property>
  <property name="ttl">25</property>
  <property name="aspect_ratio">1</property>
  <property name="progressive">1</property>
  <property name="seekable">1</property>
  <property name="format">2</property>
  <property name="meta.media.width">457</property>
  <property name="meta.media.height">100</property>
  <property name="mlt_service">qimage</property>
  <property name="kdenlive:clipname"/>
  <property name="kdenlive:duration">00:00:05:00</property>
  <property name="kdenlive:folderid">3</property>
  <property name="kdenlive:id">96</property>
  <property name="kdenlive:clip_type">2</property>
  <property name="kdenlive:file_size">16949</property>
  <property name="kdenlive:file_hash">d49c2b765ba05b98ea0add8c78ff3831</property>
 </producer>
 <producer id="producer86" in="00:00:00.000" out="00:00:04.983">
  <property name="length">00:00:05.000</property>
  <property name="eof">pause</property>
  <property name="resource">/home/archer/.var/app/org.kde.kdenlive/cache/kdenlive/proxy/ccaf262a2ddf520cb86e04f9d7c1b952.png</property>
  <property name="ttl">25</property>
  <property name="aspect_ratio">1</property>
  <property name="progressive">1</property>
  <property name="seekable">1</property>
  <property name="format">2</property>
  <property name="meta.media.width">600</property>
  <property name="meta.media.height">800</property>
  <property name="mlt_service">qimage</property>
  <property name="kdenlive:clipname">linussyshuja.png</property>
  <property name="kdenlive:duration">00:00:05.000</property>
  <property name="kdenlive:folderid">3</property>
  <property name="kdenlive:id">108</property>
  <property name="kdenlive:clip_type">2</property>
  <property name="kdenlive:file_size">9927419</property>
  <property name="kdenlive:file_hash">ccaf262a2ddf520cb86e04f9d7c1b952</property>
  <property name="kdenlive:proxy">/home/archer/.var/app/org.kde.kdenlive/cache/kdenlive/proxy/ccaf262a2ddf520cb86e04f9d7c1b952.png</property>
  <property name="kdenlive:originalurl">/home/archer/Downloads/videosource/shujav2/linussyshuja.png</property>
  <property name="kdenlive:original.mlt_type">producer</property>
  <property name="kdenlive:original.in">0</property>
  <property name="kdenlive:original.out">299</property>
  <property name="kdenlive:original.length">00:00:05.000</property>
  <property name="kdenlive:original.eof">pause</property>
  <property name="kdenlive:original.resource">/home/archer/Downloads/videosource/shujav2/linussyshuja.png</property>
  <property name="kdenlive:original.ttl">25</property>
  <property name="kdenlive:original.aspect_ratio">1</property>
  <property name="kdenlive:original.progressive">1</property>
  <property name="kdenlive:original.seekable">1</property>
  <property name="kdenlive:original.format">2</property>
  <property name="kdenlive:original.meta.media.width">2316</property>
  <property name="kdenlive:original.meta.media.height">3088</property>
  <property name="kdenlive:original.mlt_service">qimage</property>
  <property name="kdenlive:original.kdenlive:duration">00:00:05:00</property>
  <property name="kdenlive:original.kdenlive:folderid">3</property>
  <property name="kdenlive:original.kdenlive:id">108</property>
  <property name="kdenlive:original.kdenlive:clip_type">2</property>
  <property name="kdenlive:original.kdenlive:file_size">9927419</property>
  <property name="kdenlive:original.kdenlive:file_hash">ccaf262a2ddf520cb86e04f9d7c1b952</property>
  <property name="kdenlive:original.backup">1</property>
 </producer>
 <playlist id="playlist22">
  <blank length="00:00:22.450"/>
  <entry producer="producer25" in="00:00:00.000" out="00:00:01.667">
   <property name="kdenlive:id">30</property>
   <property name="kdenlive:activeeffect">1</property>
   <filter id="filter197">
    <property name="rotate_center">1</property>
    <property name="mlt_service">qtblend</property>
    <property name="kdenlive_id">qtblend</property>
    <property name="rect">00:00:00.000~=-1590 0 1920 1080 1.000000;00:00:00.150~=-717 0 1920 1080 1.000000;00:00:00.350=-464 0 1920 1080 1.000000</property>
    <property name="rotation">00:00:00.000~=0;00:00:00.150~=0;00:00:00.350=0</property>
    <property name="compositing">0</property>
    <property name="distort">0</property>
    <property name="kdenlive:collapsed">0</property>
   </filter>
   <filter id="filter198">
    <property name="hradius">00:00:00.000~=56;00:00:00.233=0</property>
    <property name="vradius">00:00:00.000~=0;00:00:00.233=0</property>
    <property name="mlt_service">box_blur</property>
    <property name="kdenlive_id">box_blur</property>
    <property name="kdenlive:collapsed">0</property>
   </filter>
  </entry>
  <entry producer="producer25" in="00:00:00.000" out="00:00:00.417">
   <property name="kdenlive:id">30</property>
   <filter id="filter199">
    <property name="rotate_center">1</property>
    <property name="mlt_service">qtblend</property>
    <property name="kdenlive_id">qtblend</property>
    <property name="rect">00:00:00.000~=-464 0 1920 1080 1.000000;00:00:00.200~=-665 0 1920 1080 1.000000;00:00:00.333=-1455 0 1920 1080 1.000000</property>
    <property name="rotation">00:00:00.000~=0;00:00:00.200~=36.5625;00:00:00.333=180</property>
    <property name="compositing">0</property>
    <property name="distort">0</property>
    <property name="kdenlive:collapsed">0</property>
   </filter>
   <filter id="filter200">
    <property name="hradius">00:00:00.000~=0;00:00:00.100~=0;00:00:00.217=60</property>
    <property name="vradius">00:00:00.000~=0;00:00:00.100~=45;00:00:00.217=0</property>
    <property name="mlt_service">box_blur</property>
    <property name="kdenlive_id">box_blur</property>
   </filter>
  </entry>
  <blank length="00:00:03.833"/>
  <entry producer="producer32" in="00:00:00.000" out="00:00:00.550">
   <property name="kdenlive:id">38</property>
   <filter id="filter201">
    <property name="rotate_center">1</property>
    <property name="mlt_service">qtblend</property>
    <property name="kdenlive_id">qtblend</property>
    <property name="rect">00:00:00.000~=0 1134 1920 1080 1.000000;00:00:00.083~=0 336 1920 1080 1.000000;00:00:00.250=0 0 1920 1080 1.000000</property>
    <property name="rotation">00:00:00.000~=0;00:00:00.083~=0;00:00:00.250=0</property>
    <property name="compositing">0</property>
    <property name="distort">0</property>
    <property name="kdenlive:collapsed">0</property>
   </filter>
   <filter id="filter202">
    <property name="hradius">00:00:00.000~=0;00:00:00.083~=0;00:00:00.250=0</property>
    <property name="vradius">00:00:00.000~=49;00:00:00.083~=18.424;00:00:00.250=0</property>
    <property name="mlt_service">box_blur</property>
    <property name="kdenlive_id">box_blur</property>
   </filter>
  </entry>
  <blank length="00:00:00.200"/>
  <entry producer="producer33" in="00:00:00.000" out="00:00:00.817">
   <property name="kdenlive:id">39</property>
   <filter id="filter203">
    <property name="rotate_center">1</property>
    <property name="mlt_service">qtblend</property>
    <property name="kdenlive_id">qtblend</property>
    <property name="rect">00:00:00.000~=0 0 1920 1080 1.000000</property>
    <property name="rotation">00:00:00.000~=0</property>
    <property name="compositing">0</property>
    <property name="distort">0</property>
    <property name="kdenlive:collapsed">0</property>
   </filter>
   <filter id="filter204" in="00:00:00.483" out="00:00:00.817">
    <property name="start">1</property>
    <property name="level">1</property>
    <property name="mlt_service">brightness</property>
    <property name="kdenlive_id">fade_to_black</property>
    <property name="alpha">00:00:00.000=1;00:00:00.333=0</property>
   </filter>
  </entry>
  <blank length="00:00:04.150"/>
  <entry producer="producer38" in="00:00:00.000" out="00:00:02.750">
   <property name="kdenlive:id">45</property>
   <filter id="filter205">
    <property name="rotate_center">1</property>
    <property name="mlt_service">qtblend</property>
    <property name="kdenlive_id">qtblend</property>
    <property name="rect">00:00:00.000~=0 -877 1920 1080 1.000000;00:00:00.083~=0 -422 1920 1080 1.000000;00:00:00.250=0 -341 1920 1080 1.000000;00:00:02.533~=0 -341 1920 1080 1.000000;00:00:02.750=0 684 1920 1080 1.000000</property>
    <property name="rotation">00:00:00.000~=0;00:00:00.083~=0;00:00:00.250=0;00:00:02.533~=0;00:00:02.750=0</property>
    <property name="compositing">0</property>
    <property name="distort">0</property>
    <property name="kdenlive:collapsed">0</property>
   </filter>
   <filter id="filter206">
    <property name="hradius">00:00:00.000~=0;00:00:00.083~=0;00:00:00.250=0</property>
    <property name="vradius">00:00:00.000~=30;00:00:00.083~=6.63111;00:00:00.250=0</property>
    <property name="mlt_service">box_blur</property>
    <property name="kdenlive_id">box_blur</property>
    <property name="kdenlive:collapsed">0</property>
   </filter>
  </entry>
  <blank length="00:00:04.317"/>
  <entry producer="producer80" in="00:00:00.000" out="00:00:01.483">
   <property name="kdenlive:id">58</property>
   <property name="kdenlive:activeeffect">1</property>
   <filter id="filter207">
    <property name="rotate_center">1</property>
    <property name="mlt_service">qtblend</property>
    <property name="kdenlive_id">qtblend</property>
    <property name="rect">00:00:00.000~=1918 0 1920 1080 1.000000;00:00:00.150~=389 0 1920 1080 1.000000;00:00:00.400=0 0 1920 1080 1.000000</property>
    <property name="rotation">00:00:00.000~=0;00:00:00.150~=0;00:00:00.400=0</property>
    <property name="compositing">0</property>
    <property name="distort">0</property>
    <property name="kdenlive:collapsed">0</property>
   </filter>
   <filter id="filter208">
    <property name="hradius">00:00:00.000~=135;00:00:00.150~=21.6309;00:00:00.400=0</property>
    <property name="vradius">00:00:00.000~=0;00:00:00.150~=0;00:00:00.400=0</property>
    <property name="mlt_service">box_blur</property>
    <property name="kdenlive_id">box_blur</property>
    <property name="kdenlive:collapsed">0</property>
   </filter>
  </entry>
  <entry producer="producer81" in="00:00:00.000" out="00:00:01.483">
   <property name="kdenlive:id">60</property>
   <filter id="filter209">
    <property name="rotate_center">1</property>
    <property name="mlt_service">qtblend</property>
    <property name="kdenlive_id">qtblend</property>
    <property name="rect">00:00:00.000~=0 0 1920 1080 1.000000</property>
    <property name="rotation">00:00:00.000~=0</property>
    <property name="compositing">0</property>
    <property name="distort">0</property>
    <property name="kdenlive:collapsed">0</property>
   </filter>
   <filter id="filter210">
    <property name="rotate_center">1</property>
    <property name="mlt_service">qtblend</property>
    <property name="kdenlive_id">qtblend</property>
    <property name="rect">00:00:00.000=-2189 -1150 6304 3546 1.000000</property>
    <property name="rotation">00:00:00.000=0</property>
    <property name="compositing">0</property>
    <property name="distort">0</property>
    <property name="kdenlive:collapsed">0</property>
   </filter>
  </entry>
  <blank length="00:00:03.183"/>
  <entry producer="producer82" in="00:00:00.000" out="00:00:01.550">
   <property name="kdenlive:id">74</property>
   <property name="kdenlive:activeeffect">1</property>
   <filter id="filter211">
    <property name="rotate_center">1</property>
    <property name="mlt_service">qtblend</property>
    <property name="kdenlive_id">qtblend</property>
    <property name="rect">00:00:00.000~=1639 11 1920 1080 1.000000;00:00:00.133~=616 11 1920 1080 1.000000;00:00:00.517~=145 11 1920 1080 1.000000</property>
    <property name="rotation">00:00:00.000~=0;00:00:00.133~=0;00:00:00.517~=0</property>
    <property name="compositing">0</property>
    <property name="distort">0</property>
    <property name="kdenlive:collapsed">0</property>
   </filter>
   <filter id="filter212">
    <property name="hradius">00:00:00.000~=113;00:00:00.133~=9.86963;00:00:00.517=0</property>
    <property name="vradius">00:00:00.000~=0;00:00:00.133~=0;00:00:00.517=0</property>
    <property name="mlt_service">box_blur</property>
    <property name="kdenlive_id">box_blur</property>
    <property name="kdenlive:collapsed">0</property>
   </filter>
  </entry>
  <blank length="00:00:04.483"/>
  <entry producer="producer83" in="00:00:00.000" out="00:00:01.967">
   <property name="kdenlive:id">79</property>
   <filter id="filter213">
    <property name="rotate_center">1</property>
    <property name="mlt_service">qtblend</property>
    <property name="kdenlive_id">qtblend</property>
    <property name="rect">00:00:00.000~=-264 -973 2275 1279 1.000000;00:00:00.083~=-264 -360 2275 1279 1.000000;00:00:00.250=-264 -102 2275 1280 1.000000;00:00:01.700~=-264 -102 2275 1280 1.000000;00:00:01.967=-264 -915 2275 1280 1.000000</property>
    <property name="rotation">00:00:00.000~=0;00:00:00.083~=0;00:00:00.250=0;00:00:01.700~=0;00:00:01.967=0</property>
    <property name="compositing">0</property>
    <property name="distort">0</property>
    <property name="kdenlive:collapsed">0</property>
   </filter>
   <filter id="filter214">
    <property name="hradius">00:00:00.000~=0;00:00:00.083~=0;00:00:00.250=0</property>
    <property name="vradius">00:00:00.000~=56;00:00:00.083~=16.5926;00:00:00.250=0</property>
    <property name="mlt_service">box_blur</property>
    <property name="kdenlive_id">box_blur</property>
    <property name="kdenlive:collapsed">0</property>
   </filter>
  </entry>
  <blank length="00:00:06.650"/>
  <entry producer="producer84" in="00:00:00.000" out="00:00:02.583">
   <property name="kdenlive:id">88</property>
   <property name="kdenlive:activeeffect">0</property>
   <filter id="filter215">
    <property name="rotate_center">1</property>
    <property name="mlt_service">qtblend</property>
    <property name="kdenlive_id">qtblend</property>
    <property name="rect">00:00:00.000~=0 -1069 1920 1080 1.000000;00:00:00.133~=0 -316 1920 1080 1.000000;00:00:00.350=0 0 1920 1080 1.000000</property>
    <property name="rotation">00:00:00.000~=0;00:00:00.133~=0;00:00:00.350=0</property>
    <property name="compositing">0</property>
    <property name="distort">0</property>
    <property name="kdenlive:collapsed">0</property>
   </filter>
   <filter id="filter216">
    <property name="hradius">00:00:00.000~=0;00:00:00.133~=0;00:00:00.350=0</property>
    <property name="vradius">00:00:00.000~=75;00:00:00.133~=18.1487;00:00:00.350=0</property>
    <property name="mlt_service">box_blur</property>
    <property name="kdenlive_id">box_blur</property>
    <property name="kdenlive:collapsed">0</property>
   </filter>
  </entry>
  <blank length="00:00:07.300"/>
  <entry producer="producer85" in="00:00:00.000" out="00:00:02.967">
   <property name="kdenlive:id">96</property>
   <property name="kdenlive:activeeffect">0</property>
   <filter id="filter217">
    <property name="rotate_center">1</property>
    <property name="mlt_service">qtblend</property>
    <property name="kdenlive_id">qtblend</property>
    <property name="rect">00:00:00.000~=-304 -956 2284 1284 1.000000;00:00:00.117~=-304 -491 2284 1284 1.000000;00:00:00.467=-304 -399 2284 1284 1.000000</property>
    <property name="rotation">00:00:00.000~=0;00:00:00.117~=0;00:00:00.467=0</property>
    <property name="compositing">0</property>
    <property name="distort">0</property>
    <property name="kdenlive:collapsed">0</property>
   </filter>
   <filter id="filter218" in="00:00:02.900" out="00:00:02.967">
    <property name="start">1</property>
    <property name="level">1</property>
    <property name="mlt_service">brightness</property>
    <property name="kdenlive_id">fade_to_black</property>
    <property name="alpha">00:00:00.000=1;00:00:00.067=0</property>
   </filter>
   <filter id="filter219">
    <property name="hradius">00:00:00.000~=0;00:00:00.133~=0;00:00:00.483=0</property>
    <property name="vradius">00:00:00.000~=83;00:00:00.133~=13.1805;00:00:00.483=0</property>
    <property name="mlt_service">box_blur</property>
    <property name="kdenlive_id">box_blur</property>
   </filter>
  </entry>
  <blank length="00:00:17.467"/>
  <entry producer="producer61" in="00:00:00.000" out="00:00:00.883">
   <property name="kdenlive:id">77</property>
   <property name="kdenlive:activeeffect">1</property>
   <filter id="filter220">
    <property name="rotate_center">1</property>
    <property name="mlt_service">qtblend</property>
    <property name="kdenlive_id">qtblend</property>
    <property name="rect">00:00:00.000~=-343 624 2286 1286 1.000000;00:00:00.167~=-343 -184 2286 1286 1.000000;00:00:00.617=-343 -419 2286 1286 1.000000</property>
    <property name="rotation">00:00:00.000~=0;00:00:00.167~=0;00:00:00.617=0</property>
    <property name="compositing">0</property>
    <property name="distort">0</property>
    <property name="kdenlive:collapsed">0</property>
   </filter>
   <filter id="filter221">
    <property name="hradius">00:00:00.000~=0;00:00:00.167~=0;00:00:00.617=0</property>
    <property name="vradius">00:00:00.000~=86;00:00:00.167~=14.4587;00:00:00.617=0</property>
    <property name="mlt_service">box_blur</property>
    <property name="kdenlive_id">box_blur</property>
    <property name="kdenlive:collapsed">0</property>
   </filter>
  </entry>
  <blank length="00:00:01.517"/>
  <entry producer="producer81" in="00:00:00.000" out="00:00:02.250">
   <property name="kdenlive:id">60</property>
   <filter id="filter222">
    <property name="rotate_center">1</property>
    <property name="mlt_service">qtblend</property>
    <property name="kdenlive_id">qtblend</property>
    <property name="rect">00:00:00.000~=-812 -458 3543 1992 0.000000;00:00:01.133=-812 -458 3543 1992 1.000000;00:00:02.250=-812 -458 3543 1992 0.000000</property>
    <property name="rotation">00:00:00.000~=-180;00:00:01.133=1.66665;00:00:02.250=180</property>
    <property name="compositing">0</property>
    <property name="distort">0</property>
    <property name="kdenlive:collapsed">0</property>
   </filter>
  </entry>
  <blank length="00:00:00.250"/>
  <entry producer="producer86" in="00:00:00.000" out="00:00:02.667">
   <property name="kdenlive:id">108</property>
   <property name="kdenlive:activeeffect">2</property>
   <filter id="filter223">
    <property name="rotate_center">1</property>
    <property name="mlt_service">qtblend</property>
    <property name="kdenlive_id">qtblend</property>
    <property name="rect">00:00:00.000~=-1411 0 1920 1080 1.000000;00:00:00.117~=-261 0 1920 1080 1.000000;00:00:00.500=0 0 1920 1080 1.000000</property>
    <property name="rotation">00:00:00.000~=0;00:00:00.117~=0;00:00:00.500=0</property>
    <property name="compositing">0</property>
    <property name="distort">0</property>
    <property name="kdenlive:collapsed">0</property>
   </filter>
   <filter id="filter224" in="00:00:02.517" out="00:00:02.667">
    <property name="start">1</property>
    <property name="level">1</property>
    <property name="mlt_service">brightness</property>
    <property name="kdenlive_id">fade_to_black</property>
    <property name="alpha">00:00:00.000=1;00:00:00.150=0</property>
    <property name="kdenlive:collapsed">0</property>
   </filter>
   <filter id="filter225">
    <property name="hradius">00:00:00.000~=55;00:00:00.117~=8.36;00:00:00.500=0</property>
    <property name="vradius">00:00:00.000~=0;00:00:00.117~=0;00:00:00.500=0</property>
    <property name="mlt_service">box_blur</property>
    <property name="kdenlive_id">box_blur</property>
    <property name="kdenlive:collapsed">0</property>
   </filter>
  </entry>
 </playlist>
 <playlist id="playlist23"/>
 <tractor id="tractor11" in="00:00:00.000" out="00:01:40.050">
  <property name="kdenlive:trackheight">67</property>
  <property name="kdenlive:timeline_active">1</property>
  <property name="kdenlive:collapsed">0</property>
  <property name="kdenlive:thumbs_format"/>
  <property name="kdenlive:audio_rec"/>
  <track hide="audio" producer="playlist22"/>
  <track hide="audio" producer="playlist23"/>
 </tractor>
 <producer id="producer87" in="00:00:00.000" out="00:00:04.983">
  <property name="length">00:00:05.000</property>
  <property name="eof">pause</property>
  <property name="resource">/home/archer/.var/app/org.kde.kdenlive/cache/kdenlive/proxy/52c53869a001dd54dc5ad5be579b6118.png</property>
  <property name="ttl">25</property>
  <property name="aspect_ratio">1</property>
  <property name="progressive">1</property>
  <property name="seekable">1</property>
  <property name="format">1</property>
  <property name="meta.media.width">450</property>
  <property name="meta.media.height">800</property>
  <property name="mlt_service">qimage</property>
  <property name="kdenlive:clipname">shujapackage3redacted.jpg</property>
  <property name="kdenlive:duration">00:00:05.000</property>
  <property name="kdenlive:folderid">3</property>
  <property name="kdenlive:id">59</property>
  <property name="kdenlive:clip_type">2</property>
  <property name="kdenlive:file_size">587981</property>
  <property name="kdenlive:file_hash">52c53869a001dd54dc5ad5be579b6118</property>
  <property name="kdenlive:proxy">/home/archer/.var/app/org.kde.kdenlive/cache/kdenlive/proxy/52c53869a001dd54dc5ad5be579b6118.png</property>
  <property name="kdenlive:originalurl">/home/archer/Downloads/videosource/shujav2/shujapackage3redacted.jpg</property>
  <property name="kdenlive:original.mlt_type">producer</property>
  <property name="kdenlive:original.in">0</property>
  <property name="kdenlive:original.out">299</property>
  <property name="kdenlive:original.length">00:00:05.000</property>
  <property name="kdenlive:original.eof">pause</property>
  <property name="kdenlive:original.resource">/home/archer/Downloads/videosource/shujav2/shujapackage3redacted.jpg</property>
  <property name="kdenlive:original.ttl">25</property>
  <property name="kdenlive:original.aspect_ratio">1</property>
  <property name="kdenlive:original.progressive">1</property>
  <property name="kdenlive:original.seekable">1</property>
  <property name="kdenlive:original.format">1</property>
  <property name="kdenlive:original.meta.media.width">2322</property>
  <property name="kdenlive:original.meta.media.height">4128</property>
  <property name="kdenlive:original.mlt_service">qimage</property>
  <property name="kdenlive:original.kdenlive:duration">00:00:05:00</property>
  <property name="kdenlive:original.kdenlive:folderid">3</property>
  <property name="kdenlive:original.kdenlive:id">59</property>
  <property name="kdenlive:original.kdenlive:clip_type">2</property>
  <property name="kdenlive:original.kdenlive:file_size">587981</property>
  <property name="kdenlive:original.kdenlive:file_hash">52c53869a001dd54dc5ad5be579b6118</property>
  <property name="kdenlive:original.backup">1</property>
 </producer>
 <producer id="producer88" in="00:00:00.000" out="00:00:04.983">
  <property name="length">00:00:05.000</property>
  <property name="eof">pause</property>
  <property name="resource">/home/archer/.var/app/org.kde.kdenlive/cache/kdenlive/proxy/ef8e81b7ef516d532ffcd9fe2417a7b2.png</property>
  <property name="ttl">25</property>
  <property name="aspect_ratio">1</property>
  <property name="progressive">1</property>
  <property name="seekable">1</property>
  <property name="format">1</property>
  <property name="meta.media.width">500</property>
  <property name="meta.media.height">800</property>
  <property name="mlt_service">qimage</property>
  <property name="kdenlive:clipname">pmoshighquality.jpg</property>
  <property name="kdenlive:duration">00:00:05.000</property>
  <property name="kdenlive:folderid">3</property>
  <property name="kdenlive:id">61</property>
  <property name="kdenlive:clip_type">2</property>
  <property name="kdenlive:file_size">8963870</property>
  <property name="kdenlive:file_hash">ef8e81b7ef516d532ffcd9fe2417a7b2</property>
  <property name="kdenlive:proxy">/home/archer/.var/app/org.kde.kdenlive/cache/kdenlive/proxy/ef8e81b7ef516d532ffcd9fe2417a7b2.png</property>
  <property name="kdenlive:originalurl">/home/archer/Downloads/videosource/shujav2/pmoshighquality.jpg</property>
  <property name="kdenlive:original.mlt_type">producer</property>
  <property name="kdenlive:original.in">0</property>
  <property name="kdenlive:original.out">299</property>
  <property name="kdenlive:original.length">00:00:05.000</property>
  <property name="kdenlive:original.eof">pause</property>
  <property name="kdenlive:original.resource">/home/archer/Downloads/videosource/shujav2/pmoshighquality.jpg</property>
  <property name="kdenlive:original.ttl">25</property>
  <property name="kdenlive:original.aspect_ratio">1</property>
  <property name="kdenlive:original.progressive">1</property>
  <property name="kdenlive:original.seekable">1</property>
  <property name="kdenlive:original.format">1</property>
  <property name="kdenlive:original.meta.media.width">2580</property>
  <property name="kdenlive:original.meta.media.height">4128</property>
  <property name="kdenlive:original.mlt_service">qimage</property>
  <property name="kdenlive:original.kdenlive:duration">00:00:05:00</property>
  <property name="kdenlive:original.kdenlive:folderid">3</property>
  <property name="kdenlive:original.kdenlive:id">61</property>
  <property name="kdenlive:original.kdenlive:clip_type">2</property>
  <property name="kdenlive:original.kdenlive:file_size">8963870</property>
  <property name="kdenlive:original.kdenlive:file_hash">ef8e81b7ef516d532ffcd9fe2417a7b2</property>
  <property name="kdenlive:original.backup">1</property>
 </producer>
 <producer id="producer89" in="00:00:00.000" out="00:00:04.983">
  <property name="length">300</property>
  <property name="eof">pause</property>
  <property name="resource"/>
  <property name="progressive">1</property>
  <property name="aspect_ratio">1</property>
  <property name="seekable">1</property>
  <property name="mlt_service">kdenlivetitle</property>
  <property name="kdenlive:duration">00:00:05:00</property>
  <property name="kdenlive:clipname">MISTAKES</property>
  <property name="xmldata">&lt;kdenlivetitle duration="300" LC_NUMERIC="C" width="1920" height="1080" out="299">
 &lt;item type="QGraphicsTextItem" z-index="0">
  &lt;position x="275" y="367">
   &lt;transform>1,0,0,0,1,0,0,0,1&lt;/transform>
  &lt;/position>
  &lt;content shadow="0;#64000000;3;3;3" font-underline="0" box-height="345" font-outline-color="0,0,0,255" font="Ubuntu" letter-spacing="0" font-pixel-size="300" font-italic="0" typewriter="0;2;1;0;0" alignment="1" font-weight="50" font-outline="4" box-width="1370.33" font-color="255,58,58,255">MISTAKES&lt;/content>
 &lt;/item>
 &lt;startviewport rect="0,0,1920,1080"/>
 &lt;endviewport rect="0,0,1920,1080"/>
 &lt;background color="0,0,0,0"/>
&lt;/kdenlivetitle>
</property>
  <property name="kdenlive:folderid">68</property>
  <property name="kdenlive:id">75</property>
  <property name="kdenlive:clip_type">2</property>
  <property name="kdenlive:file_hash">5a1b395881b615c4a7cdad5f27443a48</property>
  <property name="force_reload">0</property>
  <property name="meta.media.width">1920</property>
  <property name="meta.media.height">1080</property>
 </producer>
 <producer id="producer90" in="00:00:00.000" out="00:00:04.983">
  <property name="length">00:00:05.000</property>
  <property name="eof">pause</property>
  <property name="resource">/home/archer/Downloads/videosource/shujav2/pleasereleasesourcesir.png</property>
  <property name="ttl">25</property>
  <property name="aspect_ratio">1</property>
  <property name="progressive">1</property>
  <property name="seekable">1</property>
  <property name="format">2</property>
  <property name="meta.media.width">543</property>
  <property name="meta.media.height">404</property>
  <property name="mlt_service">qimage</property>
  <property name="kdenlive:clipname"/>
  <property name="kdenlive:duration">00:00:05:00</property>
  <property name="kdenlive:folderid">3</property>
  <property name="kdenlive:id">89</property>
  <property name="kdenlive:clip_type">2</property>
  <property name="kdenlive:file_size">59391</property>
  <property name="kdenlive:file_hash">272216bdaf365a525647221583051b9b</property>
 </producer>
 <producer id="producer91" in="00:00:00.000" out="00:00:04.983">
  <property name="length">00:00:05.000</property>
  <property name="eof">pause</property>
  <property name="resource">/home/archer/Downloads/videosource/shujav2/ijustsaiddontdodgeit.png</property>
  <property name="ttl">25</property>
  <property name="aspect_ratio">1</property>
  <property name="progressive">1</property>
  <property name="seekable">1</property>
  <property name="format">2</property>
  <property name="meta.media.width">526</property>
  <property name="meta.media.height">103</property>
  <property name="mlt_service">qimage</property>
  <property name="kdenlive:clipname"/>
  <property name="kdenlive:duration">00:00:05:00</property>
  <property name="kdenlive:folderid">3</property>
  <property name="kdenlive:id">97</property>
  <property name="kdenlive:clip_type">2</property>
  <property name="kdenlive:file_size">24074</property>
  <property name="kdenlive:file_hash">b4b7bd5d738784067e93e0558b88401d</property>
 </producer>
 <producer id="producer92" in="00:00:00.000" out="00:00:04.983">
  <property name="length">00:00:05.000</property>
  <property name="eof">pause</property>
  <property name="resource">/home/archer/Downloads/videosource/shujav2/may13.png</property>
  <property name="ttl">25</property>
  <property name="aspect_ratio">1</property>
  <property name="progressive">1</property>
  <property name="seekable">1</property>
  <property name="format">2</property>
  <property name="meta.media.width">652</property>
  <property name="meta.media.height">46</property>
  <property name="mlt_service">qimage</property>
  <property name="kdenlive:clipname"/>
  <property name="kdenlive:duration">00:00:05:00</property>
  <property name="kdenlive:folderid">3</property>
  <property name="kdenlive:id">99</property>
  <property name="kdenlive:clip_type">2</property>
  <property name="kdenlive:file_size">15619</property>
  <property name="kdenlive:file_hash">08cd788ca3ab2312ac52176ffd05f1de</property>
 </producer>
 <producer id="producer93" in="00:00:00.000" out="00:00:04.983">
  <property name="length">00:00:05.000</property>
  <property name="eof">pause</property>
  <property name="resource">/home/archer/.var/app/org.kde.kdenlive/cache/kdenlive/proxy/293f0d33501c4626acbc103c42ea7398.png</property>
  <property name="ttl">25</property>
  <property name="aspect_ratio">1</property>
  <property name="progressive">1</property>
  <property name="seekable">1</property>
  <property name="format">2</property>
  <property name="meta.media.width">786</property>
  <property name="meta.media.height">800</property>
  <property name="mlt_service">qimage</property>
  <property name="kdenlive:clipname">x_mark_red.png</property>
  <property name="kdenlive:duration">00:00:05.000</property>
  <property name="kdenlive:folderid">3</property>
  <property name="kdenlive:id">109</property>
  <property name="kdenlive:clip_type">2</property>
  <property name="kdenlive:file_size">141912</property>
  <property name="kdenlive:file_hash">293f0d33501c4626acbc103c42ea7398</property>
  <property name="kdenlive:proxy">/home/archer/.var/app/org.kde.kdenlive/cache/kdenlive/proxy/293f0d33501c4626acbc103c42ea7398.png</property>
  <property name="kdenlive:originalurl">/home/archer/Downloads/videosource/shujav2/x_mark_red.png</property>
  <property name="kdenlive:original.mlt_type">producer</property>
  <property name="kdenlive:original.in">0</property>
  <property name="kdenlive:original.out">299</property>
  <property name="kdenlive:original.length">00:00:05.000</property>
  <property name="kdenlive:original.eof">pause</property>
  <property name="kdenlive:original.resource">/home/archer/Downloads/videosource/shujav2/x_mark_red.png</property>
  <property name="kdenlive:original.ttl">25</property>
  <property name="kdenlive:original.aspect_ratio">1</property>
  <property name="kdenlive:original.progressive">1</property>
  <property name="kdenlive:original.seekable">1</property>
  <property name="kdenlive:original.format">2</property>
  <property name="kdenlive:original.meta.media.width">2947</property>
  <property name="kdenlive:original.meta.media.height">3000</property>
  <property name="kdenlive:original.mlt_service">qimage</property>
  <property name="kdenlive:original.kdenlive:duration">00:00:05:00</property>
  <property name="kdenlive:original.kdenlive:folderid">3</property>
  <property name="kdenlive:original.kdenlive:id">109</property>
  <property name="kdenlive:original.kdenlive:clip_type">2</property>
  <property name="kdenlive:original.kdenlive:file_size">141912</property>
  <property name="kdenlive:original.kdenlive:file_hash">293f0d33501c4626acbc103c42ea7398</property>
  <property name="kdenlive:original.backup">1</property>
 </producer>
 <playlist id="playlist24">
  <blank length="00:00:22.683"/>
  <entry producer="producer26" in="00:00:00.000" out="00:00:01.433">
   <property name="kdenlive:id">31</property>
   <property name="kdenlive:activeeffect">1</property>
   <filter id="filter226">
    <property name="rotate_center">1</property>
    <property name="mlt_service">qtblend</property>
    <property name="kdenlive_id">qtblend</property>
    <property name="rect">00:00:00.000~=1571 0 1920 1080 1.000000;00:00:00.133~=672 0 1920 1080 1.000000;00:00:00.350=478 0 1920 1080 1.000000</property>
    <property name="rotation">00:00:00.000~=0;00:00:00.133~=0;00:00:00.350=0</property>
    <property name="compositing">0</property>
    <property name="distort">0</property>
    <property name="kdenlive:collapsed">0</property>
   </filter>
   <filter id="filter227">
    <property name="hradius">00:00:00.000~=56;00:00:00.233=0</property>
    <property name="vradius">00:00:00.000~=0;00:00:00.233=0</property>
    <property name="mlt_service">box_blur</property>
    <property name="kdenlive_id">box_blur</property>
    <property name="kdenlive:collapsed">0</property>
   </filter>
  </entry>
  <entry producer="producer26" in="00:00:00.000" out="00:00:00.417">
   <property name="kdenlive:id">31</property>
   <filter id="filter228">
    <property name="rotate_center">1</property>
    <property name="mlt_service">qtblend</property>
    <property name="kdenlive_id">qtblend</property>
    <property name="rect">00:00:00.000~=478 0 1920 1080 1.000000;00:00:00.200~=676 0 1920 1080 1.000000;00:00:00.333=1453 0 1920 1080 1.000000</property>
    <property name="rotation">00:00:00.000~=0;00:00:00.200~=36.5625;00:00:00.333=180</property>
    <property name="compositing">0</property>
    <property name="distort">0</property>
    <property name="kdenlive:collapsed">0</property>
   </filter>
   <filter id="filter229">
    <property name="hradius">00:00:00.000~=0;00:00:00.100~=0;00:00:00.217=60</property>
    <property name="vradius">00:00:00.000~=0;00:00:00.100~=45;00:00:00.217=0</property>
    <property name="mlt_service">box_blur</property>
    <property name="kdenlive_id">box_blur</property>
    <property name="kdenlive:collapsed">0</property>
   </filter>
  </entry>
  <blank length="00:00:04.233"/>
  <entry producer="producer33" in="00:00:00.000" out="00:00:00.350">
   <property name="kdenlive:id">39</property>
   <filter id="filter230">
    <property name="rotate_center">1</property>
    <property name="mlt_service">qtblend</property>
    <property name="kdenlive_id">qtblend</property>
    <property name="rect">00:00:00.000~=0 1134 1920 1080 1.000000;00:00:00.083~=0 336 1920 1080 1.000000;00:00:00.250=0 0 1920 1080 1.000000</property>
    <property name="rotation">00:00:00.000~=0;00:00:00.083~=0;00:00:00.250=0</property>
    <property name="compositing">0</property>
    <property name="distort">0</property>
    <property name="kdenlive:collapsed">0</property>
   </filter>
   <filter id="filter231">
    <property name="hradius">00:00:00.000~=0;00:00:00.083~=0;00:00:00.250=0</property>
    <property name="vradius">00:00:00.000~=49;00:00:00.083~=18.424;00:00:00.250=0</property>
    <property name="mlt_service">box_blur</property>
    <property name="kdenlive_id">box_blur</property>
   </filter>
  </entry>
  <blank length="00:00:00.300"/>
  <entry producer="producer31" in="00:00:00.000" out="00:00:00.783">
   <property name="kdenlive:id">40</property>
   <filter id="filter232">
    <property name="rotate_center">1</property>
    <property name="mlt_service">qtblend</property>
    <property name="kdenlive_id">qtblend</property>
    <property name="rect">00:00:00.000~=-1931 0 1920 1080 1.000000;00:00:00.383~=-255 0 1920 1080 1.000000;00:00:00.650=0 0 1920 1080 1.000000;00:00:00.783=0 0 1920 1080 1.000000</property>
    <property name="rotation">00:00:00.000~=0;00:00:00.383~=0;00:00:00.650=0;00:00:00.783=0</property>
    <property name="compositing">0</property>
    <property name="distort">0</property>
    <property name="kdenlive:collapsed">0</property>
   </filter>
   <filter id="filter233">
    <property name="hradius">00:00:00.000~=53;00:00:00.383~=4.59246;00:00:00.650=0</property>
    <property name="vradius">00:00:00.000~=0;00:00:00.383~=0;00:00:00.650=0</property>
    <property name="mlt_service">box_blur</property>
    <property name="kdenlive_id">box_blur</property>
    <property name="kdenlive:collapsed">0</property>
   </filter>
  </entry>
  <blank length="00:00:04.300"/>
  <entry producer="producer39" in="00:00:00.000" out="00:00:02.333">
   <property name="kdenlive:id">46</property>
   <filter id="filter234">
    <property name="rotate_center">1</property>
    <property name="mlt_service">qtblend</property>
    <property name="kdenlive_id">qtblend</property>
    <property name="rect">00:00:00.000~=-1210 -77 1920 1080 1.000000;00:00:00.083~=-878 -77 1920 1080 1.000000;00:00:00.267=-704 -77 1920 1080 1.000000;00:00:02.117~=-704 -77 1920 1080 1.000000;00:00:02.333=-1390 -77 1920 1080 1.000000</property>
    <property name="rotation">00:00:00.000~=0;00:00:00.083~=0;00:00:00.267=0;00:00:02.117~=0;00:00:02.333=0</property>
    <property name="compositing">0</property>
    <property name="distort">0</property>
    <property name="kdenlive:collapsed">0</property>
   </filter>
   <filter id="filter235">
    <property name="hradius">00:00:00.000~=37;00:00:00.117~=10.072;00:00:00.267=0</property>
    <property name="vradius">00:00:00.000~=0;00:00:00.117~=0;00:00:00.267=0</property>
    <property name="mlt_service">box_blur</property>
    <property name="kdenlive_id">box_blur</property>
   </filter>
  </entry>
  <blank length="00:00:04.950"/>
  <entry producer="producer87" in="00:00:00.000" out="00:00:00.850">
   <property name="kdenlive:id">59</property>
   <property name="kdenlive:activeeffect">1</property>
   <filter id="filter236">
    <property name="rotate_center">1</property>
    <property name="mlt_service">qtblend</property>
    <property name="kdenlive_id">qtblend</property>
    <property name="rect">00:00:00.000~=1918 0 1920 1080 1.000000;00:00:00.150~=389 0 1920 1080 1.000000;00:00:00.400=0 0 1920 1080 1.000000</property>
    <property name="rotation">00:00:00.000~=0;00:00:00.150~=0;00:00:00.400=0</property>
    <property name="compositing">0</property>
    <property name="distort">0</property>
    <property name="kdenlive:collapsed">0</property>
   </filter>
   <filter id="filter237">
    <property name="rotate_center">1</property>
    <property name="mlt_service">qtblend</property>
    <property name="kdenlive_id">qtblend</property>
    <property name="rect">00:00:00.000=-2197 -1233 6320 3555 1.000000</property>
    <property name="rotation">00:00:00.000=0</property>
    <property name="compositing">0</property>
    <property name="distort">0</property>
    <property name="kdenlive:collapsed">0</property>
   </filter>
   <filter id="filter238">
    <property name="hradius">00:00:00.000~=135;00:00:00.150~=21.6309;00:00:00.400=0</property>
    <property name="vradius">00:00:00.000~=0;00:00:00.150~=0;00:00:00.400=0</property>
    <property name="mlt_service">box_blur</property>
    <property name="kdenlive_id">box_blur</property>
   </filter>
  </entry>
  <entry producer="producer88" in="00:00:00.000" out="00:00:01.483">
   <property name="kdenlive:id">61</property>
   <property name="kdenlive:activeeffect">0</property>
   <filter id="filter239">
    <property name="rotate_center">1</property>
    <property name="mlt_service">qtblend</property>
    <property name="kdenlive_id">qtblend</property>
    <property name="rect">00:00:00.000=-378 -213 2682 1508 1.000000</property>
    <property name="rotation">00:00:00.000=0</property>
    <property name="compositing">0</property>
    <property name="distort">0</property>
    <property name="kdenlive:collapsed">0</property>
   </filter>
  </entry>
  <blank length="00:00:03.367"/>
  <entry producer="producer89" in="00:00:00.000" out="00:00:01.367">
   <property name="kdenlive:id">75</property>
   <filter id="filter240">
    <property name="rotate_center">1</property>
    <property name="mlt_service">qtblend</property>
    <property name="kdenlive_id">qtblend</property>
    <property name="rect">00:00:00.000~=-1658 278 1920 1080 1.000000;00:00:00.133~=-801 278 1920 1080 1.000000;00:00:00.383=-184 278 1920 1080 1.000000</property>
    <property name="rotation">00:00:00.000~=0;00:00:00.133~=0;00:00:00.383=0</property>
    <property name="compositing">0</property>
    <property name="distort">0</property>
    <property name="kdenlive:collapsed">0</property>
   </filter>
   <filter id="filter241">
    <property name="hradius">00:00:00.000~=113;00:00:00.133~=9.86963;00:00:00.517=0</property>
    <property name="vradius">00:00:00.000~=0;00:00:00.133~=0;00:00:00.517=0</property>
    <property name="mlt_service">box_blur</property>
    <property name="kdenlive_id">box_blur</property>
   </filter>
  </entry>
  <blank length="00:00:14.350"/>
  <entry producer="producer90" in="00:00:00.000" out="00:00:01.350">
   <property name="kdenlive:id">89</property>
   <property name="kdenlive:activeeffect">1</property>
   <filter id="filter242">
    <property name="rotate_center">1</property>
    <property name="mlt_service">qtblend</property>
    <property name="kdenlive_id">qtblend</property>
    <property name="rect">00:00:00.000~=-378 -1540 2682 1508 1.000000;00:00:00.133~=-378 -225 2682 1508 1.000000;00:00:00.350=-378 -7 2682 1508 1.000000</property>
    <property name="rotation">00:00:00.000~=0;00:00:00.133~=0;00:00:00.350=0</property>
    <property name="compositing">0</property>
    <property name="distort">0</property>
    <property name="kdenlive:collapsed">0</property>
   </filter>
   <filter id="filter243">
    <property name="hradius">00:00:00.000~=0;00:00:00.133~=0;00:00:00.350=0</property>
    <property name="vradius">00:00:00.000~=34;00:00:00.133~=6.47986;00:00:00.350=0</property>
    <property name="mlt_service">box_blur</property>
    <property name="kdenlive_id">box_blur</property>
    <property name="kdenlive:collapsed">0</property>
   </filter>
  </entry>
  <blank length="00:00:09.250"/>
  <entry producer="producer91" in="00:00:00.000" out="00:00:04.983">
   <property name="kdenlive:id">97</property>
   <property name="kdenlive:activeeffect">1</property>
   <filter id="filter244">
    <property name="rotate_center">1</property>
    <property name="mlt_service">qtblend</property>
    <property name="kdenlive_id">qtblend</property>
    <property name="rect">00:00:00.000~=-1913 0 1920 1080 1.000000;00:00:00.100~=-527 0 1920 1080 1.000000;00:00:00.317=0 0 1920 1080 1.000000;00:00:00.517~=0 0 1920 1080 1.000000;00:00:00.667~=-450 -725 4505 2534 1.000000;00:00:01.033=-598 -964 5354 3012 1.000000</property>
    <property name="rotation">00:00:00.000~=0;00:00:00.100~=0;00:00:00.317=0;00:00:00.517~=0;00:00:00.667~=0;00:00:01.033=0</property>
    <property name="compositing">0</property>
    <property name="distort">0</property>
    <property name="kdenlive:collapsed">0</property>
   </filter>
   <filter id="filter245">
    <property name="hradius">00:00:00.000~=105;00:00:00.083~=19.7049;00:00:00.283=0;00:00:00.517~=0;00:00:00.650~=120;00:00:00.783=28.7893;00:00:01.033=0</property>
    <property name="vradius">00:00:00.000~=0;00:00:00.083~=0;00:00:00.283=0;00:00:00.517~=0;00:00:00.650~=68;00:00:00.783=16.314;00:00:01.033=0</property>
    <property name="mlt_service">box_blur</property>
    <property name="kdenlive_id">box_blur</property>
    <property name="kdenlive:collapsed">0</property>
   </filter>
  </entry>
  <blank length="00:00:13.750"/>
  <entry producer="producer92" in="00:00:00.000" out="00:00:00.633">
   <property name="kdenlive:id">99</property>
   <filter id="filter246">
    <property name="rotate_center">1</property>
    <property name="mlt_service">qtblend</property>
    <property name="kdenlive_id">qtblend</property>
    <property name="rect">00:00:00.000~=-453 -297 5632 3168 1.000000;00:00:00.217~=-453 -899 5632 3168 1.000000;00:00:00.617=-453 -999 5632 3168 1.000000</property>
    <property name="rotation">00:00:00.000~=0;00:00:00.217~=0;00:00:00.617=0</property>
    <property name="compositing">0</property>
    <property name="distort">0</property>
    <property name="kdenlive:collapsed">0</property>
   </filter>
   <filter id="filter247">
    <property name="hradius">00:00:00.000~=0;00:00:00.167~=0;00:00:00.617=0</property>
    <property name="vradius">00:00:00.000~=86;00:00:00.167~=14.4587;00:00:00.617=0</property>
    <property name="mlt_service">box_blur</property>
    <property name="kdenlive_id">box_blur</property>
   </filter>
  </entry>
  <blank length="00:00:04.533"/>
  <entry producer="producer93" in="00:00:00.000" out="00:00:02.167">
   <property name="kdenlive:id">109</property>
   <property name="kdenlive:activeeffect">-1</property>
   <filter id="filter248" in="00:00:02.017" out="00:00:02.167">
    <property name="start">1</property>
    <property name="level">1</property>
    <property name="mlt_service">brightness</property>
    <property name="kdenlive_id">fade_to_black</property>
    <property name="alpha">00:00:00.000=1;00:00:00.150=0</property>
   </filter>
  </entry>
 </playlist>
 <playlist id="playlist25"/>
 <tractor id="tractor12" in="00:00:00.000" out="00:01:40.050">
  <property name="kdenlive:trackheight">67</property>
  <property name="kdenlive:timeline_active">1</property>
  <property name="kdenlive:collapsed">0</property>
  <property name="kdenlive:thumbs_format"/>
  <property name="kdenlive:audio_rec"/>
  <track hide="audio" producer="playlist24"/>
  <track hide="audio" producer="playlist25"/>
 </tractor>
 <producer id="producer94" in="00:00:00.000" out="00:00:04.983">
  <property name="length">00:00:05.000</property>
  <property name="eof">pause</property>
  <property name="resource">0xffffffff</property>
  <property name="aspect_ratio">1</property>
  <property name="mlt_service">color</property>
  <property name="kdenlive:clipname">white</property>
  <property name="kdenlive:duration">00:00:05:00</property>
  <property name="kdenlive:folderid">3</property>
  <property name="kdenlive:id">63</property>
  <property name="mlt_image_format">rgb</property>
  <property name="kdenlive:clip_type">2</property>
  <property name="kdenlive:file_hash">039b56a692cd66eefeea44a17539e5a2</property>
 </producer>
 <producer id="producer95" in="00:00:00.000" out="00:00:04.983">
  <property name="length">00:00:05.000</property>
  <property name="eof">pause</property>
  <property name="resource">/home/archer/Downloads/videosource/shujav2/likecomparing.png</property>
  <property name="ttl">25</property>
  <property name="aspect_ratio">1</property>
  <property name="progressive">1</property>
  <property name="seekable">1</property>
  <property name="format">2</property>
  <property name="meta.media.width">697</property>
  <property name="meta.media.height">81</property>
  <property name="mlt_service">qimage</property>
  <property name="kdenlive:clipname"/>
  <property name="kdenlive:duration">00:00:05:00</property>
  <property name="kdenlive:folderid">3</property>
  <property name="kdenlive:id">98</property>
  <property name="kdenlive:clip_type">2</property>
  <property name="kdenlive:file_size">18423</property>
  <property name="kdenlive:file_hash">d3eee58401cddcae015d1e6840950520</property>
 </producer>
 <producer id="producer96" in="00:00:00.000" out="00:00:04.983">
  <property name="length">00:00:05.000</property>
  <property name="eof">pause</property>
  <property name="resource">/home/archer/.var/app/org.kde.kdenlive/cache/kdenlive/proxy/432751f722afe5782b95871907202469.png</property>
  <property name="ttl">25</property>
  <property name="aspect_ratio">1</property>
  <property name="progressive">1</property>
  <property name="seekable">1</property>
  <property name="format">1</property>
  <property name="meta.media.width">800</property>
  <property name="meta.media.height">423</property>
  <property name="mlt_service">qimage</property>
  <property name="kdenlive:clipname">removeallpromises.png</property>
  <property name="kdenlive:duration">00:00:05.000</property>
  <property name="kdenlive:folderid">3</property>
  <property name="kdenlive:id">106</property>
  <property name="kdenlive:clip_type">2</property>
  <property name="kdenlive:file_size">131145</property>
  <property name="kdenlive:file_hash">432751f722afe5782b95871907202469</property>
  <property name="kdenlive:proxy">/home/archer/.var/app/org.kde.kdenlive/cache/kdenlive/proxy/432751f722afe5782b95871907202469.png</property>
  <property name="kdenlive:originalurl">/home/archer/Downloads/videosource/shujav2/removeallpromises.png</property>
  <property name="kdenlive:original.mlt_type">producer</property>
  <property name="kdenlive:original.in">0</property>
  <property name="kdenlive:original.out">299</property>
  <property name="kdenlive:original.length">00:00:05.000</property>
  <property name="kdenlive:original.eof">pause</property>
  <property name="kdenlive:original.resource">/home/archer/Downloads/videosource/shujav2/removeallpromises.png</property>
  <property name="kdenlive:original.ttl">25</property>
  <property name="kdenlive:original.aspect_ratio">1</property>
  <property name="kdenlive:original.progressive">1</property>
  <property name="kdenlive:original.seekable">1</property>
  <property name="kdenlive:original.format">1</property>
  <property name="kdenlive:original.meta.media.width">1366</property>
  <property name="kdenlive:original.meta.media.height">723</property>
  <property name="kdenlive:original.mlt_service">qimage</property>
  <property name="kdenlive:original.kdenlive:duration">00:00:05:00</property>
  <property name="kdenlive:original.kdenlive:folderid">3</property>
  <property name="kdenlive:original.kdenlive:id">106</property>
  <property name="kdenlive:original.kdenlive:clip_type">2</property>
  <property name="kdenlive:original.kdenlive:file_size">131145</property>
  <property name="kdenlive:original.kdenlive:file_hash">432751f722afe5782b95871907202469</property>
  <property name="kdenlive:original.backup">1</property>
 </producer>
 <playlist id="playlist26">
  <blank length="00:00:34.867"/>
  <entry producer="producer40" in="00:00:00.000" out="00:00:02.033">
   <property name="kdenlive:id">47</property>
   <filter id="filter249">
    <property name="rotate_center">1</property>
    <property name="mlt_service">qtblend</property>
    <property name="kdenlive_id">qtblend</property>
    <property name="rect">00:00:00.000~=-1210 -77 1920 1080 1.000000;00:00:00.083~=-367 -77 1920 1080 1.000000;00:00:00.267=78 -77 1920 1080 1.000000;00:00:01.783~=78 -77 1920 1080 1.000000;00:00:02.033=78 -801 1920 1080 1.000000</property>
    <property name="rotation">00:00:00.000~=0;00:00:00.083~=0;00:00:00.267=0;00:00:01.783~=0;00:00:02.033=0</property>
    <property name="compositing">0</property>
    <property name="distort">0</property>
    <property name="kdenlive:collapsed">0</property>
   </filter>
   <filter id="filter250">
    <property name="hradius">00:00:00.000~=37;00:00:00.117~=10.072;00:00:00.267=0</property>
    <property name="vradius">00:00:00.000~=0;00:00:00.117~=0;00:00:00.267=0</property>
    <property name="mlt_service">box_blur</property>
    <property name="kdenlive_id">box_blur</property>
   </filter>
  </entry>
  <blank length="00:00:05.150"/>
  <entry producer="producer81" in="00:00:00.000" out="00:00:00.650">
   <property name="kdenlive:id">60</property>
   <property name="kdenlive:activeeffect">1</property>
   <filter id="filter251">
    <property name="rotate_center">1</property>
    <property name="mlt_service">qtblend</property>
    <property name="kdenlive_id">qtblend</property>
    <property name="rect">00:00:00.000~=1918 0 1920 1080 1.000000;00:00:00.150~=389 0 1920 1080 1.000000;00:00:00.400=0 0 1920 1080 1.000000</property>
    <property name="rotation">00:00:00.000~=0;00:00:00.150~=0;00:00:00.400=0</property>
    <property name="compositing">0</property>
    <property name="distort">0</property>
    <property name="kdenlive:collapsed">0</property>
   </filter>
   <filter id="filter252">
    <property name="rotate_center">1</property>
    <property name="mlt_service">qtblend</property>
    <property name="kdenlive_id">qtblend</property>
    <property name="rect">00:00:00.000=-2189 -1150 6304 3546 1.000000</property>
    <property name="rotation">00:00:00.000=0</property>
    <property name="compositing">0</property>
    <property name="distort">0</property>
    <property name="kdenlive:collapsed">0</property>
   </filter>
   <filter id="filter253">
    <property name="hradius">00:00:00.000~=135;00:00:00.150~=21.6309;00:00:00.400=0</property>
    <property name="vradius">00:00:00.000~=0;00:00:00.150~=0;00:00:00.400=0</property>
    <property name="mlt_service">box_blur</property>
    <property name="kdenlive_id">box_blur</property>
   </filter>
  </entry>
  <blank length="00:00:00.517"/>
  <entry producer="producer94" in="00:00:00.000" out="00:00:00.967">
   <property name="kdenlive:id">63</property>
   <filter id="filter254">
    <property name="mode">alpha</property>
    <property name="alpha_operation">clear</property>
    <property name="invert">0</property>
    <property name="feather">0</property>
    <property name="feather_passes">1</property>
    <property name="mlt_service">rotoscoping</property>
    <property name="kdenlive_id">rotoscoping</property>
    <property name="spline">{
    "58": [
        [
            [
                0.5436408977556109,
                0.060088691796008877
            ],
            [
                0.5885286783042394,
                0.052106430155210645
            ],
            [
                0.5962593516209476,
                0.1980044345898005
            ]
        ],
        [
            [
                0.6169576059850375,
                0.6512195121951219
            ],
            [
                0.6246882793017456,
                0.7971175166297118
            ],
            [
                0.57356608478803,
                0.802439024390244
            ]
        ],
        [
            [
                0.42019950124688277,
                0.8184035476718403
            ],
            [
                0.3690773067331671,
                0.8237250554323725
            ],
            [
                0.3675810473815461,
                0.6804878048780488
            ]
        ],
        [
            [
                0.3630922693266833,
                0.2352549889135255
            ],
            [
                0.3615960099750623,
                0.09201773835920178
            ],
            [
                0.40648379052369077,
                0.08403547671840354
            ]
        ]
    ]
}
</property>
    <property name="kdenlive:collapsed">0</property>
   </filter>
  </entry>
  <blank length="00:00:04.383"/>
  <entry producer="producer0" in="00:00:00.000" out="00:00:00.350">
   <property name="kdenlive:id">4</property>
   <property name="kdenlive:activeeffect">1</property>
   <filter id="filter255">
    <property name="rotate_center">1</property>
    <property name="mlt_service">qtblend</property>
    <property name="kdenlive_id">qtblend</property>
    <property name="rect">00:00:00.000~=-330 1083 2581 1452 1.000000;00:00:00.100~=-330 133 2581 1452 1.000000;00:00:00.283=-330 -185 2581 1452 1.000000</property>
    <property name="rotation">00:00:00.000~=0;00:00:00.100~=0;00:00:00.283=0</property>
    <property name="compositing">0</property>
    <property name="distort">0</property>
    <property name="kdenlive:collapsed">0</property>
   </filter>
   <filter id="filter256">
    <property name="hradius">00:00:00.000~=0;00:00:00.100~=0;00:00:00.283=0</property>
    <property name="vradius">00:00:00.000~=128;00:00:00.100~=24.0212;00:00:00.283=0</property>
    <property name="mlt_service">box_blur</property>
    <property name="kdenlive_id">box_blur</property>
    <property name="kdenlive:collapsed">0</property>
   </filter>
  </entry>
  <blank length="00:00:14.850"/>
  <entry producer="producer53" in="00:00:00.000" out="00:00:00.850">
   <property name="kdenlive:id">90</property>
   <filter id="filter257">
    <property name="rotate_center">1</property>
    <property name="mlt_service">qtblend</property>
    <property name="kdenlive_id">qtblend</property>
    <property name="rect">00:00:00.000~=-143 -1540 2682 1508 1.000000;00:00:00.100~=-143 -589 2682 1508 1.000000;00:00:00.317=-143 -326 2682 1508 1.000000</property>
    <property name="rotation">00:00:00.000~=0;00:00:00.100~=0;00:00:00.317=0</property>
    <property name="compositing">0</property>
    <property name="distort">0</property>
    <property name="kdenlive:collapsed">0</property>
   </filter>
   <filter id="filter258">
    <property name="hradius">00:00:00.000~=0;00:00:00.133~=0;00:00:00.350=0</property>
    <property name="vradius">00:00:00.000~=34;00:00:00.133~=6.47986;00:00:00.350=0</property>
    <property name="mlt_service">box_blur</property>
    <property name="kdenlive_id">box_blur</property>
   </filter>
  </entry>
  <blank length="00:00:10.883"/>
  <entry producer="producer95" in="00:00:00.000" out="00:00:03.350">
   <property name="kdenlive:id">98</property>
   <property name="kdenlive:activeeffect">1</property>
   <filter id="filter259">
    <property name="rotate_center">1</property>
    <property name="mlt_service">qtblend</property>
    <property name="kdenlive_id">qtblend</property>
    <property name="rect">00:00:00.000~=0 -721 1920 1080 1.000000;00:00:00.100~=0 -432 1920 1080 1.000000;00:00:00.467=0 -375 1920 1080 1.000000</property>
    <property name="rotation">00:00:00.000~=0;00:00:00.100~=0;00:00:00.467=0</property>
    <property name="compositing">0</property>
    <property name="distort">0</property>
    <property name="kdenlive:collapsed">0</property>
   </filter>
   <filter id="filter260">
    <property name="hradius">00:00:00.000~=0;00:00:00.100~=0;00:00:00.467=0</property>
    <property name="vradius">00:00:00.000~=86;00:00:00.100~=14.2915;00:00:00.467=0</property>
    <property name="mlt_service">box_blur</property>
    <property name="kdenlive_id">box_blur</property>
    <property name="kdenlive:collapsed">0</property>
   </filter>
  </entry>
  <blank length="00:00:13.933"/>
  <entry producer="producer96" in="00:00:00.000" out="00:00:01.583">
   <property name="kdenlive:id">106</property>
   <property name="kdenlive:activeeffect">2</property>
   <filter id="filter261">
    <property name="version">0.1</property>
    <property name="mlt_service">frei0r.scale0tilt</property>
    <property name="kdenlive_id">frei0r.scale0tilt</property>
    <property name="Clip left">00:00:00.000=0</property>
    <property name="Clip right">00:00:00.000=0.596354</property>
    <property name="Clip top">00:00:00.000=0.471296</property>
    <property name="Clip bottom">00:00:00.000=0.107407</property>
    <property name="Scale X">00:00:00.000=0.5</property>
    <property name="Scale Y">00:00:00.000=0.5</property>
    <property name="Tilt X">00:00:00.000=0.5</property>
    <property name="Tilt Y">00:00:00.000=0.5</property>
    <property name="kdenlive:collapsed">0</property>
   </filter>
   <filter id="filter262">
    <property name="rotate_center">1</property>
    <property name="mlt_service">qtblend</property>
    <property name="kdenlive_id">qtblend</property>
    <property name="rect">00:00:00.000~=-1928 -1265 4784 2691 1.000000;00:00:00.117~=-354 -1265 4784 2691 1.000000;00:00:00.433=-2 -1265 4784 2691 1.000000;00:00:01.250~=-2 -1265 4784 2691 1.000000;00:00:01.467~=-2 -1045 4784 2691 1.000000;00:00:01.583=-2 -183 4784 2691 1.000000</property>
    <property name="rotation">00:00:00.000~=0;00:00:00.117~=0;00:00:00.433=0;00:00:01.250~=0;00:00:01.467~=0;00:00:01.583=0</property>
    <property name="compositing">0</property>
    <property name="distort">0</property>
    <property name="kdenlive:collapsed">0</property>
   </filter>
   <filter id="filter263">
    <property name="hradius">00:00:00.000~=127;00:00:00.117~=18.3534;00:00:00.433=0;00:00:01.250~=0;00:00:01.467=0;00:00:01.583=0</property>
    <property name="vradius">00:00:00.000~=0;00:00:00.117~=0;00:00:00.433=0;00:00:01.250~=0;00:00:01.467=12.008;00:00:01.583=79</property>
    <property name="mlt_service">box_blur</property>
    <property name="kdenlive_id">box_blur</property>
    <property name="kdenlive:collapsed">0</property>
   </filter>
  </entry>
 </playlist>
 <playlist id="playlist27"/>
 <tractor id="tractor13" in="00:00:00.000" out="00:01:34.467">
  <property name="kdenlive:trackheight">67</property>
  <property name="kdenlive:timeline_active">1</property>
  <property name="kdenlive:collapsed">0</property>
  <property name="kdenlive:thumbs_format"/>
  <property name="kdenlive:audio_rec"/>
  <track hide="audio" producer="playlist26"/>
  <track hide="audio" producer="playlist27"/>
 </tractor>
 <producer id="producer97" in="00:00:00.000" out="00:02:35.700">
  <property name="length">9343</property>
  <property name="eof">pause</property>
  <property name="resource">/home/archer/.var/app/org.kde.kdenlive/cache/kdenlive/proxy/91b5159f1606b53816dd21b8d689d140.mov</property>
  <property name="audio_index">1</property>
  <property name="video_index">0</property>
  <property name="mute_on_pause">0</property>
  <property name="mlt_service">avformat-novalidate</property>
  <property name="seekable">1</property>
  <property name="aspect_ratio">1</property>
  <property name="format">3</property>
  <property name="kdenlive:clipname">The Homebrew Channel - Full Theme.mp4</property>
  <property name="kdenlive:clip_type">0</property>
  <property name="kdenlive:folderid">-1</property>
  <property name="kdenlive:id">54</property>
  <property name="kdenlive:file_size">29294667</property>
  <property name="kdenlive:file_hash">91b5159f1606b53816dd21b8d689d140</property>
  <property name="kdenlive:proxy">/home/archer/.var/app/org.kde.kdenlive/cache/kdenlive/proxy/91b5159f1606b53816dd21b8d689d140.mov</property>
  <property name="kdenlive:originalurl">/home/archer/Downloads/VideoDownloader/The Homebrew Channel - Full Theme.mp4</property>
  <property name="kdenlive:original.mlt_type">producer</property>
  <property name="kdenlive:original.in">0</property>
  <property name="kdenlive:original.out">9342</property>
  <property name="kdenlive:original.length">9343</property>
  <property name="kdenlive:original.eof">pause</property>
  <property name="kdenlive:original.resource">/home/archer/Downloads/VideoDownloader/The Homebrew Channel - Full Theme.mp4</property>
  <property name="kdenlive:original.meta.media.nb_streams">2</property>
  <property name="kdenlive:original.meta.media.0.stream.type">video</property>
  <property name="kdenlive:original.meta.media.0.stream.frame_rate">30</property>
  <property name="kdenlive:original.meta.media.0.stream.sample_aspect_ratio">1</property>
  <property name="kdenlive:original.meta.media.0.codec.width">1920</property>
  <property name="kdenlive:original.meta.media.0.codec.height">1080</property>
  <property name="kdenlive:original.meta.media.0.codec.rotate">0</property>
  <property name="kdenlive:original.meta.media.0.codec.pix_fmt">yuv420p</property>
  <property name="kdenlive:original.meta.media.0.codec.sample_aspect_ratio">1</property>
  <property name="kdenlive:original.meta.media.0.codec.colorspace">601</property>
  <property name="kdenlive:original.meta.media.0.codec.color_trc">1</property>
  <property name="kdenlive:original.meta.media.0.codec.name">h264</property>
  <property name="kdenlive:original.meta.media.0.codec.long_name">H.264 / AVC / MPEG-4 AVC / MPEG-4 part 10</property>
  <property name="kdenlive:original.meta.media.0.codec.bit_rate">1370503</property>
  <property name="kdenlive:original.meta.attr.0.stream.handler_name.markup">ISO Media file produced by Google Inc.</property>
  <property name="kdenlive:original.meta.attr.0.stream.vendor_id.markup">[0][0][0][0]</property>
  <property name="kdenlive:original.meta.media.1.stream.type">audio</property>
  <property name="kdenlive:original.meta.media.1.codec.sample_fmt">fltp</property>
  <property name="kdenlive:original.meta.media.1.codec.sample_rate">44100</property>
  <property name="kdenlive:original.meta.media.1.codec.channels">2</property>
  <property name="kdenlive:original.meta.media.1.codec.name">aac</property>
  <property name="kdenlive:original.meta.media.1.codec.long_name">AAC (Advanced Audio Coding)</property>
  <property name="kdenlive:original.meta.media.1.codec.bit_rate">127999</property>
  <property name="kdenlive:original.meta.attr.1.stream.language.markup">eng</property>
  <property name="kdenlive:original.meta.attr.1.stream.handler_name.markup">ISO Media file produced by Google Inc.</property>
  <property name="kdenlive:original.meta.attr.1.stream.vendor_id.markup">[0][0][0][0]</property>
  <property name="kdenlive:original.meta.attr.major_brand.markup">isom</property>
  <property name="kdenlive:original.meta.attr.minor_version.markup">512</property>
  <property name="kdenlive:original.meta.attr.compatible_brands.markup">isomiso2avc1mp41</property>
  <property name="kdenlive:original.meta.attr.title.markup">The Homebrew Channel - Full Theme</property>
  <property name="kdenlive:original.meta.attr.artist.markup">funnybone</property>
  <property name="kdenlive:original.meta.attr.date.markup">20180707</property>
  <property name="kdenlive:original.meta.attr.encoder.markup">Lavf60.3.100</property>
  <property name="kdenlive:original.meta.attr.comment.markup">https://www.youtube.com/watch?v=zLDlWNDmR8k</property>
  <property name="kdenlive:original.meta.attr.description.markup">The Homebrew Channel - Full Theme</property>
  <property name="kdenlive:original.meta.attr.synopsis.markup">The Homebrew Channel - Full Theme</property>
  <property name="kdenlive:original.seekable">1</property>
  <property name="kdenlive:original.width">1920</property>
  <property name="kdenlive:original.height">1080</property>
  <property name="kdenlive:original.meta.media.sample_aspect_num">1</property>
  <property name="kdenlive:original.meta.media.sample_aspect_den">1</property>
  <property name="kdenlive:original.aspect_ratio">1</property>
  <property name="kdenlive:original.format">3</property>
  <property name="kdenlive:original.audio_index">1</property>
  <property name="kdenlive:original.video_index">0</property>
  <property name="kdenlive:original.mute_on_pause">0</property>
  <property name="kdenlive:original.mlt_service">avformat-novalidate</property>
  <property name="kdenlive:original.meta.media.frame_rate_num">30</property>
  <property name="kdenlive:original.meta.media.frame_rate_den">1</property>
  <property name="kdenlive:original.meta.media.colorspace">601</property>
  <property name="kdenlive:original.meta.media.color_trc">1</property>
  <property name="kdenlive:original.meta.media.has_b_frames">1</property>
  <property name="kdenlive:original.meta.media.width">1920</property>
  <property name="kdenlive:original.meta.media.height">1080</property>
  <property name="kdenlive:original.meta.media.color_range">mpeg</property>
  <property name="kdenlive:original.meta.media.top_field_first">0</property>
  <property name="kdenlive:original.meta.media.progressive">1</property>
  <property name="kdenlive:original.kdenlive:clip_type">0</property>
  <property name="kdenlive:original.kdenlive:folderid">-1</property>
  <property name="kdenlive:original.kdenlive:id">54</property>
  <property name="kdenlive:original.kdenlive:file_size">29294667</property>
  <property name="kdenlive:original.kdenlive:file_hash">91b5159f1606b53816dd21b8d689d140</property>
  <property name="kdenlive:original.backup">1</property>
  <property name="kdenlive:audio_max1">217</property>
  <property name="xml">was here</property>
  <property name="meta.media.nb_streams">2</property>
  <property name="meta.media.0.stream.type">video</property>
  <property name="meta.media.0.stream.frame_rate">30</property>
  <property name="meta.media.0.stream.sample_aspect_ratio">1</property>
  <property name="meta.media.0.codec.width">640</property>
  <property name="meta.media.0.codec.height">360</property>
  <property name="meta.media.0.codec.rotate">0</property>
  <property name="meta.media.0.codec.pix_fmt">yuv420p</property>
  <property name="meta.media.0.codec.sample_aspect_ratio">1</property>
  <property name="meta.media.0.codec.colorspace">601</property>
  <property name="meta.media.0.codec.color_trc">1</property>
  <property name="meta.media.0.codec.name">h264</property>
  <property name="meta.media.0.codec.long_name">H.264 / AVC / MPEG-4 AVC / MPEG-4 part 10</property>
  <property name="meta.media.0.codec.bit_rate">1554691</property>
  <property name="meta.attr.0.stream.handler_name.markup">ISO Media file produced by Google Inc.</property>
  <property name="meta.attr.0.stream.vendor_id.markup">FFMP</property>
  <property name="meta.attr.0.stream.encoder.markup">Lavc58.134.100 h264_vaapi</property>
  <property name="meta.media.1.stream.type">audio</property>
  <property name="meta.media.1.codec.sample_fmt">fltp</property>
  <property name="meta.media.1.codec.sample_rate">44100</property>
  <property name="meta.media.1.codec.channels">2</property>
  <property name="meta.media.1.codec.name">ac3</property>
  <property name="meta.media.1.codec.long_name">ATSC A/52A (AC-3)</property>
  <property name="meta.media.1.codec.bit_rate">128000</property>
  <property name="meta.attr.1.stream.language.markup">eng</property>
  <property name="meta.attr.1.stream.handler_name.markup">ISO Media file produced by Google Inc.</property>
  <property name="meta.attr.1.stream.vendor_id.markup">[0][0][0][0]</property>
  <property name="meta.attr.major_brand.markup">qt  </property>
  <property name="meta.attr.minor_version.markup">512</property>
  <property name="meta.attr.compatible_brands.markup">qt  </property>
  <property name="meta.attr.artist.markup">funnybone</property>
  <property name="meta.attr.title.markup">The Homebrew Channel - Full Theme</property>
  <property name="meta.attr.date.markup">20180707</property>
  <property name="meta.attr.encoder.markup">Lavf58.76.100</property>
  <property name="meta.attr.comment.markup">https://www.youtube.com/watch?v=zLDlWNDmR8k</property>
  <property name="meta.media.sample_aspect_num">1</property>
  <property name="meta.media.sample_aspect_den">1</property>
  <property name="meta.media.frame_rate_num">30</property>
  <property name="meta.media.frame_rate_den">1</property>
  <property name="meta.media.colorspace">601</property>
  <property name="meta.media.color_trc">1</property>
  <property name="meta.media.has_b_frames">0</property>
  <property name="meta.media.width">640</property>
  <property name="meta.media.height">360</property>
  <property name="meta.media.color_range">mpeg</property>
  <property name="meta.media.top_field_first">0</property>
  <property name="meta.media.progressive">1</property>
  <property name="set.test_audio">1</property>
  <property name="set.test_image">0</property>
 </producer>
 <playlist id="playlist28">
  <blank length="00:00:35.083"/>
  <entry producer="producer41" in="00:00:00.000" out="00:00:01.817">
   <property name="kdenlive:id">48</property>
   <filter id="filter264">
    <property name="rotate_center">1</property>
    <property name="mlt_service">qtblend</property>
    <property name="kdenlive_id">qtblend</property>
    <property name="rect">00:00:00.000~=-1210 116 1920 1080 1.000000;00:00:00.100~=-783 116 1920 1080 1.000000;00:00:00.267=-624 116 1920 1080 1.000000;00:00:01.600~=-624 116 1920 1080 1.000000;00:00:01.817=1503 116 1920 1080 1.000000</property>
    <property name="rotation">00:00:00.000~=0;00:00:00.100~=0;00:00:00.267=0;00:00:01.600~=0;00:00:01.817=0</property>
    <property name="compositing">0</property>
    <property name="distort">0</property>
    <property name="kdenlive:collapsed">0</property>
   </filter>
   <filter id="filter265">
    <property name="hradius">00:00:00.000~=37;00:00:00.117~=10.072;00:00:00.267=0</property>
    <property name="vradius">00:00:00.000~=0;00:00:00.117~=0;00:00:00.267=0</property>
    <property name="mlt_service">box_blur</property>
    <property name="kdenlive_id">box_blur</property>
   </filter>
  </entry>
  <blank length="00:00:06.333"/>
  <entry producer="producer97" in="00:00:25.233" out="00:00:26.200">
   <property name="kdenlive:id">54</property>
   <property name="kdenlive:activeeffect">1</property>
   <filter id="filter266">
    <property name="rotate_center">1</property>
    <property name="mlt_service">qtblend</property>
    <property name="kdenlive_id">qtblend</property>
    <property name="rect">00:00:25.233=552 462 737 415 0.350000</property>
    <property name="rotation">00:00:25.233=-3</property>
    <property name="compositing">0</property>
    <property name="distort">0</property>
    <property name="kdenlive:collapsed">0</property>
   </filter>
   <filter id="filter267">
    <property name="mode">alpha</property>
    <property name="alpha_operation">clear</property>
    <property name="invert">0</property>
    <property name="feather">0</property>
    <property name="feather_passes">1</property>
    <property name="mlt_service">rotoscoping</property>
    <property name="kdenlive_id">rotoscoping</property>
    <property name="spline">{
    "1514": [
        [
            [
                0.5436408977556109,
                0.060088691796008877
            ],
            [
                0.5885286783042394,
                0.052106430155210645
            ],
            [
                0.5962593516209476,
                0.1980044345898005
            ]
        ],
        [
            [
                0.6169576059850375,
                0.6512195121951219
            ],
            [
                0.6246882793017456,
                0.7971175166297118
            ],
            [
                0.57356608478803,
                0.802439024390244
            ]
        ],
        [
            [
                0.42019950124688277,
                0.8184035476718403
            ],
            [
                0.3690773067331671,
                0.8237250554323725
            ],
            [
                0.3675810473815461,
                0.6804878048780488
            ]
        ],
        [
            [
                0.3630922693266833,
                0.2352549889135255
            ],
            [
                0.3615960099750623,
                0.09201773835920178
            ],
            [
                0.40648379052369077,
                0.08403547671840354
            ]
        ]
    ],
    "1517": [
        [
            [
                0.5635910224438903,
                0.43702882483370287
            ],
            [
                0.6084788029925187,
                0.4290465631929047
            ],
            [
                0.6162094763092268,
                0.5749445676274944
            ]
        ],
        [
            [
                0.6189359933499585,
                0.6558771434944045
            ],
            [
                0.6266666666666667,
                0.8017751479289941
            ],
            [
                0.5755444721529509,
                0.8070966556895264
            ]
        ],
        [
            [
                0.41770573566084784,
                0.8250554323725058
            ],
            [
                0.36658354114713215,
                0.8303769401330378
            ],
            [
                0.3650872817955112,
                0.6871396895787143
            ]
        ],
        [
            [
                0.3643391521197008,
                0.5922394678492237
            ],
            [
                0.3628428927680798,
                0.44900221729490025
            ],
            [
                0.40773067331670826,
                0.4410199556541018
            ]
        ]
    ]
}
</property>
    <property name="kdenlive:collapsed">0</property>
   </filter>
  </entry>
  <blank length="00:00:32.450"/>
  <entry producer="producer92" in="00:00:00.000" out="00:00:03.500">
   <property name="kdenlive:id">99</property>
   <property name="kdenlive:activeeffect">0</property>
   <filter id="filter268">
    <property name="rotate_center">1</property>
    <property name="mlt_service">qtblend</property>
    <property name="kdenlive_id">qtblend</property>
    <property name="rect">00:00:00.000~=-1913 0 1920 1080 1.000000;00:00:00.133~=-442 0 1920 1080 1.000000;00:00:00.483=0 0 1920 1080 1.000000;00:00:00.733~=0 0 1920 1080 1.000000;00:00:00.850~=-904 -3228 13358 7514 1.000000;00:00:01.167=-1107 -3951 15920 8955 1.000000</property>
    <property name="rotation">00:00:00.000~=0;00:00:00.133~=0;00:00:00.483=0;00:00:00.733~=0;00:00:00.850~=0;00:00:01.167=0</property>
    <property name="compositing">0</property>
    <property name="distort">0</property>
    <property name="kdenlive:collapsed">0</property>
   </filter>
   <filter id="filter269" in="00:00:02.333" out="00:00:03.500">
    <property name="start">1</property>
    <property name="level">1</property>
    <property name="mlt_service">brightness</property>
    <property name="kdenlive_id">fade_to_black</property>
    <property name="alpha">00:00:00.000=1;00:00:01.167=0</property>
    <property name="kdenlive:collapsed">0</property>
   </filter>
   <filter id="filter270">
    <property name="hradius">00:00:00.000~=105;00:00:00.083~=19.7049;00:00:00.283=0;00:00:00.517~=0;00:00:00.650~=120;00:00:00.783=28.7893;00:00:01.033=0</property>
    <property name="vradius">00:00:00.000~=0;00:00:00.083~=0;00:00:00.283=0;00:00:00.517~=0;00:00:00.650~=68;00:00:00.783=16.314;00:00:01.033=0</property>
    <property name="mlt_service">box_blur</property>
    <property name="kdenlive_id">box_blur</property>
    <property name="kdenlive:collapsed">0</property>
   </filter>
  </entry>
 </playlist>
 <playlist id="playlist29"/>
 <tractor id="tractor14" in="00:00:00.000" out="00:01:20.183">
  <property name="kdenlive:trackheight">67</property>
  <property name="kdenlive:timeline_active">1</property>
  <property name="kdenlive:collapsed">0</property>
  <property name="kdenlive:thumbs_format"/>
  <property name="kdenlive:audio_rec"/>
  <track hide="audio" producer="playlist28"/>
  <track hide="audio" producer="playlist29"/>
 </tractor>
 <playlist id="playlist30">
  <blank length="00:00:35.150"/>
  <entry producer="producer42" in="00:00:00.000" out="00:00:01.750">
   <property name="kdenlive:id">49</property>
   <property name="kdenlive:activeeffect">1</property>
   <filter id="filter271">
    <property name="rotate_center">1</property>
    <property name="mlt_service">qtblend</property>
    <property name="kdenlive_id">qtblend</property>
    <property name="rect">00:00:00.000~=-1210 116 1920 1080 1.000000;00:00:00.100~=-477 116 1920 1080 1.000000;00:00:00.267=-204 116 1920 1080 1.000000;00:00:01.583~=-204 116 1920 1080 1.000000;00:00:01.750=-204 751 1920 1080 1.000000</property>
    <property name="rotation">00:00:00.000~=0;00:00:00.100~=0;00:00:00.267=0;00:00:01.583~=0;00:00:01.750=0</property>
    <property name="compositing">0</property>
    <property name="distort">0</property>
    <property name="kdenlive:collapsed">0</property>
   </filter>
   <filter id="filter272">
    <property name="hradius">00:00:00.000~=37;00:00:00.117~=10.072;00:00:00.267=0</property>
    <property name="vradius">00:00:00.000~=0;00:00:00.117~=0;00:00:00.267=0</property>
    <property name="mlt_service">box_blur</property>
    <property name="kdenlive_id">box_blur</property>
    <property name="kdenlive:collapsed">0</property>
   </filter>
  </entry>
 </playlist>
 <playlist id="playlist31"/>
 <tractor id="tractor15" in="00:00:00.000" out="00:00:36.900">
  <property name="kdenlive:trackheight">67</property>
  <property name="kdenlive:timeline_active">1</property>
  <property name="kdenlive:collapsed">0</property>
  <property name="kdenlive:thumbs_format"/>
  <property name="kdenlive:audio_rec"/>
  <track hide="audio" producer="playlist30"/>
  <track hide="audio" producer="playlist31"/>
 </tractor>
 <playlist id="playlist32">
  <blank length="00:00:35.367"/>
  <entry producer="producer25" in="00:00:00.000" out="00:00:01.533">
   <property name="kdenlive:id">30</property>
   <filter id="filter273">
    <property name="rotate_center">1</property>
    <property name="mlt_service">qtblend</property>
    <property name="kdenlive_id">qtblend</property>
    <property name="rect">00:00:00.000~=-1515 0 1920 1080 1.000000;00:00:00.083~=-600 0 1920 1080 1.000000;00:00:00.200=0 0 1920 1080 1.000000;00:00:01.333~=0 0 1920 1080 1.000000;00:00:01.533=0 -1020 1920 1080 1.000000</property>
    <property name="rotation">00:00:00.000~=-180;00:00:00.083~=-71.3542;00:00:00.200=0;00:00:01.333~=0;00:00:01.533=0</property>
    <property name="compositing">0</property>
    <property name="distort">0</property>
    <property name="kdenlive:collapsed">0</property>
   </filter>
   <filter id="filter274">
    <property name="hradius">00:00:00.000~=79;00:00:00.200=0</property>
    <property name="vradius">00:00:00.000~=0;00:00:00.200=0</property>
    <property name="mlt_service">box_blur</property>
    <property name="kdenlive_id">box_blur</property>
    <property name="kdenlive:collapsed">0</property>
   </filter>
  </entry>
 </playlist>
 <playlist id="playlist33"/>
 <tractor id="tractor16" in="00:00:00.000" out="00:00:36.900">
  <property name="kdenlive:trackheight">67</property>
  <property name="kdenlive:timeline_active">1</property>
  <property name="kdenlive:collapsed">0</property>
  <property name="kdenlive:thumbs_format"/>
  <property name="kdenlive:audio_rec"/>
  <track hide="audio" producer="playlist32"/>
  <track hide="audio" producer="playlist33"/>
 </tractor>
 <producer id="producer98" in="00:00:00.000" out="00:02:35.700">
  <property name="length">9343</property>
  <property name="eof">pause</property>
  <property name="resource">/home/archer/.var/app/org.kde.kdenlive/cache/kdenlive/proxy/91b5159f1606b53816dd21b8d689d140.mov</property>
  <property name="audio_index">1</property>
  <property name="video_index">0</property>
  <property name="mute_on_pause">0</property>
  <property name="mlt_service">avformat-novalidate</property>
  <property name="meta.media.nb_streams">2</property>
  <property name="meta.media.0.stream.type">video</property>
  <property name="meta.media.0.stream.frame_rate">30</property>
  <property name="meta.media.0.stream.sample_aspect_ratio">1</property>
  <property name="meta.media.0.codec.width">640</property>
  <property name="meta.media.0.codec.height">360</property>
  <property name="meta.media.0.codec.rotate">0</property>
  <property name="meta.media.0.codec.pix_fmt">yuv420p</property>
  <property name="meta.media.0.codec.sample_aspect_ratio">1</property>
  <property name="meta.media.0.codec.colorspace">601</property>
  <property name="meta.media.0.codec.color_trc">1</property>
  <property name="meta.media.0.codec.name">h264</property>
  <property name="meta.media.0.codec.long_name">H.264 / AVC / MPEG-4 AVC / MPEG-4 part 10</property>
  <property name="meta.media.0.codec.bit_rate">1554691</property>
  <property name="meta.attr.0.stream.handler_name.markup">ISO Media file produced by Google Inc.</property>
  <property name="meta.attr.0.stream.vendor_id.markup">FFMP</property>
  <property name="meta.attr.0.stream.encoder.markup">Lavc58.134.100 h264_vaapi</property>
  <property name="meta.media.1.stream.type">audio</property>
  <property name="meta.media.1.codec.sample_fmt">fltp</property>
  <property name="meta.media.1.codec.sample_rate">44100</property>
  <property name="meta.media.1.codec.channels">2</property>
  <property name="meta.media.1.codec.name">ac3</property>
  <property name="meta.media.1.codec.long_name">ATSC A/52A (AC-3)</property>
  <property name="meta.media.1.codec.bit_rate">128000</property>
  <property name="meta.attr.1.stream.language.markup">eng</property>
  <property name="meta.attr.1.stream.handler_name.markup">ISO Media file produced by Google Inc.</property>
  <property name="meta.attr.1.stream.vendor_id.markup">[0][0][0][0]</property>
  <property name="meta.attr.major_brand.markup">qt  </property>
  <property name="meta.attr.minor_version.markup">512</property>
  <property name="meta.attr.compatible_brands.markup">qt  </property>
  <property name="meta.attr.artist.markup">funnybone</property>
  <property name="meta.attr.title.markup">The Homebrew Channel - Full Theme</property>
  <property name="meta.attr.date.markup">20180707</property>
  <property name="meta.attr.encoder.markup">Lavf58.76.100</property>
  <property name="meta.attr.comment.markup">https://www.youtube.com/watch?v=zLDlWNDmR8k</property>
  <property name="seekable">1</property>
  <property name="meta.media.sample_aspect_num">1</property>
  <property name="meta.media.sample_aspect_den">1</property>
  <property name="aspect_ratio">1</property>
  <property name="format">3</property>
  <property name="kdenlive:clipname">The Homebrew Channel - Full Theme.mp4</property>
  <property name="kdenlive:clip_type">0</property>
  <property name="kdenlive:folderid">-1</property>
  <property name="kdenlive:id">54</property>
  <property name="kdenlive:file_size">29294667</property>
  <property name="kdenlive:file_hash">91b5159f1606b53816dd21b8d689d140</property>
  <property name="kdenlive:proxy">/home/archer/.var/app/org.kde.kdenlive/cache/kdenlive/proxy/91b5159f1606b53816dd21b8d689d140.mov</property>
  <property name="kdenlive:originalurl">/home/archer/Downloads/VideoDownloader/The Homebrew Channel - Full Theme.mp4</property>
  <property name="kdenlive:original.mlt_type">producer</property>
  <property name="kdenlive:original.in">0</property>
  <property name="kdenlive:original.out">9342</property>
  <property name="kdenlive:original.length">9343</property>
  <property name="kdenlive:original.eof">pause</property>
  <property name="kdenlive:original.resource">/home/archer/Downloads/VideoDownloader/The Homebrew Channel - Full Theme.mp4</property>
  <property name="kdenlive:original.meta.media.nb_streams">2</property>
  <property name="kdenlive:original.meta.media.0.stream.type">video</property>
  <property name="kdenlive:original.meta.media.0.stream.frame_rate">30</property>
  <property name="kdenlive:original.meta.media.0.stream.sample_aspect_ratio">1</property>
  <property name="kdenlive:original.meta.media.0.codec.width">1920</property>
  <property name="kdenlive:original.meta.media.0.codec.height">1080</property>
  <property name="kdenlive:original.meta.media.0.codec.rotate">0</property>
  <property name="kdenlive:original.meta.media.0.codec.pix_fmt">yuv420p</property>
  <property name="kdenlive:original.meta.media.0.codec.sample_aspect_ratio">1</property>
  <property name="kdenlive:original.meta.media.0.codec.colorspace">601</property>
  <property name="kdenlive:original.meta.media.0.codec.color_trc">1</property>
  <property name="kdenlive:original.meta.media.0.codec.name">h264</property>
  <property name="kdenlive:original.meta.media.0.codec.long_name">H.264 / AVC / MPEG-4 AVC / MPEG-4 part 10</property>
  <property name="kdenlive:original.meta.media.0.codec.bit_rate">1370503</property>
  <property name="kdenlive:original.meta.attr.0.stream.handler_name.markup">ISO Media file produced by Google Inc.</property>
  <property name="kdenlive:original.meta.attr.0.stream.vendor_id.markup">[0][0][0][0]</property>
  <property name="kdenlive:original.meta.media.1.stream.type">audio</property>
  <property name="kdenlive:original.meta.media.1.codec.sample_fmt">fltp</property>
  <property name="kdenlive:original.meta.media.1.codec.sample_rate">44100</property>
  <property name="kdenlive:original.meta.media.1.codec.channels">2</property>
  <property name="kdenlive:original.meta.media.1.codec.name">aac</property>
  <property name="kdenlive:original.meta.media.1.codec.long_name">AAC (Advanced Audio Coding)</property>
  <property name="kdenlive:original.meta.media.1.codec.bit_rate">127999</property>
  <property name="kdenlive:original.meta.attr.1.stream.language.markup">eng</property>
  <property name="kdenlive:original.meta.attr.1.stream.handler_name.markup">ISO Media file produced by Google Inc.</property>
  <property name="kdenlive:original.meta.attr.1.stream.vendor_id.markup">[0][0][0][0]</property>
  <property name="kdenlive:original.meta.attr.major_brand.markup">isom</property>
  <property name="kdenlive:original.meta.attr.minor_version.markup">512</property>
  <property name="kdenlive:original.meta.attr.compatible_brands.markup">isomiso2avc1mp41</property>
  <property name="kdenlive:original.meta.attr.title.markup">The Homebrew Channel - Full Theme</property>
  <property name="kdenlive:original.meta.attr.artist.markup">funnybone</property>
  <property name="kdenlive:original.meta.attr.date.markup">20180707</property>
  <property name="kdenlive:original.meta.attr.encoder.markup">Lavf60.3.100</property>
  <property name="kdenlive:original.meta.attr.comment.markup">https://www.youtube.com/watch?v=zLDlWNDmR8k</property>
  <property name="kdenlive:original.meta.attr.description.markup">The Homebrew Channel - Full Theme</property>
  <property name="kdenlive:original.meta.attr.synopsis.markup">The Homebrew Channel - Full Theme</property>
  <property name="kdenlive:original.seekable">1</property>
  <property name="kdenlive:original.width">1920</property>
  <property name="kdenlive:original.height">1080</property>
  <property name="kdenlive:original.meta.media.sample_aspect_num">1</property>
  <property name="kdenlive:original.meta.media.sample_aspect_den">1</property>
  <property name="kdenlive:original.aspect_ratio">1</property>
  <property name="kdenlive:original.format">3</property>
  <property name="kdenlive:original.audio_index">1</property>
  <property name="kdenlive:original.video_index">0</property>
  <property name="kdenlive:original.mute_on_pause">0</property>
  <property name="kdenlive:original.mlt_service">avformat-novalidate</property>
  <property name="kdenlive:original.meta.media.frame_rate_num">30</property>
  <property name="kdenlive:original.meta.media.frame_rate_den">1</property>
  <property name="kdenlive:original.meta.media.colorspace">601</property>
  <property name="kdenlive:original.meta.media.color_trc">1</property>
  <property name="kdenlive:original.meta.media.has_b_frames">1</property>
  <property name="kdenlive:original.meta.media.width">1920</property>
  <property name="kdenlive:original.meta.media.height">1080</property>
  <property name="kdenlive:original.meta.media.color_range">mpeg</property>
  <property name="kdenlive:original.meta.media.top_field_first">0</property>
  <property name="kdenlive:original.meta.media.progressive">1</property>
  <property name="kdenlive:original.kdenlive:clip_type">0</property>
  <property name="kdenlive:original.kdenlive:folderid">-1</property>
  <property name="kdenlive:original.kdenlive:id">54</property>
  <property name="kdenlive:original.kdenlive:file_size">29294667</property>
  <property name="kdenlive:original.kdenlive:file_hash">91b5159f1606b53816dd21b8d689d140</property>
  <property name="kdenlive:original.backup">1</property>
  <property name="kdenlive:audio_max1">217</property>
  <property name="xml">was here</property>
  <property name="meta.media.frame_rate_num">30</property>
  <property name="meta.media.frame_rate_den">1</property>
  <property name="meta.media.colorspace">601</property>
  <property name="meta.media.color_trc">1</property>
  <property name="meta.media.has_b_frames">0</property>
  <property name="meta.media.width">640</property>
  <property name="meta.media.height">360</property>
  <property name="meta.media.color_range">mpeg</property>
  <property name="meta.media.top_field_first">0</property>
  <property name="meta.media.progressive">1</property>
  <property name="set.test_audio">1</property>
  <property name="set.test_image">0</property>
 </producer>
 <playlist id="playlist34">
  <blank length="00:00:35.733"/>
  <entry producer="producer98" in="00:00:25.033" out="00:00:26.200">
   <property name="kdenlive:id">54</property>
   <property name="kdenlive:activeeffect">3</property>
   <filter id="filter275">
    <property name="rotate_center">1</property>
    <property name="mlt_service">qtblend</property>
    <property name="kdenlive_id">qtblend</property>
    <property name="rect">00:00:25.033=667 136 938 527 1.000000</property>
    <property name="rotation">00:00:25.033=0</property>
    <property name="compositing">0</property>
    <property name="distort">0</property>
    <property name="kdenlive:collapsed">0</property>
   </filter>
   <filter id="filter276">
    <property name="version">0.1</property>
    <property name="mlt_service">frei0r.scale0tilt</property>
    <property name="kdenlive_id">frei0r.scale0tilt</property>
    <property name="Clip left">00:00:25.033~=0.660417;00:00:25.117~=0.509998;00:00:25.267=0.461979</property>
    <property name="Clip right">00:00:25.033~=0.310417;00:00:25.117~=0.288703;00:00:25.267=0.281771</property>
    <property name="Clip top">00:00:25.033~=0.375;00:00:25.117~=0.20585;00:00:25.267=0.151852</property>
    <property name="Clip bottom">00:00:25.033~=0.562963;00:00:25.117~=0.447857;00:00:25.267=0.411111</property>
    <property name="Scale X">00:00:25.033~=0.5;00:00:25.117~=0.5;00:00:25.267=0.5</property>
    <property name="Scale Y">00:00:25.033~=0.5;00:00:25.117~=0.5;00:00:25.267=0.5</property>
    <property name="Tilt X">00:00:25.033~=0.5;00:00:25.117~=0.5;00:00:25.267=0.5</property>
    <property name="Tilt Y">00:00:25.033~=0.5;00:00:25.117~=0.5;00:00:25.267=0.5</property>
    <property name="kdenlive:collapsed">0</property>
   </filter>
   <filter id="filter277" in="00:00:26.000" out="00:00:26.200">
    <property name="start">1</property>
    <property name="level">1</property>
    <property name="mlt_service">brightness</property>
    <property name="kdenlive_id">fade_to_black</property>
    <property name="alpha">00:00:00.000=1;00:00:00.200=0</property>
    <property name="kdenlive:collapsed">0</property>
   </filter>
   <filter id="filter278">
    <property name="hradius">00:00:25.033~=105;00:00:25.100~=34.0561;00:00:25.267=0</property>
    <property name="vradius">00:00:25.033~=64;00:00:25.100~=20.758;00:00:25.267=0</property>
    <property name="mlt_service">box_blur</property>
    <property name="kdenlive_id">box_blur</property>
    <property name="kdenlive:collapsed">0</property>
   </filter>
  </entry>
 </playlist>
 <playlist id="playlist35"/>
 <tractor id="tractor17" in="00:00:00.000" out="00:00:36.900">
  <property name="kdenlive:trackheight">67</property>
  <property name="kdenlive:timeline_active">1</property>
  <property name="kdenlive:collapsed">0</property>
  <property name="kdenlive:thumbs_format"/>
  <property name="kdenlive:audio_rec"/>
  <track hide="audio" producer="playlist34"/>
  <track hide="audio" producer="playlist35"/>
 </tractor>
 <playlist id="playlist36">
  <entry producer="producer1" in="00:00:00.000" out="00:01:40.950">
   <property name="kdenlive:id">2</property>
   <filter id="filter279">
    <property name="filter">frei0r.alphaspot</property>
    <property name="mlt_service">mask_start</property>
    <property name="kdenlive_id">mask_start-frei0r.alphaspot</property>
    <property name="filter.Shape">0.38</property>
    <property name="filter.Position X">00:00:00.000=0.5</property>
    <property name="filter.Position Y">00:00:00.000=0.5</property>
    <property name="filter.Size X">00:00:00.000=0.744</property>
    <property name="filter.Size Y">00:00:00.000=0.797</property>
    <property name="filter.Tilt">00:00:00.000=0.5</property>
    <property name="filter.Transition width">00:00:00.000=0.513</property>
    <property name="filter.Min">00:00:00.000=0</property>
    <property name="filter.Max">00:00:00.000=1</property>
    <property name="filter.Operation">1</property>
    <property name="kdenlive:collapsed">0</property>
   </filter>
   <filter id="filter280" in="00:01:40.117" out="00:01:40.950">
    <property name="start">1</property>
    <property name="level">1</property>
    <property name="mlt_service">brightness</property>
    <property name="kdenlive_id">fade_to_black</property>
    <property name="alpha">00:00:00.000=1;00:00:00.833=0</property>
   </filter>
  </entry>
 </playlist>
 <playlist id="playlist37"/>
 <tractor id="tractor18" in="00:00:00.000" out="00:01:40.950">
  <property name="kdenlive:trackheight">67</property>
  <property name="kdenlive:timeline_active">1</property>
  <property name="kdenlive:collapsed">0</property>
  <property name="kdenlive:track_name">shadow</property>
  <property name="kdenlive:thumbs_format"/>
  <property name="kdenlive:audio_rec"/>
  <track hide="audio" producer="playlist36"/>
  <track hide="audio" producer="playlist37"/>
 </tractor>
 <playlist id="playlist38">
  <property name="kdenlive:playlistid">timeline_preview</property>
 </playlist>
 <tractor id="{390766c9-a89a-468d-85ab-8d11b159a43f}" in="00:00:00.000" out="00:10:15.217">
  <property name="kdenlive:uuid">{390766c9-a89a-468d-85ab-8d11b159a43f}</property>
  <property name="kdenlive:clipname">Sequence 1</property>
  <property name="kdenlive:sequenceproperties.hasAudio">1</property>
  <property name="kdenlive:sequenceproperties.hasVideo">1</property>
  <property name="kdenlive:sequenceproperties.activeTrack">5</property>
  <property name="kdenlive:sequenceproperties.documentuuid">{390766c9-a89a-468d-85ab-8d11b159a43f}</property>
  <property name="kdenlive:duration">00:01:55:13</property>
  <property name="kdenlive:maxduration">6913</property>
  <property name="kdenlive:producer_type">17</property>
  <property name="kdenlive:id">56</property>
  <property name="kdenlive:clip_type">0</property>
  <property name="kdenlive:file_hash">60b3f97506075e10417ad1b694507875</property>
  <property name="kdenlive:folderid">55</property>
  <property name="kdenlive:sequenceproperties.groups">[
    {
        "children": [
            {
                "data": "1:2595",
                "leaf": "clip",
                "type": "Leaf"
            },
            {
                "data": "13:2595",
                "leaf": "clip",
                "type": "Leaf"
            },
            {
                "data": "14:2595",
                "leaf": "clip",
                "type": "Leaf"
            }
        ],
        "type": "Normal"
    },
    {
        "children": [
            {
                "data": "5:3516",
                "leaf": "clip",
                "type": "Leaf"
            },
            {
                "data": "2:3516",
                "leaf": "clip",
                "type": "Leaf"
            }
        ],
        "type": "AVSplit"
    }
]
</property>
  <property name="kdenlive:sequenceproperties.zoom">7</property>
  <property name="kdenlive:sequenceproperties.verticalzoom"/>
  <property name="kdenlive:sequenceproperties.thumbnailFrame"/>
  <property name="kdenlive:sequenceproperties.guides">[
]
</property>
  <property name="kdenlive:sequenceproperties.audioTarget">-1</property>
  <property name="kdenlive:sequenceproperties.videoTarget">12</property>
  <property name="kdenlive:sequenceproperties.tracksCount">18</property>
  <property name="kdenlive:sequenceproperties.position">221</property>
  <property name="kdenlive:sequenceproperties.scrollPos">0</property>
  <property name="kdenlive:sequenceproperties.zonein">0</property>
  <property name="kdenlive:sequenceproperties.zoneout">6449</property>
  <property name="kdenlive:sequenceproperties.previewchunks"/>
  <property name="kdenlive:sequenceproperties.dirtypreviewchunks">0-675</property>
  <property name="kdenlive:sequenceproperties.disablepreview">0</property>
  <track producer="producer48"/>
  <track producer="tractor0"/>
  <track producer="tractor1"/>
  <track producer="tractor2"/>
  <track producer="tractor3"/>
  <track producer="tractor4"/>
  <track producer="tractor5"/>
  <track producer="tractor6"/>
  <track producer="tractor7"/>
  <track producer="tractor8"/>
  <track producer="tractor9"/>
  <track producer="tractor10"/>
  <track producer="tractor11"/>
  <track producer="tractor12"/>
  <track producer="tractor13"/>
  <track producer="tractor14"/>
  <track producer="tractor15"/>
  <track producer="tractor16"/>
  <track producer="tractor17"/>
  <track producer="tractor18"/>
  <track hide="both" producer="playlist38"/>
  <transition id="transition0">
   <property name="a_track">0</property>
   <property name="b_track">1</property>
   <property name="mlt_service">mix</property>
   <property name="kdenlive_id">mix</property>
   <property name="internal_added">237</property>
   <property name="always_active">1</property>
   <property name="accepts_blanks">1</property>
   <property name="sum">1</property>
  </transition>
  <transition id="transition1">
   <property name="a_track">0</property>
   <property name="b_track">2</property>
   <property name="mlt_service">mix</property>
   <property name="kdenlive_id">mix</property>
   <property name="internal_added">237</property>
   <property name="always_active">1</property>
   <property name="accepts_blanks">1</property>
   <property name="sum">1</property>
  </transition>
  <transition id="transition2">
   <property name="a_track">0</property>
   <property name="b_track">3</property>
   <property name="mlt_service">mix</property>
   <property name="kdenlive_id">mix</property>
   <property name="internal_added">237</property>
   <property name="always_active">1</property>
   <property name="accepts_blanks">1</property>
   <property name="sum">1</property>
  </transition>
  <transition id="transition3">
   <property name="a_track">0</property>
   <property name="b_track">4</property>
   <property name="mlt_service">mix</property>
   <property name="kdenlive_id">mix</property>
   <property name="internal_added">237</property>
   <property name="always_active">1</property>
   <property name="accepts_blanks">1</property>
   <property name="sum">1</property>
  </transition>
  <transition id="transition4">
   <property name="a_track">0</property>
   <property name="b_track">5</property>
   <property name="compositing">0</property>
   <property name="distort">0</property>
   <property name="rotate_center">0</property>
   <property name="mlt_service">qtblend</property>
   <property name="kdenlive_id">qtblend</property>
   <property name="internal_added">237</property>
   <property name="always_active">1</property>
  </transition>
  <transition id="transition5">
   <property name="a_track">0</property>
   <property name="b_track">6</property>
   <property name="compositing">0</property>
   <property name="distort">0</property>
   <property name="rotate_center">0</property>
   <property name="mlt_service">qtblend</property>
   <property name="kdenlive_id">qtblend</property>
   <property name="internal_added">237</property>
   <property name="always_active">1</property>
  </transition>
  <transition id="transition6">
   <property name="a_track">0</property>
   <property name="b_track">7</property>
   <property name="compositing">0</property>
   <property name="distort">0</property>
   <property name="rotate_center">0</property>
   <property name="mlt_service">qtblend</property>
   <property name="kdenlive_id">qtblend</property>
   <property name="internal_added">237</property>
   <property name="always_active">1</property>
  </transition>
  <transition id="transition7">
   <property name="a_track">0</property>
   <property name="b_track">8</property>
   <property name="compositing">0</property>
   <property name="distort">0</property>
   <property name="rotate_center">0</property>
   <property name="mlt_service">qtblend</property>
   <property name="kdenlive_id">qtblend</property>
   <property name="internal_added">237</property>
   <property name="always_active">1</property>
  </transition>
  <transition id="transition8">
   <property name="a_track">0</property>
   <property name="b_track">9</property>
   <property name="compositing">0</property>
   <property name="distort">0</property>
   <property name="rotate_center">0</property>
   <property name="mlt_service">qtblend</property>
   <property name="kdenlive_id">qtblend</property>
   <property name="internal_added">237</property>
   <property name="always_active">1</property>
  </transition>
  <transition id="transition9">
   <property name="a_track">0</property>
   <property name="b_track">10</property>
   <property name="compositing">0</property>
   <property name="distort">0</property>
   <property name="rotate_center">0</property>
   <property name="mlt_service">qtblend</property>
   <property name="kdenlive_id">qtblend</property>
   <property name="internal_added">237</property>
   <property name="always_active">1</property>
  </transition>
  <transition id="transition10">
   <property name="a_track">0</property>
   <property name="b_track">11</property>
   <property name="compositing">0</property>
   <property name="distort">0</property>
   <property name="rotate_center">0</property>
   <property name="mlt_service">qtblend</property>
   <property name="kdenlive_id">qtblend</property>
   <property name="internal_added">237</property>
   <property name="always_active">1</property>
  </transition>
  <transition id="transition11">
   <property name="a_track">0</property>
   <property name="b_track">12</property>
   <property name="compositing">0</property>
   <property name="distort">0</property>
   <property name="rotate_center">0</property>
   <property name="mlt_service">qtblend</property>
   <property name="kdenlive_id">qtblend</property>
   <property name="internal_added">237</property>
   <property name="always_active">1</property>
  </transition>
  <transition id="transition12">
   <property name="a_track">0</property>
   <property name="b_track">13</property>
   <property name="compositing">0</property>
   <property name="distort">0</property>
   <property name="rotate_center">0</property>
   <property name="mlt_service">qtblend</property>
   <property name="kdenlive_id">qtblend</property>
   <property name="internal_added">237</property>
   <property name="always_active">1</property>
  </transition>
  <transition id="transition13">
   <property name="a_track">0</property>
   <property name="b_track">14</property>
   <property name="compositing">0</property>
   <property name="distort">0</property>
   <property name="rotate_center">0</property>
   <property name="mlt_service">qtblend</property>
   <property name="kdenlive_id">qtblend</property>
   <property name="internal_added">237</property>
   <property name="always_active">1</property>
  </transition>
  <transition id="transition14">
   <property name="a_track">0</property>
   <property name="b_track">15</property>
   <property name="compositing">0</property>
   <property name="distort">0</property>
   <property name="rotate_center">0</property>
   <property name="mlt_service">qtblend</property>
   <property name="kdenlive_id">qtblend</property>
   <property name="internal_added">237</property>
   <property name="always_active">1</property>
  </transition>
  <transition id="transition15">
   <property name="a_track">0</property>
   <property name="b_track">16</property>
   <property name="compositing">0</property>
   <property name="distort">0</property>
   <property name="rotate_center">0</property>
   <property name="mlt_service">qtblend</property>
   <property name="kdenlive_id">qtblend</property>
   <property name="internal_added">237</property>
   <property name="always_active">1</property>
  </transition>
  <transition id="transition16">
   <property name="a_track">0</property>
   <property name="b_track">17</property>
   <property name="compositing">0</property>
   <property name="distort">0</property>
   <property name="rotate_center">0</property>
   <property name="mlt_service">qtblend</property>
   <property name="kdenlive_id">qtblend</property>
   <property name="internal_added">237</property>
   <property name="always_active">1</property>
  </transition>
  <transition id="transition17">
   <property name="a_track">0</property>
   <property name="b_track">18</property>
   <property name="compositing">0</property>
   <property name="distort">0</property>
   <property name="rotate_center">0</property>
   <property name="mlt_service">qtblend</property>
   <property name="kdenlive_id">qtblend</property>
   <property name="internal_added">237</property>
   <property name="always_active">1</property>
  </transition>
  <transition id="transition18">
   <property name="a_track">0</property>
   <property name="b_track">19</property>
   <property name="compositing">0</property>
   <property name="distort">0</property>
   <property name="rotate_center">0</property>
   <property name="mlt_service">qtblend</property>
   <property name="kdenlive_id">qtblend</property>
   <property name="internal_added">237</property>
   <property name="always_active">1</property>
  </transition>
  <filter id="filter281">
   <property name="window">75</property>
   <property name="max_gain">20dB</property>
   <property name="mlt_service">volume</property>
   <property name="internal_added">237</property>
   <property name="disable">1</property>
  </filter>
  <filter id="filter282">
   <property name="channel">-1</property>
   <property name="mlt_service">panner</property>
   <property name="internal_added">237</property>
   <property name="start">0.5</property>
   <property name="disable">1</property>
  </filter>
  <filter id="filter283">
   <property name="window">75</property>
   <property name="max_gain">20dB</property>
   <property name="mlt_service">volume</property>
   <property name="internal_added">237</property>
   <property name="disable">1</property>
  </filter>
  <filter id="filter284">
   <property name="channel">-1</property>
   <property name="mlt_service">panner</property>
   <property name="internal_added">237</property>
   <property name="start">0.5</property>
   <property name="disable">1</property>
  </filter>
 </tractor>
 <producer id="producer99" in="00:00:00.000" out="00:00:04.983">
  <property name="length">00:00:05.000</property>
  <property name="eof">pause</property>
  <property name="resource">/home/archer/.var/app/org.kde.kdenlive/cache/kdenlive/proxy/39a127baaf09f4a5cf24654a3f711c06.png</property>
  <property name="ttl">25</property>
  <property name="aspect_ratio">1</property>
  <property name="progressive">1</property>
  <property name="seekable">1</property>
  <property name="format">1</property>
  <property name="meta.media.width">500</property>
  <property name="meta.media.height">800</property>
  <property name="mlt_service">qimage</property>
  <property name="kdenlive:clipname">pmoslowquality.jpg</property>
  <property name="kdenlive:duration">00:00:05.000</property>
  <property name="kdenlive:folderid">3</property>
  <property name="kdenlive:id">62</property>
  <property name="kdenlive:clip_type">2</property>
  <property name="kdenlive:file_size">6068239</property>
  <property name="kdenlive:file_hash">39a127baaf09f4a5cf24654a3f711c06</property>
  <property name="kdenlive:proxy">/home/archer/.var/app/org.kde.kdenlive/cache/kdenlive/proxy/39a127baaf09f4a5cf24654a3f711c06.png</property>
  <property name="kdenlive:originalurl">/home/archer/Downloads/videosource/shujav2/pmoslowquality.jpg</property>
  <property name="kdenlive:original.mlt_type">producer</property>
  <property name="kdenlive:original.in">0</property>
  <property name="kdenlive:original.out">299</property>
  <property name="kdenlive:original.length">00:00:05.000</property>
  <property name="kdenlive:original.eof">pause</property>
  <property name="kdenlive:original.resource">/home/archer/Downloads/videosource/shujav2/pmoslowquality.jpg</property>
  <property name="kdenlive:original.ttl">25</property>
  <property name="kdenlive:original.aspect_ratio">1</property>
  <property name="kdenlive:original.progressive">1</property>
  <property name="kdenlive:original.seekable">1</property>
  <property name="kdenlive:original.format">1</property>
  <property name="kdenlive:original.meta.media.width">2580</property>
  <property name="kdenlive:original.meta.media.height">4128</property>
  <property name="kdenlive:original.mlt_service">qimage</property>
  <property name="kdenlive:original.kdenlive:duration">00:00:05:00</property>
  <property name="kdenlive:original.kdenlive:folderid">3</property>
  <property name="kdenlive:original.kdenlive:id">62</property>
  <property name="kdenlive:original.kdenlive:clip_type">2</property>
  <property name="kdenlive:original.kdenlive:file_size">6068239</property>
  <property name="kdenlive:original.kdenlive:file_hash">39a127baaf09f4a5cf24654a3f711c06</property>
  <property name="kdenlive:original.backup">1</property>
 </producer>
 <chain id="chain6" out="00:03:41.700">
  <property name="length">13302</property>
  <property name="eof">pause</property>
  <property name="resource">/home/archer/.var/app/org.kde.kdenlive/cache/kdenlive/proxy/a5deb6f346c3c186c27f9bfd93e7c361.mov</property>
  <property name="mlt_service">avformat</property>
  <property name="meta.media.nb_streams">2</property>
  <property name="meta.media.0.stream.type">video</property>
  <property name="meta.media.0.stream.frame_rate">17.3331</property>
  <property name="meta.media.0.stream.sample_aspect_ratio">1</property>
  <property name="meta.media.0.codec.width">640</property>
  <property name="meta.media.0.codec.height">360</property>
  <property name="meta.media.0.codec.rotate">0</property>
  <property name="meta.media.0.codec.pix_fmt">yuv420p</property>
  <property name="meta.media.0.codec.sample_aspect_ratio">1</property>
  <property name="meta.media.0.codec.colorspace">709</property>
  <property name="meta.media.0.codec.color_trc">1</property>
  <property name="meta.media.0.codec.name">h264</property>
  <property name="meta.media.0.codec.long_name">H.264 / AVC / MPEG-4 AVC / MPEG-4 part 10</property>
  <property name="meta.media.0.codec.bit_rate">363333</property>
  <property name="meta.attr.0.stream.handler_name.markup">ISO Media file produced by Google Inc.</property>
  <property name="meta.attr.0.stream.vendor_id.markup">FFMP</property>
  <property name="meta.attr.0.stream.encoder.markup">Lavc60.3.100 h264_vaapi</property>
  <property name="meta.media.1.stream.type">audio</property>
  <property name="meta.media.1.codec.sample_fmt">fltp</property>
  <property name="meta.media.1.codec.sample_rate">44100</property>
  <property name="meta.media.1.codec.channels">2</property>
  <property name="meta.media.1.codec.name">ac3</property>
  <property name="meta.media.1.codec.long_name">ATSC A/52A (AC-3)</property>
  <property name="meta.media.1.codec.bit_rate">128000</property>
  <property name="meta.attr.1.stream.language.markup">eng</property>
  <property name="meta.attr.1.stream.handler_name.markup">ISO Media file produced by Google Inc.</property>
  <property name="meta.attr.1.stream.vendor_id.markup">[0][0][0][0]</property>
  <property name="meta.attr.major_brand.markup">qt  </property>
  <property name="meta.attr.minor_version.markup">512</property>
  <property name="meta.attr.compatible_brands.markup">qt  </property>
  <property name="meta.attr.artist.markup">Pikacat98</property>
  <property name="meta.attr.title.markup">ヤツメ穴 (Yatsume Ana) (lamprey hole)【Off Vocal】</property>
  <property name="meta.attr.date.markup">20191102</property>
  <property name="meta.attr.encoder.markup">Lavf60.3.100</property>
  <property name="meta.attr.comment.markup">https://www.youtube.com/watch?v=XdatpHX0A7U</property>
  <property name="seekable">1</property>
  <property name="meta.media.sample_aspect_num">1</property>
  <property name="meta.media.sample_aspect_den">1</property>
  <property name="audio_index">1</property>
  <property name="video_index">0</property>
  <property name="meta.media.frame_rate_num">21753</property>
  <property name="meta.media.frame_rate_den">1255</property>
  <property name="meta.media.colorspace">709</property>
  <property name="meta.media.color_trc">1</property>
  <property name="meta.media.has_b_frames">0</property>
  <property name="meta.media.width">640</property>
  <property name="meta.media.height">360</property>
  <property name="meta.media.color_range">mpeg</property>
  <property name="kdenlive:clipname">ヤツメ穴 (Yatsume Ana) (lamprey hole)【Off Vocal】.mp4</property>
  <property name="kdenlive:clip_type">0</property>
  <property name="kdenlive:folderid">-1</property>
  <property name="kdenlive:id">64</property>
  <property name="mute_on_pause">0</property>
  <property name="kdenlive:file_size">7340578</property>
  <property name="kdenlive:file_hash">a5deb6f346c3c186c27f9bfd93e7c361</property>
  <property name="kdenlive:proxy">/home/archer/.var/app/org.kde.kdenlive/cache/kdenlive/proxy/a5deb6f346c3c186c27f9bfd93e7c361.mov</property>
  <property name="kdenlive:originalurl">/home/archer/Downloads/VideoDownloader/ヤツメ穴 (Yatsume Ana) (lamprey hole)【Off Vocal】.mp4</property>
  <property name="kdenlive:original.mlt_type">chain</property>
  <property name="kdenlive:original.in">0</property>
  <property name="kdenlive:original.out">13301</property>
  <property name="kdenlive:original.length">13302</property>
  <property name="kdenlive:original.eof">pause</property>
  <property name="kdenlive:original.resource">/home/archer/Downloads/VideoDownloader/ヤツメ穴 (Yatsume Ana) (lamprey hole)【Off Vocal】.mp4</property>
  <property name="kdenlive:original.mlt_service">avformat-novalidate</property>
  <property name="kdenlive:original.meta.media.nb_streams">2</property>
  <property name="kdenlive:original.meta.media.0.stream.type">video</property>
  <property name="kdenlive:original.meta.media.0.stream.frame_rate">17.3331</property>
  <property name="kdenlive:original.meta.media.0.stream.sample_aspect_ratio">1</property>
  <property name="kdenlive:original.meta.media.0.codec.width">1920</property>
  <property name="kdenlive:original.meta.media.0.codec.height">1080</property>
  <property name="kdenlive:original.meta.media.0.codec.rotate">0</property>
  <property name="kdenlive:original.meta.media.0.codec.pix_fmt">yuv420p</property>
  <property name="kdenlive:original.meta.media.0.codec.sample_aspect_ratio">1</property>
  <property name="kdenlive:original.meta.media.0.codec.colorspace">709</property>
  <property name="kdenlive:original.meta.media.0.codec.color_trc">1</property>
  <property name="kdenlive:original.meta.media.0.codec.name">h264</property>
  <property name="kdenlive:original.meta.media.0.codec.long_name">H.264 / AVC / MPEG-4 AVC / MPEG-4 part 10</property>
  <property name="kdenlive:original.meta.media.0.codec.bit_rate">131866</property>
  <property name="kdenlive:original.meta.attr.0.stream.handler_name.markup">ISO Media file produced by Google Inc.</property>
  <property name="kdenlive:original.meta.attr.0.stream.vendor_id.markup">[0][0][0][0]</property>
  <property name="kdenlive:original.meta.media.1.stream.type">audio</property>
  <property name="kdenlive:original.meta.media.1.codec.sample_fmt">fltp</property>
  <property name="kdenlive:original.meta.media.1.codec.sample_rate">44100</property>
  <property name="kdenlive:original.meta.media.1.codec.channels">2</property>
  <property name="kdenlive:original.meta.media.1.codec.name">aac</property>
  <property name="kdenlive:original.meta.media.1.codec.long_name">AAC (Advanced Audio Coding)</property>
  <property name="kdenlive:original.meta.media.1.codec.bit_rate">127999</property>
  <property name="kdenlive:original.meta.attr.1.stream.language.markup">eng</property>
  <property name="kdenlive:original.meta.attr.1.stream.handler_name.markup">ISO Media file produced by Google Inc.</property>
  <property name="kdenlive:original.meta.attr.1.stream.vendor_id.markup">[0][0][0][0]</property>
  <property name="kdenlive:original.meta.attr.major_brand.markup">isom</property>
  <property name="kdenlive:original.meta.attr.minor_version.markup">512</property>
  <property name="kdenlive:original.meta.attr.compatible_brands.markup">isomiso2avc1mp41</property>
  <property name="kdenlive:original.meta.attr.title.markup">ヤツメ穴 (Yatsume Ana) (lamprey hole)【Off Vocal】</property>
  <property name="kdenlive:original.meta.attr.artist.markup">Pikacat98</property>
  <property name="kdenlive:original.meta.attr.date.markup">20191102</property>
  <property name="kdenlive:original.meta.attr.encoder.markup">Lavf59.27.100</property>
  <property name="kdenlive:original.meta.attr.comment.markup">https://www.youtube.com/watch?v=XdatpHX0A7U</property>
  <property name="kdenlive:original.meta.attr.description.markup">Here we go reuploaded, I didn't know about it and thank you for letting me know. If there's anything else wrong please let me know.</property>
  <property name="kdenlive:original.meta.attr.synopsis.markup">Here we go reuploaded, I didn't know about it and thank you for letting me know. If there's anything else wrong please let me know.</property>
  <property name="kdenlive:original.seekable">1</property>
  <property name="kdenlive:original.width">1920</property>
  <property name="kdenlive:original.height">1080</property>
  <property name="kdenlive:original.meta.media.sample_aspect_num">1</property>
  <property name="kdenlive:original.meta.media.sample_aspect_den">1</property>
  <property name="kdenlive:original.audio_index">1</property>
  <property name="kdenlive:original.video_index">0</property>
  <property name="kdenlive:original.meta.media.frame_rate_num">21753</property>
  <property name="kdenlive:original.meta.media.frame_rate_den">1255</property>
  <property name="kdenlive:original.meta.media.colorspace">709</property>
  <property name="kdenlive:original.meta.media.color_trc">1</property>
  <property name="kdenlive:original.meta.media.has_b_frames">1</property>
  <property name="kdenlive:original.meta.media.width">1920</property>
  <property name="kdenlive:original.meta.media.height">1080</property>
  <property name="kdenlive:original.meta.media.color_range">mpeg</property>
  <property name="kdenlive:original.meta.media.top_field_first">0</property>
  <property name="kdenlive:original.meta.media.progressive">1</property>
  <property name="kdenlive:original.kdenlive:clip_type">0</property>
  <property name="kdenlive:original.kdenlive:folderid">-1</property>
  <property name="kdenlive:original.kdenlive:id">64</property>
  <property name="kdenlive:original.mute_on_pause">0</property>
  <property name="kdenlive:original.kdenlive:file_size">7340578</property>
  <property name="kdenlive:original.kdenlive:file_hash">a5deb6f346c3c186c27f9bfd93e7c361</property>
  <property name="kdenlive:original.backup">1</property>
  <property name="kdenlive:audio_max1">223</property>
  <property name="meta.media.top_field_first">0</property>
  <property name="meta.media.progressive">1</property>
 </chain>
 <chain id="chain7" out="00:02:50.833">
  <property name="length">10251</property>
  <property name="eof">pause</property>
  <property name="resource">/home/archer/Downloads/VideoDownloader/A Sardine Grows from the Soil [Intrumental_o]- Koronba.mp3</property>
  <property name="mlt_service">avformat-novalidate</property>
  <property name="meta.media.nb_streams">2</property>
  <property name="meta.media.0.stream.type">audio</property>
  <property name="meta.media.0.codec.sample_fmt">fltp</property>
  <property name="meta.media.0.codec.sample_rate">48000</property>
  <property name="meta.media.0.codec.channels">2</property>
  <property name="meta.media.0.codec.name">mp3float</property>
  <property name="meta.media.0.codec.long_name">MP3 (MPEG audio layer 3)</property>
  <property name="meta.media.0.codec.bit_rate">192000</property>
  <property name="meta.attr.0.stream.encoder.markup">Lavc60.3.</property>
  <property name="meta.media.1.stream.type">video</property>
  <property name="meta.media.1.stream.frame_rate">90000</property>
  <property name="meta.media.1.stream.sample_aspect_ratio">0</property>
  <property name="meta.media.1.codec.width">1024</property>
  <property name="meta.media.1.codec.height">576</property>
  <property name="meta.media.1.codec.rotate">0</property>
  <property name="meta.media.1.codec.pix_fmt">yuvj420p</property>
  <property name="meta.media.1.codec.sample_aspect_ratio">0</property>
  <property name="meta.media.1.codec.colorspace">601</property>
  <property name="meta.media.1.codec.name">mjpeg</property>
  <property name="meta.media.1.codec.long_name">MJPEG (Motion JPEG)</property>
  <property name="meta.media.1.codec.bit_rate">0</property>
  <property name="meta.attr.1.stream.title.markup">"Album cover"</property>
  <property name="meta.attr.1.stream.comment.markup">Cover (front)</property>
  <property name="meta.attr.artist.markup">ＮＥＫＯ ＤＥＡＭＳ</property>
  <property name="meta.attr.title.markup">A Sardine Grows from the Soil [Intrumental_o]- Koronba</property>
  <property name="meta.attr.date.markup">20181103</property>
  <property name="meta.attr.description.markup">idk donde saque esto pero there u go
i hope u enjoy</property>
  <property name="meta.attr.synopsis.markup">idk donde saque esto pero there u go
i hope u enjoy</property>
  <property name="meta.attr.purl.markup">https://www.youtube.com/watch?v=HuKu92_dnNM</property>
  <property name="meta.attr.comment.markup">https://www.youtube.com/watch?v=HuKu92_dnNM</property>
  <property name="meta.attr.encoder.markup">Lavf60.3.100</property>
  <property name="seekable">1</property>
  <property name="meta.media.sample_aspect_num">1</property>
  <property name="meta.media.sample_aspect_den">1</property>
  <property name="audio_index">0</property>
  <property name="video_index">1</property>
  <property name="meta.media.frame_rate_num">90000</property>
  <property name="meta.media.frame_rate_den">1</property>
  <property name="meta.media.colorspace">601</property>
  <property name="meta.media.color_trc">2</property>
  <property name="meta.media.has_b_frames">0</property>
  <property name="meta.media.width">1024</property>
  <property name="meta.media.height">576</property>
  <property name="meta.media.color_range">full</property>
  <property name="kdenlive:clipname"/>
  <property name="meta.media.top_field_first">0</property>
  <property name="meta.media.progressive">1</property>
  <property name="kdenlive:clip_type">0</property>
  <property name="kdenlive:folderid">-1</property>
  <property name="kdenlive:id">65</property>
  <property name="mute_on_pause">0</property>
  <property name="kdenlive:file_size">4145720</property>
  <property name="kdenlive:file_hash">120eb88de7491bb75955961c4a59a7ca</property>
  <property name="kdenlive:audio_max0">216</property>
 </chain>
 <chain id="chain8" out="00:01:00.117">
  <property name="length">3608</property>
  <property name="eof">pause</property>
  <property name="resource">/home/archer/Downloads/videosource/shujav2/shujavoicept2.m4a</property>
  <property name="mlt_service">avformat</property>
  <property name="meta.media.nb_streams">1</property>
  <property name="meta.media.0.stream.type">audio</property>
  <property name="meta.media.0.codec.sample_fmt">fltp</property>
  <property name="meta.media.0.codec.sample_rate">48000</property>
  <property name="meta.media.0.codec.channels">2</property>
  <property name="meta.media.0.codec.name">aac</property>
  <property name="meta.media.0.codec.long_name">AAC (Advanced Audio Coding)</property>
  <property name="meta.media.0.codec.bit_rate">256040</property>
  <property name="meta.attr.0.stream.creation_time.markup">2023-05-13T16:18:35.000000Z</property>
  <property name="meta.attr.0.stream.language.markup">eng</property>
  <property name="meta.attr.0.stream.handler_name.markup">SoundHandle</property>
  <property name="meta.attr.0.stream.vendor_id.markup">[0][0][0][0]</property>
  <property name="meta.attr.major_brand.markup">3gp4</property>
  <property name="meta.attr.minor_version.markup">0</property>
  <property name="meta.attr.compatible_brands.markup">isom3gp4</property>
  <property name="meta.attr.creation_time.markup">2023-05-13T16:18:35.000000Z</property>
  <property name="meta.attr.com.android.version.markup">10</property>
  <property name="seekable">1</property>
  <property name="audio_index">0</property>
  <property name="video_index">-1</property>
  <property name="kdenlive:clipname"/>
  <property name="kdenlive:clip_type">1</property>
  <property name="kdenlive:folderid">-1</property>
  <property name="kdenlive:id">66</property>
  <property name="kdenlive:file_size">1974490</property>
  <property name="kdenlive:file_hash">b1cd9ca5e69a4889622752743ea00528</property>
  <property name="kdenlive:audio_max0">180</property>
 </chain>
 <chain id="chain9" out="00:00:28.750">
  <property name="length">1726</property>
  <property name="eof">pause</property>
  <property name="resource">/home/archer/.var/app/org.kde.kdenlive/cache/kdenlive/proxy/ccb7b5b43303722d791b609c6e3095cb.mov</property>
  <property name="mlt_service">avformat</property>
  <property name="meta.media.nb_streams">2</property>
  <property name="meta.media.0.stream.type">video</property>
  <property name="meta.media.0.stream.frame_rate">20</property>
  <property name="meta.media.0.stream.sample_aspect_ratio">1</property>
  <property name="meta.media.0.codec.width">640</property>
  <property name="meta.media.0.codec.height">360</property>
  <property name="meta.media.0.codec.rotate">0</property>
  <property name="meta.media.0.codec.pix_fmt">yuv420p</property>
  <property name="meta.media.0.codec.sample_aspect_ratio">1</property>
  <property name="meta.media.0.codec.colorspace">709</property>
  <property name="meta.media.0.codec.color_trc">1</property>
  <property name="meta.media.0.codec.name">h264</property>
  <property name="meta.media.0.codec.long_name">H.264 / AVC / MPEG-4 AVC / MPEG-4 part 10</property>
  <property name="meta.media.0.codec.bit_rate">3553103</property>
  <property name="meta.attr.0.stream.handler_name.markup">ISO Media file produced by Google Inc.</property>
  <property name="meta.attr.0.stream.vendor_id.markup">FFMP</property>
  <property name="meta.attr.0.stream.encoder.markup">Lavc60.3.100 h264_vaapi</property>
  <property name="meta.media.1.stream.type">audio</property>
  <property name="meta.media.1.codec.sample_fmt">fltp</property>
  <property name="meta.media.1.codec.sample_rate">44100</property>
  <property name="meta.media.1.codec.channels">2</property>
  <property name="meta.media.1.codec.name">ac3</property>
  <property name="meta.media.1.codec.long_name">ATSC A/52A (AC-3)</property>
  <property name="meta.media.1.codec.bit_rate">128000</property>
  <property name="meta.attr.1.stream.handler_name.markup">ISO Media file produced by Google Inc.</property>
  <property name="meta.attr.1.stream.vendor_id.markup">[0][0][0][0]</property>
  <property name="meta.attr.major_brand.markup">qt  </property>
  <property name="meta.attr.minor_version.markup">512</property>
  <property name="meta.attr.compatible_brands.markup">qt  </property>
  <property name="meta.attr.artist.markup">K Tsui and Cinnamon❤️</property>
  <property name="meta.attr.title.markup">RUDE delivery man throws package</property>
  <property name="meta.attr.date.markup">20210107</property>
  <property name="meta.attr.encoder.markup">Lavf60.3.100</property>
  <property name="meta.attr.comment.markup">https://www.youtube.com/watch?v=B_vtKyshZMk</property>
  <property name="seekable">1</property>
  <property name="meta.media.sample_aspect_num">1</property>
  <property name="meta.media.sample_aspect_den">1</property>
  <property name="audio_index">1</property>
  <property name="video_index">0</property>
  <property name="meta.media.frame_rate_num">20</property>
  <property name="meta.media.frame_rate_den">1</property>
  <property name="meta.media.colorspace">709</property>
  <property name="meta.media.color_trc">1</property>
  <property name="meta.media.has_b_frames">0</property>
  <property name="meta.media.width">640</property>
  <property name="meta.media.height">360</property>
  <property name="meta.media.color_range">mpeg</property>
  <property name="kdenlive:clipname">RUDE delivery man throws package.mp4</property>
  <property name="kdenlive:clip_type">0</property>
  <property name="kdenlive:folderid">-1</property>
  <property name="kdenlive:id">82</property>
  <property name="mute_on_pause">0</property>
  <property name="kdenlive:file_size">3868988</property>
  <property name="kdenlive:file_hash">ccb7b5b43303722d791b609c6e3095cb</property>
  <property name="kdenlive:proxy">/home/archer/.var/app/org.kde.kdenlive/cache/kdenlive/proxy/ccb7b5b43303722d791b609c6e3095cb.mov</property>
  <property name="kdenlive:originalurl">/home/archer/Downloads/VideoDownloader/RUDE delivery man throws package.mp4</property>
  <property name="kdenlive:original.mlt_type">chain</property>
  <property name="kdenlive:original.in">0</property>
  <property name="kdenlive:original.out">1725</property>
  <property name="kdenlive:original.length">1726</property>
  <property name="kdenlive:original.eof">pause</property>
  <property name="kdenlive:original.resource">/home/archer/Downloads/VideoDownloader/RUDE delivery man throws package.mp4</property>
  <property name="kdenlive:original.mlt_service">avformat-novalidate</property>
  <property name="kdenlive:original.meta.media.nb_streams">2</property>
  <property name="kdenlive:original.meta.media.0.stream.type">video</property>
  <property name="kdenlive:original.meta.media.0.stream.frame_rate">20</property>
  <property name="kdenlive:original.meta.media.0.stream.sample_aspect_ratio">1</property>
  <property name="kdenlive:original.meta.media.0.codec.width">1920</property>
  <property name="kdenlive:original.meta.media.0.codec.height">1080</property>
  <property name="kdenlive:original.meta.media.0.codec.rotate">0</property>
  <property name="kdenlive:original.meta.media.0.codec.pix_fmt">yuv420p</property>
  <property name="kdenlive:original.meta.media.0.codec.sample_aspect_ratio">1</property>
  <property name="kdenlive:original.meta.media.0.codec.colorspace">709</property>
  <property name="kdenlive:original.meta.media.0.codec.color_trc">1</property>
  <property name="kdenlive:original.meta.media.0.codec.name">h264</property>
  <property name="kdenlive:original.meta.media.0.codec.long_name">H.264 / AVC / MPEG-4 AVC / MPEG-4 part 10</property>
  <property name="kdenlive:original.meta.media.0.codec.bit_rate">945129</property>
  <property name="kdenlive:original.meta.attr.0.stream.handler_name.markup">ISO Media file produced by Google Inc.</property>
  <property name="kdenlive:original.meta.attr.0.stream.vendor_id.markup">[0][0][0][0]</property>
  <property name="kdenlive:original.meta.media.1.stream.type">audio</property>
  <property name="kdenlive:original.meta.media.1.codec.sample_fmt">fltp</property>
  <property name="kdenlive:original.meta.media.1.codec.sample_rate">44100</property>
  <property name="kdenlive:original.meta.media.1.codec.channels">2</property>
  <property name="kdenlive:original.meta.media.1.codec.name">aac</property>
  <property name="kdenlive:original.meta.media.1.codec.long_name">AAC (Advanced Audio Coding)</property>
  <property name="kdenlive:original.meta.media.1.codec.bit_rate">127999</property>
  <property name="kdenlive:original.meta.attr.1.stream.handler_name.markup">ISO Media file produced by Google Inc.</property>
  <property name="kdenlive:original.meta.attr.1.stream.vendor_id.markup">[0][0][0][0]</property>
  <property name="kdenlive:original.meta.attr.major_brand.markup">isom</property>
  <property name="kdenlive:original.meta.attr.minor_version.markup">512</property>
  <property name="kdenlive:original.meta.attr.compatible_brands.markup">isomiso2avc1mp41</property>
  <property name="kdenlive:original.meta.attr.title.markup">RUDE delivery man throws package</property>
  <property name="kdenlive:original.meta.attr.artist.markup">K Tsui and Cinnamon❤️</property>
  <property name="kdenlive:original.meta.attr.date.markup">20210107</property>
  <property name="kdenlive:original.meta.attr.encoder.markup">Lavf60.3.100</property>
  <property name="kdenlive:original.meta.attr.comment.markup">https://www.youtube.com/watch?v=B_vtKyshZMk</property>
  <property name="kdenlive:original.seekable">1</property>
  <property name="kdenlive:original.width">1920</property>
  <property name="kdenlive:original.height">1080</property>
  <property name="kdenlive:original.meta.media.sample_aspect_num">1</property>
  <property name="kdenlive:original.meta.media.sample_aspect_den">1</property>
  <property name="kdenlive:original.audio_index">1</property>
  <property name="kdenlive:original.video_index">0</property>
  <property name="kdenlive:original.meta.media.frame_rate_num">20</property>
  <property name="kdenlive:original.meta.media.frame_rate_den">1</property>
  <property name="kdenlive:original.meta.media.colorspace">709</property>
  <property name="kdenlive:original.meta.media.color_trc">1</property>
  <property name="kdenlive:original.meta.media.has_b_frames">1</property>
  <property name="kdenlive:original.meta.media.width">1920</property>
  <property name="kdenlive:original.meta.media.height">1080</property>
  <property name="kdenlive:original.meta.media.color_range">mpeg</property>
  <property name="kdenlive:original.meta.media.top_field_first">0</property>
  <property name="kdenlive:original.meta.media.progressive">1</property>
  <property name="kdenlive:original.kdenlive:clip_type">0</property>
  <property name="kdenlive:original.kdenlive:folderid">-1</property>
  <property name="kdenlive:original.kdenlive:id">82</property>
  <property name="kdenlive:original.mute_on_pause">0</property>
  <property name="kdenlive:original.kdenlive:file_size">3868988</property>
  <property name="kdenlive:original.kdenlive:file_hash">ccb7b5b43303722d791b609c6e3095cb</property>
  <property name="kdenlive:original.backup">1</property>
  <property name="kdenlive:audio_max1">245</property>
  <property name="meta.media.top_field_first">0</property>
  <property name="meta.media.progressive">1</property>
 </chain>
 <chain id="chain10" out="00:01:25.033">
  <property name="length">5103</property>
  <property name="eof">pause</property>
  <property name="resource">/home/archer/Downloads/VideoDownloader/@lilthroatx - Dick In My Mouth (Instrumental Remake).mp3</property>
  <property name="mlt_service">avformat-novalidate</property>
  <property name="meta.media.nb_streams">2</property>
  <property name="meta.media.0.stream.type">audio</property>
  <property name="meta.media.0.codec.sample_fmt">fltp</property>
  <property name="meta.media.0.codec.sample_rate">48000</property>
  <property name="meta.media.0.codec.channels">2</property>
  <property name="meta.media.0.codec.name">mp3float</property>
  <property name="meta.media.0.codec.long_name">MP3 (MPEG audio layer 3)</property>
  <property name="meta.media.0.codec.bit_rate">192000</property>
  <property name="meta.attr.0.stream.encoder.markup">Lavc60.3.</property>
  <property name="meta.media.1.stream.type">video</property>
  <property name="meta.media.1.stream.frame_rate">90000</property>
  <property name="meta.media.1.stream.sample_aspect_ratio">0</property>
  <property name="meta.media.1.codec.width">1024</property>
  <property name="meta.media.1.codec.height">576</property>
  <property name="meta.media.1.codec.rotate">0</property>
  <property name="meta.media.1.codec.pix_fmt">yuvj420p</property>
  <property name="meta.media.1.codec.sample_aspect_ratio">0</property>
  <property name="meta.media.1.codec.colorspace">601</property>
  <property name="meta.media.1.codec.name">mjpeg</property>
  <property name="meta.media.1.codec.long_name">MJPEG (Motion JPEG)</property>
  <property name="meta.media.1.codec.bit_rate">0</property>
  <property name="meta.attr.1.stream.title.markup">"Album cover"</property>
  <property name="meta.attr.1.stream.comment.markup">Cover (front)</property>
  <property name="meta.attr.artist.markup">dn</property>
  <property name="meta.attr.title.markup">@lilthroatx - Dick In My Mouth (Instrumental Remake)</property>
  <property name="meta.attr.date.markup">20220131</property>
  <property name="meta.attr.description.markup">I really wasted my time on remaking this. &#xd;
beat goes hard though pause</property>
  <property name="meta.attr.synopsis.markup">I really wasted my time on remaking this. &#xd;
beat goes hard though pause</property>
  <property name="meta.attr.purl.markup">https://www.youtube.com/watch?v=TROHR-5qhyA</property>
  <property name="meta.attr.comment.markup">https://www.youtube.com/watch?v=TROHR-5qhyA</property>
  <property name="meta.attr.encoder.markup">Lavf60.3.100</property>
  <property name="seekable">1</property>
  <property name="meta.media.sample_aspect_num">1</property>
  <property name="meta.media.sample_aspect_den">1</property>
  <property name="audio_index">0</property>
  <property name="video_index">1</property>
  <property name="meta.media.frame_rate_num">90000</property>
  <property name="meta.media.frame_rate_den">1</property>
  <property name="meta.media.colorspace">601</property>
  <property name="meta.media.color_trc">2</property>
  <property name="meta.media.has_b_frames">0</property>
  <property name="meta.media.width">1024</property>
  <property name="meta.media.height">576</property>
  <property name="meta.media.color_range">full</property>
  <property name="kdenlive:clipname"/>
  <property name="meta.media.top_field_first">0</property>
  <property name="meta.media.progressive">1</property>
  <property name="kdenlive:clip_type">0</property>
  <property name="kdenlive:folderid">-1</property>
  <property name="kdenlive:id">100</property>
  <property name="mute_on_pause">0</property>
  <property name="kdenlive:file_size">2061139</property>
  <property name="kdenlive:file_hash">b6484faf26e3b1f4e54a5038192bc787</property>
  <property name="kdenlive:audio_max0">256</property>
 </chain>
 <chain id="chain11" out="00:00:10.533">
  <property name="length">633</property>
  <property name="eof">pause</property>
  <property name="resource">/home/archer/.var/app/org.kde.kdenlive/cache/kdenlive/proxy/c5a6aad68f5a2782fd120a23bf187230.mov</property>
  <property name="mlt_service">avformat</property>
  <property name="meta.media.nb_streams">2</property>
  <property name="meta.media.0.stream.type">video</property>
  <property name="meta.media.0.stream.frame_rate">60</property>
  <property name="meta.media.0.stream.sample_aspect_ratio">0.999023</property>
  <property name="meta.media.0.codec.width">640</property>
  <property name="meta.media.0.codec.height">360</property>
  <property name="meta.media.0.codec.rotate">0</property>
  <property name="meta.media.0.codec.pix_fmt">yuv420p</property>
  <property name="meta.media.0.codec.sample_aspect_ratio">0.999023</property>
  <property name="meta.media.0.codec.colorspace">709</property>
  <property name="meta.media.0.codec.color_trc">1</property>
  <property name="meta.media.0.codec.name">h264</property>
  <property name="meta.media.0.codec.long_name">H.264 / AVC / MPEG-4 AVC / MPEG-4 part 10</property>
  <property name="meta.media.0.codec.bit_rate">9064357</property>
  <property name="meta.attr.0.stream.handler_name.markup">VideoHandler</property>
  <property name="meta.attr.0.stream.vendor_id.markup">FFMP</property>
  <property name="meta.attr.0.stream.encoder.markup">Lavc60.3.100 h264_vaapi</property>
  <property name="meta.media.1.stream.type">audio</property>
  <property name="meta.media.1.codec.sample_fmt">fltp</property>
  <property name="meta.media.1.codec.sample_rate">48000</property>
  <property name="meta.media.1.codec.channels">2</property>
  <property name="meta.media.1.codec.name">ac3</property>
  <property name="meta.media.1.codec.long_name">ATSC A/52A (AC-3)</property>
  <property name="meta.media.1.codec.bit_rate">128000</property>
  <property name="meta.attr.1.stream.handler_name.markup">SoundHandler</property>
  <property name="meta.attr.1.stream.vendor_id.markup">[0][0][0][0]</property>
  <property name="meta.attr.major_brand.markup">qt  </property>
  <property name="meta.attr.minor_version.markup">512</property>
  <property name="meta.attr.compatible_brands.markup">qt  </property>
  <property name="meta.attr.encoder.markup">Lavf60.3.100</property>
  <property name="seekable">1</property>
  <property name="meta.media.sample_aspect_num">1023</property>
  <property name="meta.media.sample_aspect_den">1024</property>
  <property name="audio_index">1</property>
  <property name="video_index">0</property>
  <property name="meta.media.frame_rate_num">60</property>
  <property name="meta.media.frame_rate_den">1</property>
  <property name="meta.media.colorspace">709</property>
  <property name="meta.media.color_trc">1</property>
  <property name="meta.media.has_b_frames">0</property>
  <property name="meta.media.width">640</property>
  <property name="meta.media.height">360</property>
  <property name="meta.media.color_range">mpeg</property>
  <property name="kdenlive:clipname">2023-05-13 19-41-55.mp4</property>
  <property name="kdenlive:clip_type">0</property>
  <property name="kdenlive:folderid">-1</property>
  <property name="kdenlive:id">102</property>
  <property name="mute_on_pause">0</property>
  <property name="kdenlive:file_size">2587361</property>
  <property name="kdenlive:file_hash">c5a6aad68f5a2782fd120a23bf187230</property>
  <property name="kdenlive:proxy">/home/archer/.var/app/org.kde.kdenlive/cache/kdenlive/proxy/c5a6aad68f5a2782fd120a23bf187230.mov</property>
  <property name="kdenlive:originalurl">/home/archer/2023-05-13 19-41-55.mp4</property>
  <property name="kdenlive:original.mlt_type">chain</property>
  <property name="kdenlive:original.in">0</property>
  <property name="kdenlive:original.out">632</property>
  <property name="kdenlive:original.length">633</property>
  <property name="kdenlive:original.eof">pause</property>
  <property name="kdenlive:original.resource">/home/archer/2023-05-13 19-41-55.mp4</property>
  <property name="kdenlive:original.mlt_service">avformat-novalidate</property>
  <property name="kdenlive:original.meta.media.nb_streams">2</property>
  <property name="kdenlive:original.meta.media.0.stream.type">video</property>
  <property name="kdenlive:original.meta.media.0.stream.frame_rate">60</property>
  <property name="kdenlive:original.meta.media.0.stream.sample_aspect_ratio">0</property>
  <property name="kdenlive:original.meta.media.0.codec.width">1364</property>
  <property name="kdenlive:original.meta.media.0.codec.height">768</property>
  <property name="kdenlive:original.meta.media.0.codec.rotate">0</property>
  <property name="kdenlive:original.meta.media.0.codec.pix_fmt">yuv420p</property>
  <property name="kdenlive:original.meta.media.0.codec.sample_aspect_ratio">1</property>
  <property name="kdenlive:original.meta.media.0.codec.colorspace">709</property>
  <property name="kdenlive:original.meta.media.0.codec.color_trc">1</property>
  <property name="kdenlive:original.meta.media.0.codec.name">h264</property>
  <property name="kdenlive:original.meta.media.0.codec.long_name">H.264 / AVC / MPEG-4 AVC / MPEG-4 part 10</property>
  <property name="kdenlive:original.meta.media.0.codec.bit_rate">1761652</property>
  <property name="kdenlive:original.meta.attr.0.stream.handler_name.markup">VideoHandler</property>
  <property name="kdenlive:original.meta.attr.0.stream.vendor_id.markup">[0][0][0][0]</property>
  <property name="kdenlive:original.meta.media.1.stream.type">audio</property>
  <property name="kdenlive:original.meta.media.1.codec.sample_fmt">fltp</property>
  <property name="kdenlive:original.meta.media.1.codec.sample_rate">48000</property>
  <property name="kdenlive:original.meta.media.1.codec.channels">2</property>
  <property name="kdenlive:original.meta.media.1.codec.name">aac</property>
  <property name="kdenlive:original.meta.media.1.codec.long_name">AAC (Advanced Audio Coding)</property>
  <property name="kdenlive:original.meta.media.1.codec.bit_rate">192000</property>
  <property name="kdenlive:original.meta.attr.1.stream.handler_name.markup">SoundHandler</property>
  <property name="kdenlive:original.meta.attr.1.stream.vendor_id.markup">[0][0][0][0]</property>
  <property name="kdenlive:original.meta.attr.major_brand.markup">isom</property>
  <property name="kdenlive:original.meta.attr.minor_version.markup">512</property>
  <property name="kdenlive:original.meta.attr.compatible_brands.markup">isomiso2avc1mp41</property>
  <property name="kdenlive:original.meta.attr.encoder.markup">Lavf60.3.100</property>
  <property name="kdenlive:original.seekable">1</property>
  <property name="kdenlive:original.width">1364</property>
  <property name="kdenlive:original.height">768</property>
  <property name="kdenlive:original.meta.media.sample_aspect_num">1</property>
  <property name="kdenlive:original.meta.media.sample_aspect_den">1</property>
  <property name="kdenlive:original.audio_index">1</property>
  <property name="kdenlive:original.video_index">0</property>
  <property name="kdenlive:original.meta.media.frame_rate_num">60</property>
  <property name="kdenlive:original.meta.media.frame_rate_den">1</property>
  <property name="kdenlive:original.meta.media.colorspace">709</property>
  <property name="kdenlive:original.meta.media.color_trc">1</property>
  <property name="kdenlive:original.meta.media.has_b_frames">0</property>
  <property name="kdenlive:original.meta.media.width">1364</property>
  <property name="kdenlive:original.meta.media.height">768</property>
  <property name="kdenlive:original.meta.media.color_range">mpeg</property>
  <property name="kdenlive:original.meta.media.top_field_first">0</property>
  <property name="kdenlive:original.meta.media.progressive">1</property>
  <property name="kdenlive:original.kdenlive:clip_type">0</property>
  <property name="kdenlive:original.kdenlive:folderid">-1</property>
  <property name="kdenlive:original.kdenlive:id">102</property>
  <property name="kdenlive:original.mute_on_pause">0</property>
  <property name="kdenlive:original.kdenlive:file_size">2587361</property>
  <property name="kdenlive:original.kdenlive:file_hash">c5a6aad68f5a2782fd120a23bf187230</property>
  <property name="kdenlive:original.backup">1</property>
  <property name="kdenlive:audio_max1">1</property>
  <property name="meta.media.top_field_first">0</property>
  <property name="meta.media.progressive">1</property>
 </chain>
 <producer id="producer100" in="00:00:00.000" out="00:00:04.983">
  <property name="length">00:00:05.000</property>
  <property name="eof">pause</property>
  <property name="resource">/home/archer/Downloads/videosource/shujav2/tellshujahecan.png</property>
  <property name="ttl">25</property>
  <property name="aspect_ratio">1</property>
  <property name="progressive">1</property>
  <property name="seekable">1</property>
  <property name="format">2</property>
  <property name="meta.media.width">311</property>
  <property name="meta.media.height">75</property>
  <property name="mlt_service">qimage</property>
  <property name="kdenlive:clipname"/>
  <property name="kdenlive:duration">00:00:05:00</property>
  <property name="kdenlive:folderid">3</property>
  <property name="kdenlive:id">105</property>
  <property name="kdenlive:clip_type">2</property>
  <property name="kdenlive:file_size">13787</property>
  <property name="kdenlive:file_hash">231f3e36a0d24e9a0d6b1f7f9566c9d1</property>
 </producer>
 <playlist id="main_bin">
  <property name="kdenlive:folder.-1.3">shujav2</property>
  <property name="kdenlive:folder.-1.8">text</property>
  <property name="kdenlive:folder.8.15">openingnames</property>
  <property name="kdenlive:folder.8.34">haxberrywasjustlike</property>
  <property name="kdenlive:folder.8.44">despratehelp</property>
  <property name="kdenlive:folder.-1.55">Sequences</property>
  <property name="kdenlive:sequenceFolder">55</property>
  <property name="kdenlive:docproperties.audioChannels">2</property>
  <property name="kdenlive:docproperties.browserurl">/home/archer/Downloads/VideoDownloader/</property>
  <property name="kdenlive:docproperties.compositing">1</property>
  <property name="kdenlive:docproperties.documentid">1678819095763</property>
  <property name="kdenlive:docproperties.enableTimelineZone">0</property>
  <property name="kdenlive:docproperties.enableexternalproxy">0</property>
  <property name="kdenlive:docproperties.enableproxy">1</property>
  <property name="kdenlive:docproperties.externalproxyparams">./;;.LRV;./;;.MP4</property>
  <property name="kdenlive:docproperties.generateimageproxy">1</property>
  <property name="kdenlive:docproperties.generateproxy">1</property>
  <property name="kdenlive:docproperties.guidesCategories">[
    {
        "color": "#9b59b6",
        "comment": "Category 1",
        "index": 0
    },
    {
        "color": "#3daee9",
        "comment": "Category 2",
        "index": 1
    },
    {
        "color": "#1abc9c",
        "comment": "Category 3",
        "index": 2
    },
    {
        "color": "#1cdc9a",
        "comment": "Category 4",
        "index": 3
    },
    {
        "color": "#c9ce3b",
        "comment": "Category 5",
        "index": 4
    },
    {
        "color": "#fdbc4b",
        "comment": "Category 6",
        "index": 5
    },
    {
        "color": "#f39c1f",
        "comment": "Category 7",
        "index": 6
    },
    {
        "color": "#f47750",
        "comment": "Category 8",
        "index": 7
    },
    {
        "color": "#da4453",
        "comment": "Category 9",
        "index": 8
    }
]
</property>
  <property name="kdenlive:docproperties.kdenliveversion">23.04.0</property>
  <property name="kdenlive:docproperties.previewextension">mkv</property>
  <property name="kdenlive:docproperties.previewparameters">vcodec=h264_vaapi g=1 bf=0 profile=578</property>
  <property name="kdenlive:docproperties.profile">atsc_1080p_60</property>
  <property name="kdenlive:docproperties.proxyextension">mov</property>
  <property name="kdenlive:docproperties.proxyimageminsize">1000</property>
  <property name="kdenlive:docproperties.proxyimagesize">800</property>
  <property name="kdenlive:docproperties.proxyminsize">1000</property>
  <property name="kdenlive:docproperties.proxyparams">-hwaccel vaapi -hwaccel_output_format vaapi -i -vf scale_vaapi=w=%width:h=-2:format=nv12,hwupload -codec:v h264_vaapi -g 1 -bf 0 -qp 26 -acodec ac3 -ab 128k</property>
  <property name="kdenlive:docproperties.proxyresize">640</property>
  <property name="kdenlive:docproperties.seekOffset">30000</property>
  <property name="kdenlive:docproperties.uuid">{390766c9-a89a-468d-85ab-8d11b159a43f}</property>
  <property name="kdenlive:docproperties.version">1.1</property>
  <property name="kdenlive:docproperties.verticalzoom">1</property>
  <property name="kdenlive:docproperties.zoom">6</property>
  <property name="kdenlive:expandedFolders"/>
  <property name="kdenlive:binZoom">4</property>
  <property name="kdenlive:documentnotes"/>
  <property name="kdenlive:docproperties.opensequences">{390766c9-a89a-468d-85ab-8d11b159a43f}</property>
  <property name="kdenlive:docproperties.activetimeline">{390766c9-a89a-468d-85ab-8d11b159a43f}</property>
  <property name="kdenlive:folder.8.68">trusthim</property>
  <property name="kdenlive:folder.8.110">credits</property>
  <property name="kdenlive:docproperties.rendercategory">Generic (HD for web, mobile devices...)</property>
  <property name="kdenlive:docproperties.rendercustomquality">-1</property>
  <property name="kdenlive:docproperties.renderendguide">-1</property>
  <property name="kdenlive:docproperties.renderexportaudio">0</property>
  <property name="kdenlive:docproperties.renderfullcolorrange">1</property>
  <property name="kdenlive:docproperties.rendermode">0</property>
  <property name="kdenlive:docproperties.renderplay">0</property>
  <property name="kdenlive:docproperties.renderpreview">0</property>
  <property name="kdenlive:docproperties.renderprofile">MP4-H264/AAC</property>
  <property name="kdenlive:docproperties.renderratio">1</property>
  <property name="kdenlive:docproperties.renderrescale">0</property>
  <property name="kdenlive:docproperties.renderrescaleheight">540</property>
  <property name="kdenlive:docproperties.renderrescalewidth">960</property>
  <property name="kdenlive:docproperties.renderspeed">6</property>
  <property name="kdenlive:docproperties.renderstartguide">-1</property>
  <property name="kdenlive:docproperties.rendertcoverlay">0</property>
  <property name="kdenlive:docproperties.rendertctype">-1</property>
  <property name="kdenlive:docproperties.rendertwopass">0</property>
  <property name="kdenlive:docproperties.renderurl">sunnyv2demo-6000.mp4</property>
  <property name="xml_retain">1</property>
  <entry producer="producer1" in="00:00:00.000" out="00:02:08.000"/>
  <entry producer="producer0" in="00:00:00.000" out="00:00:11.550"/>
  <entry producer="producer2" in="00:00:00.000" out="00:01:51.850"/>
  <entry producer="producer7" in="00:00:00.000" out="00:00:04.983"/>
  <entry producer="producer8" in="00:00:00.000" out="00:00:06.733"/>
  <entry producer="producer10" in="00:00:00.000" out="00:00:04.983"/>
  <entry producer="producer9" in="00:00:00.000" out="00:00:08.333"/>
  <entry producer="producer3" in="00:00:00.000" out="00:00:04.983"/>
  <entry producer="producer6" in="00:00:00.000" out="00:00:04.983"/>
  <entry producer="producer4" in="00:00:00.000" out="00:00:04.983"/>
  <entry producer="producer5" in="00:00:00.000" out="00:00:04.983"/>
  <entry producer="producer11" in="00:00:00.000" out="00:01:57.150"/>
  <entry producer="producer20" in="00:00:00.000" out="00:01:22.767"/>
  <entry producer="producer12" in="00:00:00.000" out="00:00:04.983"/>
  <entry producer="producer13" in="00:00:00.000" out="00:00:04.983"/>
  <entry producer="producer14" in="00:00:00.000" out="00:00:04.983"/>
  <entry producer="producer15" in="00:00:00.000" out="00:00:04.983"/>
  <entry producer="producer16" in="00:00:00.000" out="00:00:04.983"/>
  <entry producer="producer17" in="00:00:00.000" out="00:00:04.983"/>
  <entry producer="producer19" in="00:00:00.000" out="00:00:04.983"/>
  <entry producer="producer18" in="00:00:00.000" out="00:00:04.983"/>
  <entry producer="producer21" in="00:00:00.000" out="00:00:09.983"/>
  <entry producer="producer22" in="00:00:00.000" out="00:00:09.983"/>
  <entry producer="producer23" in="00:00:00.000" out="00:00:07.800"/>
  <entry producer="producer24" in="00:00:00.000" out="00:00:13.700"/>
  <entry producer="producer25" in="00:00:00.000" out="00:00:04.983"/>
  <entry producer="producer26" in="00:00:00.000" out="00:00:04.983"/>
  <entry producer="producer27" in="00:00:00.000" out="00:00:06.000"/>
  <entry producer="producer28" in="00:00:00.000" out="00:00:05.367"/>
  <entry producer="producer29" in="00:00:00.000" out="00:00:05.183"/>
  <entry producer="producer30" in="00:00:00.000" out="00:00:04.983"/>
  <entry producer="producer34" in="00:00:00.000" out="00:00:04.983"/>
  <entry producer="producer32" in="00:00:00.000" out="00:00:04.983"/>
  <entry producer="producer33" in="00:00:00.000" out="00:00:04.983"/>
  <entry producer="producer31" in="00:00:00.000" out="00:00:04.983"/>
  <entry producer="producer35" in="00:00:00.000" out="00:00:10.100"/>
  <entry producer="producer36" in="00:00:00.000" out="00:00:04.983"/>
  <entry producer="producer37" in="00:00:00.000" out="00:00:04.983"/>
  <entry producer="producer38" in="00:00:00.000" out="00:00:04.983"/>
  <entry producer="producer39" in="00:00:00.000" out="00:00:04.983"/>
  <entry producer="producer40" in="00:00:00.000" out="00:00:04.983"/>
  <entry producer="producer41" in="00:00:00.000" out="00:00:04.983"/>
  <entry producer="producer42" in="00:00:00.000" out="00:00:04.983"/>
  <entry producer="producer43" in="00:00:00.000" out="00:00:04.983"/>
  <entry producer="producer44" in="00:00:00.000" out="00:00:04.983"/>
  <entry producer="producer45" in="00:00:00.000" out="00:00:04.983"/>
  <entry producer="producer46" in="00:00:00.000" out="00:00:04.983"/>
  <entry producer="producer47" in="00:00:00.000" out="00:02:35.700"/>
  <entry producer="{390766c9-a89a-468d-85ab-8d11b159a43f}" in="00:00:00.000" out="00:01:51.867"/>
  <entry producer="producer74" in="00:00:00.000" out="00:00:04.983"/>
  <entry producer="producer80" in="00:00:00.000" out="00:00:04.983"/>
  <entry producer="producer87" in="00:00:00.000" out="00:00:04.983"/>
  <entry producer="producer81" in="00:00:00.000" out="00:00:04.983"/>
  <entry producer="producer88" in="00:00:00.000" out="00:00:04.983"/>
  <entry producer="producer99" in="00:00:00.000" out="00:00:04.983"/>
  <entry producer="producer94" in="00:00:00.000" out="00:00:04.983"/>
  <entry producer="chain6" in="00:00:00.000" out="00:03:41.683"/>
  <entry producer="chain7" in="00:00:00.000" out="00:02:50.833"/>
  <entry producer="chain8" in="00:00:00.000" out="00:01:00.117"/>
  <entry producer="producer52" in="00:00:00.000" out="00:00:04.983"/>
  <entry producer="producer55" in="00:00:00.000" out="00:00:04.983"/>
  <entry producer="producer60" in="00:00:00.000" out="00:00:04.983"/>
  <entry producer="producer64" in="00:00:00.000" out="00:00:04.983"/>
  <entry producer="producer69" in="00:00:00.000" out="00:00:04.983"/>
  <entry producer="producer75" in="00:00:00.000" out="00:00:04.983"/>
  <entry producer="producer82" in="00:00:00.000" out="00:00:04.983"/>
  <entry producer="producer89" in="00:00:00.000" out="00:00:04.983"/>
  <entry producer="producer56" in="00:00:00.000" out="00:00:04.983"/>
  <entry producer="producer61" in="00:00:00.000" out="00:00:04.983"/>
  <entry producer="producer65" in="00:00:00.000" out="00:00:04.983"/>
  <entry producer="producer83" in="00:00:00.000" out="00:00:04.983"/>
  <entry producer="producer76" in="00:00:00.000" out="00:00:04.983"/>
  <entry producer="producer70" in="00:00:00.000" out="00:00:04.983"/>
  <entry producer="chain9" in="00:00:00.000" out="00:00:28.750"/>
  <entry producer="producer57" in="00:00:00.000" out="00:00:04.983"/>
  <entry producer="producer66" in="00:00:00.000" out="00:00:04.983"/>
  <entry producer="producer62" in="00:00:00.000" out="00:00:04.983"/>
  <entry producer="producer71" in="00:00:00.000" out="00:00:04.983"/>
  <entry producer="producer77" in="00:00:00.000" out="00:00:04.983"/>
  <entry producer="producer84" in="00:00:00.000" out="00:00:04.983"/>
  <entry producer="producer90" in="00:00:00.000" out="00:00:04.983"/>
  <entry producer="producer53" in="00:00:00.000" out="00:00:04.983"/>
  <entry producer="producer58" in="00:00:00.000" out="00:00:04.983"/>
  <entry producer="producer72" in="00:00:00.000" out="00:00:08.917"/>
  <entry producer="producer91" in="00:00:00.000" out="00:00:04.983"/>
  <entry producer="producer85" in="00:00:00.000" out="00:00:07.183"/>
  <entry producer="producer63" in="00:00:00.000" out="00:00:07.600"/>
  <entry producer="producer78" in="00:00:00.000" out="00:00:07.900"/>
  <entry producer="producer67" in="00:00:00.000" out="00:00:11.183"/>
  <entry producer="producer95" in="00:00:00.000" out="00:00:04.983"/>
  <entry producer="producer92" in="00:00:00.000" out="00:00:04.983"/>
  <entry producer="chain10" in="00:00:00.000" out="00:01:25.033"/>
  <entry producer="producer59" in="00:00:00.000" out="00:00:04.983"/>
  <entry producer="chain11" in="00:00:00.000" out="00:00:10.533"/>
  <entry producer="producer68" in="00:00:00.000" out="00:00:04.983"/>
  <entry producer="producer73" in="00:00:00.000" out="00:00:04.983"/>
  <entry producer="producer100" in="00:00:00.000" out="00:00:04.983"/>
  <entry producer="producer96" in="00:00:00.000" out="00:00:04.983"/>
  <entry producer="producer79" in="00:00:00.000" out="00:00:04.983"/>
  <entry producer="producer86" in="00:00:00.000" out="00:00:04.983"/>
  <entry producer="producer93" in="00:00:00.000" out="00:00:04.983"/>
  <entry producer="producer54" in="00:00:00.000" out="00:00:04.983"/>
 </playlist>
 <tractor id="tractor19" in="00:00:00.000" out="00:01:55.217">
  <property name="kdenlive:projectTractor">1</property>
  <track producer="{390766c9-a89a-468d-85ab-8d11b159a43f}" in="00:00:00.000" out="00:01:55.217"/>
 </tractor>
</mlt>
